<svg id="Calque_1" data-name="Calque 1" xmlns="http://www.w3.org/2000/svg" xmlns:xlink="http://www.w3.org/1999/xlink" viewBox="0 0 169.38 78.59"><defs><style>.cls-1{opacity:0.5;}.cls-2{fill:url(#Dégradé_sans_nom);}.cls-3{fill:url(#Dégradé_sans_nom_2);}.cls-4{fill:#fff;}.cls-5{fill:none;stroke:#9c9b9b;stroke-linecap:round;stroke-miterlimit:10;}.cls-5,.cls-6{opacity:0.9;isolation:isolate;}.cls-6{fill:#9c9b9b;}.cls-7{fill:#00aa95;}.cls-8{fill:#00b0ea;}</style><linearGradient id="Dégradé_sans_nom" x1="39.47" y1="33.09" x2="39.47" y2="20.41" gradientTransform="matrix(1, 0, 0, -1, 0, 99)" gradientUnits="userSpaceOnUse"><stop offset="0" stop-color="#fff"/><stop offset="0.14" stop-color="#fbfdfe"/><stop offset="0.28" stop-color="#eef8fc"/><stop offset="0.42" stop-color="#daeff9"/><stop offset="0.56" stop-color="#bde2f5"/><stop offset="0.71" stop-color="#97d2ef"/><stop offset="0.86" stop-color="#6abfe8"/><stop offset="1" stop-color="#35a8e0"/></linearGradient><linearGradient id="Dégradé_sans_nom_2" x1="39.47" y1="26.71" x2="39.47" y2="98.98" gradientTransform="matrix(1, 0, 0, -1, 0, 99)" gradientUnits="userSpaceOnUse"><stop offset="0" stop-color="#00aa95"/><stop offset="1" stop-color="#00b0ea"/></linearGradient></defs><title>logo_ei</title><g class="cls-1"><ellipse class="cls-2" cx="39.47" cy="72.25" rx="39.47" ry="6.34"/></g><path class="cls-3" d="M65.35,25.9a25.88,25.88,0,1,0-51.76,0c0,14.29,24,46.39,25.88,46.39S65.35,40.19,65.35,25.9Z"/><path class="cls-4" d="M39.47,10.5a15.39,15.39,0,1,0,15.4,15.4,15.39,15.39,0,0,0-15.4-15.4Z"/><line class="cls-5" x1="87.02" y1="30.9" x2="168.88" y2="30.9"/><rect class="cls-6" x="87.02" width="24.69" height="3.98" rx="1.6" ry="1.6"/><rect class="cls-6" x="122.38" y="74.59" width="46.5" height="3.98" rx="1.6" ry="1.6"/><path class="cls-7" d="M116.71,37.22h-2.5a.47.47,0,0,0-.47.47h0v5.57a.29.29,0,0,0,.18.27H114a.29.29,0,0,0,.2-.08L117,40.62a.47.47,0,0,0,.14-.34V37.7a.47.47,0,0,0-.46-.48Zm-19.11,0H87.2a.19.19,0,0,0-.19.19h0V68.56a.19.19,0,0,0,.19.19H97.59a10.89,10.89,0,0,0,7.88-2.88c3.19-3.19,3.06-9.07,3.06-13.33s.13-9.25-3.06-12.44A10.89,10.89,0,0,0,97.6,37.22Zm6.2,27A9.06,9.06,0,0,1,97,66.65H89.59a.19.19,0,0,1-.19-.19h0V39.53a.19.19,0,0,1,.19-.19H97a9.07,9.07,0,0,1,6.78,2.43c2.52,2.58,2.32,7.23,2.32,10.77s.2,9.08-2.32,11.65Z"/><path class="cls-7" d="M143.62,43.65c2.41,0,4.11,1.5,4.67,4.1a2.32,2.32,0,0,0,2.27,1.84h2a2.32,2.32,0,0,0,2.29-2.73,11.11,11.11,0,0,0-11.27-9.64,11.58,11.58,0,0,0-8.25,3.39c-3.13,3.13-3.13,6.22-3.13,12.38s0,9.24,3.13,12.37a11.58,11.58,0,0,0,8.25,3.39,11.13,11.13,0,0,0,11.27-9.64,2.32,2.32,0,0,0-2.29-2.73h-2a2.32,2.32,0,0,0-2.27,1.84c-.56,2.61-2.29,4.1-4.74,4.1a4.71,4.71,0,0,1-3.3-1.32c-1.16-1.15-1.36-2.35-1.36-8s.2-6.82,1.36-8A4.72,4.72,0,0,1,143.62,43.65Z"/><rect class="cls-7" x="122.38" y="37.22" width="4.66" height="31.53" rx="1.19" ry="1.19"/><rect class="cls-7" x="160.13" y="37.22" width="8.75" height="31.53" rx="3.44" ry="3.44"/><path class="cls-8" d="M110.5,9.81h-.94a1.2,1.2,0,0,0-1.2,1.2v6.72l-4.92-7.39a1.2,1.2,0,0,0-1-.54h-.94a1.2,1.2,0,0,0-1.2,1.2V23.37a1.2,1.2,0,0,0,1.2,1.2h.94a1.2,1.2,0,0,0,1.2-1.2V16.62L108.56,24a1.21,1.21,0,0,0,1,.54h.94a1.2,1.2,0,0,0,1.2-1.2V11A1.2,1.2,0,0,0,110.5,9.81Z"/><path class="cls-8" d="M110.5,9.81h-.94a1.2,1.2,0,0,0-1.2,1.2v6.72l-4.92-7.39a1.2,1.2,0,0,0-1-.54h-.94a1.2,1.2,0,0,0-1.2,1.2V23.37a1.2,1.2,0,0,0,1.2,1.2h.94a1.2,1.2,0,0,0,1.2-1.2V16.62L108.56,24a1.21,1.21,0,0,0,1,.54h.94a1.2,1.2,0,0,0,1.2-1.2V11A1.2,1.2,0,0,0,110.5,9.81Z"/><path class="cls-8" d="M123.61,9.81h-8a.8.8,0,0,0-.8.8h0V23.77a.8.8,0,0,0,.8.8h8a.8.8,0,0,0,.8-.8h0v-.89a.8.8,0,0,0-.8-.8h-6.18v-3.7h5.15a.8.8,0,0,0,.8-.8h0V16.7a.8.8,0,0,0-.8-.8h-5.15V12.31h6.18a.8.8,0,0,0,.8-.8h0v-.89a.8.8,0,0,0-.79-.81Z"/><path class="cls-8" d="M138,23.4l-2.72-5.2a4.15,4.15,0,0,0,2.66-4.05,4.22,4.22,0,0,0-4.09-4.34h-5.48a.8.8,0,0,0-.8.8h0V23.77a.8.8,0,0,0,.8.8h1a.8.8,0,0,0,.8-.8h0V18.51h2.33l2.92,5.63a.8.8,0,0,0,.71.43h1.16A.8.8,0,0,0,138,23.4ZM133.23,16h-3.11V12.31h3.08c1.39,0,2.1.62,2.1,1.86S134.62,16,133.23,16Z"/><path class="cls-8" d="M151,16.46h-4.6a.59.59,0,0,0-.59.59v.9a.59.59,0,0,0,.59.59h3v.61a3.3,3.3,0,0,1-.67,2.27,3.13,3.13,0,0,1-4.42.24l0,0c-.78-.77-.86-1.58-.86-4.44s.08-3.67.86-4.45a3,3,0,0,1,5.09,1.68.59.59,0,0,0,.57.46h1a.59.59,0,0,0,.58-.69,5.12,5.12,0,0,0-5.14-4.39,5.27,5.27,0,0,0-3.76,1.54c-1.41,1.41-1.41,2.8-1.41,5.84s0,4.43,1.41,5.84a5.35,5.35,0,0,0,7.57,0l.13-.14a4.93,4.93,0,0,0,1.24-3.62V17A.59.59,0,0,0,151,16.46Z"/><rect class="cls-8" x="154.95" y="9.81" width="1.87" height="14.76" rx="0.41" ry="0.41"/><path class="cls-8" d="M160.32,24.57h8.18a.39.39,0,0,0,.39-.39V24a.39.39,0,0,0-.39-.39h-7.06a.39.39,0,0,1-.39-.39V18a.39.39,0,0,1,.39-.39h5.9a.39.39,0,0,0,.39-.39V17a.39.39,0,0,0-.39-.39h-5.9a.39.39,0,0,1-.39-.39v-5a.39.39,0,0,1,.39-.39h7.06a.39.39,0,0,0,.39-.39V10.2a.39.39,0,0,0-.39-.39h-8.18a.39.39,0,0,0-.39.39v14A.39.39,0,0,0,160.32,24.57Z"/><path class="cls-8" d="M95.63,9.81h-7A1.62,1.62,0,0,0,87,11.43h0V23a1.62,1.62,0,0,0,1.62,1.62h7A1.62,1.62,0,0,0,97.25,23v-.78a1.62,1.62,0,0,0-1.62-1.62H91.12V19.15h3.59a1.62,1.62,0,0,0,1.62-1.62h0v-.78a1.62,1.62,0,0,0-1.62-1.62H91.12v-1.3h4.5a1.62,1.62,0,0,0,1.62-1.62h0v-.78A1.62,1.62,0,0,0,95.63,9.81Z"/></svg>