<?xml version="1.0" encoding="utf-8"?>
<!-- Generator: Adobe Illustrator 22.0.1, SVG Export Plug-In . SVG Version: 6.00 Build 0)  -->
<svg version="1.1" id="Layer_3" xmlns="http://www.w3.org/2000/svg" xmlns:xlink="http://www.w3.org/1999/xlink" x="0px" y="0px"
	 viewBox="0 0 888.3 268.8" style="enable-background:new 0 0 888.3 268.8;" xml:space="preserve">
<style type="text/css">
	.st0{fill:#FFDF00;}
	.st1{fill:#FFFFFF;}
</style>
<g>
	<g>
		<path class="st0" d="M152.9,153.8c8.5-3.6,36.3,4,59.7,18.4c23.4,14.4,33.1,27.1,32.4,29c-0.8,1.8-21-5.8-35.5-12.6
			c-13.9-6.5-32.1-9.2-43.7-4.3c-11.6,4.9-22.4,19.8-27.5,34.3c-5.4,15.1-14,35-15.8,34.2c-1.8-0.8-4.1-16.7,2-43.5
			C130.3,182.6,144.3,157.4,152.9,153.8z"/>
		<path class="st0" d="M0,167.1c-1.1-2.9,32.8-13.7,51.9-17.3c25.2-4.8,66-6.9,69.4-0.5c4.8,8.9-14.2,37.9-28.6,54.2
			c-13.4,15.1-40.2,36.1-41.4,35c-1.2-1.1,13.6-20.9,23.1-35.9c9.5-15.1,13.7-26.1,11.9-31.4c-3.2-9.3-29.3-9.3-47.7-6.8
			C20.1,166.8,0.4,169.1,0,167.1z"/>
		<path class="st0" d="M269.2,53.6c-1.3-2.8-32.7,13.9-48.6,25c-21,14.7-51,42.5-48.9,49.3c3,9.7,37,16.3,58.7,17.3
			c20.1,0.9,53.9-3.6,53.9-5.2c0-1.6-24.4-4.9-41.8-8.6c-17.4-3.7-28.2-8.5-30.7-13.4c-4.4-8.8,13.9-27.5,28.5-38.9
			C254.9,67.7,270.3,55.3,269.2,53.6z"/>
		<path class="st0" d="M71.3,40.6c2.6-2.1,27,24.4,36.9,40.8c9.9,16.4,18.5,34.1,14.4,40.8c-4.1,6.7-35.7,6.7-59.3,4.3
			c-23.6-2.4-57-10.8-56.1-14c0.9-3.1,17-0.8,33.5-0.6c16.5,0.2,45,1.4,51-6.9c6-8.4-4-27.5-8-35.1C79.8,62.2,69.2,42.7,71.3,40.6z"
			/>
		<path class="st0" d="M124.7,16.2c-3.3,0.4-1.5,36.4,3.3,55c4.8,18.6,11.4,37.1,19,38.8c7.6,1.7,29.8-20.9,44.6-39.5
			c14.8-18.6,32.1-48.4,29.3-49.9C218,19,208.4,32.3,197,44.2c-11.4,11.9-30.4,33.3-40.6,31.7c-10.1-1.6-16.9-22-19.5-30.3
			C134.2,37.4,127.7,16.2,124.7,16.2z"/>
	</g>
</g>
<g>
	<path class="st1" d="M436.9,164.3c0,4.7-3,8.7-7.4,10.3c-8.2,2.9-17.8,4.4-27.2,4.4c-10.3,0-18.3-2.5-24-7.4s-8.7-11.8-8.7-20
		c0-8.2,3-14.6,8.7-19.3c5.7-4.9,13.8-7.4,24-7.4h17.3v-5.9c0-7.1-5.2-12.6-14-12.6c-7.9,0-12.3,1-18.2,4.5
		c-1.3,0.8-3.2,1.5-4.7,1.5c-4.5,0-8.2-3.4-8.2-7.6c0-3,1.3-6.1,4.2-7.7c9.1-5.2,17-6.7,29.1-6.7c18.8,0,29.1,13.6,29.1,28.6V164.3z
		 M419.6,140.8h-17.3c-14.6,0-15.5,7.9-15.5,10.8c0,3,0.8,11.4,15.5,11.4c5.7,0,11.9-0.8,17.3-2.2V140.8z"/>
	<path class="st1" d="M553.3,120.8c0-7.9-6.6-14.5-14.5-14.5c-5.2,0-10.3,1.7-14.5,4.4v59.5c0,4.9-3.9,8.7-8.7,8.7
		c-4.7,0-8.6-3.9-8.6-8.7v-51.6c0-9.8-6.4-12.3-13.8-12.3c-6.1,0-9.8,0.8-15.1,2.4v61.5c0,4.9-3.9,8.7-8.6,8.7
		c-4.9,0-8.7-3.9-8.7-8.7v-64.7c0-4.5,2.9-8.6,7.1-10.3c8.7-3.4,17.3-4.9,27.1-4.9c8.1,0,15.1,2.5,20.3,6.9
		c6.9-4.5,15.1-6.9,23.5-6.9c18.2,0,31.8,13.6,31.8,31.8v48.1c0,4.9-3.9,8.7-8.7,8.7c-4.9,0-8.6-3.9-8.6-8.7V120.8z"/>
	<path class="st1" d="M594.5,105c0-4.7,3-8.9,7.4-10.3c8.4-2.7,17.2-4.4,26.2-4.4c9.9,0,18.3,3.2,24.4,9.4
		c6.1,6.1,9.4,14.5,9.4,24.2v21.2c0,9.9-3.2,18.7-9.2,24.7c-6.1,6.2-13.5,9.1-23.4,9.1c-5.5,0-12.3-2-17.5-4.4v40.2
		c0,4.9-3.9,8.7-8.6,8.7c-4.9,0-8.7-3.9-8.7-8.7V105z M644.6,122.6c0-10.3-6.1-16.3-16.5-16.3c-5.5,0-10.9,0.7-16.3,2v48.8
		c4.7,3.9,10.3,5.9,16.3,5.9c10.4,0,16.5-5.9,16.5-16.3V122.6z"/>
	<path class="st1" d="M694.1,77.2c-5.4,0-9.8-4.4-9.8-9.8s4.4-9.8,9.8-9.8c5.4,0,9.8,4.4,9.8,9.8S699.4,77.2,694.1,77.2z
		 M694.1,77.2c-5.4,0-9.8-4.4-9.8-9.8s4.4-9.8,9.8-9.8c5.4,0,9.8,4.4,9.8,9.8S699.4,77.2,694.1,77.2z M685.3,99.1
		c0-4.9,4-8.7,8.7-8.7c4.9,0,8.6,3.9,8.6,8.7v71.1c0,4.9-3.7,8.7-8.6,8.7c-4.7,0-8.7-3.9-8.7-8.7V99.1z"/>
	<path class="st1" d="M728.4,115.4c0-14.3,10.8-25.1,25.1-25.1c4.2,0,8.4,0.5,12.6,1.3c4,0.8,6.9,4.2,6.9,8.2c0,4.5-3.4,8.1-8.2,8.1
		c-1,0-1.5,0-2.9-0.3c-2.7-0.7-5.7-1.3-8.4-1.3c-4.2,0-7.7,3.5-7.7,7.7v56.2c0,4.9-3.9,8.7-8.6,8.7c-4.9,0-8.7-3.9-8.7-8.7V115.4z"
		/>
	<path class="st1" d="M799,77.2c-5.4,0-9.8-4.4-9.8-9.8s4.4-9.8,9.8-9.8c5.4,0,9.8,4.4,9.8,9.8S804.4,77.2,799,77.2z M790.3,99.1
		c0-4.9,4-8.7,8.7-8.7c4.9,0,8.6,3.9,8.6,8.7v71.1c0,4.9-3.7,8.7-8.6,8.7c-4.7,0-8.7-3.9-8.7-8.7V99.1z"/>
	<path class="st1" d="M845.9,138.8c-9.1-3.4-16.1-10.4-16.1-23c0-14.8,12.3-25.4,29.1-25.4c11.4,0,17.3,1.7,22.9,4.2
		c3.4,1.3,5.5,4.4,5.5,7.9c0,4.4-3.5,8.1-8.1,8.1c-1.2,0-2.9-0.3-4-0.8c-4.2-2-11.1-3.4-16.6-3.4c-6.9,0-11.4,3.4-11.4,9.1
		c0,4.4,3.4,7.1,6.9,8.2l16.5,5.4c11.1,3.7,17.8,11.3,17.8,23.5c0,14.8-11.9,26.4-29.9,26.4c-9.9,0-18-1.8-24.2-4.7
		c-3.2-1.5-5.2-4.4-5.2-7.7c0-4.4,3.7-8.4,8.4-8.4c1.2,0,2.7,0.5,3.9,1c4.5,2.4,10.1,3.9,17.5,3.9c8.1,0,12.3-3,12.3-8.7
		c0-6.2-5-8.2-11.3-10.4L845.9,138.8z"/>
	<path class="st1" d="M313.8,54.6c0-4.9,3.9-8.7,8.7-8.7c4.7,0,8.6,3.9,8.6,8.7v100.6c0,4.2,3.5,7.7,7.7,7.7c2.7,0,5.7-0.7,8.4-1.3
		c1.3-0.3,1.8-0.3,2.9-0.3c4.9,0,8.2,3.5,8.2,8.1c0,4-2.9,7.4-6.9,8.2c-4.2,0.8-8.4,1.3-12.6,1.3c-14.3,0-25.1-10.8-25.1-25.1V54.6z
		"/>
</g>
</svg>
