<?xml version="1.0" encoding="UTF-8"?>
<svg width="171px" height="40px" viewBox="0 0 171 40" version="1.1" xmlns="http://www.w3.org/2000/svg" xmlns:xlink="http://www.w3.org/1999/xlink">
    <!-- Generator: Sketch 48.2 (47327) - http://www.bohemiancoding.com/sketch -->
    <title>Desktop_Logo</title>
    <desc>Created with Sketch.</desc>
    <defs></defs>
    <g id="TU--Desktop--01--Composants" stroke="none" stroke-width="1" fill="none" fill-rule="evenodd" transform="translate(-62.000000, -3345.000000)">
        <g id="Logos" transform="translate(62.000000, 3312.000000)">
            <g id="Desktop_Logo" transform="translate(0.000000, 33.000000)">
                <g id="item" transform="translate(94.000000, 24.000000)">
                    <path d="M4.68865672,5.85361194 L4.68865672,4.8601791 L7.79850746,4.8601791 L7.79850746,5.856 C7.45104478,5.94913433 7.17044776,6.24644776 7.17044776,6.67450746 L7.17044776,10.8219701 L8.35373134,10.8219701 C8.95074627,10.8219701 9.4641791,10.457194 9.67910448,9.93719403 L10.4432836,9.93420896 L10.4432836,12.1407761 L4.68865672,12.1407761 L4.68865672,10.856597 C5.0480597,10.7664478 5.31850746,10.4273433 5.31850746,10.0494328 L5.31850746,6.70137313 C5.31850746,6.22853731 5.02597015,5.94077612 4.68865672,5.85361194" id="Fill-15" fill="#006EB7"></path>
                    <path d="M0.736895522,8.09092537 C0.736895522,4.02525373 4.03241791,0.729731343 8.09749254,0.729731343 C12.1631642,0.729731343 15.4568955,4.02525373 15.4568955,8.09092537 C15.4568955,12.155403 12.1631642,15.4515224 8.09749254,15.4515224 C4.03241791,15.4515224 0.736895522,12.155403 0.736895522,8.09092537 M2.26525373,8.09092537 C2.26525373,11.3124179 4.87659701,13.9231642 8.09749254,13.9231642 C11.3189851,13.9231642 13.9309254,11.3124179 13.9309254,8.09092537 C13.9309254,4.86943284 11.3189851,2.25808955 8.09749254,2.25808955 C4.87659701,2.25808955 2.26525373,4.86943284 2.26525373,8.09092537" id="Fill-16" fill="#006EB7"></path>
                    <path d="M6.42167164,4.25552239 C7.09152239,3.76716418 7.91480597,3.47880597 8.8079403,3.47880597 C11.0485373,3.47880597 12.8646567,5.29492537 12.8646567,7.5361194 C12.8646567,8.95044776 12.1404776,10.1964179 11.0431642,10.921791 L11.0431642,9.33074627 L9.28734328,9.33074627 C9.28734328,9.33074627 9.0998806,10.2226866 8.35361194,10.2226866 L7.76973134,10.2226866 L7.76973134,6.87940299 C7.76973134,6.53253731 8.05391045,6.25671642 8.39779104,6.24 L8.39779104,4.25552239 L6.42167164,4.25552239 Z" id="Fill-17" fill="#F18822"></path>
                </g>
                <g id="item" transform="translate(45.000000, 28.000000)">
                    <path d="M45.3968955,6.93785075 C46.2124179,6.93785075 46.5515224,6.76232836 46.5688358,6.03635821 L48.1700299,6.03635821 C48.1634627,7.73008955 47.3968955,8.20292537 45.297791,8.20292537 C43.2016716,8.20292537 42.456,7.57068657 42.456,5.25068657 C42.456,2.93068657 43.2016716,2.29844776 45.297791,2.29844776 C47.3897313,2.29844776 48.1586866,2.76829851 48.1700299,4.44710448 L46.5688358,4.44710448 C46.5473433,3.73665672 46.2058507,3.5641194 45.3968955,3.5641194 C44.417194,3.5641194 44.1276418,3.74441791 44.1276418,5.25128358 C44.1276418,6.75755224 44.417194,6.93785075 45.3968955,6.93785075" id="Fill-13" fill="#006EB7"></path>
                    <path d="M42.0445373,3.79241791 C42.0445373,3.79241791 41.6403582,3.78823881 41.592,3.78823881 C40.6875224,3.78823881 40.2522985,4.316 40.2522985,5.45510448 L40.2522985,8.14047761 L38.6051343,8.14047761 L38.6051343,2.40137313 L40.2522985,2.40137313 L40.2522985,3.25629851 C40.6499104,2.60734328 41.1603582,2.30465672 41.8463284,2.29808955 L42.0445373,2.29808955 L42.0445373,3.79241791 Z" id="Fill-14" fill="#006EB7"></path>
                    <path d="M37.3838209,6.32191045 L37.3838209,6.40847761 C37.3838209,7.73265672 36.5259104,8.20310448 34.6321791,8.20310448 C32.2924776,8.20310448 31.5832239,7.64608955 31.5832239,5.2198209 C31.5832239,2.91773134 32.389791,2.29862687 34.4954627,2.29862687 C36.5939701,2.29862687 37.3838209,2.8681791 37.3838209,5.03474627 L37.3838209,5.54161194 L33.2166567,5.54161194 L33.2166567,5.77683582 C33.2166567,6.76728358 33.6220299,7.02698507 34.5450149,7.02698507 C35.3521791,7.02698507 35.7420299,6.89086567 35.7748657,6.32191045 L37.3838209,6.32191045 Z M33.2166567,4.5881791 L35.7748657,4.5881791 L35.7748657,4.39056716 C35.7623284,3.63534328 35.4375522,3.4998209 34.4960597,3.4998209 C33.5927761,3.4998209 33.2166567,3.64250746 33.2166567,4.5881791 Z" id="Fill-12" fill="#006EB7"></path>
                    <polygon id="Fill-9" fill="#006EB7" points="28.7086567 8.14149254 30.3552239 8.14149254 30.3552239 0.859701493 28.7086567 0.859701493"></polygon>
                    <path d="M24.8036418,6.93785075 C25.6191642,6.93785075 25.9582687,6.76232836 25.9755821,6.03635821 L27.5755821,6.03635821 C27.570209,7.73008955 26.8036418,8.20292537 24.7039403,8.20292537 C22.6084179,8.20292537 21.8621493,7.57128358 21.8621493,5.25068657 C21.8621493,2.93068657 22.6084179,2.29844776 24.7039403,2.29844776 C26.7958806,2.29844776 27.5654328,2.76829851 27.5755821,4.44710448 L25.9749851,4.44710448 C25.9540896,3.73665672 25.612597,3.5641194 24.8036418,3.5641194 C23.8233433,3.5641194 23.5343881,3.74441791 23.5343881,5.25128358 C23.5343881,6.75755224 23.8239403,6.93785075 24.8036418,6.93785075" id="Fill-11" fill="#006EB7"></path>
                    <path d="M20.7740896,6.32191045 L20.7740896,6.40847761 C20.7740896,7.73265672 19.9155821,8.20310448 18.0218507,8.20310448 C15.6827463,8.20310448 14.9722985,7.64608955 14.9722985,5.2198209 C14.9722985,2.91773134 15.7788657,2.29862687 17.8857313,2.29862687 C19.9836418,2.29862687 20.7740896,2.8681791 20.7740896,5.03474627 L20.7740896,5.54161194 L16.6069254,5.54161194 L16.6069254,5.77683582 C16.6069254,6.76728358 17.0117015,7.02698507 17.9358806,7.02698507 C18.7424478,7.02698507 19.1317015,6.89086567 19.1645373,6.32191045 L20.7740896,6.32191045 Z M16.6069254,4.5881791 L19.1645373,4.5881791 L19.1645373,4.39056716 C19.152597,3.63534328 18.8272239,3.4998209 17.8863284,3.4998209 C16.9830448,3.4998209 16.6069254,3.64250746 16.6069254,4.5881791 Z" id="Fill-7" fill="#006EB7"></path>
                    <polygon id="Fill-5" fill="#006EB7" points="11.6121791 0.859820896 11.6121791 6.62459701 14.4557612 6.62459701 14.4557612 8.14161194 9.76501493 8.14161194 9.76501493 0.859820896"></polygon>
                    <path d="M7.72662687,6.23850746 C8.2758806,6.23850746 8.72185075,6.6838806 8.72185075,7.23432836 C8.72185075,7.78358209 8.2758806,8.23014925 7.72662687,8.23014925 C7.1761791,8.23014925 6.73020896,7.78358209 6.73020896,7.23432836 C6.73020896,6.6838806 7.1761791,6.23850746 7.72662687,6.23850746 Z" id="Fill-1" fill="#F18822"></path>
                    <polygon id="Fill-3" fill="#006EB7" points="2.27104478 2.37689552 2.27104478 3.74226866 5.28298507 3.74226866 5.28298507 5.10764179 2.27104478 5.10764179 2.27104478 6.6240597 5.74865672 6.6240597 5.74865672 8.14167164 0.427462687 8.14167164 0.427462687 0.859880597 5.69850746 0.859880597 5.69850746 2.37689552"></polygon>
                </g>
                <path d="M161.494746,18.8630448 L163.06191,18.8630448 C165.113851,18.8630448 165.83803,18.6994627 165.83803,17.7173731 C165.83803,16.792 165.361015,16.4642388 163.777731,16.4642388 L159.623701,16.4642388 C155.545493,16.4349851 154.39206,15.4409552 154.39206,11.7985672 C154.39206,8.55140299 156.613552,8.04274627 159.667881,8.04274627 L162.762209,8.04274627 C168.462507,8.04274627 169.416537,8.93767164 169.490567,11.9060299 L165.288179,11.9060299 C165.011761,11.0767761 164.399224,10.9728955 161.885194,10.9728955 C159.393254,10.9728955 158.702507,11.0212537 158.702507,12.1209552 C158.702507,12.871403 159.249373,13.0576716 161.494746,13.0576716 L164.562209,13.0576716 C169.796836,13.0576716 170.13594,15.0361791 170.13594,17.3967761 C170.13594,20.8839403 168.996239,21.790806 163.962209,21.790806 L159.762209,21.790806 C155.769373,21.790806 154.347881,20.7573731 154.304299,17.6158806 L158.615343,17.6158806 C158.652955,18.4099104 159.113254,18.8630448 161.494746,18.8630448 Z M147.952657,13.0254328 C147.952657,11.2666269 147.166985,10.9728955 144.585493,10.9728955 C141.678627,10.9728955 141.206388,11.2767761 141.206388,13.0254328 L141.206388,13.1633433 L147.952657,13.1633433 L147.952657,13.0254328 Z M142.356239,8.04274627 L145.458328,8.04274627 C150.122806,8.04274627 151.978328,9.15558209 151.978328,13.7734925 L151.978328,15.9287164 L141.206388,15.9287164 L141.206388,16.8922985 C141.206388,18.4576716 142.20997,18.8630448 144.068478,18.8630448 L145.433851,18.8630448 C147.761612,18.8630448 148.06191,18.1567761 148.084597,17.3221493 L151.978328,17.3221493 L151.978328,17.7693134 C151.978328,21.0493134 149.47803,21.790806 146.266687,21.790806 L142.935343,21.790806 C140.044597,21.790806 137.044,21.1854328 137.044,15.4773731 L137.044,14.1722985 C137.044,9.1078209 139.197433,8.04274627 142.356239,8.04274627 Z M129.864299,6.28155224 L134.023104,6.28155224 L134.023104,2.55379104 L129.864299,2.55379104 L129.864299,6.28155224 Z M129.864299,21.5806567 L134.023104,21.5806567 L134.023104,8.2600597 L129.864299,8.2600597 L129.864299,21.5806567 Z M122.356239,14.3585672 C122.356239,12.2152836 121.79206,11.4511045 119.513851,11.4511045 L117.344299,11.4511045 C115.060119,11.4511045 114.503701,12.2152836 114.503701,14.3585672 C114.503701,16.4755821 115.06609,17.2105075 117.344299,17.2105075 L119.513851,17.2105075 C121.79206,17.2105075 122.356239,16.4755821 122.356239,14.3585672 Z M115.750866,8.04274627 L118.333552,8.04274627 C120.532955,8.04274627 121.020716,8.34244776 122.105493,10.0558806 L122.343104,10.4397612 L122.395045,8.2600597 L126.286985,8.2600597 L126.286985,20.8642388 C126.286985,23.6355821 125.544299,26.3221493 120.070866,26.3221493 L115.166985,26.3221493 C112.269672,26.3221493 110.682209,25.553194 110.642209,22.3579701 L114.944299,22.3579701 C115.000418,22.9967761 115.424896,23.3955821 116.165194,23.3955821 L119.378328,23.3955821 C121.384896,23.3955821 122.398627,22.6200597 122.398627,20.2487164 L122.398627,18.9764776 L122.162806,19.2546866 C121.319821,20.2290149 120.617134,20.6188657 118.291761,20.6188657 L115.956239,20.6188657 C111.745493,20.6188657 110.478627,18.7209552 110.478627,15.1054328 L110.478627,13.2421493 C110.478627,9.11737313 112.269672,8.04274627 115.750866,8.04274627 Z M102.987881,8.2600597 L102.987881,10.7663284 L103.243403,10.7985672 L103.258925,10.7412537 C103.786687,8.67797015 105.50609,8.04274627 107.498925,8.04274627 L108.375343,8.04274627 L108.375343,11.7985672 L107.498925,11.7985672 L105.993851,11.7663284 C104.42191,11.7663284 103.262507,12.472 103.262507,14.1961791 L103.262507,21.5806567 L99.1019104,21.5806567 L99.1019104,8.2600597 L102.987881,8.2600597 Z M92.3126567,13.0254328 C92.3126567,11.2666269 91.5287761,10.9728955 88.9401194,10.9728955 C86.045791,10.9728955 85.565791,11.2767761 85.565791,13.0254328 L85.565791,13.1633433 L92.3126567,13.1633433 L92.3126567,13.0254328 Z M86.7198209,8.04274627 L89.8195224,8.04274627 C94.482806,8.04274627 96.3389254,9.15558209 96.3389254,13.7734925 L96.3389254,15.9287164 L85.565791,15.9287164 L85.565791,16.8922985 C85.565791,18.4576716 86.5741493,18.8630448 88.4356418,18.8630448 L89.7962388,18.8630448 C92.122209,18.8630448 92.4237015,18.1567761 92.4487761,17.3221493 L96.3389254,17.3221493 L96.3389254,17.7693134 C96.3389254,21.0493134 93.8386269,21.790806 90.6290746,21.790806 L87.2971343,21.790806 C84.405194,21.790806 81.404,21.1854328 81.404,15.4773731 L81.404,14.1722985 C81.404,9.1078209 83.5568358,8.04274627 86.7198209,8.04274627 Z M67.2923582,8.2600597 L67.2923582,10.3687164 L67.5305672,10.4134925 C68.3502687,8.54961194 69.8272836,8.04274627 72.1920597,8.04274627 C74.9341493,8.04274627 78.6362388,8.17707463 78.6362388,13.9036418 L78.6362388,21.5806567 L74.4720597,21.5806567 L74.4720597,13.9036418 C74.4720597,12.4612537 73.4374328,11.7663284 71.4702687,11.7663284 L70.4571343,11.7663284 C68.4935522,11.7663284 67.2923582,12.8427463 67.2923582,14.8630448 L67.2923582,21.5806567 L63.1269851,21.5806567 L63.1269851,8.2600597 L67.2923582,8.2600597 Z M56.3383284,13.0254328 C56.3383284,11.2666269 55.5490746,10.9728955 52.965791,10.9728955 C50.0642985,10.9728955 49.5938507,11.2767761 49.5938507,13.0254328 L49.5938507,13.1633433 L56.3383284,13.1633433 L56.3383284,13.0254328 Z M50.7478806,8.04274627 L53.8392239,8.04274627 C58.5102687,8.04274627 60.364597,9.15558209 60.364597,13.7734925 L60.364597,15.9287164 L49.5938507,15.9287164 L49.5938507,16.8922985 C49.5938507,18.4576716 50.5956418,18.8630448 52.4553433,18.8630448 L53.8165373,18.8630448 C56.1478806,18.8630448 56.4505672,18.1567761 56.4720597,17.3221493 L60.364597,17.3221493 L60.364597,17.7693134 C60.364597,21.0493134 57.8625075,21.790806 54.6511642,21.790806 L51.3210149,21.790806 C48.4290746,21.790806 45.4278806,21.1854328 45.4278806,15.4773731 L45.4278806,14.1722985 C45.4278806,9.1078209 47.5825075,8.04274627 50.7478806,8.04274627 Z M58.2899701,0.717373134 L53.645194,5.72095522 L50.2654925,5.72095522 L53.0678806,0.717373134 L58.2899701,0.717373134 Z" id="Fill-18" fill="#A6B800"></path>
                <g id="item">
                    <path d="M31.4638209,19.7259104 C31.4638209,26.2088955 26.2088955,31.4638209 19.7282985,31.4638209 C13.2447164,31.4638209 7.98979104,26.2088955 7.98979104,19.7259104 C7.98979104,13.2435224 13.2447164,7.988 19.7282985,7.988 C26.2088955,7.988 31.4638209,13.2435224 31.4638209,19.7259104" id="Fill-19" fill="#F18822"></path>
                    <path d="M19.7278806,34.2848955 C11.6860896,34.2848955 5.1678806,27.7672836 5.1678806,19.7260896 C5.1678806,11.6848955 11.6860896,5.16728358 19.7278806,5.16728358 C27.7672836,5.16728358 34.2860896,11.6848955 34.2860896,19.7260896 C34.2860896,27.7672836 27.7672836,34.2848955 19.7278806,34.2848955 M19.7284776,0.000119402985 C8.83295522,0.000119402985 0.000119402985,8.83235821 0.000119402985,19.7260896 C0.000119402985,30.622806 8.83295522,39.4520597 19.7284776,39.4520597 C30.6216119,39.4520597 39.4538507,30.622806 39.4538507,19.7260896 C39.4538507,8.83235821 30.6216119,0.000119402985 19.7284776,0.000119402985" id="Fill-20" fill="#A6B800"></path>
                </g>
            </g>
        </g>
    </g>
</svg>