<?xml version="1.0" encoding="UTF-8" standalone="no"?>
<svg
   xmlns:dc="http://purl.org/dc/elements/1.1/"
   xmlns:cc="http://creativecommons.org/ns#"
   xmlns:rdf="http://www.w3.org/1999/02/22-rdf-syntax-ns#"
   xmlns:svg="http://www.w3.org/2000/svg"
   xmlns="http://www.w3.org/2000/svg"
   xmlns:sodipodi="http://sodipodi.sourceforge.net/DTD/sodipodi-0.dtd"
   xmlns:inkscape="http://www.inkscape.org/namespaces/inkscape"
   width="897pt"
   height="532pt"
   viewBox="0 0 897 532"
   version="1.2"
   id="svg33"
   sodipodi:docname="Logo-Planete-oui.svg"
   inkscape:version="0.92.2 (5c3e80d, 2017-08-06)">
  <metadata
     id="metadata39">
    <rdf:RDF>
      <cc:Work
         rdf:about="">
        <dc:format>image/svg+xml</dc:format>
        <dc:type
           rdf:resource="http://purl.org/dc/dcmitype/StillImage" />
        <dc:title></dc:title>
      </cc:Work>
    </rdf:RDF>
  </metadata>
  <defs
     id="defs37" />
  <sodipodi:namedview
     pagecolor="#ffffff"
     bordercolor="#666666"
     borderopacity="1"
     objecttolerance="10"
     gridtolerance="10"
     guidetolerance="10"
     inkscape:pageopacity="0"
     inkscape:pageshadow="2"
     inkscape:window-width="1920"
     inkscape:window-height="1017"
     id="namedview35"
     showgrid="false"
     inkscape:zoom="1.1137218"
     inkscape:cx="598"
     inkscape:cy="354.66667"
     inkscape:window-x="1358"
     inkscape:window-y="-8"
     inkscape:window-maximized="1"
     inkscape:current-layer="svg33" />
  <g
     id="surface57024">
    <path
       style=" stroke:none;fill-rule:nonzero;fill:rgb(4.705811%,69.412231%,28.234863%);fill-opacity:1;"
       d="M 877 527 L 761 527 L 761 207 L 877 207 Z M 176 428 C 142 428 116 402 116 367 C 116 332 142 306 176 306 C 210 306 236 332 236 367 C 236 402 210 428 176 428 M 176 202 C 78 202 0 269 0 367 C 0 465 78 532 176 532 C 274 532 352 465 352 367 C 352 269 274 202 176 202 M 400 393 C 400 477 467 532 550 532 C 633 532 700 477 700 393 L 700 207 L 584 207 L 584 388 C 584 414 571 428 550 428 C 529 428 516 414 516 388 L 516 207 L 400 207 Z M 400 393 "
       id="path10" />
    <path
       style=" stroke:none;fill-rule:nonzero;fill:rgb(4.705811%,69.412231%,28.234863%);fill-opacity:1;"
       d="M 831 102 L 807 102 L 807 2 L 831 2 Z M 831 102 "
       id="path12" />
    <path
       style=" stroke:none;fill-rule:nonzero;fill:rgb(4.705811%,69.412231%,28.234863%);fill-opacity:1;"
       d="M 851 24.851563 L 851 52.5 C 864.34375 62.332031 873 78.15625 873 96 C 873 125.824219 848.824219 150 819 150 C 789.175781 150 765 125.824219 765 96 C 765 78.15625 773.65625 62.332031 787 52.5 L 787 24.851563 C 759.882813 37.066406 741 64.328125 741 96 C 741 139.078125 775.921875 174 819 174 C 862.078125 174 897 139.078125 897 96 C 897 64.328125 878.117188 37.066406 851 24.851563 "
       id="path14" />
    <path
       style=" stroke:none;fill-rule:nonzero;fill:rgb(4.705811%,69.412231%,28.234863%);fill-opacity:1;"
       d="M 500 37 L 447 20 L 447 0 L 500 17 Z M 500 37 "
       id="path16" />
    <path
       style=" stroke:none;fill-rule:nonzero;fill:rgb(4.705811%,69.412231%,28.234863%);fill-opacity:1;"
       d="M 68.148438 133.398438 C 86.148438 133.398438 97.347656 118.800781 97.347656 100.199219 C 97.347656 81 86.148438 66.398438 68.148438 66.398438 C 49.949219 66.398438 38.949219 81 38.949219 100.199219 C 38.949219 118.800781 49.949219 133.398438 68.148438 133.398438 M 39.75 193.601563 L 15.949219 193.601563 L 15.949219 48.199219 L 37.949219 48.199219 L 37.949219 63 C 44.75 52.398438 56.949219 45.800781 72.949219 45.800781 C 103.75 45.800781 121.148438 70.398438 121.148438 100.199219 C 121.148438 129.800781 103.75 154.398438 72.949219 154.398438 C 56.949219 154.398438 45.546875 147.398438 39.75 138.398438 Z M 39.75 193.601563 "
       id="path18" />
    <path
       style=" stroke:none;fill-rule:nonzero;fill:rgb(4.705811%,69.412231%,28.234863%);fill-opacity:1;"
       d="M 139.746094 2 L 163.546875 2 L 163.546875 152 L 139.746094 152 Z M 139.746094 2 "
       id="path20" />
    <path
       style=" stroke:none;fill-rule:nonzero;fill:rgb(4.705811%,69.412231%,28.234863%);fill-opacity:1;"
       d="M 234.824219 133.398438 C 253.023438 133.398438 264.023438 118.800781 264.023438 100.199219 C 264.023438 81.601563 253.023438 67 234.824219 67 C 216.824219 67 205.621094 81.601563 205.621094 100.199219 C 205.621094 118.800781 216.824219 133.398438 234.824219 133.398438 M 286.824219 48.398438 L 286.824219 152 L 264.824219 152 L 264.824219 137.199219 C 258.222656 148 246.023438 154.398438 229.824219 154.398438 C 199.222656 154.398438 181.824219 129.800781 181.824219 100.199219 C 181.824219 70.601563 199.222656 46 229.824219 46 C 246.023438 46 258.222656 52.398438 264.824219 63.199219 L 264.824219 48.398438 Z M 286.824219 48.398438 "
       id="path22" />
    <path
       style=" stroke:none;fill-rule:nonzero;fill:rgb(4.705811%,69.412231%,28.234863%);fill-opacity:1;"
       d="M 332.960938 62 C 337.359375 53.800781 347.960938 45.800781 364.960938 45.800781 C 390.160156 45.800781 403.5625 62.601563 403.5625 86.800781 L 403.5625 152 L 379.761719 152 L 379.761719 89.800781 C 379.761719 75.601563 373.359375 66.199219 359.160156 66.199219 C 344.160156 66.199219 334.761719 75.601563 334.761719 91.800781 L 334.761719 152 L 310.960938 152 L 310.960938 48.199219 L 332.960938 48.199219 Z M 332.960938 62 "
       id="path24" />
    <path
       style=" stroke:none;fill-rule:nonzero;fill:rgb(4.705811%,69.412231%,28.234863%);fill-opacity:1;"
       d="M 444.519531 89.398438 L 499.71875 89.398438 C 497.71875 75 487.71875 65.199219 472.320313 65.199219 C 456.921875 65.199219 446.921875 75.199219 444.519531 89.398438 M 444.121094 107 C 445.921875 123.398438 456.519531 134 473.121094 134 C 484.121094 134 493.519531 128.398438 497.320313 119.199219 L 521.320313 119.199219 C 515.121094 139.800781 496.71875 154.398438 472.519531 154.398438 C 441.121094 154.398438 420.71875 131 420.71875 100 C 420.71875 69.800781 441.519531 45.800781 472.320313 45.800781 C 503.121094 45.800781 523.320313 69.199219 523.320313 99.601563 C 523.320313 103.398438 523.121094 107 523.121094 107 Z M 444.121094 107 "
       id="path26" />
    <path
       style=" stroke:none;fill-rule:nonzero;fill:rgb(4.705811%,69.412231%,28.234863%);fill-opacity:1;"
       d="M 568.21875 152 L 544.421875 152 L 544.421875 67.199219 L 528.621094 67.199219 L 528.621094 48.199219 L 544.421875 48.199219 L 544.421875 21.199219 L 568.21875 21.199219 L 568.21875 48.199219 L 585.621094 48.199219 L 585.621094 67.199219 L 568.21875 67.199219 Z M 568.21875 152 "
       id="path28" />
    <path
       style=" stroke:none;fill-rule:nonzero;fill:rgb(4.705811%,69.412231%,28.234863%);fill-opacity:1;"
       d="M 614.199219 89.398438 L 669.398438 89.398438 C 667.398438 75 657.398438 65.199219 642 65.199219 C 626.601563 65.199219 616.601563 75.199219 614.199219 89.398438 M 613.800781 107 C 615.601563 123.398438 626.199219 134 642.800781 134 C 653.800781 134 663.199219 128.398438 667 119.199219 L 691 119.199219 C 684.800781 139.800781 666.398438 154.398438 642.199219 154.398438 C 610.800781 154.398438 590.398438 131 590.398438 100 C 590.398438 69.800781 611.199219 45.800781 642 45.800781 C 672.800781 45.800781 693 69.199219 693 99.601563 C 693 103.398438 692.800781 107 692.800781 107 Z M 613.800781 107 "
       id="path30" />
  </g>
</svg>
