<svg xmlns="http://www.w3.org/2000/svg" width="106" height="55" viewBox="0 0 106 55">
    <g fill="none" fill-rule="evenodd">
        <g fill="#DD3C5C">
            <path fill-rule="nonzero" d="M1.13 53.817v-8.453c0-.3.242-.546.521-.546h5.805c.267 0 .48.218.48.49 0 .274-.214.492-.48.492h-5.27v3.258h4.67a.493.493 0 0 1 .34.839.473.473 0 0 1-.34.143h-4.67v3.34h5.337c.267 0 .48.22.48.492s-.214.49-.48.49H1.65a.54.54 0 0 1-.52-.545z"/>
            <path d="M17.681 45.103c0-.291.261-.54.566-.54h.16c.26 0 .42.124.58.318l6.167 7.503v-7.31c0-.29.246-.54.565-.54.305 0 .552.25.552.54v8.748a.503.503 0 0 1-.523.512h-.058c-.246 0-.42-.138-.594-.332l-6.298-7.681v7.502c0 .298-.253.54-.566.54a.55.55 0 0 1-.55-.54v-8.72M35.95 53.8v-8.704c0-.309.24-.562.52-.562h5.804c.267 0 .48.225.48.506 0 .28-.214.505-.48.505h-5.27v3.356h4.67a.5.5 0 0 1 .48.505c0 .135-.05.263-.14.358a.467.467 0 0 1-.34.148h-4.67v3.44h5.337c.267 0 .48.224.48.505.001.134-.05.263-.14.358a.467.467 0 0 1-.34.147H36.47c-.28 0-.52-.252-.52-.561"/>
            <path fill-rule="nonzero" d="M56.603 49.511c1.465 0 2.512-.752 2.512-2.007v-.028c0-1.198-.922-1.924-2.498-1.924h-3.015v3.959h3.001zM52.5 45.092c0-.306.251-.558.544-.558h3.657c1.2 0 2.162.363 2.777.976.474.475.753 1.157.753 1.924v.028c0 1.603-1.088 2.537-2.61 2.83l2.428 3.123c.112.125.182.25.182.404 0 .293-.279.543-.558.543-.223 0-.39-.125-.516-.292l-2.75-3.569h-2.805v3.304a.56.56 0 0 1-.558.557.557.557 0 0 1-.544-.557v-8.713z"/>
            <path d="M69.909 49.476v-.028c0-2.605 1.711-4.914 4.26-4.914 1.285 0 2.123.38 2.9 1.018a.58.58 0 0 1 .172.6c-.064.221-.245.373-.452.377-.108 0-.206-.054-.303-.135-.607-.516-1.286-.869-2.353-.869-1.882 0-3.229 1.778-3.229 3.896v.027c0 2.268 1.299 3.95 3.362 3.95.97 0 1.868-.42 2.45-.95v-2.361h-2.28c-.234-.003-.422-.214-.425-.475-.003-.266.187-.485.424-.49h2.731c.255 0 .474.245.474.544v2.891a.79.79 0 0 1-.33.652c-.775.638-1.82 1.153-3.08 1.153-2.67 0-4.321-2.171-4.321-4.886M87.318 45.088c0-.304.234-.554.509-.554.286 0 .522.25.522.554v8.72c-.001.306-.234.553-.522.554-.275 0-.509-.249-.509-.553v-8.721M98.027 53.8v-8.704c0-.309.24-.562.52-.562h5.804c.268 0 .481.225.481.506 0 .134-.05.263-.14.358a.467.467 0 0 1-.341.147h-5.27v3.356h4.67a.5.5 0 0 1 .48.505c0 .135-.05.263-.14.358a.466.466 0 0 1-.34.148h-4.67v3.44h5.337c.267 0 .481.224.481.505s-.214.505-.481.505h-5.871c-.28 0-.52-.252-.52-.561"/>
        </g>
        <path fill="#455369" fill-rule="nonzero" d="M13.067 27.089c-3.511 0-6.382-2.73-6.591-6.176v-.802c.208-3.446 3.08-6.176 6.591-6.176 3.648 0 6.606 2.944 6.606 6.577 0 3.632-2.958 6.577-6.606 6.577zm0-18.625a12.077 12.077 0 0 0-7.162 2.34C4.497 9.717.968 8.927.968 8.927v27.456c0 1.506 5.508 2.737 5.508 2.737v-8.508a12.074 12.074 0 0 0 6.591 1.947c6.682 0 12.1-5.394 12.1-12.047 0-6.654-5.418-12.048-12.1-12.048z"/>
        <path fill="#455369" d="M30.42 19.245v12.901h5.508V3.176C35.928 1.67 30.42.44 30.42.44v18.806M57.303 11.683l.006 10.104c0 1.836-.493 3.265-1.476 4.287-.984 1.022-2.267 1.533-3.846 1.533-1.61 0-2.855-.496-3.735-1.488-.88-.993-1.318-2.407-1.318-4.244l.005-10.192c0-1.527-5.508-2.776-5.508-2.776v13.245c0 1.71.25 3.213.75 4.507.5 1.294 1.213 2.38 2.141 3.258.929.877 2.046 1.535 3.356 1.974 1.31.44 2.771.659 4.39.659 1.641 0 3.123-.219 4.444-.659 1.32-.438 2.444-1.102 3.372-1.99.929-.89 1.648-1.998 2.16-3.327.512-1.328.768-2.868.768-4.625V8.906s-5.509 1.25-5.509 2.777"/>
        <path fill="#DD3C5C" d="M50.268 3.484v-.31c0-1.588-1.285-2.735-2.881-2.735-1.64 0-2.925 1.147-2.925 2.736v.309c0 1.588 1.285 2.692 2.925 2.692 1.596 0 2.881-1.103 2.881-2.692zM57.07 6.176c1.594 0 2.88-1.103 2.88-2.692v-.31c0-1.588-1.286-2.735-2.88-2.735-1.641 0-2.926 1.147-2.926 2.736v.309c0 1.588 1.285 2.692 2.925 2.692"/>
        <path fill="#455369" d="M104.863 14.799c-.498-1.295-1.213-2.381-2.141-3.26-.93-.876-2.046-1.535-3.356-1.973-1.309-.44-2.771-.66-4.39-.66-1.643 0-3.125.22-4.444.66-1.32.438-2.445 1.102-3.373 1.99-.05.049-.096.099-.144.147-.054-.054-.106-.11-.163-.163-.928-.877-2.045-1.536-3.355-1.974-1.308-.44-2.771-.66-4.39-.66-1.641 0-3.123.22-4.444.66a9.399 9.399 0 0 0-1.935.89c-1.614-.905-4.365-1.53-4.365-1.53v23.22h5.51l-.006-11.86v-.65c.007-1.82.498-3.238 1.476-4.253.983-1.022 2.265-1.533 3.845-1.533 1.61 0 2.855.496 3.735 1.489.826.93 1.26 2.232 1.313 3.906-.001.088-.005.174-.005.263v12.639h5.508l-.005-12.477c0-1.835.493-3.265 1.477-4.287.983-1.022 2.266-1.533 3.845-1.533 1.61 0 2.854.496 3.735 1.489.88.992 1.318 2.406 1.318 4.243l-.005 10.192c0 1.527 5.508 2.777 5.508 2.777V19.305c0-1.711-.249-3.213-.749-4.507"/>
    </g>
</svg>
