<?xml version="1.0" encoding="UTF-8"?>
<svg width="186px" height="29px" viewBox="0 0 186 29" version="1.1" xmlns="http://www.w3.org/2000/svg" xmlns:xlink="http://www.w3.org/1999/xlink">
    <!-- Generator: sketchtool 49.1 (51147) - http://www.bohemiancoding.com/sketch -->
    <title>10019AC8-2DCD-43FC-BBC1-EAE48D8D13FB</title>
    <desc>Created with sketchtool.</desc>
    <defs></defs>
    <g id="Desktop" stroke="none" stroke-width="1" fill="none" fill-rule="evenodd">
        <g id="TPE/PME-EcoGreen" transform="translate(-150.000000, -70.000000)" fill-rule="nonzero">
            <g id="Main-Menu" transform="translate(0.000000, 45.000000)">
                <g id="vf_logotyp_landscape_black_wordmark_RGB" transform="translate(150.000000, 25.000000)">
                    <g id="Group" transform="translate(156.083916, 0.000000)">
                        <path d="M15.0169636,0.646434783 C7.22226294,0.646434783 0.903465734,6.98308696 0.903465734,14.7996522 L29.1307217,14.7996522 C29.1305916,6.98308696 22.8117944,0.646434783 15.0169636,0.646434783 Z" id="Shape" fill="#FFDA00"></path>
                        <path d="M15.0169636,28.953 C7.22226294,28.953 0.903465734,22.6163478 0.903465734,14.7997826 L29.1307217,14.7997826 C29.1305916,22.6163478 22.8117944,28.953 15.0169636,28.953 Z" id="Shape" fill="#2071B5"></path>
                    </g>
                    <polygon id="Shape" fill="#000000" points="44.1133469 7.14926087 31.009972 7.14926087 31.009972 10.6104783 35.6763608 10.6104783 35.6763608 23.3013913 39.8947888 23.3013913 39.8947888 10.6104783 44.1133469 10.6104783"></polygon>
                    <polygon id="Shape" fill="#000000" points="45.583007 7.14926087 45.583007 10.6104783 49.801565 10.6104783 49.801565 23.3013913 54.019993 23.3013913 54.019993 10.6104783 58.6863818 10.6104783 58.6863818 7.14926087"></polygon>
                    <polygon id="Shape" fill="#000000" points="90.7920629 23.3013913 90.7920629 7.14926087 86.765358 7.14926087 86.765358 16.8146087 79.5870587 7.14926087 75.5603538 7.14926087 75.5603538 23.3013913 79.5870587 23.3013913 79.5870587 13.752913 86.765358 23.3013913"></polygon>
                    <polygon id="Shape" fill="#000000" points="60.7313413 23.3015217 64.9497692 23.3015217 72.6411944 23.3015217 72.6411944 19.8401739 64.9497692 19.8401739 64.9497692 16.6616087 71.4692643 16.6616087 71.4692643 13.2002609 64.9497692 13.2002609 64.9497692 10.6104783 72.6411944 10.6104783 72.6411944 7.14926087 60.7313413 7.14926087"></polygon>
                    <polygon id="Shape" fill="#000000" points="94.0014084 23.3015217 98.2199664 23.3015217 98.2199664 16.7636087 105.029648 16.7636087 105.029648 13.3023913 98.2199664 13.3023913 98.2199664 10.6104783 106.294838 10.6104783 106.294838 7.14926087 94.0014084 7.14926087"></polygon>
                    <polygon id="Shape" fill="#000000" points="14.152779 7.14926087 9.5656028 18.5050435 9.52931329 18.5050435 4.94226713 7.14926087 0.863404196 7.14926087 7.47121678 23.3013913 11.6238294 23.3013913 18.2315119 7.14926087"></polygon>
                    <polygon id="Shape" fill="#000000" points="137.28595 23.3015217 148.933582 23.3015217 148.933582 19.7158696 141.504378 19.7158696 141.504378 7.14926087 137.28595 7.14926087"></polygon>
                    <polygon id="Shape" fill="#000000" points="123.818379 23.3015217 135.466011 23.3015217 135.466011 19.7158696 128.036807 19.7158696 128.036807 7.14926087 123.818379 7.14926087"></polygon>
                    <path d="M118.367799,23.3015217 L122.446401,23.3015217 L115.732192,7.14926087 L115.679643,7.14926087 L111.653329,7.14926087 L111.60091,7.14926087 L104.886571,23.3015217 L108.965434,23.3015217 L110.122145,20.417087 L117.211087,20.417087 L118.367799,23.3015217 Z M111.448729,17.1296087 L113.652634,11.613 L113.680469,11.613 L115.892438,17.1289565 L111.448729,17.1296087 Z" id="Shape" fill="#000000"></path>
                    <path d="M28.9925874,23.3015217 L33.0713203,23.3015217 L26.3571105,7.14926087 L26.3045622,7.14926087 L22.2782476,7.14926087 L22.2258294,7.14926087 L15.5114895,23.3015217 L19.5903524,23.3015217 L20.7470643,20.417087 L27.8360056,20.417087 L28.9925874,23.3015217 Z M22.0736476,17.1296087 L24.2775524,11.613 L24.3053874,11.613 L26.5173566,17.1289565 L22.0736476,17.1296087 Z" id="Shape" fill="#000000"></path>
                </g>
            </g>
        </g>
    </g>
</svg>