<?xml version="1.0" encoding="UTF-8"?>
<svg xmlns="http://www.w3.org/2000/svg" id="Layer_1" data-name="Layer 1" viewBox="0 0 271.29 70.06">
   <defs>
      <style>.cls-1{fill:#fff;}</style>
   </defs>
   <title>ANET-Logo-White</title>
   <path class="cls-1" d="M116,64.28l-1.8,5.46h-2.32l5.9-17.36h2.71l5.92,17.36H124l-1.85-5.46Zm5.69-1.75-1.7-5c-.39-1.13-.64-2.16-.9-3.17H119c-.26,1-.54,2.09-.88,3.14l-1.7,5Z" transform="translate(0.14 0.03)" />
   <path class="cls-1" d="M137.28,69.75l-5.67-17.36H134l2.7,8.55c.75,2.34,1.39,4.46,1.85,6.49h.05c.49-2,1.21-4.2,2-6.46l2.94-8.58H146l-6.21,17.36Z" transform="translate(0.14 0.03)" />
   <path class="cls-1" d="M149.88,53.78a1.4,1.4,0,0,1-2.81,0,1.38,1.38,0,0,1,1.42-1.42A1.35,1.35,0,0,1,149.88,53.78Zm-2.52,16V57.28h2.27V69.75Z" transform="translate(0.14 0.03)" />
   <path class="cls-1" d="M153.07,67.43a5.94,5.94,0,0,0,3,.9c1.65,0,2.42-.82,2.42-1.85s-.64-1.67-2.32-2.29c-2.24-.8-3.3-2-3.3-3.53,0-2,1.62-3.66,4.3-3.66a6.22,6.22,0,0,1,3.06.77l-.57,1.65a4.85,4.85,0,0,0-2.55-.72c-1.34,0-2.09.77-2.09,1.7s.75,1.49,2.37,2.11c2.16.82,3.27,1.91,3.27,3.76,0,2.19-1.7,3.73-4.66,3.73a7.11,7.11,0,0,1-3.5-.85Z" transform="translate(0.14 0.03)" />
   <path class="cls-1" d="M170.49,69.75l-.18-1.57h-.08A4.64,4.64,0,0,1,166.42,70a3.55,3.55,0,0,1-3.81-3.58c0-3,2.68-4.66,7.5-4.64v-.26a2.57,2.57,0,0,0-2.83-2.88,6.21,6.21,0,0,0-3.25.93l-.52-1.49A7.74,7.74,0,0,1,167.6,57c3.81,0,4.74,2.6,4.74,5.1v4.66a17.58,17.58,0,0,0,.21,3Zm-.33-6.36c-2.47-.05-5.28.39-5.28,2.81A2,2,0,0,0,167,68.35a3.1,3.1,0,0,0,3-2.09,2.37,2.37,0,0,0,.13-.72Z" transform="translate(0.14 0.03)" />
   <path class="cls-1" d="M181.23,67a7.94,7.94,0,0,0,4,1.13c2.29,0,3.63-1.21,3.63-3s-.93-2.55-3.27-3.45c-2.83-1-4.58-2.47-4.58-4.92,0-2.7,2.24-4.71,5.62-4.71a7.89,7.89,0,0,1,3.84.85l-.62,1.83a6.92,6.92,0,0,0-3.3-.82c-2.37,0-3.27,1.42-3.27,2.6,0,1.62,1.06,2.42,3.45,3.35,2.94,1.13,4.43,2.55,4.43,5.1s-2,5-6.08,5a9,9,0,0,1-4.43-1.11Z" transform="translate(0.14 0.03)" />
   <path class="cls-1" d="M205.6,63.41c0,4.61-3.19,6.62-6.21,6.62-3.37,0-6-2.47-6-6.41,0-4.17,2.73-6.62,6.18-6.62S205.6,59.6,205.6,63.41Zm-9.89.13c0,2.73,1.57,4.79,3.79,4.79s3.79-2,3.79-4.84c0-2.11-1.06-4.79-3.73-4.79S195.71,61.17,195.71,63.54Z" transform="translate(0.14 0.03)" />
   <path class="cls-1" d="M208.47,51.46h2.27V69.75h-2.27Z" transform="translate(0.14 0.03)" />
   <path class="cls-1" d="M225,66.35c0,1.29,0,2.42.1,3.4h-2l-.13-2h-.05A4.69,4.69,0,0,1,218.77,70c-2,0-4.3-1.08-4.3-5.46V57.28h2.27v6.9c0,2.37.72,4,2.78,4a3.28,3.28,0,0,0,3-2.06,3.31,3.31,0,0,0,.21-1.16V57.28H225Z" transform="translate(0.14 0.03)" />
   <path class="cls-1" d="M231.47,53.7v3.58h3.25V59h-3.25v6.72c0,1.55.44,2.42,1.7,2.42a5,5,0,0,0,1.31-.15l.1,1.7a5.54,5.54,0,0,1-2,.31,3.14,3.14,0,0,1-2.45-1,4.62,4.62,0,0,1-.88-3.25V59h-1.93V57.28h1.93v-3Z" transform="translate(0.14 0.03)" />
   <path class="cls-1" d="M239.79,53.78a1.4,1.4,0,0,1-2.81,0,1.38,1.38,0,0,1,1.42-1.42A1.35,1.35,0,0,1,239.79,53.78Zm-2.52,16V57.28h2.27V69.75Z" transform="translate(0.14 0.03)" />
   <path class="cls-1" d="M254.58,63.41c0,4.61-3.19,6.62-6.21,6.62-3.37,0-6-2.47-6-6.41,0-4.17,2.73-6.62,6.18-6.62S254.58,59.6,254.58,63.41Zm-9.89.13c0,2.73,1.57,4.79,3.79,4.79s3.79-2,3.79-4.84c0-2.11-1.06-4.79-3.73-4.79S244.69,61.17,244.69,63.54Z" transform="translate(0.14 0.03)" />
   <path class="cls-1" d="M257.44,60.65c0-1.29,0-2.34-.1-3.37h2l.13,2.06h.05A4.58,4.58,0,0,1,263.65,57c1.73,0,4.4,1,4.4,5.31v7.44h-2.27V62.56c0-2-.75-3.68-2.88-3.68a3.33,3.33,0,0,0-3.19,3.37v7.5h-2.27Z" transform="translate(0.14 0.03)" />
   <path class="cls-1" d="M14.09,11.52h.14l3.54,10.09H10.59l3.5-10.09m4.3,23.17h13.4V33.16c-2.59-.32-3.38-.52-5.07-5.15-1.86-5-4-10.79-6.07-16.57l-3.22-9.1L15,3,5.13,28.17c-1.71,4.41-2.35,4.64-5.28,5v1.53h11V33.16L9.67,33c-2.26-.25-2.35-.77-1.63-3.24.64-2.12,1.28-4.27,1.88-5.7h8.67c.74,1.79,1.67,4.36,2.31,6,.83,2.11.58,2.64-1.22,2.91l-1.28.18Z" transform="translate(0.14 0.03)" />
   <path class="cls-1" d="M45.81,17.67c0-1.79-.24-2.1-1.51-2.32l-1.52-.24V13.69c2.45-.12,6.71-.6,9-.91V29.41c0,2,.2,2.57,1.75,2.57h1.52v1.51a87.66,87.66,0,0,0-8.87,1.82L45.81,35V31.84c-.92.68-1.75,1.31-2.83,2a7.87,7.87,0,0,1-4.29,1.43c-4.09,0-6.34-2.72-6.34-6.47V17.67c0-1.79-.24-2.1-1.5-2.32l-1.33-.24V13.69c2.25-.12,6.26-.6,8.82-.91V27.55c0,2.88,1.46,4,3.3,4a6.45,6.45,0,0,0,4.16-1.87v-12" transform="translate(0.14 0.03)" />
   <path class="cls-1" d="M63.86,27.47c0,3.75,1.85,4.46,2.74,4.46a5.19,5.19,0,0,0,2.55-.79l.67,1.46-4.21,2.12a4.94,4.94,0,0,1-1.85.51c-3.78,0-5.88-1.64-5.88-6V15.65H54.74L54.4,15,56,13.16h1.91v-3L63,6.3l.85.41v6.44H68.7a1.68,1.68,0,0,1-.34,2.5h-4.5V27.47" transform="translate(0.14 0.03)" />
   <path class="cls-1" d="M79.69,15.71a10.1,10.1,0,0,1,6.68-3.13c4.45,0,6.91,2.79,6.91,7.4V29.9c0,2.74.24,2.93,3,3.26v1.53H84.74V33.16c2.37-.33,2.56-.51,2.56-3.26V20.52c0-3-1.69-4.31-3.73-4.31a5.42,5.42,0,0,0-3.87,1.61V29.9c0,2.74.23,2.93,2.27,3.26v1.53H70.18V33.16c3.27-.33,3.52-.51,3.52-3.26V6.26c0-2.9-.09-3-3.19-3.15V1.7c2.17-.34,5.94-1,9.18-1.72V15.71" transform="translate(0.14 0.03)" />
   <path class="cls-1" d="M103.8,22.5c0-5.3,2.08-7.89,4.07-7.89,3.13,0,5,3.77,5,10.31,0,7.08-2.2,8.3-4,8.3-3.15,0-5.11-4.56-5.11-10.71m4.81-9.91A11.51,11.51,0,0,0,97,24.46c0,5.23,3.77,10.78,11.31,10.78,5.64,0,11.28-3.83,11.28-11.81a10.67,10.67,0,0,0-11-10.84" transform="translate(0.14 0.03)" />
   <path class="cls-1" d="M130.11,29.9c0,2.73.24,2.93,4,3.26v1.53H120.79V33.16c3.07-.33,3.33-.52,3.33-3.26V19c0-3-.09-3-3.24-3.38V14.35c2.86-.4,6-1.06,9.23-1.76v4.86h.1a19.84,19.84,0,0,1,2.29-3.13,4.62,4.62,0,0,1,3.24-1.73,3.13,3.13,0,0,1,3.28,3A3.75,3.75,0,0,1,136.7,19a1.43,1.43,0,0,1-1.51-.2,4.06,4.06,0,0,0-2.44-1c-.83,0-1.81.37-2.63,2.41V29.9" transform="translate(0.14 0.03)" />
   <path class="cls-1" d="M142.88,19c0-3-.09-3-3.23-3.38V14.35c2.88-.4,6.12-1.06,9.22-1.76V29.84c0,2.8.24,3,3.36,3.32v1.53H139.5V33.16c3.13-.33,3.37-.52,3.37-3.32V19M149,4.86a3.51,3.51,0,0,1-3.55,3.54,3.57,3.57,0,0,1-3.56-3.54,3.58,3.58,0,0,1,3.56-3.56A3.52,3.52,0,0,1,149,4.86" transform="translate(0.14 0.03)" />
   <path class="cls-1" d="M171.69,13.15l.43.7L160.87,32.61h3.88c3.37,0,4.68-.61,6.32-3.39l.72-1.22,1.76.65c-.88,2.43-1.51,4.25-2.25,6H153.63l-.49-.72,11.61-18.75H161.3c-3.24,0-4.1.74-5.23,3.16l-.7,1.5-1.76-.66c.58-1.85,1.35-5,1.81-7.1h1.08c.25.72.78,1,2.64,1h12.54" transform="translate(0.14 0.03)" />
   <path class="cls-1" d="M179.2,20.69c.29-3.32,2.1-5.86,3.91-5.86s3.42,2.57,3.42,4.55c0,1-.19,1.16-.92,1.16l-6.42.15M191.35,29a9,9,0,0,1-5.3,1.89c-3.73,0-7.06-2.53-7.06-8,4.86-.19,11.38-.64,12.06-.79,1-.19,1.12-.3,1.12-2.13a7.68,7.68,0,0,0-7.63-7.38c-6,0-11.25,5.25-11.25,12.31A10,10,0,0,0,183.7,35.24c1.71,0,5.54-1,8.33-5.25Z" transform="translate(0.14 0.03)" />
   <path class="cls-1" d="M193.75,31.41a3.73,3.73,0,1,1,7.46,0,3.73,3.73,0,1,1-7.46,0" transform="translate(0.14 0.03)" />
   <path class="cls-1" d="M232.8,35h-3L210.37,11.16h-.11V21.3a72.19,72.19,0,0,0,.48,9.39c.26,1.7,1.48,2.34,4.73,2.48v1.53H203.32V33.16c2.45-.09,3.62-.78,3.85-2.48a64.9,64.9,0,0,0,.51-9.39V11.58c0-3.12,0-4.33-.89-5.49s-2.16-1.5-4.16-1.66V2.9h8.51l18.95,22h.1V16.3a69,69,0,0,0-.49-9.37c-.24-1.72-1.48-2.33-4.72-2.49V2.9h12.15V4.43c-2.46.09-3.62.76-3.87,2.49a70.3,70.3,0,0,0-.48,9.37V35" transform="translate(0.14 0.03)" />
   <path class="cls-1" d="M240.37,20.69c.28-3.32,2.1-5.86,3.9-5.86s3.42,2.57,3.42,4.55c0,1-.18,1.16-.93,1.16l-6.39.15M252.51,29a9,9,0,0,1-5.31,1.89c-3.71,0-7-2.53-7-8,4.84-.19,11.36-.64,12-.79,1-.19,1.12-.3,1.12-2.13a7.67,7.67,0,0,0-7.63-7.38c-6,0-11.26,5.25-11.26,12.31a10,10,0,0,0,10.42,10.33c1.72,0,5.55-1,8.33-5.25Z" transform="translate(0.14 0.03)" />
   <path class="cls-1" d="M262.86,27.47c0,3.75,1.84,4.46,2.74,4.46a5.14,5.14,0,0,0,2.53-.79l.69,1.46-4.21,2.12a4.87,4.87,0,0,1-1.86.51c-3.76,0-5.9-1.64-5.9-6V15.65h-3.11L253.4,15,255,13.16h1.88v-3L262,6.3l.84.41v6.44h4.84a1.68,1.68,0,0,1-.34,2.5h-4.5V27.47" transform="translate(0.14 0.03)" />
   <path class="cls-1" d="M268.68,11.37a2.46,2.46,0,0,1-2.46-2.46,2.47,2.47,0,0,1,.33-1.23,2.33,2.33,0,0,1,.91-.9,2.44,2.44,0,0,1,2.45,0,2.35,2.35,0,0,1,.9.9,2.46,2.46,0,0,1-2.13,3.69m0-.37a2,2,0,0,0,1-.27,2,2,0,0,0,.77-.76,2,2,0,0,0,.28-1.06,2.16,2.16,0,0,0-.27-1,2.06,2.06,0,0,0-.77-.76,2.09,2.09,0,0,0-1-.28,2,2,0,0,0-1,.28,2,2,0,0,0-.77.76,2.11,2.11,0,0,0-.28,1,2,2,0,0,0,1.06,1.81,2,2,0,0,0,1,.27m-.46-.62h-.48v-3h1a1.09,1.09,0,0,1,.53.1.74.74,0,0,1,.28.29.93.93,0,0,1,.1.42,1,1,0,0,1-.14.5,1,1,0,0,1-.44.36,1.27,1.27,0,0,1,.33.43l.46.87h-.54l-.39-.73-.09-.19c-.11-.2-.19-.3-.24-.3h-.35Zm0-1.58h.32a.52.52,0,0,0,.45-.17.65.65,0,0,0,.13-.38.53.53,0,0,0,0-.23.51.51,0,0,0-.15-.17.64.64,0,0,0-.35-.07h-.35Z" transform="translate(0.14 0.03)" />
</svg>