<?xml version="1.0" encoding="UTF-8" standalone="no"?>
<svg width="200px" height="63px" viewBox="0 0 200 63" version="1.1" xmlns="http://www.w3.org/2000/svg" xmlns:xlink="http://www.w3.org/1999/xlink">
    <!-- Generator: Sketch 39.1 (31720) - http://www.bohemiancoding.com/sketch -->
    <title>Cayan-logo-tagline</title>
    <desc>Created with Sketch.</desc>
    <defs></defs>
    <g id="Page-1" stroke="none" stroke-width="1" fill="none" fill-rule="evenodd">
        <g id="Cayan-logo-tagline">
            <g id="Group">
                <polygon id="Shape" fill="#0090A1" points="3.82208579 51.0648439 3.82208579 59.2423297 2.88878577 59.2423297 2.88878577 51.0648439 0.266657148 51.0648439 0.266657148 50.2204296 6.44421441 50.2204296 6.44421441 51.0648439"></polygon>
                <g transform="translate(7.555286, 50.220430)" id="Shape" fill="#0090A1">
                    <path d="M4.31095723,9.02190018 L4.31095723,5.15537153 C4.31095723,4.04430008 3.73320007,3.51098578 2.79990005,3.51098578 C1.86660004,3.51098578 1.24440002,4.08874294 1.24440002,5.15537153 L1.24440002,9.02190018 L0.311100006,9.02190018 L0.311100006,0 L1.24440002,0 L1.24440002,3.46654293 C1.6888286,2.93322863 2.31102862,2.71101434 2.97767149,2.71101434 C4.39984294,2.71101434 5.24425725,3.5998715 5.24425725,5.02204296 L5.24425725,9.02190018 L4.31095723,9.02190018 L4.31095723,9.02190018 Z"></path>
                    <path d="M10.9773859,4.4442858 C10.7551716,3.86652865 10.1774145,3.51098578 9.51077162,3.51098578 C8.84412874,3.51098578 8.31081445,3.86652865 8.0441573,4.4442858 C7.91082873,4.79982867 7.86638587,4.9776001 7.86638587,5.46647154 L11.1551574,5.46647154 C11.1551574,4.9776001 11.1107145,4.75538581 10.9773859,4.4442858 L10.9773859,4.4442858 Z M7.86638587,6.13311441 C7.86638587,7.510843 8.53302874,8.31081445 9.68854305,8.31081445 C10.3996288,8.31081445 10.8440574,8.08860016 11.3329288,7.59972872 L11.9551288,8.13304302 C11.3329288,8.75524303 10.7551716,9.11078589 9.68854305,9.11078589 C8.0441573,9.11078589 6.97752871,8.13304302 6.97752871,5.91090012 C6.97752871,3.91097151 7.95527158,2.71101434 9.55521447,2.71101434 C11.1551574,2.71101434 12.1329002,3.86652865 12.1329002,5.73312868 L12.1329002,6.13311441 L7.86638587,6.13311441 L7.86638587,6.13311441 Z"></path>
                    <path d="M20.354829,0.844414302 L18.0438004,0.844414302 L18.0438004,4.4442858 L20.354829,4.4442858 C21.4659004,4.4442858 22.2658719,3.82208579 22.2658719,2.62212862 C22.2658719,1.46661431 21.5103433,0.844414302 20.354829,0.844414302 M20.4437147,5.33314296 L18.0438004,5.33314296 L18.0438004,9.06634304 L17.0660575,9.06634304 L17.0660575,0 L20.4437147,0 C22.0881004,0 23.2436147,1.02218573 23.2436147,2.66657148 C23.2436147,4.26651437 22.0881004,5.33314296 20.4437147,5.33314296"></path>
                    <path d="M28.3545434,6.13311441 L26.621272,6.13311441 C25.6879719,6.13311441 25.2435434,6.53310013 25.2435434,7.24418586 C25.2435434,7.95527158 25.6879719,8.31081445 26.6657148,8.31081445 C27.1990291,8.31081445 27.6879005,8.26637159 28.0434434,7.91082873 C28.2656577,7.68861444 28.3545434,7.33307157 28.3545434,6.84420013 L28.3545434,6.13311441 L28.3545434,6.13311441 Z M28.3545434,9.02190018 L28.3545434,8.44414302 C27.865672,8.93301446 27.3768005,9.11078589 26.5323862,9.11078589 C25.6879719,9.11078589 25.1546576,8.93301446 24.7546719,8.53302874 C24.4435719,8.22192873 24.2658005,7.77750015 24.2658005,7.24418586 C24.2658005,6.13311441 25.0213291,5.42202868 26.4435005,5.42202868 L28.3101006,5.42202868 L28.3101006,4.88871438 C28.3101006,3.95541436 27.865672,3.51098578 26.7101577,3.51098578 C25.9101862,3.51098578 25.5102005,3.68875722 25.1546576,4.22207151 L24.5324576,3.64431436 C25.1102148,2.93322863 25.7324148,2.71101434 26.7546005,2.71101434 C28.4434291,2.71101434 29.2434006,3.42210007 29.2434006,4.79982867 L29.2434006,9.02190018 L28.3545434,9.02190018 L28.3545434,9.02190018 Z"></path>
                    <path d="M32.8877149,10.5329573 C32.7543864,10.8885002 32.6210578,11.1107145 32.4432864,11.2884859 C32.1321863,11.5995859 31.6877578,11.7329145 31.2433292,11.7329145 L30.8433435,11.7329145 L30.8433435,10.9329431 L31.1100006,10.9329431 C31.7322006,10.9329431 31.9544149,10.7107288 32.1321863,10.1774145 L32.5766149,8.97745732 L30.3100292,2.84434291 L31.287772,2.84434291 L33.0210435,7.86638587 L34.7098721,2.84434291 L35.687615,2.84434291 L32.8877149,10.5329573 L32.8877149,10.5329573 Z"></path>
                    <path d="M44.8872866,9.02190018 L44.8872866,5.15537153 C44.8872866,4.04430008 44.3095294,3.51098578 43.3317866,3.51098578 C42.3984865,3.51098578 41.7762865,4.08874294 41.7762865,5.06648581 L41.7762865,9.02190018 L40.8874294,9.02190018 L40.8874294,5.15537153 C40.8874294,4.04430008 40.3096722,3.51098578 39.3319293,3.51098578 C38.3986293,3.51098578 37.7764293,4.08874294 37.7764293,5.15537153 L37.7764293,9.02190018 L36.8875722,9.02190018 L36.8875722,2.79990005 L37.8208722,2.79990005 L37.8208722,3.46654293 C38.2653008,2.97767149 38.8875008,2.71101434 39.5985865,2.71101434 C40.4430008,2.71101434 41.1540865,3.0665572 41.5096294,3.73320007 C41.9985008,3.0665572 42.7095866,2.71101434 43.5540009,2.71101434 C44.2206437,2.71101434 44.7984009,2.93322863 45.1539437,3.28877149 C45.5983723,3.73320007 45.8205866,4.31095723 45.8205866,5.02204296 L45.8205866,9.02190018 L44.8872866,9.02190018 L44.8872866,9.02190018 Z"></path>
                    <path d="M51.5981582,4.4442858 C51.3759439,3.86652865 50.7981867,3.51098578 50.1315438,3.51098578 C49.464901,3.51098578 48.9315867,3.86652865 48.6649295,4.4442858 C48.531601,4.79982867 48.4871581,4.9776001 48.4871581,5.46647154 L51.7759296,5.46647154 C51.7759296,4.9776001 51.7314867,4.75538581 51.5981582,4.4442858 L51.5981582,4.4442858 Z M48.4871581,6.13311441 C48.4871581,7.510843 49.153801,8.31081445 50.3093153,8.31081445 C51.020401,8.31081445 51.4648296,8.08860016 51.953701,7.59972872 L52.575901,8.13304302 C51.953701,8.75524303 51.3759439,9.11078589 50.3093153,9.11078589 C48.6649295,9.11078589 47.5983009,8.13304302 47.5983009,5.91090012 C47.5983009,3.91097151 48.5760438,2.71101434 50.1759867,2.71101434 C51.7759296,2.71101434 52.7536725,3.86652865 52.7536725,5.73312868 L52.7536725,6.13311441 L48.4871581,6.13311441 L48.4871581,6.13311441 Z"></path>
                    <path d="M58.531244,9.02190018 L58.531244,5.15537153 C58.531244,4.04430008 57.9534869,3.51098578 56.975744,3.51098578 C56.042444,3.51098578 55.4202439,4.08874294 55.4202439,5.15537153 L55.4202439,9.02190018 L54.4869439,9.02190018 L54.4869439,2.79990005 L55.4202439,2.79990005 L55.4202439,3.46654293 C55.8646725,2.97767149 56.4868725,2.71101434 57.1535154,2.71101434 C57.8201583,2.71101434 58.3534726,2.93322863 58.7534583,3.28877149 C59.1978869,3.73320007 59.4201012,4.31095723 59.4201012,5.02204296 L59.4201012,9.02190018 L58.531244,9.02190018 L58.531244,9.02190018 Z"></path>
                    <path d="M63.2866298,9.02190018 C62.2200012,9.02190018 61.6866869,8.26637159 61.6866869,7.33307157 L61.6866869,3.51098578 L60.8867155,3.51098578 L60.8867155,2.79990005 L61.6866869,2.79990005 L61.6866869,0.88885716 L62.6199869,0.88885716 L62.6199869,2.84434291 L63.9532727,2.84434291 L63.9532727,3.55542864 L62.6199869,3.55542864 L62.6199869,7.37751443 C62.6199869,7.95527158 62.8866441,8.31081445 63.4644012,8.31081445 L63.9532727,8.31081445 L63.9532727,9.11078589 L63.2866298,9.11078589 L63.2866298,9.02190018 Z"></path>
                    <path d="M72.0863157,0.844414302 L69.7752871,0.844414302 L69.7752871,4.4442858 L72.0863157,4.4442858 C73.1973872,4.4442858 73.9973586,3.82208579 73.9973586,2.62212862 C73.9973586,1.46661431 73.1973872,0.844414302 72.0863157,0.844414302 M72.1752014,5.33314296 L69.7752871,5.33314296 L69.7752871,9.06634304 L68.7975442,9.06634304 L68.7975442,0 L72.1752014,0 C73.8195872,0 74.9751015,1.02218573 74.9751015,2.66657148 C74.9751015,4.26651437 73.8195872,5.33314296 72.1752014,5.33314296"></path>
                    <path d="M79.8638159,3.99985722 C79.5527158,3.68875722 79.1527301,3.55542864 78.7083015,3.55542864 C78.263873,3.55542864 77.8638872,3.73320007 77.5972301,3.99985722 C77.1528015,4.4442858 77.1083587,5.24425725 77.1083587,5.91090012 C77.1083587,6.62198584 77.1528015,7.37751443 77.5972301,7.82194301 C77.9083301,8.13304302 78.263873,8.26637159 78.7083015,8.26637159 C79.1527301,8.26637159 79.5527158,8.08860016 79.8638159,7.82194301 C80.3082444,7.37751443 80.3526873,6.57754299 80.3526873,5.91090012 C80.3526873,5.19981439 80.3082444,4.4442858 79.8638159,3.99985722 M80.5304587,8.39970016 C80.0860301,8.84412874 79.508273,9.11078589 78.7527444,9.11078589 C77.9972158,9.11078589 77.3750158,8.84412874 76.9750301,8.39970016 C76.3528301,7.73305729 76.2195015,6.88864299 76.2195015,5.91090012 C76.2195015,4.93315724 76.3528301,4.08874294 76.9750301,3.42210007 C77.4194587,2.97767149 77.9972158,2.71101434 78.7527444,2.71101434 C79.508273,2.71101434 80.130473,2.97767149 80.5304587,3.42210007 C81.1526587,4.08874294 81.2859873,4.93315724 81.2859873,5.91090012 C81.2859873,6.88864299 81.1526587,7.73305729 80.5304587,8.39970016"></path>
                    <path d="M85.0636302,9.11078589 C83.9970016,9.11078589 83.1970302,8.8885716 82.4859445,8.22192873 L83.1081445,7.59972872 C83.5970159,8.13304302 84.2636588,8.31081445 85.0636302,8.31081445 C86.085816,8.31081445 86.708016,7.95527158 86.708016,7.199743 C86.708016,6.6664287 86.396916,6.3553287 85.6858303,6.26644298 L84.6636445,6.17755726 C83.4636874,6.08867155 82.7970445,5.51091439 82.7970445,4.48872866 C82.7970445,3.33321435 83.7747874,2.66657148 85.1080731,2.66657148 C85.9969303,2.66657148 86.7969017,2.88878577 87.3746589,3.33321435 L86.7969017,3.91097151 C86.3524731,3.55542864 85.774716,3.42210007 85.152516,3.42210007 C84.2192159,3.42210007 83.7747874,3.82208579 83.7747874,4.4442858 C83.7747874,4.9776001 84.0858874,5.2887001 84.8858588,5.37758582 L85.9080445,5.46647154 C87.019116,5.55535725 87.7302017,5.99978583 87.7302017,7.15530014 C87.5968731,8.39970016 86.5746874,9.11078589 85.0636302,9.11078589"></path>
                    <path d="M91.2411875,9.11078589 C90.1745589,9.11078589 89.3745875,8.8885716 88.6635017,8.22192873 L89.2857018,7.59972872 C89.7745732,8.13304302 90.4412161,8.31081445 91.2411875,8.31081445 C92.2633732,8.31081445 92.8855733,7.95527158 92.8855733,7.199743 C92.8855733,6.6664287 92.5744732,6.3553287 91.8633875,6.26644298 L90.8412018,6.17755726 C89.6412446,6.08867155 88.9746017,5.51091439 88.9746017,4.48872866 C88.9746017,3.33321435 89.9523446,2.66657148 91.2856304,2.66657148 C92.1744875,2.66657148 92.974459,2.88878577 93.5522161,3.33321435 L92.8855733,3.99985722 C92.4411447,3.64431436 91.8633875,3.51098578 91.2411875,3.51098578 C90.3078875,3.51098578 89.8634589,3.91097151 89.8634589,4.53317152 C89.8634589,5.06648581 90.1745589,5.37758582 90.9745304,5.46647154 L91.9967161,5.55535725 C93.1077875,5.64424297 93.8188733,6.08867155 93.8188733,7.24418586 C93.7744304,8.39970016 92.7522447,9.11078589 91.2411875,9.11078589"></path>
                </g>
                <path d="M102.974102,53.0203296 L103.907402,53.0203296 L103.907402,59.2423297 L102.974102,59.2423297 L102.974102,53.0203296 L102.974102,53.0203296 Z M102.929659,50.2204296 L103.951845,50.2204296 L103.951845,51.2426153 L102.929659,51.2426153 L102.929659,50.2204296 L102.929659,50.2204296 Z" id="Shape" fill="#0090A1"></path>
                <path d="M108.573902,53.7314153 C107.196174,53.7314153 107.018402,54.8869296 107.018402,56.1313297 C107.018402,57.3312868 107.240616,58.531244 108.573902,58.531244 C109.951631,58.531244 110.129402,57.3757297 110.129402,56.1313297 C110.129402,54.9313725 109.907188,53.7314153 108.573902,53.7314153 M110.262731,58.7979012 C109.951631,59.1090012 109.373874,59.3312154 108.751674,59.3312154 C108.085031,59.3312154 107.507274,59.153444 106.973959,58.4868011 L106.973959,59.2423297 L106.040659,59.2423297 L106.040659,50.2204296 L106.973959,50.2204296 L106.973959,53.7314153 C107.462831,53.0647725 108.040588,52.9314439 108.751674,52.9314439 C109.373874,52.9314439 109.951631,53.1536582 110.262731,53.4647582 C110.884931,54.0869582 111.018259,55.1535868 111.018259,56.1313297 C111.018259,57.1090725 110.929374,58.1312583 110.262731,58.7979012" id="Shape" fill="#0090A1"></path>
                <path d="M112.840416,53.0203296 L113.773717,53.0203296 L113.773717,59.2423297 L112.840416,59.2423297 L112.840416,53.0203296 L112.840416,53.0203296 Z M112.795974,50.2204296 L113.818159,50.2204296 L113.818159,51.2426153 L112.795974,51.2426153 L112.795974,50.2204296 L112.795974,50.2204296 Z" id="Shape" fill="#0090A1"></path>
                <path d="M117.506917,59.2423297 C116.395845,59.2423297 115.906974,58.531244 115.906974,57.597944 L115.906974,50.2204296 L116.840274,50.2204296 L116.840274,57.5535011 C116.840274,58.1757011 117.062488,58.4868011 117.684688,58.4868011 L118.173559,58.4868011 L118.173559,59.2867726 L117.506917,59.2867726 L117.506917,59.2423297 Z" id="Shape" fill="#0090A1"></path>
                <path d="M119.595731,53.0203296 L120.529031,53.0203296 L120.529031,59.2423297 L119.595731,59.2423297 L119.595731,53.0203296 L119.595731,53.0203296 Z M119.551288,50.2204296 L120.573474,50.2204296 L120.573474,51.2426153 L119.551288,51.2426153 L119.551288,50.2204296 L119.551288,50.2204296 Z" id="Shape" fill="#0090A1"></path>
                <path d="M124.440002,59.2423297 C123.373374,59.2423297 122.84006,58.4868011 122.84006,57.5535011 L122.84006,53.7314153 L122.040088,53.7314153 L122.040088,53.0203296 L122.84006,53.0203296 L122.84006,51.1092867 L123.77336,51.1092867 L123.77336,53.0647725 L125.106645,53.0647725 L125.106645,53.7758582 L123.77336,53.7758582 L123.77336,57.597944 C123.77336,58.1757011 124.040017,58.531244 124.617774,58.531244 L125.106645,58.531244 L125.106645,59.3312154 L124.440002,59.3312154 L124.440002,59.2423297 Z" id="Shape" fill="#0090A1"></path>
                <path d="M126.751031,53.0203296 L127.684331,53.0203296 L127.684331,59.2423297 L126.751031,59.2423297 L126.751031,53.0203296 L126.751031,53.0203296 Z M126.706588,50.2204296 L127.728774,50.2204296 L127.728774,51.2426153 L126.706588,51.2426153 L126.706588,50.2204296 L126.706588,50.2204296 Z" id="Shape" fill="#0090A1"></path>
                <g transform="translate(129.328717, 49.776001)" id="Shape" fill="#0090A1">
                    <path d="M4.17762865,4.88871438 C3.95541436,4.31095723 3.37765721,3.95541436 2.71101434,3.95541436 C2.04437147,3.95541436 1.51105717,4.31095723 1.24440002,4.88871438 C1.11107145,5.24425725 1.06662859,5.42202868 1.06662859,5.91090012 L4.35540009,5.91090012 C4.35540009,5.42202868 4.31095723,5.19981439 4.17762865,4.88871438 L4.17762865,4.88871438 Z M1.06662859,6.57754299 C1.06662859,7.95527158 1.73327146,8.75524303 2.88878577,8.75524303 C3.5998715,8.75524303 4.04430008,8.53302874 4.53317152,8.0441573 L5.15537153,8.5774716 C4.53317152,9.19967161 3.95541436,9.55521447 2.88878577,9.55521447 C1.24440002,9.55521447 0.177771432,8.5774716 0.177771432,6.3553287 C0.177771432,4.35540009 1.15551431,3.15544292 2.7554572,3.15544292 C4.35540009,3.15544292 5.33314296,4.31095723 5.33314296,6.17755726 L5.33314296,6.57754299 L1.06662859,6.57754299 L1.06662859,6.57754299 Z"></path>
                    <path d="M9.06634304,9.55521447 C7.99971444,9.55521447 7.199743,9.33300018 6.48865727,8.66635731 L7.11085728,8.0441573 C7.59972872,8.5774716 8.26637159,8.75524303 9.06634304,8.75524303 C10.0885288,8.75524303 10.7107288,8.39970016 10.7107288,7.64417158 C10.7107288,7.11085728 10.3996288,6.79975728 9.68854305,6.71087156 L8.66635731,6.62198584 C7.46640015,6.53310013 6.79975728,5.95534297 6.79975728,4.93315724 C6.79975728,3.77764293 7.77750015,3.11100006 9.11078589,3.11100006 C9.99964305,3.11100006 10.7996145,3.33321435 11.3773717,3.77764293 L10.7996145,4.35540009 C10.3551859,3.99985722 9.77742876,3.86652865 9.15522875,3.86652865 C8.22192873,3.86652865 7.77750015,4.26651437 7.77750015,4.88871438 C7.77750015,5.42202868 8.08860016,5.73312868 8.8885716,5.8220144 L9.91075734,5.91090012 C11.0218288,5.99978583 11.7329145,6.44421441 11.7329145,7.59972872 C11.5995859,8.84412874 10.5774002,9.55521447 9.06634304,9.55521447"></path>
                    <path d="M19.2882004,9.55521447 C18.3993432,9.55521447 17.5993718,9.24411447 16.9771718,8.62191445 C16.1327575,7.77750015 16.1327575,6.88864299 16.1327575,4.9776001 C16.1327575,3.0665572 16.1327575,2.17770004 16.9771718,1.33328574 C17.5993718,0.711085728 18.3993432,0.399985722 19.2882004,0.399985722 C20.9325861,0.399985722 22.1325433,1.3777286 22.4436433,3.11100006 L21.4659004,3.11100006 C21.2436861,1.99992861 20.4437147,1.28884288 19.3326432,1.28884288 C18.7548861,1.28884288 18.1771289,1.51105717 17.7771432,1.91104289 C17.1993861,2.48880005 17.1549432,3.11100006 17.1549432,5.02204296 C17.1549432,6.93308585 17.1993861,7.55528586 17.7771432,8.13304302 C18.1771289,8.53302874 18.7548861,8.75524303 19.3326432,8.75524303 C20.4437147,8.75524303 21.2436861,8.0441573 21.5103433,6.93308585 L22.4880862,6.93308585 C22.1325433,8.5774716 20.8881433,9.55521447 19.2882004,9.55521447"></path>
                    <path d="M27.6434577,4.4442858 C27.3323577,4.1331858 26.932372,3.99985722 26.4879434,3.99985722 C26.0435148,3.99985722 25.6435291,4.17762865 25.3768719,4.4442858 C24.9324433,4.88871438 24.8880005,5.68868583 24.8880005,6.3553287 C24.8880005,7.06641442 24.9324433,7.82194301 25.3768719,8.26637159 C25.6879719,8.5774716 26.0435148,8.71080017 26.4879434,8.71080017 C26.932372,8.71080017 27.3323577,8.53302874 27.6434577,8.26637159 C28.0878863,7.82194301 28.1323291,7.02197157 28.1323291,6.3553287 C28.1323291,5.64424297 28.0878863,4.88871438 27.6434577,4.4442858 M28.2656577,8.84412874 C27.8212291,9.28855733 27.243472,9.55521447 26.4879434,9.55521447 C25.7324148,9.55521447 25.1102148,9.28855733 24.7102291,8.84412874 C24.088029,8.17748587 23.9547005,7.33307157 23.9547005,6.3553287 C23.9547005,5.37758582 24.088029,4.53317152 24.7102291,3.86652865 C25.1546576,3.42210007 25.7324148,3.15544292 26.4879434,3.15544292 C27.243472,3.15544292 27.865672,3.42210007 28.2656577,3.86652865 C28.8878577,4.53317152 29.0211863,5.37758582 29.0211863,6.3553287 C29.0211863,7.33307157 28.8878577,8.17748587 28.2656577,8.84412874"></path>
                    <path d="M38.8875008,9.46632876 L38.8875008,5.59980011 C38.8875008,4.48872866 38.3097436,3.95541436 37.3320007,3.95541436 C36.3987007,3.95541436 35.7765007,4.53317152 35.7765007,5.51091439 L35.7765007,9.46632876 L34.8432007,9.46632876 L34.8432007,5.59980011 C34.8432007,4.48872866 34.2654435,3.95541436 33.2877007,3.95541436 C32.3544006,3.95541436 31.7322006,4.53317152 31.7322006,5.59980011 L31.7322006,9.46632876 L30.7989006,9.46632876 L30.7989006,3.24432864 L31.7322006,3.24432864 L31.7322006,3.91097151 C32.1766292,3.42210007 32.7988292,3.15544292 33.5099149,3.15544292 C34.3543292,3.15544292 35.065415,3.51098578 35.4209578,4.17762865 C35.9098293,3.51098578 36.620915,3.15544292 37.4653293,3.15544292 C38.1319722,3.15544292 38.7097293,3.37765721 39.0652722,3.73320007 C39.5097008,4.17762865 39.7319151,4.75538581 39.7319151,5.46647154 L39.7319151,9.46632876 L38.8875008,9.46632876 L38.8875008,9.46632876 Z"></path>
                    <path d="M44.3984152,3.95541436 C43.0206866,3.95541436 42.8429151,5.11092867 42.8429151,6.3553287 C42.8429151,7.55528586 43.0651294,8.75524303 44.3984152,8.75524303 C45.7761438,8.75524303 45.9539152,7.59972872 45.9539152,6.3553287 C45.9539152,5.15537153 45.7317009,3.95541436 44.3984152,3.95541436 M46.0872438,9.02190018 C45.7761438,9.33300018 45.1983866,9.55521447 44.5761866,9.55521447 C43.9095437,9.55521447 43.3317866,9.37744304 42.7984723,8.75524303 L42.7984723,12.2662288 L41.8651722,12.2662288 L41.8651722,3.24432864 L42.7984723,3.24432864 L42.7984723,3.99985722 C43.2873437,3.33321435 43.8651009,3.19988578 44.5761866,3.19988578 C45.1983866,3.19988578 45.7761438,3.42210007 46.0872438,3.73320007 C46.7094438,4.35540009 46.8427723,5.42202868 46.8427723,6.39977155 C46.8427723,7.33307157 46.7094438,8.35525731 46.0872438,9.02190018"></path>
                    <path d="M52.2203582,6.57754299 L50.4870867,6.57754299 C49.5537867,6.57754299 49.1093581,6.97752871 49.1093581,7.68861444 C49.1093581,8.39970016 49.5537867,8.75524303 50.5315296,8.75524303 C51.0648439,8.75524303 51.5537153,8.71080017 51.9092582,8.35525731 C52.1314725,8.13304302 52.2203582,7.77750015 52.2203582,7.28862871 L52.2203582,6.57754299 L52.2203582,6.57754299 Z M52.2203582,9.46632876 L52.2203582,8.8885716 C51.7314867,9.37744304 51.2426153,9.55521447 50.398201,9.55521447 C49.5537867,9.55521447 49.0204724,9.37744304 48.6204867,8.97745732 C48.3093867,8.66635731 48.1316152,8.22192873 48.1316152,7.68861444 C48.1316152,6.57754299 48.8871438,5.86645726 50.3093153,5.86645726 L52.1759153,5.86645726 L52.1759153,5.33314296 C52.1759153,4.39984294 51.7314867,3.95541436 50.5759724,3.95541436 C49.776001,3.95541436 49.3760153,4.1331858 49.0204724,4.66650009 L48.3982724,4.08874294 C48.9760295,3.37765721 49.5982295,3.15544292 50.6204153,3.15544292 C52.3092439,3.15544292 53.1092153,3.86652865 53.1092153,5.24425725 L53.1092153,9.46632876 L52.2203582,9.46632876 L52.2203582,9.46632876 Z"></path>
                    <path d="M59.2423297,9.46632876 L59.2423297,5.59980011 C59.2423297,4.48872866 58.6645726,3.95541436 57.6868297,3.95541436 C56.7535297,3.95541436 56.1313297,4.53317152 56.1313297,5.59980011 L56.1313297,9.46632876 L55.1980297,9.46632876 L55.1980297,3.24432864 L56.1313297,3.24432864 L56.1313297,3.91097151 C56.5757583,3.42210007 57.1979583,3.15544292 57.8646011,3.15544292 C58.531244,3.15544292 59.0645583,3.37765721 59.464544,3.73320007 C59.9089726,4.17762865 60.1311869,4.75538581 60.1311869,5.46647154 L60.1311869,9.46632876 L59.2423297,9.46632876 L59.2423297,9.46632876 Z"></path>
                    <path d="M63.7755013,10.9773859 C63.6421727,11.3329288 63.5088441,11.5551431 63.3310727,11.7329145 C63.0199727,12.0440145 62.5755441,12.1773431 62.1311155,12.1773431 L61.7311298,12.1773431 L61.7311298,11.3773717 L61.9977869,11.3773717 C62.6199869,11.3773717 62.8422012,11.1551574 63.0199727,10.6218431 L63.4644012,9.4218859 L61.1978155,3.28877149 L62.1755584,3.28877149 L63.9088298,8.31081445 L65.5976584,3.28877149 L66.5754013,3.28877149 L63.7755013,10.9773859 L63.7755013,10.9773859 Z"></path>
                </g>
                <g id="Shape" fill="#E0201B">
                    <path d="M47.0649866,22.3992004 L39.6874722,22.3992004 C39.3763722,22.3992004 39.1097151,22.2658719 38.9319436,21.9992147 C38.7541722,21.7325576 38.7097293,21.4214576 38.8430579,21.1548004 L42.5318151,11.9551288 C42.6651437,11.5995859 42.9762437,11.3773717 43.3762294,11.3773717 C43.7762151,11.3773717 44.0873152,11.5995859 44.2206437,11.9551288 L47.9094009,21.1548004 C48.0427295,21.4214576 47.9982867,21.7325576 47.8205152,21.9992147 C47.6427438,22.221429 47.3316438,22.3992004 47.0649866,22.3992004 M37.0209007,27.8212291 L49.6871153,27.8212291 C50.0426581,27.8212291 50.398201,28.0434434 50.5315296,28.3989863 L52.3536867,32.9766006 C52.4425725,33.1988149 52.6203439,33.3321435 52.887001,33.3321435 L59.0201154,33.3321435 C59.1978869,33.3321435 59.3756583,33.2432578 59.464544,33.0654864 C59.5534297,32.8877149 59.5978726,32.7099435 59.5089869,32.5321721 L46.6205581,1.28884288 C46.5316723,1.06662859 46.3539009,0.933300018 46.1316866,0.933300018 L40.6207722,0.933300018 C40.3985579,0.933300018 40.1763436,1.06662859 40.0874579,1.28884288 L27.1990291,32.5321721 C27.1101434,32.7099435 27.1545862,32.8877149 27.243472,33.0654864 C27.3323577,33.2432578 27.5101291,33.3321435 27.6879005,33.3321435 L33.8210149,33.3321435 C34.0432292,33.3321435 34.2654435,33.1988149 34.3543292,32.9766006 L36.1764864,28.3989863 C36.309815,28.0434434 36.6653579,27.8212291 37.0209007,27.8212291"></path>
                    <path d="M106.129545,22.3992004 L98.7520305,22.3992004 C98.4409305,22.3992004 98.1742734,22.2658719 97.9965019,21.9992147 C97.8187305,21.7325576 97.7742876,21.4214576 97.9076162,21.1548004 L101.596373,11.9551288 C101.729702,11.5995859 102.040802,11.3773717 102.440788,11.3773717 C102.840773,11.3773717 103.151873,11.5995859 103.285202,11.9551288 L106.973959,21.1548004 C107.062845,21.4214576 107.062845,21.7325576 106.885074,21.9992147 C106.707302,22.221429 106.440645,22.3992004 106.129545,22.3992004 M96.1299019,27.8212291 L108.796116,27.8212291 C109.151659,27.8212291 109.507202,28.0434434 109.640531,28.3989863 L111.462688,32.9766006 C111.551574,33.1988149 111.729345,33.3321435 111.996002,33.3321435 L118.129117,33.3321435 C118.306888,33.3321435 118.484659,33.2432578 118.573545,33.0654864 C118.662431,32.8877149 118.706874,32.7099435 118.617988,32.5321721 L105.729559,1.28884288 C105.640674,1.06662859 105.462902,0.933300018 105.240688,0.933300018 L99.7742162,0.933300018 C99.552002,0.933300018 99.3297877,1.06662859 99.2853448,1.28884288 L86.396916,32.5321721 C86.3080303,32.7099435 86.3524731,32.8877149 86.4413588,33.0654864 C86.5302446,33.2432578 86.708016,33.3321435 86.8857874,33.3321435 L93.0189018,33.3321435 C93.2411161,33.3321435 93.4633304,33.1988149 93.5522161,32.9766006 L95.3743733,28.3989863 C95.4188162,28.0434434 95.7299162,27.8212291 96.1299019,27.8212291"></path>
                    <path d="M56.3979868,0.933300018 C56.2202154,0.933300018 56.042444,1.02218573 55.9535582,1.15551431 C55.8646725,1.28884288 55.8202297,1.51105717 55.9091154,1.6888286 C56.042444,1.99992861 68.9308728,33.1543721 69.0642014,33.4654721 C69.0642014,33.4654721 69.1975299,34.2210007 68.9308728,35.2876293 C68.7086585,36.2653721 67.908687,37.9542007 65.3310013,38.2208579 L65.2865584,38.2208579 C65.108787,38.2208579 64.9754584,38.2653008 64.8865727,38.3986293 C64.797687,38.487515 64.7088013,38.6208436 64.7088013,38.798615 L64.7088013,43.6873294 C64.7088013,44.1762009 64.8865727,44.2206437 65.6421013,44.2206437 C66.353187,44.2206437 66.5754013,44.2206437 67.908687,44.0873152 C71.5974443,43.7762151 73.9084729,41.3763008 76.3972729,35.2431864 L89.9523446,1.77771432 C90.0412303,1.55550003 90.0412303,1.3777286 89.9523446,1.24440002 C89.8634589,1.11107145 89.6412446,1.02218573 89.3745875,1.02218573 L83.5970159,1.02218573 C83.3748016,1.02218573 83.1081445,1.15551431 83.0637016,1.3777286 L73.0640586,25.7768576 L63.0644155,1.33328574 C62.9755298,1.11107145 62.7977584,0.977742876 62.5311012,0.977742876 L56.3979868,0.977742876 L56.3979868,0.933300018 Z"></path>
                    <path d="M125.95106,0.933300018 L123.328931,0.933300018 C123.062274,0.933300018 122.795617,1.19995717 122.795617,1.46661431 L122.795617,7.24418586 L122.795617,32.7099435 C122.795617,33.0210435 123.062274,33.2432578 123.328931,33.2432578 L128.973174,33.2432578 C129.284274,33.2432578 129.506488,32.9766006 129.506488,32.7099435 L129.506488,7.68861444 L136.21736,7.68861444 L138.172846,7.68861444 C139.417246,7.68861444 140.306103,7.68861444 140.750531,7.73305729 C141.950488,7.86638587 142.839346,8.62191445 143.283774,9.24411447 C143.772646,9.86631448 143.861531,10.6218431 143.861531,11.7329145 L143.861531,15.2883432 L143.861531,32.6655006 C143.861531,32.9766006 144.128189,33.1988149 144.394846,33.1988149 L150.039089,33.1988149 C150.350189,33.1988149 150.572403,32.9321578 150.572403,32.6655006 L150.572403,15.9105432 L150.616846,11.3329288 C150.616846,8.22192873 149.861317,5.86645726 148.261374,4.04430008 C147.016974,2.62212862 144.528174,0.933300018 139.995003,0.933300018 L129.106503,0.933300018 L129.106503,0.933300018 C128.795403,0.933300018 127.328788,0.933300018 125.95106,0.933300018"></path>
                    <path d="M10.3996288,0.88885716 C7.28862871,0.88885716 4.93315724,1.6888286 3.11100006,3.28877149 C1.6888286,4.53317152 0,7.02197157 0,11.5551431 L0,17.1105003 L0,22.6658576 C0,27.1990291 1.6888286,29.6433863 3.11100006,30.9322292 C4.88871438,32.5321721 7.28862871,33.2877007 10.3996288,33.2877007 L14.9772432,33.2432578 L22.7547433,33.2432578 C23.0658433,33.2432578 23.2880576,32.9766006 23.2880576,32.7099435 L23.2880576,27.0657005 C23.2880576,26.7546005 23.0214005,26.5323862 22.7547433,26.5323862 L14.399486,26.5323862 L10.8440574,26.5323862 C9.73298591,26.5323862 9.02190018,26.4435005 8.35525731,25.9546291 C7.68861444,25.5102005 6.97752871,24.6213433 6.84420013,23.465829 C6.79975728,23.1102862 6.79975728,22.532529 6.79975728,21.7770004 L6.79975728,21.599229 L6.79975728,21.599229 L6.79975728,12.6662145 L6.79975728,12.5773288 C6.79975728,11.6884717 6.84420013,11.0662716 6.84420013,10.7107288 C6.97752871,9.51077162 7.73305729,8.62191445 8.35525731,8.17748587 C8.97745732,7.68861444 9.73298591,7.59972872 10.8440574,7.59972872 L14.4439289,7.59972872 L26.6657148,7.59972872 C26.9768148,7.59972872 27.1990291,7.33307157 27.1990291,7.06641442 L27.1990291,1.46661431 C27.1990291,1.15551431 26.932372,0.933300018 26.6657148,0.933300018 L14.9772432,0.933300018 L10.3996288,0.88885716 L10.3996288,0.88885716 Z"></path>
                    <path d="M152.305674,0.266657148 C151.505703,0.266657148 150.83906,0.933300018 150.83906,1.73327146 C150.83906,2.53324291 151.505703,3.19988578 152.305674,3.19988578 C153.105646,3.19988578 153.772289,2.53324291 153.772289,1.73327146 C153.772289,0.933300018 153.105646,0.266657148 152.305674,0.266657148 M152.305674,3.46654293 C151.372374,3.46654293 150.572403,2.71101434 150.572403,1.73327146 C150.572403,0.799971444 151.327932,0 152.305674,0 C153.238974,0 154.038946,0.755528586 154.038946,1.73327146 C154.038946,2.66657148 153.283417,3.46654293 152.305674,3.46654293"></path>
                    <path d="M152.08346,1.19995717 L152.439003,1.19995717 C152.572332,1.19995717 152.661217,1.28884288 152.661217,1.42217146 C152.661217,1.55550003 152.572332,1.6888286 152.39456,1.6888286 L152.08346,1.6888286 L152.08346,1.19995717 L152.08346,1.19995717 Z M152.39456,1.99992861 L152.70566,2.53324291 L153.061203,2.53324291 L152.661217,1.91104289 L152.70566,1.91104289 C152.883432,1.82215718 152.972317,1.6888286 152.972317,1.46661431 C152.972317,1.19995717 152.750103,0.977742876 152.439003,0.977742876 L151.77236,0.977742876 L151.77236,2.53324291 L152.08346,2.53324291 L152.08346,1.95548575 L152.39456,1.99992861 L152.39456,1.99992861 L152.39456,1.99992861 Z"></path>
                </g>
                <path d="M198.081818,50.0426581 C197.281847,50.0426581 196.615204,50.709301 196.615204,51.5092724 C196.615204,52.3092439 197.281847,52.9758868 198.081818,52.9758868 C198.88179,52.9758868 199.548432,52.3092439 199.548432,51.5092724 C199.548432,50.709301 198.88179,50.0426581 198.081818,50.0426581 M198.081818,53.2425439 C197.148518,53.2425439 196.348547,52.4870153 196.348547,51.5092724 C196.348547,50.5759724 197.104075,49.776001 198.081818,49.776001 C199.015118,49.776001 199.81509,50.5315296 199.81509,51.5092724 C199.81509,52.4425725 199.059561,53.2425439 198.081818,53.2425439" id="Shape" fill="#0090A1"></path>
                <path d="M197.859604,50.9759581 L198.215147,50.9759581 C198.348475,50.9759581 198.437361,51.0648439 198.437361,51.1981724 C198.437361,51.331501 198.348475,51.4648296 198.170704,51.4648296 L197.859604,51.4648296 L197.859604,50.9759581 L197.859604,50.9759581 Z M198.170704,51.7759296 L198.481804,52.3092439 L198.837347,52.3092439 L198.437361,51.6870439 L198.481804,51.6870439 C198.659575,51.5981582 198.748461,51.4648296 198.748461,51.2426153 C198.748461,50.9759581 198.526247,50.7537439 198.215147,50.7537439 L197.548504,50.7537439 L197.548504,52.3092439 L197.859604,52.3092439 L197.859604,51.7759296 L198.170704,51.7759296 L198.170704,51.7759296 L198.170704,51.7759296 Z" id="Shape" fill="#0090A1"></path>
            </g>
        </g>
    </g>
</svg>