<svg width="220" height="60" viewBox="0 0 220 60" fill="none" xmlns="http://www.w3.org/2000/svg">
<mask id="mask0" mask-type="alpha" maskUnits="userSpaceOnUse" x="0" y="0" width="220" height="60">
<rect width="220" height="60" fill="#C4C4C4"/>
</mask>
<g mask="url(#mask0)">
<path d="M43.0152 45.0662C42.8845 45.1196 42.7683 45.2043 42.6766 45.3131C42.5849 45.4219 42.5203 45.5516 42.4882 45.6912C42.4562 45.8308 42.4577 45.9762 42.4926 46.1151C42.5274 46.254 42.5947 46.3823 42.6886 46.4891C43.0705 47.0956 43.7561 48.1297 44.7454 49.5915C45.7346 51.0533 46.4985 52.1729 47.037 52.9505C47.2586 53.3393 47.5603 53.3665 47.9422 53.0321C49.3479 51.8167 50.6653 50.4992 51.8839 49.09C55.3072 44.7933 57.5456 39.6467 58.3693 34.1786C58.4266 34.1203 58.312 34.1786 58.0428 34.3477C50.7629 39.4679 45.7537 43.0407 43.0152 45.0662ZM56.4443 18.3925C56.3603 18.3653 56.1541 18.4625 55.8256 18.6841C54.7294 19.4617 51.3358 21.8623 45.6448 25.8861C39.675 30.1276 36.3655 32.4719 35.7162 32.919C35.2303 33.2137 34.843 33.6506 34.6047 34.1728C34.5207 34.5071 34.6983 35.0106 35.1375 35.6832L39.2224 41.6314C39.6044 42.1912 39.9061 42.4984 40.1277 42.5528C40.3492 42.6072 40.7311 42.44 41.2735 42.0513C42.5301 41.1027 44.3481 39.8061 46.7277 38.1616C49.1072 36.5171 50.7629 35.3508 51.6949 34.6627C54.8153 32.4816 56.8969 31.0024 57.9397 30.2248C58.1841 30.0995 58.3899 29.908 58.5344 29.6713C58.6789 29.4347 58.7566 29.1622 58.7589 28.8836C58.6115 25.4857 57.9546 22.1307 56.811 18.9349C56.6468 18.6005 56.5245 18.4198 56.4443 18.3925ZM26.6183 22.533C26.6148 23.0265 26.7902 23.5041 27.111 23.8742C27.9283 25.0911 29.3148 27.1555 31.2703 30.0674C31.5969 30.5689 31.8433 30.8371 32.0495 30.8605C32.4287 30.8138 32.7857 30.6535 33.075 30.3998C34.1177 29.6805 37.624 27.2002 43.5938 22.9587V23.0403C48.8532 19.3003 52.3021 16.8161 53.9407 15.5876C54.4869 15.2532 54.7733 15.0025 54.8001 14.8353C54.8268 14.6681 54.6759 14.3338 54.3475 13.8323C52.9257 11.6487 51.2438 9.65272 49.3402 7.88987C48.794 7.32227 48.4235 7.03846 48.2287 7.03846C47.7647 7.16957 47.3319 7.39579 46.9568 7.70326C46.9252 7.70475 46.8941 7.71276 46.8656 7.72679C46.837 7.74082 46.8115 7.76059 46.7907 7.78491C46.7701 7.81004 46.7448 7.83073 46.7163 7.84575C46.6878 7.86077 46.6566 7.86983 46.6245 7.87238C36.1669 15.2979 29.7903 19.8213 27.4948 21.4425C27.0792 21.6819 26.7665 22.0709 26.6183 22.533ZM41.7433 51.9416C40.8381 50.6315 40.2499 49.7528 39.9787 49.3057C39.5395 48.6915 39.211 48.3571 38.9933 48.3027C38.5354 48.2987 38.0839 48.413 37.6813 48.6351C33.5264 50.4643 28.8948 50.8476 24.5042 49.7256C20.2988 48.7768 16.5245 46.427 13.7792 43.0485C9.50521 37.7029 8.1092 31.8149 9.59115 25.3846C11.5009 16.9521 16.428 11.7873 24.3724 9.89011C27.9726 9.05283 31.7327 9.27737 35.212 10.5374C35.5506 10.6805 35.9216 10.7252 36.2837 10.6665C36.6458 10.6078 36.9848 10.4481 37.2631 10.205C37.4846 10.0378 38.6629 9.20004 40.798 7.6916C42.8796 6.23759 44.0846 5.37258 44.4131 5.09655C44.7415 4.82052 44.9325 4.65335 44.986 4.59503C44.986 4.48229 44.795 4.31512 44.4131 4.09352C38.7799 0.653772 32.1445 -0.67847 25.65 0.326317C19.0871 1.1801 13.0154 4.31551 8.4625 9.20198C4.59775 13.1999 1.91181 18.2208 0.709706 23.6945C-0.492396 29.1681 -0.162486 34.8752 1.66197 40.1677C3.49145 45.4742 6.78557 50.1311 11.1495 53.5803C15.6629 57.2549 21.1817 59.42 26.9505 59.7793C32.727 60.2711 38.5154 58.985 43.5652 56.0879C43.6714 56.0543 43.7672 55.9929 43.8428 55.9099C43.9185 55.8269 43.9715 55.7251 43.9964 55.6147C44.0213 55.5043 44.0174 55.3893 43.9849 55.2809C43.9525 55.1726 43.8927 55.0748 43.8115 54.9974C43.3341 54.2898 42.6447 53.2712 41.7433 51.9416Z" fill="black"/>
<path d="M208.67 21.6904V26.5983H217.57V32.9176H208.67V37.8086H219.999V44.2711H202.199V15.228H219.999V21.6904H208.67ZM183.561 29.7495L177.211 15.228H170.011L183.561 44.5997L197.111 15.228H189.911L183.561 29.7495ZM161.061 31.957L170.411 44.2711H162.695L153.795 32.4752H153.715V44.2711H147.24V15.228H158.074C160.074 15.2312 162.01 15.9438 163.544 17.2418C165.079 18.5397 166.114 20.3407 166.47 22.3311C166.826 24.3214 166.48 26.3749 165.492 28.1339C164.505 29.8928 162.938 31.2458 161.065 31.957H161.061ZM160.336 24.1044C160.335 23.7141 160.257 23.328 160.106 22.9689C159.955 22.6098 159.734 22.2849 159.457 22.0136C159.18 21.7422 158.851 21.5297 158.491 21.3889C158.131 21.248 157.747 21.1815 157.361 21.1933H153.72V26.9691H157.361C157.745 26.9872 158.129 26.9267 158.49 26.7912C158.85 26.6557 159.18 26.4479 159.459 26.1803C159.738 25.9128 159.96 25.591 160.113 25.2342C160.266 24.8775 160.346 24.4932 160.349 24.1044H160.336ZM132.836 32.5721C132.836 36.0898 130.69 38.2973 127.536 38.2973C124.382 38.2973 122.253 36.0898 122.253 32.5679V15.228H115.778V32.5005C115.778 39.7802 120.674 44.6081 127.553 44.6081C134.432 44.6081 139.324 39.7802 139.324 32.5005V15.228H132.849L132.836 32.5721ZM83.6487 29.6611C83.607 37.8508 89.7612 44.8525 99.6071 44.903C104.261 44.9283 107.34 43.3064 110.345 40.8419L106.799 35.5759C104.87 37.4272 102.3 38.4393 99.6404 38.3942C94.3237 38.3689 91.0195 34.5269 91.0445 29.699C91.0695 24.8711 94.4112 21.0627 99.7279 21.0922C102.387 21.0737 104.947 22.1115 106.857 23.9822L110.457 18.7499C107.478 16.2559 104.411 14.6045 99.7612 14.5792C89.9112 14.5497 83.6862 21.4924 83.6445 29.6821L83.6487 29.6611Z" fill="black"/>
</g>
</svg>
