<svg id="Layer_1" xmlns="http://www.w3.org/2000/svg" viewBox="0 0 126.2 113.1"><style>.st0{fill-rule:evenodd;clip-rule:evenodd}.st0,.st1{fill:#006241}</style><path class="st0" d="M61 .7v.6c-.5.2-.7.5-1.4.6v.3h-.2c.1.1.1.3.2.4.2-.1.4-.1.6-.1v-.1c.4-.2 1.1-.2 1.6-.3v.1c.4.2.4.6.6 1h.2c-.1.1-.1.3-.2.4-.6 0-.8.1-1.2.1.3.4.5.3.6.9-.3.1-.5.1-1 .1-.1-.1-.1-.2-.2-.3-.2 0-1 .5-1.4.6v.1H59V5c-.3-.2-.3-.1-.4-.4-.3 0-.5-.1-.8-.1.1.7.4.4.6 1 .9-.1 1.1-.1 1.9 0 .1-.1.1-.3.2-.4.6.1.8.4 1.4.6v-.1h.2c.1-.3.1-.6.2-.9.2 0 .4-.1.6-.1l.2.1c.3-.1-.2-.2.2-.3v.1c.2 0 .4.1.6.1.1.2.2.3.2.4h1.4c.1.1.1.2.2.3.4.1.3-.1.4-.1.2-.2.1 0 .2-.3h-1.2c-.3-.4-.3-.2-.4-.9h.2v.1h.2V4c.8-.3.7-.6 1.4-.9-.2-.2 0-.1-.4-.1 0-.5-.4-.3.2-.4-.1-.6-.3-.7-.6-1 .5-.2.3-.3 1.2-.3.1.1.1.3.2.4.5 0 .9-.1 1.4-.1.1.1.1.2.2.3.4 0 .8.1 1.2.1.1.2.1.4.2.6-.3 0-.5.1-.8.1V3c.5.1.6.3 1 .4v.1c.2 0 .4-.1.6-.1.1.1.1.2.2.3.4.2.7.3 1.4.3 0 .5.1.8.2 1h.4v-.1h-.2c-.4-.1.4-.1.4-.1.2-.5.3-.6 1.2-.6.2.2.3.2.6.3-.1.3-.2.5-.4.7h.4c.3-.2 1.9-.3 2.3-.3.2.4.2.9.2 1.5h.6c-.2-.4-.1-.7-.1-1 .2 0 .4-.1.6-.1v-.1c.4.1.2 0 .4.1.2 0 .4.1.6.1-.1.2-.1.4-.2.6-.1 0-.3.1-.4.1-.3.4 0 1.2.2 1.6.1 0 .3-.1.4-.1.3-.5.4-.9.4-1.6.8-.2.7-.4 1.7-.4.2.3.1.3.6.4v.1h.6c.3.1-.1.1.2.1-.1-.1-.1-.2-.2-.4h.2c.2-.3.3-.3.4-.7-.6-.1-.5 0-.6-.4.2-.2.1 0 .2-.3.3 0 .6-.1 1-.1.2.2 0 0 .2.1 0 .3-.2.4-.2.6h.2v.3h.2v.3h.2c.2.2.1.3.2.6l-.2.1h-.6V7c-.5.2-.8.3-1.7.3v-.1h-1.4v.1c.4.1.8.2.6.7-.1 0-.3.1-.4.1v.7c.5-.1.7-.1 1.4-.1.2.4.3.3.3.9h-.4c.2.2 0 .1.4.1.1.1.2.4.6.3v-.1c.6-.1.7-.2.8-.7-.6-.3-.5-.6-.4-1 .8.1 1.6.3 2.3.4V8c.3-.1.6-.1 1.2-.1.1.1.1.1.4.3v-.1c0-.1.1-.1.1-.1v-.6h.8c.2.2.4.2.6.4-.4.3-.9.9-1.2 1.2.2 0 .4-.1.6-.1v1.2h-.2v.6c.2 0 .4-.1.6-.1 0-.7-.3-1.1.2-1.5V9h.6c.1-.1.1-.2.2-.3.3-.2.6-.2 1.2-.3v-.3c.7.1.5.1 1 .3v.1c.4 0 .9-.4 1.2-.6v-.1h.6c.3.4.3.2.4.9-.4.1-.6.3-.8.6h.2c.2.2.7.5 1 .6-.2-.3-.3-.2-.4-.6.7-.3.8-.6 1.9-.6.1.5.2 1.1.2 1.7.3.1.5.2.8.3-.3-.4-.5-.5-.6-1.2h1c.1-.6.1-.3.4-.6h.2v-.1h-.2v-.6c.9 0 1.2.1 1.7.3-.1.2-.2.3-.2.7.4 0 .8.1 1.2.1.1.2.2.3.2.7-.3.1-.3.1-.8.1-.7-.6-1.6-.1-2.3 0 .1.1.1.3.2.4l.2-.1c.2-.2.1 0 .2-.3h.6c.3.4.7.3 0 .7v.1c-.2 0-.4-.1-.6-.1-.1.1-.1.2-.2.3-.3 0-.5.1-.8.1-.6.3.2.5-1.2.6-.4-.4-.4-.2-1-.1 0 .7-.1 1-.4 1.5h.4c.2-.3.1-.2.6-.3.2-.6.6-.5 1.6-.4.2.2 0 .1.4.1 0 .5-.2 1 0 1.2v.1c.4-.1.2 0 .4-.1h.2c.2-.3-.2-.7-.2-.9 0-.1.3-.1.4-.3h.4c.3.4.5.5 1.2.6v-.3h-.2v.1h-.2v-.1c-.5-.3-.3-.1-.2-.6h1.2v-.1c-.8 0-.8 0-1-.4.2-.2.1 0 .2-.3h.4v-.3c.3.1.3.2.8.3-.1.4-.1.9-.2 1.3-.2 0-.4.1-.6.1v.1c.5 0 .5.1.8.1-.3.4-.6.6-.8 1 .3.1.2.1.4.3h.2c.1-.1.1-.3.2-.4h.8v-.1c.2 0 .4.1.6.1v-.1c.4 0 .8-.1 1.2-.1 0 .5-.1.8-.2 1.2h.6c.1-.6.3-.7 1.2-.7.3.4 1.2 1 .8 1.5v.3h.4c.1-.4.2-.5.6-.7v-.1c.1 0 .3.1.4.1v-.1c.3 0 .5-.1.8-.1v.1h.4v.3l.6.3v.3h.2c.1-.1.4-.2.8-.1 0 0 0 .1.4.1.1.1.1.3.2.4h.2c.3.4-.2.3.6.4v.1h.2V17c.4 0 .1.2.6 0v-.1c.3 0 .6.1 1 .1v.4c-.2.1-.3.3-.4.3h-.6v.1h.2c.2.3-.1.8-.2.9.7 0 .8 0 1 .4.2.2.1 0 .2.3h.8c.1.1.1.3.2.4h.2c-.1.1-.1.2-.2.3h.2c.6.5.9 0 1 1h-1.6c-.2 0-.1.5-.8.3-.1-.1-.1-.2-.2-.3h-.4V21c-.4-.1-.6.1-.6.1-.4 0-.8-.1-1.2-.1v.3c.3 0 .6.1 1 .1-.1.2-.1.5-.2.7h-.6v.1h-.2v-.1h-1c.1-.5.2-.4.4-.9-.3-.1-.3-.3-.6-.4v.1c-.5 0-.9.1-1.4.1v-.1h-.2v.1h-.4l-.6.6h.2c.5.4.9.3 1.6.1v.1c.3.2.6 1 .8 1.3.5 0 1 0 1.2.1v.4c.1 0 .3-.1.4-.1v.1c.3 0 .5.1.8.1-.1.3-.1.6-.2.9-.8 0-1.1.1-1.6.3-.1.1-.1.2-.2.3h-.4v.1h-1.4c-.1-.1-.1-.2-.2-.3-.4-.1-.6.1-.8.1.5.5.8 0 1 .9-.2.1-.4.3-.4.3h-.8v.1c.4.2.4.2.4.7-.2.1-.3.2-.4.4h-.4c-.2-.2-.4-.5-.6-.7-.6-.3-.5.2-1-.3h-.2c-.1-.2 0-.4.2-.4V26h-.4v.1c-.2.2-.1 0-.2.3-.3 0-.5.1-.8.1v-.1c-.3-.2-.3-.3-.4-.6-.5.1-.9.2-1.4.3v.1c.3 0 .6.1 1 .1v.6c-.6.1-.4.2-1.2.3-.2-.3-.3-.3-.4-.7h-.4c.1-.3.1-.6.2-.9-.9-.1-.9-.3-1.7-.4-.2.2 0 0-.2.1.3.4.5.3.6.9-.2 0-.4.1-.6.1.1.2.1.4.2.6h-.2v.1h-1.2v-.1c-.3 0-.6-.1-1-.1v.3c.4 0 .8.1 1.2.1.1.2.1.4.2.6.5-.1.4-.2.8-.3v.1h.4v.1c.3.1.6.3 1 .4V28c.2-.1.3-.2.4-.4.3.1.6.1 1 .1v.1h.2v.6c-.3.1-.2.1-.4.3-.1 0-.4-.3-.4-.3-.2-.1-.5.4-.6.4h-1c-.2.5-.2.4-1 .4v-.6c-.4 0-.8-.1-1.2-.1-.1.5-.2.4-.2.2-.2 0-.4.1-.6.1.1.2.1.4.2.6h-.2v.1c-.3.1-.6-.1-.8-.1v.1h.2v.3h.2c.3.3.4.4.4.9-.4 0-.8.1-1.2.1-.1-.3-.3-.6-.4-.9-.3 0-.6.1-1 .1v.1c-.2 0-.4-.1-.6-.1v-.3H94c.1-.1.1-.3.2-.4.5-.1.4 0 .6-.4h-.6c-.1.5-.2.7-1 .7l-.4-.4h-.2v.3c-.2 0-.4.1-.6.1v.1c.5 0 .5.1.8.1l-.4.4c.4 0 .7-.1.8-.1l.2.1c.1.1.1.3.2.4.4-.1.8-.1 1.2-.1.1.1.1.3.2.4h.2c0 .2-.1 0-.2.1v.1h-.6v.1h.2c.4.2 1 0 1.7 0 .1.2.3.4.4.6.4-.1.5-.2 1-.3.1.3.1.3.4.4v.1c.2.3.2-.3.2-.3h.6v.1c.2.1.3.3.4.4-.3 0-.6.1-1 .1v.1c.6.1.5.1.6.6-.3 0-.5.1-.8.1V33h-.2v-.4c-.2-.2-.5 0-.8-.1-.2-.1-.2-.3 0-.4h-.6v.1c-.4-.1-.8-.1-1.2-.1-.1.1-.1.3-.2.4h-.2c-.5.5-.1.6-1.4.6-.2-.2 0 0-.2-.1.2-.3.3-.4.4-.7l-.2-.1c-.3 0-.5.1-.8.1v.3c-.5-.1-.4 0-.6-.3h-.2c-.2-.3.3-.4.2-.6-.1 0-.3-.1-.4-.1v-.4h-.2c-.1.1-.2.4-.6.3v-.1h-.4v-.3h-.4V31c-.1 0-.4.1-.8.1-.1.3-.2.5-.4.7h-.4c-.3-.3-.5-.6-.8-.9l-.2.1h-.8c-.1.1-.1.2-.2.3-.2 0-.4.1-.6.1v-.1c-.2 0-.4-.1-.6-.1v.3h-.8v.1c1 .1.6.4 1.2.7.1-.1.3-.1.4-.1v.1h.2v.4h.2v.1c.2-.2.1 0 .2-.3.3-.1.2-.1.4-.3-.3-.2-.3-.1-.4-.4l.2-.1c.7.1.7.3 1.4.4 0 .5.2.7.4 1 .8-.1.7-.3 1.9-.3.1.1.1.2.2.3.5.4-.3.3 0 .9h.2c.2.2.2.4.2.7L90 35v-.1c-.3 0-.6-.1-1-.1-.1.4-.2.3-.4.6-.2-.1-.3-.3-.4-.3h-.4V35c-.7-.2-.8.5-1.6.3-.1-.1-.1-.2-.2-.3h-.4v-.1c-.3-.1-.5-.3-.8-.4v.4c.3.2.4.4.4.9h.4c.1.1.1.3.2.4h-.2c.4.6.4.8.3 1-.4 0-.8-.1-1.2-.1-.1-.1-.1-.3-.2-.4h.2c.1-.1.1-.2.2-.3h-.4c-.1.2-.1.4-.2.6h.2v.1h-.2c0 .2.4.4.2.7 0 0-.3.2-.4.3-.2-.1-.3-.2-.4-.3h-.4v-.1h-.6c-.1-.1-.1-.3-.2-.4h-.2c-.5-.4-.2-.3-1.2-.3v.1h-.6v.1h-.2c-.1.2-.1.5-.2.7-.6 0-.7.1-1.2.3.1.1.1.3.2.4h-.2v.1h-.8c-.1-.2-.2-.3-.2-.7.3-.1-.1-.1.2-.1h.8v-.1c-.1-.1-.4-.2-.2-.4h.2v-.1h.6v-.1c-.6-.1-1.9-.8-2.9-.4-.1.1-.1.2-.2.3-.3 0-.6.1-1 .1v-.1h-.6V37c-.3 0 .1.1-.2.1h-2.1v.1h-1v.1c-.7 0-1.4.1-2.1.1-.1.1-.1.2-.2.3-.2 0-.4.1-.6.1 0 .8-.3 1.1-.4 1.9.5-.1.9-.2 1.4-.3.1.2.1.5.2.7-.3.1-.5.3-.8.4v.3c-.1.1-.3.1-.4.3h.6c.2-.3.2-.2.8-.3.1.2.1.5.2.7.9.1 1.8.3 2.7.4.1-.1.1-.2.2-.3.7-.3 1.1-.4 2.1-.4v.7h.8v-.1h.2v.1h.2v-.1h.6v-.1h.2v.1h.2v-.1c.2 0 .4.1.6.1.1.2.1.5.2.7.6 0 1.2-.1 1.7-.1v-.1h.8v-.1c.1 0 .3.1.4.1v-.1c.4-.1 1.7.3 1.9.4.1.1.1.2.2.3.6.2 1.1 0 1.4 0v.1c.6-.1 1.3-.3 1.9-.4.1.1.1.2.2.3.4.1.8.1 1.2.1v.1c.1 0 .3-.1.4-.1v.1h2.5v.1c.3.1.5.1.8.1.1.1.1.3.2.4h-.2c-.4.3-2 .2-2.7.1v-.1h-1v-.1h-1.2v-.1h-2.3v-.1c-.6-.1-1.2.2-1.6.3-1 0-2.1-.1-3.1-.1v.1c-.2 0-.5-.2-1-.1v.1h-.2c-.2-.1.1-.2-.2-.1v.1c-.8 0-1.7.1-2.5.1v-.1h-2.1v-.1c-.1 0-.3.1-.4.1-.4-.1-1.8-.5-2.5-.3v.1l-1.2.3v.1c-.9.2-1.1-.7-2.5-.4v.1c-.1 0-.3-.1-.4-.1v.1c-.5 0-.9.1-1.4.1v.1h-.4v.1h-.2v-.1h-1.2c-.6-.1-2.8-.8-3.9-.4v.1h-.4c-.1.1-.1.2-.2.3h-.4c-.1.1-.1.2-.2.3h-3s-.1.1-.1 0h-1.1V44h-.9-.7c-.1-.1-.2-.1-.4-.2-.4-.2-.8 0-1.4-.1v-.1h-.4v-.1c-.8 0-1.6.1-2.3.1v-.1c-.1 0-.3.1-.4.1 0 0 0-.2-.4-.1v.1h-.2v-.1h-.2v.1h-.2v-.1h-.2v.1h-.8v.1h-.4v.1c-.5 0-.9-.1-1.4-.1v.1h-.6v.1h-.4v.1c-.8 0-1.6-.1-2.3-.1v-.1c-.1 0-2 .3-2.9.1-.5-.1-2.1-.5-2.9-.3v.1h-.6v.1h-.4v.1h-2.2c-.1-.3 0-.3-.1-.6.3 0 .5-.1.8-.1v-.1c.3 0 0 0 .2.1h.2v-.1h2.1c.6-.1 1.2-.3 1.7-.4.1-.4.3-.4.6-.7.2 0 .4.1.6.1v.1c.6 0 1.3-.1 1.9-.1.3.1 1 .6 1.6.4v-.1c.3 0 .5-.1.8-.1v-.1h.6v-.1c.6-.1.5.3.8.4.2 0 .3-.1.8-.1v-.3c.3.1 1.1.1 1.4 0 .1.1.1.3.2.4h.4v.1c.7.2 1.2-.3 1.6-.4h1c.1-.1.1-.3.2-.4.1 0 .3-.1.4-.1v-.3c.2-.2.9-.1 1.4-.1.4.4.9.6 1.7.6.1-.2.3-.5.4-.7.6-.3.8.3 1.2-.6h.2V40h.2c-.1-.1-.1-.2-.2-.3h.2v-.9s.1 0 .2-.3h.4c.3-.5.4-.3.4-1l-.6-.3v-.3c-.3-.1-.5-.3-.8-.4-.1-.5-.3-1-.4-1.5-.6-.1-1.2-.2-1.7-.3-.1-.1-.1-.3-.2-.4-.9 0-1.2.2-1.9 0v-.1h-.4v-.1h-1V34c-.1 0-.3-.1-.4-.1v-.3l-.6-.3c-.1.4-.4.6-1 .7-.1-.2-.1-.5-.2-.7h-.2v.1c-.5.2-.6.3-.6.9h.2v-.1h.2v.1c.4.2.4.2.4.7-.2.2-.1 0-.2.3h-1c-.2-.2-.1-.2-.4-.3.1-.1.1-.3.2-.4.3-.1.2-.1.4-.3-.7.2-1.2.1-1.6-.3h-.2v-.4h-1c-.1.4-.1.3-.6.4v.1c-.5 0-.9.1-1.4.1v-.1h-.2v-.6h-.2v.3c-.2.1-.4.3-.4.4h.2v.1h-.4v.1h.6v.1h-.6v.1h.4c.3 1.1-.1.6-.4 1.5-.3 0-.6-.1-1-.1-.2.6-.4.6-1.4.6v-.4h-1.2c-.1-.2-.1-.2-.2-.6.6-.2.3-.3 1.4-.3v.1c.3 0 .6.1 1 .1v-.1h-.2c-.4-.1.4-.1.4-.1.2-.6.5-.4 1-.7h-.8c-.3.3-.7.4-1 .7-.2 0-.4-.1-.6-.1l-.6-1.2c-.5.1-.7.1-1.4.1-.2-.2 0 0-.2-.1.1-.1.1-.3.2-.4h-.2v-.1h-.6v.1h-.2v1s-.5.3-.6.4c.4 0 .4 0 0 0v.6c0 .2.2-.1.2.1h-.2v.3h-1c-.3-.4-.5-.8-.8-1.2.4-.2.6-.3.8-.7h.2V34h-.2c-.2-.4-.1-.4-.8-.4-.4.5-.6.2-1.4.4v.1h-.8v.1c-.2.2-.1 0-.2.3h-.8c-.3.4-.6.6-.8 1-.4 0-1.3-.2-1.4-.1v.1h-.4c-.1.1-.1.2-.2.3h-1v-.3h-.4v-.4h.2V35c.4-.2.4.2.8-.3-.1 0-.3-.1-.4-.1.1-.4.3-.9.4-1.3-.2 0-.4.1-.6.1-.1.3-.1.6-.2.9-.3 0-.5.1-.8.1v-.1c-.4-.2-.5-.2-.6-.7.6-.3.4-.3.4-.9-.2 0-.4-.1-.6-.1v.1c-.3.1-.5.1-1 .1-.1-.2-.3-.4-.4-.6h-.6v-.1c-.2 0-.4-.1-.6-.1-.1.2-.3.2-.4.3-.5.6 0 .8-1.4.9-.4-.5-.7-.6-1.7-.6v.1h-.4v.1c-.4.2-.5.3-1.2.3-.2-.1-.3-.2-.6-.3-.1-.2-.1-.5-.2-.7-.8-.1-.2-.2-.6-.4-.1 0-.3.1-.4.1-1.2 0-1.5 0-1.6-.9h.2v-.1c.1 0 .3.1.4.1v-.1c.3 0 .5-.1.8-.1v-.1c.3 0 .6.1 1 .1v-.1h-.2c-.1-.3-.1-.7-.2-1 .3-.1.5-.1.8-.1v.1h.4v.1c.3.1.3.1.8.1v-.3c.9-.1 1.1-.1 1.9 0v.4c-.5.2-.7.5-1.4.6v.3h.8v-.1c.5-.3.6-.5 1.4-.6v-1h.4v-.7c-.4-.1-.5-.2-1-.3-.1-.1-.1-.3-.2-.4h.2c.3-.2.5-.5.8-.7-.8 0-.7-.1-1.2-.3v.3c.4.2.3.1.4.6h-.2v.1h-.6c.1.3.2.5.4.7h-1.2c0-.4.1-.5.2-.7h-.6v.1h-.2c-.1.3-.1.7-.2 1-.4 0-.7.1-.8.1v-.1h-.4v-.6c-.4-.2-.3-.2-1-.3.1.1.1.3.2.4-.2 0-.4.1-.6.1-.2.2-.3.5-.4.7-1.1 0-1.3-.3-2.1-.4-.1-.2-.1-.2-.2-.6h.2V28c1.4 0 2.8-.4 3.1-1.2h.2v-.1h-.4c-.2.2-.4.5-.6.7-.5-.1-.7-.3-1-.6.5-.2.7-.5 1.4-.6v-.4c.9-.1 1.4-.2 1.9.6.4-.1.5-.2 1-.3V26c-.2-.2-.1 0-.2-.3-.8-.1-.5-.1-1.2 0v-.1c-.5 0-1-.1-1.6-.1-.1-.3-.1-.6-.2-.9.3-.1.6-.3 1-.4v.1c.6.3.7.4 1.7.4l.6-.6h.4c.1-.1.1-.2.2-.3.3 0 .5.1.8.1v.3c.4.1 1.3.6 1.4.6v-.1c.2-.2.1 0 .2-.3h-.2v-.1h-1v-.1h-.2v-.4h.2c-.1-.1-.1-.3-.2-.4-.5.2-.6.4-1.4.4-.2-.2-.4-.1-.6-.3v-.3s-1.5.4-2.1 0h-.2v-.4c.5-.3.4-.5 1.4-.6v.1h.2v-.1c.2 0 .4.3.8.1v-.1h.2c.1-.2 0-.4-.2-.4v-.1h.4v-.1c.3-.2.5-.1 1-.1.2.2.4.5.6.7h.2v-.3c-.4-.2-.3-.1-.4-.6.4-.2.3-.2 1-.3v.1c.5 0 .9-.1 1.4-.1.1-.1.1-.2.2-.3.4-.2.2.2.6-.1-.4-.2-.7-.5-.8-.9-.6 0-1.1.2-1.6 0v-.1c-.5-.3-.1-.3-1-.4-.1.1-.1.3-.2.4h-.2v.1c.6.1.6.2.6.7-.6.1-1.3.2-1.9.3V20h-.2c-.3.2-.4.3-1 .3v-.1h-.2c-.1-.2-.1-.5-.2-.7-1 .1-.5.3-1.6.4-.1-.1-.1-.3-.2-.4h-1.2v-.1h-.2v-.6c.6 0 1.3-.1 1.9-.1 0-.5.1-.7.2-1h-.6v-.1c-.3-.2-.5-.4-.6-.7.4 0 .6-.1.8-.1v.1c.3 0 .6.1 1 .1.1.2.1.2.2.6-.2.1-.4.1-.6.3h.8v-.3c.5-.1.4 0 .6-.4-.3-.2-.3-.3-.4-.7.3-.1.6-.1 1.2-.1v.1h.2v.6h-.2v.1l.2.1c.1 0 .3-.1.4-.1.1-.2.1-.3.2-.6h.2c.2-.6-.6-.8 0-1.3v-.1h.6c.4.4.1.2.8.1.1-.4.3-.3.4-.7.5-.1.4 0 .6-.4h-.2v-.7c.3 0 .5-.1.8-.1.1.1.1.2.2.3.3 0 .5.1.8.1v-.3c.3.1.5.2 1 .1 0 0 .2-.3.6-.1 0 0 .3.3.4.3-.2-.4-.4-.5-.4-1 .5-.1.4 0 .6-.3h-.2c-.3.3-1 .5-1.4.3h-.2v-.7c.7-.1.6-.1 1.4 0v.1c.3 0 .3-.3.4-.3.4 0 .8.1 1.2.1v.1h.2c.1.3.1.6.2.9h1.4v-.1h-.2c.1-.1.3-.3.2-.6-.3-.1-.5-.3-.8-.4v-.6h-.2V11h-.2c-.1-.2-.1-.5-.2-.7-.2 0-.4-.1-.6-.1v-.4c.3 0 .6-.1 1-.1v-.3h.4l.4-.4s.6.1.8.1v.3c.4.2.4.3 1 .4-.1-.4-.3-.9-.4-1.3.2-.1.4-.1.6-.3.4.1.2 0 .4.1.5.2.4.4.4 1h.4v-.1h.2v.1h1c.3-.5.7-.3.7-.3-.1.1-.1.3-.2.4h.2c.2-.2.3-.4.8-.3.1.1.1.2.2.3.2.1.9-.2 1-.3v.1l.6.3c-.1.1-.1.3-.2.4.8.1 1.1.3 1.7.4V10s1.2-.5 1.4-.4v.1h.4v.1c.1 0 1.5-.4 1.6-.4h.2v-.1c-.2-.1-.4-.3-.4-.3-.9-.3-1.2.4-1.6-.6.2 0 .4-.1.6-.1v-.1c.7-.3.7.2 1-.6h.2c.1-.3-1.8-.5-1.8-.5v-.7c.5 0 .9-.1 1.4-.1v-.4h-.2v-.1c-.5-.3-.5.3-.8-.4.2-.2.1 0 .2-.3.3 0 .6-.1 1-.1v.1c.4.2.4.3 1 .4v-.3c.2-.1.4-.2.7-.2v.1c.4.3 0 .2.2.4.4-.1.1-.2.4 0h.2c.1.1.1.3.2.4 0 0-.4 0-.2.1h.6l.4.4c.3-.1.3-.1.8-.1.1.3.2.5.4.7.4-.1.2 0 .4-.1.2 0 .4-.1.6-.1v-.1h.4v-.1c.3-.2.3-.1.4-.4-.5-.3-.6-.5-.6-1.2h-.8c-.1-.1-.1-.3-.2-.4h.4v-.3c1-.1.9-.1 1.7.1-.2.7-.2.5.2 1 .4-.1.2 0 .4-.1.5-.1.6-.2.8-.4-.4-.3-.4-.8-.4-1.5.3-.1.3-.1.8-.1.1.1.4.3.4.3v1.2c.3.1.5.3.8.4.4.5-.2.7.8.9v-.3h.4v-.1c-.6-.3-.3-.5-.2-1H48V4c.3-.1.3-.1.8-.1.2.2 0 .1.4.1.2.5 0 .7.8.9.2.2 0 0 .2.1v-.6h.2v-.6c.3 0 .6.1 1 .1v-.1c-.5-.3-.3-.3-.2-.7h.4l.4-.4s.6.1.8.1v.3h.2c-.1.1-.1.3-.2.4h-.4c.2.3.4.3.6.7-.5.1-.9.2-1.2.4h.2v.6h-.2c.1.1.1.3.2.4.3-.1.5-.3.8-.4v-.1h.4V5h.4c.1-.1.2-.2.4-.3-.1-.2-.2-.3-.2-.7h1.4c0 .4 0 .5-.2.7h.2c-.3-.1-.2 0-.2.1.3-.1.3-.1.8-.1-.1-.4-.4-.6-.6-1h.2c.7-.6 1.3-.1 1.7-.3.4-.2.3-.1.4-.6h-1c.1-.3.1-.6.2-.9h.4v-.4c.7 0 1.2 0 1.6-.3l-.4-.4h.2c.2-.2.4-.1.6-.3V.2c.2-.2.4-.2.8-.2.2.2 0 0 .2.1-.1.4-.2 0 0 .4.3.2.4.2.9.2zm-3.1 1.2c-.1.1-.1.2-.2.3h.8v-.1c-.2-.1-.4-.2-.6-.2zm.8 1.7c-.1-.1-.1-.3-.2-.4h.2v-.3c.3.1.3.1.8.2.2.2 0 0 .2.1-.1.3-.1.3-.4.4v.1c-.2 0-.4 0-.6-.1zm8.8-.2c.5 0 .7-.1 1-.3h.2v.4h-.2v-.1h-.2v.1c-1 0-.8-.1-1.4-.3v-.3c.2 0 .4.1.6.1v.4zm-23.3 9c.1-.3 0-.1.2-.3-.2-.2-.4-.2-.6-.4-.5 0-.7.1-1 .1.1.5 0 .5.6.6v.1c.3 0 .6-.1.8-.1zM68 5.1v-.3c.1 0 .3-.1.4-.1v-.6l-.2-.1c-.4.1-.2 0-.4.1h-.2v.2h-.2c-.2.2-.1.3-.2.6l.2.1c.2.1.4.1.6.1zm.4 12.6l-.2.1c.1.3.3.7.4 1h.8v-.1c.2 0 .4-.1.6-.1 0-.6-.1-.5-.4-.9h-1.2zm1.4-13c-.4.1-.2 0-.4.1h-.2v-.3c.2 0 .4-.1.6-.1v.3zm.8 0h.2c.1.3-.1.2-.2.3v.1h-.2c0-.1.1-.3.2-.4zm-16 .8h.4c-.1.5-.3.6-.4 1h.2c.2-.2 0-.1.4-.1.2-.3.4-.5.6-.9-.3-.1-.3-.2-.8-.3v-.3c-.2.2-.1 0-.2.3-.2.2-.1 0-.2.3zm-1.7.8c0-.4.1-.6.2-.9h.4v.3h.2c0 .1-.2.3-.2.6h-.6zm13.6-.8h.4v.3h-.4v-.3zm8.5.3v.4h.2c.2-.2 0-.1.4-.1v-.3H75zM38.7 6h.6v.1h.2v.4c-.6 0-.7-.1-.8-.5zm10.7.3v.3c.3.1.5.1 1 .1.1-.1.1-.3.2-.4-.3-.1-.3-.1-.8-.1-.2.1 0 0-.4.1zm9.3 0v.3h.6v-.3h-.6zm7.6.3v.6c.4.2.7.4 1 .7l.2-.1c.3-.3.4-.4.5-.8h.2v-.1H68c-.3-.4-.9-.4-1.7-.3zm-9.9.4v.6c.3 0 .5-.1.8-.1-.1-.2-.2-.4-.2-.5h-.6zm7.6.3c.1.6.3 1.1.6 1.6.3 0 .5-.1.8-.1v-.1c.5 0 .9.1 1.4.1v-.1c-.2-.1-.3-.3-.4-.3-.2 0-.5.3-1 .1v-.1H65c-.1-.1-.1-.3-.2-.4h-.2v-.3c-.3-.2-.5-.3-.6-.4zm5.8.3c-.1.4-.3 1-.6 1.2v.1h-.4c.1-.1.1-.3.2-.4h-.2c-.2-.3-.1-.4-.4-.6 0-.3.1-.4.2-.6.8.1.6.2 1.2.3zm-29.2-.2v.3h.8v-.3h-.8zm35 0c.4.1.2 0 .4.1h-.2c-.2.2 0 0-.2.1v-.2zM58.3 8.5c.1-.4.3-.3.4-.7h-.2v-.1c-.4.1-.2 0-.4.1-.6.1-.6.2-.6.7l.2.1c.2-.1.4-.1.6-.1zm-19-.6v.4c.3.1.3.2.8.3V8h-.2v-.1h-.6zm31.5.3h.6v.4h-.6v-.4zm6.9.4c.1-.1.1-.3.2-.4.5 0 .7.1 1 .1v.1c-.4.1-.8.1-1.2.2zm-23.8.6c0-.4.1-.5.2-.7h.8c0 .4-.1.5-.2.7h-.8zm37.6-.6h.4c.1.3 0 .1.2.3v.3l-.2-.1c-.3-.2-.2-.2-.4-.5zm-39.4.9c.2 0 .4-.1.6-.1V9c-.2 0-.4.1-.6.1v.4zM85.7 9c.2 0 .4.1.6.1-.2.2 0 0-.2.1-.1.3 0 .1-.2.3v.1c-.4.1-.3-.1-.4-.1h-.2c.2-.1.3-.3.4-.5zm-65.5 4.9c1 0 1.4.1 1.9.3v.1h-.2c-.4.3-.7.4-1.6.4-.2-.4-.3-.2-.1-.8zm9-4.4v.3h.4v-.3h-.4zm23.5 1.1c.3 0 .6-.1 1-.1v-.3h.2c0-.2-.1 0-.2-.1s-.1-.2-.2-.3c-.4.1-.2 0-.4.1h-.4c.1.1.1.2.2.3h-.4c.1.1.1.3.2.4zm-22 .6v-.9c-.8 0-1.7.1-2.5.1v-.1h-.4v-.1h-.4c-.1-.1-.1-.2-.2-.3H26v.1h.4v.1h.4l.4.4h.2c.1.1.1.3.2.4h.8c.1.1.1.2.2.3.5 0 .9-.1 1.4-.1V11c.1.1.3.2.7.2zm53.3 0h.4c.2-.3.3-.2.4-.6-.3-.1-.3-.1-.8-.1-.2.2 0 0-.2.1l.2.6zm-17.1-.6c-.1.2-.1.2-.2.6l.2.1c.4-.1.2 0 .4-.1h.2c-.2-.2 0 0-.2-.1-.2-.4-.1-.3-.4-.5zm26.6.2v.3h.8c.1-.1.1-.3.2-.4h-.2v.1h-.8zm-22.9 1.3v-.6h.2c.1-.4 0-.3.6-.4.1.2.1.4.2.6-.5.1-.4 0-.6.4h-.4zm-37.5-.7h1.2v.1c.2 0 .4.1.6.1-.1.1-.1.2-.2.3-.8 0-1.3-.2-1.6-.5zm3.8.3h-.6v-.1c.2 0 .4-.1.6-.1v.2zm11.7 0c.1.4.1.3.6.4.1-.2.1-.4.2-.6-.3.1-.5.1-.8.2zm38.9 0v.1h-.2c-.4.1.4.1.4.1.2-.2 0 0 .2-.1-.3-.2 0-.1-.4-.1zm-13.6.5c.1-.1.1-.3.2-.4h.6v.1c.2 0 .4.1.6.1-.1.2-.1.5-.2.7-.5.1-.6.1-.8.4h-1V13h-.2c.1-.3.3-.6.4-.9.1.1.2.1.4.1zm-15.8 1.1h.8c.4-.5.9-.3 1-1.2h-.8v.1c-.1 0-.3-.1-.4-.1v.1c-.4.2-.4.4-.8.6.1.2.2.3.2.5zm13.4-1.1c.1.4.1.3.6.4V12h-.2c-.2.3 0 .2-.4.2zm16.7.6c.3 0 .6-.1 1-.1v-.4H89v-.1h-.6c-.2.2 0 .1-.4.1v.1h.2v.4zm5.1-.6c-.1.2-.1.2-.2.6l.2.1.2-.1h.2c.2-.3-.2-.5-.4-.6zm-15.4 1.1h1.4c.1-.2.1-.2.2-.6-.3-.1-.3-.1-.8-.1v.1h-.6c-.2.1.1.1-.2.1v.5zm2.4-.6v.3c.2 0 .4-.1.6-.1v-.3h-.2c-.3.1 0 0-.4.1zm-50.3.1c.1.3 0 .1.2.3-.1.3 0 .1-.2.3-.2.2 0 .1-.4.1-.2-.2 0-.1-.4-.1v-.1h.2c.1-.4 0-.4.6-.5zm-6.1.2c.1.4.2.5.8.6v-.4h-.2v-.1c-.2-.1-.4-.1-.6-.1zm8.8.3l1.2.3v.1c-.3.1-.4.2-.6.4h-.6c-.1-.5-.1-.3 0-.8zm2.5 0v.4c.4.2.3.2 1 .3.2-.3.3-.3.4-.7h-1.4zm24.7.1v.3h-.4c.1.1.1.3.2.4l.2-.1c.3-.2.3-.3.4-.6h-.4zm-10.1.4c-.4.4-.7.3-.8 1 .3.1.5.1 1 .1.4-.3.8-.3 1-.9-.6-.1-.4-.1-1.2-.2zm-11.5.2c.2.3.2.2.8.3v-.1h-.2v-.1c-.2-.1-.4-.1-.6-.1zm26.4.7c-.2 0-.4-.1-.6-.1v-.4h.2c.2-.2 0-.1.4-.1.2.2 0 0 .2.1 0 .1-.1.3-.2.5zm15.2-.7v.1h-.2c-.3.1 1 .3 1 .3v-.1c-.4-.2-.3-.2-.8-.3zm-45.7.1h.6v.1h.2c-.1.3 0 .1-.2.3-.2.2 0 .1-.4.1-.1-.1-.1-.1-.2-.5zm2.4.3v.6l1.2.3c.1-.2.1-.5.2-.7h-.4c-.1-.1-.1-.2-.2-.3-.3 0-.6.1-.8.1zm32-.1h.4v.4h-.4v-.4zm-12 1.7v-.3c-.3-.1-.4-.2-.6-.4h-.4v.1c.2.2.1 0 .2.3.3.2.3.2.8.3zm-4.9-.6v.4c-.4.2-.6.7-1 .9h-.8v.1h.4v.1c.1 0 .4-.1.8-.1.3-.4.7-.8 1.2-1-.1-.1-.1-.3-.2-.4h-.4zm21.6.6c.4 0 .8-.1 1.2-.1v-.4h-.8v.1c-.1 0-.3-.1-.4-.1v.5zM50 16c.1-.3 0-.1.2-.3.2-.2 0-.1.4-.1.1.1.1.3.2.4H50zm42.1.6c.2 0 .4-.1.6-.1v-.1h-.8c-.1.2-.4.4-.6.6v.3h.2c.2-.2 0-.1.4-.1.1-.3.2-.4.2-.6zm16.5.3h-.6v-.1c.2 0 .4-.1.6-.1v.2zm-81.8 0c-.1.1-.1.3-.2.4h.2c.4.2.8.5 1.2.7.5.6-.4.6.4 1v.1h.2v-.9c.4-.3.1-.9 0-1.3-.2 0-.4-.1-.6-.1v-.1c-.4.1-.8.2-1.2.2zm-6.2 0c-.2.1-.4.1-.6.1.1.1.1.2.2.3.1 0 .3.1.4.1v-.1h.2c0-.1-.1-.3-.2-.4zm9 .1c.3 0 .6-.1 1-.1-.1.4 0 .4-.4.6v.1c-.2 0-.4-.1-.6-.1V17zm1.9-.1c-.1.1-.1.3-.2.4h.2v.1h.6c.1-.2.1-.4.2-.6-.3.1-.5.1-.8.1zm1.4 1c.2 0 .4.1.6.1v-.1c.4-.2.6-.3.8-.7h-.4v-.1c-.2 0-.4.1-.6.1-.2.3-.3.4-.4.7zm48-.9c.2.4.1.4.8.4.1-.1.1-.3.2-.4h-1zm29.3.3V17c-.3 0-.5.1-.8.1v.1c.3.1.5.1.8.1zm-75.8.8c-.2.5-.4.6-.4 1.3.4 0 .8-.1 1.2-.1.2-.6.8-1.1 1-1.7H36v-.1c-.2 0-.4.1-.6.1v.1c-.4.1-.5.3-1 .4zm68.8-.6c-.1.2-.1.5-.2.7.3.1.5.1 1 .1.1-.3.3-.6.4-.9-.3-.1-.3-.1-.8-.1-.2.2 0 .1-.4.2zm-6.1-.9c.1-.3 0-.1.2-.3 0-.6-.1-.5-.4-.9-.6 0-.9.1-1.4.1.1.3.2.3.4.6h.2c-.2.7.2.5 1 .5zm-79.8 1.5c-.1-.1-.1-.3-.2-.4.2 0 .4-.1.6-.1.2.2 0 .1.4.1-.1.3 0 .1-.2.3v.1h-.6zm93.9-.6c-.3.4-.2.1-.6.3v.1h-.4c-.1.2-.3.4-.4.6 1.3-.3.7.3 1.7.6V19l.2-.1c-.4-.2-.5-.2-.6-.7.5-.4.5-.5.1-.7zm-96.6 1c.1-.1.1-.3.2-.4.5 0 .5.1.8.1-.2.2-.1.2-.4.3v.1c-.2 0-.4 0-.6-.1zm4.5-.4v.3h.4v-.3h-.4zm1.3.1c.2 0 .4-.1.6-.1v.1c.2 0 .4.1.6.1-.1.3 0 .1-.2.3-.2.2 0 .1-.4.1-.3-.2-.4 0-.6-.5zm9.4.2c0 .5.1.7.2 1 .4.2.4.3 1 .4.1-.5.1-1 .2-1.5-.9 0-.6 0-1.4.1zm8.3 0c-.3 0-.6-.1-1-.1-.2.2-.4.5-.6.7h1.4c.2-.2 0 0 .2-.1v-.5zm7.6.3c.6 0 .4.3.6-.1-.6-.1-.4-.4-.6.1zm13.4-.3v.3c.2 0 .4-.1.6-.1v-.1c-.2-.1-.4-.1-.6-.1zm16.9.1c.2 0 .4.1.6.1v.1H76v-.2zm-49.7 1v-.7c-.5-.1-.9-.1-1.6-.1-.2.3-.3.2-.4.6h.2v.1c.6 0 1.2.1 1.8.1zm72.2-.6v.4h.2V19h.2c.4 0-.4-.1-.4-.1zm-51.4.2c.1.1.5.3.4.6h-.2v.1c-.3-.1-.4-.1-.6-.3l-.2-.1.6-.3zm-23.9.9v-.3c-.4-.2-.3-.2-1-.3v.1H22c.1.3 0 .1.2.3.1.3 0 .1.2.3V20h.8zm40.9 0c-.4-.1-.2 0-.4-.1-.2-.2-.1 0-.2-.3.2 0 .4-.1.6-.1v.5zm35.8 0v-.6c.3.1.3.1.8.1.1.1.1.3.2.4-.4.1-.7.1-1 .1zm12.6-.6c-.1.2-.1.4-.2.6h.2v-.1c.1-.1.4-.2.2-.4 0-.1-.1-.1-.2-.1zm-55.2 1.3v-.3h.4c.2-.3.4-.5.6-.9-.6 0-1.5.2-1.7.4h-.2v.4h.2v.6h.2c.2-.2.1-.1.5-.2zm18.1-1c.1.2.1.5.2.7.5-.1.4-.2 1-.3v-.3c-.3-.1-.2-.1-.4-.3-.3.1-.5.1-.8.2zm34.4-.2c.2.3.4.5.8.7-.1-.1-.2-.3-.2-.3-.1-.2 0-.3 0-.3.3-.1-.6-.1-.6-.1zm-55 .2v.1H54v.1h-.2c.1.1.1.3.2.4l1.2.6c0-.5.1-1-.4-1.2zm-27.2.1c0 .2-.1-.1-.2.1-.4.1.4.1.4.1v.1c.3 0-.1-.1.2-.1h.2c-.2 0-.3-.1-.6-.2zm58.1 0c.1 0 .3.1.4.1-.1.1-.3.6-.8.4v-.1l-.2-.1c.3-.1.4-.1.6-.3zm12.8.9c.1-.3.1-.6.2-.9h.2c.1.2.3.5.4.7-.3.1-.3.2-.8.2zm9.2-.9v.3h.4v-.3h-.4zM81 20v.4l-.2.1h-.6v-.1l-.2-.1c.6-.1.5-.2 1-.3zm-49.1.1v.3h.6v-.3h-.6zm12.4.4v-.4h-.2v.3h-.2c-.3.1.4.1.4.1zm62.6-.2v.6h.6v-.1c.2-.2.1 0 .2-.3l-.2-.1c-.2-.1-.4-.1-.6-.1zm-48 .1v.3h.4v-.3h-.4zm30.7 0c.5 0 .7.1 1 .1v.3H90v.1h-.8c.2-.2.3-.1.4-.5zm12.2.6c0-.3.1-.4.2-.6h-.8c-.2.1-.3.2-.6.3.2.2 0 .1.4.1v.1h.2v-.1c.2.1.4.1.6.2zm-80-.3h.8c0 .6-.1.5-.4.9h-.8c.1-.3.3-.6.4-.9zm3.7.1c.4.1.2 0 .4.1h-.2v.1h-.2v-.2zm20.4 0c-.1.1-.1.3-.2.4-.1 0-.3.1-.4.1-.1-.1-.1-.3-.2-.4.3 0 .3 0 .8-.1zm5.2.3v.3c.2 0 .4-.1.6-.1 0 .7.2 1.1.8 1.3v.1l.2-.1c.5 0 .5.1.8.1.1.3.3.6.4.9h.6v-.1h.2v-.4c-.6-.4-.6-.9-1-1.5h-.2v-.3h-.2c-.1-.1-.1-.3-.2-.4-.9-.1-1.3.1-2 .2zm25.5.9c.9-.1.7-.3 1.2-.6v-.3c-.4-.2-.3-.2-1-.3-.1.2-.2.3-.2.7h-.2c.1.2.1.4.2.5zm-16.5-1v.4c.4.2.3.2 1 .3.1-.1.1-.2.2-.3-.6-.2-.4-.3-1.2-.4zm-2.9.4c-.1.2-.1.5-.2.7h-.2v.1h.2v.1h-.2c.1.1.1.3.2.4 1.1.1 1 0 1.9-.1.1-.1.1-.3.2-.4h-.2v-.3c-.3-.4-.6-.1-.8-.9-.5.2-.4.3-.9.4zm28.1-.1c.4-.1.2 0 .4-.1h.8v.1c-.2 0-.4.1-.6.1v.3h-.6v-.4zm-46.4 0c-.5.1-.4 0-.6.3h-.2v.1h.2c.1.1 0 .2.4.1v-.1h.2v-.4zm41.6.7c0-.3-.1-.4-.2-.6l-.2.1c-.1.1-.3 0-.2.3h.2c.2.2 0 .1.4.2zm-44.7-.3c-.1.3 0 .1-.2.3-.2.2 0 0-.2.1V22l-.2-.1c.2-.1.4-.1.6-.2zM88 22.9h.8v.1h.2v-.1h.4c0-.5-.1-.8-.2-1.2-.7.1-1 .6-1.2 1.2zm6.8-.2c-.1-.3-.1-.6-.2-.9h-.2v-.1h.6c0 .5.1.7.2 1h-.4zm-3.6.8v-.3c.5-.1.4 0 .6-.4h.2v-.6c-.7-.1-.8-.1-1.6-.3v.1c-.1 0-.3.1-.4.1.2.5.1 1.2 1.2 1.4zm5-1.6c.1 0 .3.1.4.1-.1.1-.3.5-.8.3.1-.2.3-.3.4-.4zM42 22c-.1.3 0 .1-.2.3-.2.2 0 0-.2.1-.1-.3 0-.1-.2-.3V22h.6zm63.7 0h.6c.2.2 0 0 .2.1-.1.1-.1.3-.2.4-.6-.1-.5 0-.8-.3h-.2c.2-.1.3 0 .4-.2zm-66 .1h.6v.3h-.6v-.3zm-18.9.2c-.1.2-.4.2-.4.3v.4s-.3.1-.4.3h.4c.3-.3.9-.6.4-1zm8.4 0v.1H29c-.1.2.5.4.6.4.1-.1.1-.3.2-.4-.2 0-.4-.1-.6-.1zm56.5 1.2h.4v-.1c.1 0 .3.1.4.1v-.1c.5-.3.4-.4.4-1h-.2c-.2.2 0 0-.2.1-.3.3-.6.5-.8 1zm-47.8-.8c.2 0 .4-.1.6-.1v.1c.2 0 .4.1.6.1 0 .3 0 .4-.2.6h-.4c-.1.1-.1.2-.4.3-.2.2 0 0-.2.1-.2-.2 0 0-.2-.1 0-.4.1-.6.2-1zm64.7-.1c.4 0 .5 0 .8.1v.1h.8c.1.1.1.2.2.3.3.2.8.1 1.4.1v.1c-.2 0-.4.1-.6.1v.6h-.2c-.2.2 0 0-.2.1-.3-.4-.5-.8-.8-1.2-.4-.1-.2 0-.4-.1-1.1.1-.6.3-1.2.6-.6.1-1.3.3-1.9.4v-.4l.2-.1h.6v.1c1.1.2 1.2-.1 1.3-.8zm-65.8 1.2c.1-.2.1-.5.2-.7-.3-.1-.3-.1-.8-.1-.1.2-.1.2-.2.6.3 0 .3.1.8.2zm61-.2c.2 0 .4-.1.6-.1.2.2 0 0 .2.1-.2.2-.4.2-.6.4h-.4c0-.1.1-.2.2-.4zm-39.1.2c.1 0 .5.1.4.3h-.4v.1h-.2c.1-.2.1-.3.2-.4zm13 .1v.3c.3 0 .6-.1 1-.1V24c-.3-.1-.7-.1-1-.1zm37.1 0c.6 0 .8 0 1.2.1-.1.4 0 .4-.4.6-.2.2 0 0-.2.1-.2-.2-.4-.2-.6-.4h-.2c.1-.1.2-.3.2-.4zm-57.1.3h.8v-.1h.2v.1c.4.1.2 0 .4.1-.5.2-.6.3-1.4.3v-.4zm55.4.1v.3c.2 0 .4.1.6.1v-.1c.2-.2.1 0 .2-.3h-.8zM68 25.6c.5-.1.4-.2 1-.3.1-.2.1-.5.2-.7-.3-.1-.3-.1-.8-.1-.2.2-.3.3-.6.4.2.3.2.4.2.7zm3.5-.7c-.1.3 0 .1-.2.3v.1c-.6-.1-.7-.3-1-.7h-.2v-.1c.7.1.8.3 1.4.4zm-54.6-.3v.3c.3.1.2.1.4.3.2 0 .4-.1.6-.1V25c-.4-.2-.3-.3-1-.4zm13.2 0c.4.1.2 0 .4.1h-.2v.1s-.8 0-.4-.1c.1-.1.2.1.2-.1zm69.4.6h-1.2v-.1l-.2-.1c.4-.1.2 0 .4-.1.8-.1.8-.2 1 .3zm-74.6.4c-.1-.5 0-.4-.2-.7h.8v.7h-.6zm-1.4-.5c-.1.3 0 .1-.2.3v.1h-.2c-.1-.3 0-.1-.2-.3v-.1h.6zm30.4.5v-.3h.2c-.1-.1-.1-.2-.2-.3-.3.1-.5.2-.8.3.2.2 0 0 .2.1v.1c.2.1.4.1.6.1zm-18.3-.4c-.4.4-.7.2-.8.9.3.1.2.1.4.3.4-.1.2-.1.6 0v-.1h.2c.1-.1.1-.5.2-.6H36c-.1-.4-.1-.3-.4-.5zm67.4.6c.1-.3 0-.1.2-.3.2-.2 0 0 .2-.1.1.1.1.3.2.4h-.6zm-25.8-.2c.1 0 .3.1.4.1v-.1h.2c.4.8-1 1-1.4 1.3h-.8v-.1h.2v-.4h.2c.3-.4.8-.4 1.2-.8zm14 0c-.1.1-.1.2-.2.3h.6c.1-.1-.4-.2-.4-.3zm-11.3 1.1v-.4c-.2 0-.4.1-.6.1.2.2 0 0 .2.1.2.2 0 .1.4.2zm14.4-.3h.4v-.1c.1 0 .4.1.8.1v.1c-.2 0-.4.1-.6.1-.2.2 0 .1-.4.1-.1 0-.2-.2-.2-.3zm-66.5-2.6v-.6h-.2v-.1c-.3 0-.5.1-.8.1-.1.2-.1.4-.2.6.2.2.1 0 .2.3.4-.1.5-.2 1-.3zm29.4 3.4h.6c.1-.2.1-.4.2-.6-.3 0-.6.1-1 .1v.1c.2.3 0 .2.2.4zm1.9-.5c0 .3-.1.1-.2.3 0 .3.3.2 0 .3v.1h.2v.1c.2-.1.4-.1.6-.1l-.2-.1c0-.1.2-.3.2-.6h-.6zm-38.5.1h1c-.1.4-.2.3-.4.6h-.4c-.1-.2-.1-.2-.2-.6zm-.7 1.5h.6c.1-.2.1-.4.2-.6-.5 0-.5-.1-.8-.1v.7zm49.9-.5c.2.1.5.1.4.4H70v.1h-.2v-.5zm-39.3 1.3h1.6V29h.2c.1-.3.1-.7.2-1h-1.6v.1h-.2c0 .4-.1.7-.2 1zm27-.5h.4c-.1-.1-.1-.3-.2-.4h-.2v.4zm4.7.1h.4l.4-.4-.2-.1c-.4.1-.2 0-.4.1h-.2v.4zm6.2.1c-.1.1-.1.3-.2.4h.2c.2.2 0 .1.4.1v-.1h-.2v-.4h-.2zm24.5-.4v-.3c-.5.1-.7.2-1 .4h.2v-.1h.8zm-70.1.5v-.6h-.6v.1H22v-.1c-.3.2-.1 0-.2.3.4.1.3.2 1 .3zm49.7 0h.4v-.1h-.2c.1-.2.2-.1.4-.3l-.2-.1-.2.1h-.2v.4zM29 28.6v.3h.6v-.3H29zm4.1.3c-.1.4-.3.3-.4.7h.2v.1c.4-.1.2 0 .4-.1h.2c.1-.2.1-.5.2-.7h-.6zm57.7.2c-.4-.1-.2 0-.4-.1h.2c.2-.2 0 0 .2-.1v.2zM21 29v.1h-.2c.1.3.5.3.8.4v-.4h-.2c-.2-.1 0 0-.4-.1zm52.1.6c.4-.1.6-.1.8-.3h.2c-.1.6-.3.6-.6 1h-.6c.1-.2.2-.3.2-.7zm-13.8.4c.1.5.4.6.6 1 .2 0 .4.1.6.1V31c.6-.3.9-.9 1-1.6h-.2c-.2.2 0 0-.2.1-.1.1-.1.2-.2.3 0 0 .4 0 .2.1h-.4v.1c-.4.3-1.2.1-1.4 0zm-3.9.7c-.2 0-.4.1-.6.1-.2-.1-.1-.4-.6-.3v.1c-.4.2-.4.3-1 .4-.2-.2-.1-.2-.4-.3v.1l.6.3v.3c.1 0 .3.1.4.1.2.2-.1.5.2.6h.6V32h1.2c.1-.1.1-.3.2-.4-.3-.4.5-1.5-.6-2v-.1h-.2v.1H55c.1.2.1.4.2.6h.2v.5zm31.3-1.1v.1h-.2c.1.2.3.4.4.6h.2c0-.5 0-.5-.4-.7zm-61.2.1c-.1.2-.1.4-.2.6.7 0 .9-.1 1.4-.3-.2-.2 0-.1-.4-.1v-.1c-.3-.1-.6-.1-.8-.1zm36.7.3c-.2.4-.2.1 0 .6l.2-.1h.2c.1-.4-.2-.4-.4-.5zm5.1.7c.1-.5.2-.4.4-.7h-.2v.1c-.2 0-.4-.1-.6-.1v.1c-.4.1-.6.1-1 .1 0 .3-.2.5-.2.6l.2.1-.2.1h.2c.1.2.1.4.2.6l.2-.1c.3-.2.9-.7.6-.9.1.1.2.1.4.1zm-37.3.5c.1-.2.1-.4.2-.6-1.1-.1-1.7-.2-2.5-.4v.6c.2 0 .4.1.6.1 0 0 1.1.2 1.7.3zm-8.6-.6v-.3c-.3.1-.4.2-.6.4h.2c.2-.1 0 0 .4-.1zM68 32.5c.6 0 .9-.1 1.4-.1.2-.2 0 0 .2-.1.1-.5.1-1.1.2-1.6-.5-.1-.4-.2-.8-.3-.3.6-.6 1.4-1 2.1zm-15.5-2c0 .1-.1.6.2.4.2-.4.2-.2-.2-.4zm-2.5.1c-.1.1-.1.3-.2.4h.6v-.4H50zm-23.9.3c.2-.1.4-.1.6-.1v.1h.4v.4h-.4v.3h-.4c-.1-.2-.2-.5-.2-.7zm16.7-.2l-.2.1c-.2.2.2.2.2.2v.1c.2 0 .4-.1.6-.1v-.1c-.2-.1-.4-.1-.6-.2zM22 31c.3 0 .5.1.8.1v.1c-.4.2-.4-.2-.8.3h-.2c.1-.1.1-.3.2-.5zm15.3 0c.5 0 .7.1 1 .1-.1.4 0 .4-.4.6v.1c-.1 0-.3-.1-.4-.1v.1h-.4c.1-.2.2-.5.2-.8zm14 .5h.4c-.2-.2 0 0-.2-.1v-.3h-.2v.4zm-6 .6c.1-.4.3-.3.4-.7h.2c.1.1.1.2.2.3h.2v.1h-.2v.3h-.8zm36.3-.6v.3h.4c.1-.1.1-.3.2-.4H82c-.2.1 0 0-.4.1zm2-.2c.4.2.5 1-.4.7v-.1h.2c-.1-.1-.1-.2-.2-.3 0 0 .3-.2.4-.3zm-66.3.2c.5 0 .7.1 1 .1v.1h-1.4v-.1c.4-.1.2 0 .4-.1zm7.4.1h.6v-.1h.2v.6c-.5.1-.4 0-.6.3h-.2v-.8zm16.7.7c.2 0 .4-.1.6-.1l-.2-.1c0-.1.2-.3.2-.6h-.6v.1h-.2v.4c.2.2.1.1.2.3zm8.6.2c.5 0 .5.1.8.1.1-.3 0-.1.2-.3V32c-.3-.1-.3-.1-.8-.1-.2.2 0 0-.2.1v.5zm10.8-.4c-.1.2-.1.4-.2.6h.2v-.1c.1-.1.4-.2.2-.4 0-.1-.1-.1-.2-.1zm7 3l2.7.6c.4 0 .8-.1 1.2-.1.4-.4.9-.4 1.2-1h.2v-.4c-.2 0-.4-.1-.6-.1v-.4h-1c-.2-.3-.3-.2-.4-.6.3-.2.3-.3.4-.6h-.2v.3c-.5.2-.1.2-.4.4-.3.2-.6.4-1 .6v.1h-.4c-.1.1-.1.2-.2.3h-.4l-.4.4h-.4v.1c-.2.2-.1.1-.3.4zm-40.6-2.6c.6.1 1.2.5 1.7.7v.1h-.2v.1c-.4.1-.5-.2-.8-.3V33c-.3-.1-.3.3-.4.3h-.4c0-.5 0-.3.1-.8zm56.4.3c-.1.1-.1.3-.2.4h.2v.1h.6c.1-.1.1-.2.2-.3-.3 0-.6-.1-.8-.2zM33.3 34c.1-.2.1-.5.2-.7h.2v.3h.2c-.1.1-.1.3-.2.4h-.4zm-6.5 0v.3h.6V34h-.6zm56 .7h-.6v-.3c-.7-.1-.5-.3-1.2-.4-.2.2-.4.5-.6.7h-.2v-.1H80v.1h-.2c-.2.3 0 .6 0 .9.6-.2 1.1-.1 1.7 0v.1c.2 0 .4-.1.6-.1.3-.4.6-.5.7-.9zm4.7.1v-.3c-.3-.1-.3-.2-.8-.3v-.1h-.2v.1h-.2c.2.2.4.5.6.7.2 0 .4 0 .6-.1zm-13.1-.6c-.2.9-1 1.3-1.9 1.6v.1h2.1v-.1h1s0-.1.4-.1c.1-.3.1-.7.2-1-.3-.1-.6-.3-.8-.4-.3-.1-.6-.1-1-.1zM38.6 28c-.7-.1-.6-.1-1.4 0 .1.7.3.6.6 1h.6v-.1h.2c.2-.3 0-.7 0-.9zm45 7.1c-.1.1-.1.3-.2.4h.8c.2-.2 0-.1.4-.1v-.1c-.4-.1-.7-.1-1-.2zm-27.4.2c.1.4.1.3.6.4v.1h.6c-.1-.4-.1-.3-.6-.4v-.1h-.6zm7.6.8c-.1.1-.1.3-.2.4h.2c.2-.2.1-.2.4-.3-.3-.1-.1 0-.4-.1zM61.4 38c.2-.5.6-.5 1-.9h.4c.1.1.1.3.2.4h-.2v.3h-.4v.3c-.2.2-.2-.1-.2-.1h-.8zm2.2-.3c0 .1-.1.6.2.4.1-.3.1-.1-.2-.4zm.5 1.1c0 .3-.1.4-.2.6h.6c.2-.2 0-.1.4-.1V39c.3 0-.1.1.2.1.2.3.2-.3.2-.3-.7-.1-.4-.1-1.2 0zm-5.4 2.4c-.4-.1-.2 0-.4-.1h.2c.2-.2 0 0 .2-.1v.2zM56 42.5c.1-.1.1-.3.2-.4h-1c-.2.2 0 .1-.4.1.2.2 0 .1.4.1.1.1.1.2.2.3.2 0 .4 0 .6-.1zm-5.5.2h-.6v.1h-.2c.2-.2 0 0 .2-.1.1-.1.1-.3.2-.4h.6c0 .1-.1.2-.2.4zm7 0c-.1.1-.1.3-.2.4h.8c.2-.3.3-.2.4-.6-.3.1-.6.1-1 .2zm8.4-.2c.2.3.3.4 1 .4.2-.2 0 0 .2-.1v-.1c-.4-.1-.8-.1-1.2-.2z"/><path d="M35.4 52.4h7.7c.4 0 .8-.1 1.3-.3V54.7h-.7c-.3-.9-1-1.3-2-1.3H39c0 1.6 0 3.3-.1 5.2h2.7c.7 0 1.4-.2 1.6-1h.6v3.2h-.6c-.2-.9-.8-1.2-1.6-1.2h-2.7v4.9c0 .7.5 1.1 1.2 1.1v.4c-.7 0-1.5-.1-2.2-.1s-1.4.1-2.2.1v-.4c.8-.1 1.1-.4 1.1-1.3v-3.9c0-2.3-.3-5.2-.3-6.4 0-.7-.5-.9-1.1-1.1v-.5zM46 65.5c.8 0 1.3-.5 1.3-1.2v-9.8c0-1-.5-1.5-1.2-1.7v-.4c.7 0 1.5.1 2.2.1.7 0 1.5-.1 2.2-.1v.4c-.8.2-1 .7-1 1.7 0 .6-.1 1.8-.1 3.6v6.7c.4.1.8.1 2.1.1 3.3 0 3.9-.6 4.4-1.8l.7.3-.8 2.7-.9-.3c-.3 0-.6-.1-.9-.1H46.2v-.2zM61.3 52.8c-.7.1-.8.6-.8 1.3 0 1.9-.1 4.2-.1 6.2v3.8c0 .6.2 1.4 1 1.4v.4c-.7 0-1.3-.1-2-.1s-1.3.1-2 .1v-.4c.6 0 1-.6 1-1.4v-2.8c0-2.3-.2-5.8-.2-7 0-.8-.1-1.4-.9-1.5v-.4c.7 0 1.3.1 2 .1s1.3-.1 2-.1v.4zM62.8 65.5c.8-.2 1.2-.8 1.2-1.9V52.1h.8l9.5 10.5v-6.7c0-2.4-.5-3-1.5-3.1v-.4c.6 0 1.3.1 1.9.1.6 0 1.3-.1 1.9-.1v.4c-.9.2-1.3.8-1.3 2.4l-.1 11h-.7l-9.7-10.5.1 7.4c0 1.5.5 2.2 1.4 2.4v.4c-.6 0-1.3-.1-1.9-.1-.6 0-1.3.1-1.9.1v-.4zM90.3 54.8h-.7c-.2-1.1-.8-1.5-1.9-1.5h-2.4c0 1.7-.1 3.8-.1 6.1v4.1c0 1.2.4 1.6 1.2 1.8v.4c-.8 0-1.5-.1-2.2-.1-.7 0-1.5.1-2.2.1v-.4c.9-.3 1.2-.7 1.2-1.8v-3c0-2.8-.2-5.6-.2-7.2h-2.6c-1.1 0-1.7.3-1.9 1.5h-.7v-2.7c.4.1.7.2 1.1.2.4 0 .8.1 1.1.1h8.6c.5 0 1.4-.1 1.8-.3v2.7zM12.5 73.9h-.8c-.6-1.8-2.5-2.5-4.2-2.5-3.4 0-4.8 2.7-4.8 6 0 5.5 4 6.4 5.6 6.4 1.6 0 3-.7 3.8-2l.6.3-.6 2.2c-1.6.3-2.5.4-3.8.4C2.5 84.5 0 81 0 77.5c0-4 3.1-7 7.4-7 2.5 0 3.5.4 4.9.8l.2 2.6zM21.6 70.5c4.5 0 7.5 2.5 7.5 7s-3 7-7.5 7-7.5-2.5-7.5-7c-.1-4.5 3-7 7.5-7zm0 13.2c3.3 0 4.8-3 4.8-6.2s-1.5-6.2-4.8-6.2-4.8 3-4.8 6.2 1.5 6.2 4.8 6.2zM44.4 70.5h.6l.8 11.5c.1 1 .3 1.8 1.1 1.9v.4c-.7 0-1.3-.1-2-.1s-1.3.1-2 .1v-.4c.6-.1.9-.7.9-1.3 0-.6 0-1-.1-1.3l-.5-5.8-4.4 9-5.5-9.2-.3 5.8c0 .3-.1.9-.1 1.3 0 1 .3 1.5 1.1 1.7v.4c-.6 0-1.2-.1-1.7-.1-.6 0-1.2.1-1.7.1v-.4c.9-.2 1.1-.8 1.2-2.3l1-11h.6l5.9 10.5 5.1-10.8zM61.6 70.5h.6l.9 11.5c.1 1 .3 1.8 1.1 1.9v.4c-.7 0-1.3-.1-2-.1s-1.3.1-2 .1v-.4c.6-.1.9-.7.9-1.3 0-.6 0-1-.1-1.3l-.5-5.8-4.4 9-5.5-9.2-.3 5.8c0 .3-.1.9-.1 1.3 0 1 .3 1.5 1.1 1.7v.4c-.6 0-1.2-.1-1.7-.1-.6 0-1.2.1-1.7.1v-.4c.9-.2 1.1-.8 1.2-2.3l1-11h.6l5.9 10.5 5-10.8zM65.4 70.7c.7 0 1.4.1 2.1.1.7 0 1.4-.1 2.1-.1v.4c-.9.1-1.1.7-1.1 1.9v5.5c0 2.6 1.2 4.4 4.1 4.4 1.6 0 3.6-.9 3.6-3.1v-2.3c0-2.3-.2-4.6-.2-5.6 0-.5-.5-.9-1-1v-.4c.7 0 1.4.1 2.1.1.7 0 1.4-.1 2.1-.1v.4c-.6 0-.9.8-.9 1.4 0 .7-.1 2.8-.1 5.3v4.2c0 1.1.2 1.7 1.1 1.7v.4c-.5 0-1.1-.1-1.7-.1s-1.1.1-1.6.1c0-.7.1-1.3.1-1.8-1.4 1.3-2.6 2.1-4.6 2.1-2.9 0-5.1-1.7-5.1-4.6v-3.2c0-1.5-.1-2.9-.1-4.1 0-.8-.1-1.4-1-1.5v-.1zM80.6 83.9c.8-.2 1.2-.8 1.2-1.9l.1-11.5h.8L92.2 81v-6.7c0-2.4-.5-3-1.5-3.1v-.4c.6 0 1.3.1 1.9.1.6 0 1.3-.1 1.9-.1v.4c-.9.2-1.3.8-1.3 2.4l-.1 11h-.7L82.9 74l.1 7.4c0 1.5.5 2.2 1.4 2.4v.4c-.6 0-1.3-.1-1.9-.1s-1.3.1-1.9.1v-.3zM100 71.2c-.7.1-.8.6-.8 1.3 0 1.9-.1 4.2-.1 6.2v3.8c0 .6.2 1.4 1 1.4v.4c-.7 0-1.3-.1-2-.1s-1.3.1-2 .1v-.4c.6 0 1-.6 1-1.4v-2.8c0-2.3-.2-5.8-.2-7 0-.8-.1-1.4-.9-1.5v-.4c.7 0 1.3.1 2 .1s1.3-.1 2-.1v.4zM113.9 73.2h-.7c-.2-1.1-.8-1.5-1.9-1.5h-2.4c0 1.7-.1 3.8-.1 6.1V82c0 1.2.4 1.6 1.2 1.8v.4c-.8 0-1.5-.1-2.2-.1-.7 0-1.5.1-2.2.1v-.4c.9-.3 1.2-.7 1.2-1.8v-3c0-2.8-.2-5.6-.2-7.2H104c-1.1 0-1.7.3-1.9 1.5h-.7v-2.7c.4.1.7.2 1.1.2.4 0 .8.1 1.1.1h8.6c.5 0 1.4-.1 1.8-.3v2.6zM118 83.9c.9-.2 1.2-.6 1.2-1.6v-3.7l-3.6-6c-.4-.6-.6-1-1.2-1.4v-.4c.7 0 1.3.1 2 .1s1.3-.1 2-.1v.4c-.4.1-.6.3-.6.7 0 .2.1.8.4 1.2l2.5 4.4 2.4-4.2c.4-.6.4-1.1.4-1.5 0-.4-.4-.6-.8-.6v-.4c.6 0 1.2.1 1.8.1.6 0 1.2-.1 1.7-.1v.4c-.6.2-1 .8-1.5 1.6l-3.4 5.5v4c0 1 .3 1.4 1.1 1.6v.4c-.7 0-1.5-.1-2.2-.1-.7 0-1.5.1-2.2.1v-.4zM38.5 97.1c0-2.3-.1-4.8-.1-6.5 0-.7-.3-.9-.8-1v-.4c1 0 1.8.1 2.5.1.9 0 1.3-.1 1.8-.1 2.2 0 4.8.9 4.8 3.5 0 1.7-1.4 2.7-2.8 3.2 1.8.5 3 1.5 3 3.6 0 2.5-2.5 3.3-4.6 3.3h-4.9v-.3c.9-.1 1.1-.4 1.1-1.2v-4.2zm2-1.7h.9c1.7 0 2.9-1.1 2.9-2.8 0-1.7-.8-2.8-2.9-2.8-.5 0-.8 0-.8.4l-.1 5.2zm0 5.4c0 1 .1 1.2 1.3 1.2 1.7 0 2.7-1.2 2.7-2.7 0-1.8-1.1-3.1-3-3.1h-1v4.6zM51.4 98.8l-.5 1.7c-.1.3-.1.8-.1 1 0 .5.2.8.7.8v.4c-.6 0-1.1-.1-1.7-.1s-1.1.1-1.7.1v-.4c.8-.2 1.5-2 1.9-2.9l4.1-10.5h.2l4.3 10.9c.7 1.7.9 2.4 1.6 2.4v.4c-.7 0-1.3-.1-2-.1s-1.3.1-2 .1v-.4c.4 0 .6-.3.6-.7 0-.3-.1-.6-.2-1l-.7-1.8h-4.5zm4.2-1l-2-5.1-1.9 5.1h3.9zM61 102.3c.8-.2 1.2-.8 1.2-1.9l.1-11.5h.8l9.5 10.5v-6.7c0-2.4-.5-3-1.5-3.1v-.4c.6 0 1.3.1 1.9.1.6 0 1.3-.1 1.9-.1v.4c-.9.2-1.3.8-1.3 2.4l-.1 11H73l-9.7-10.5.1 7.4c0 1.5.5 2.2 1.4 2.4v.4c-.6 0-1.3-.1-1.9-.1-.6 0-1.3.1-1.9.1v-.4zM88.8 102.7c-.7 0-1.5-.1-2.2-.1-.8 0-1.5.1-2.2.1v-.4c.2 0 .4-.2.4-.3 0-.3-.2-.4-.4-.7l-4.7-5.4v5c0 .6.2 1.4 1 1.4v.4c-.7 0-1.3-.1-2-.1s-1.3.1-2 .1v-.4c.6 0 1-.6 1-1.4v-2.8c0-2.3-.2-5.8-.2-7 0-.8-.1-1.4-.9-1.5v-.4c.7 0 1.3.1 2 .1s1.3-.1 2-.1v.4c-.7.1-.8.6-.8 1.3v4.2l4.3-3.9c.5-.4.7-.7.7-1.1 0-.2-.2-.4-.4-.5v-.4c.6 0 1.2.1 1.9.1.6 0 1.2-.1 1.9-.1v.4c-.7 0-1.7 1-2.4 1.6l-4.2 3.7 4.9 5.6c1.1 1.2 1.8 1.6 2.5 1.7v.5z"/><path class="st1" d="M25.1 43.3h75.2v1.1H25.1zM25.4 112h75.2v1.1H25.4z"/></svg>