<svg id="Layer_1" xmlns="http://www.w3.org/2000/svg" xmlns:xlink="http://www.w3.org/1999/xlink" width="461.5" height="237.8" viewBox="0 0 461.5 237.8"><style>.st0{clip-path:url(#SVGID_6_);fill:#a4d288}.st1{fill:#5e5343}.st2{fill:#fff}.st3{fill:#30a04a}.st4{fill:#3a9c4a}.st5{clip-path:url(#SVGID_4_);fill:#68bd4f}.st6{clip-path:url(#SVGID_2_);fill:#3a9c4a}</style><path class="st1" d="M28.5 158.2L8 129.5H0v34.8h5.5v-29.5l21 29.5h3.8l21-29.5v29.5h5.4v-34.8H49zm79-25.9c-1.9-1.8-5.2-2.8-10.2-3.2-.9 0-4.2-.1-10-.1-6.2 0-9.5 0-10.2.1-5.2.3-8.6 1.4-10.5 3.2-1.6 1.5-2.6 3.8-2.9 7-.1 1.1-.2 3.7-.2 7.5s.1 6.3.2 7.4c.4 3.2 1.4 5.6 2.9 7.1 1.9 1.8 5.3 2.8 10.3 3.1.7.1 3.5.1 10.1.1s9.4 0 10.1-.1c5.1-.4 8.4-1.4 10.3-3.1 1.6-1.5 2.6-3.8 2.9-7.1.1-1.1.2-3.5.2-7.5 0-3.9-.1-6.4-.2-7.5-.2-3.1-1.2-5.4-2.8-6.9zm-20.4 27.8H79c-4.3-.2-7-.9-8.1-1.9-.6-.6-1.4-1.9-1.6-5.3-.1-.9-.1-2.9-.1-6s0-5.1.1-6c.2-2.7.8-4.5 1.6-5.3.7-.7 2.7-1.6 8.2-1.9h8.2c4.8 0 7.1 0 8 .1 5.3.3 7.2 1.2 7.9 1.9.9.8 1.4 2.6 1.7 5.3.1.9.1 3 .1 6s0 5-.1 6c-.2 2.7-.8 4.5-1.6 5.3-1.1 1.1-3.8 1.7-8.1 1.9-.3-.1-3.1-.1-8.1-.1zm69.3-.4l-31.1-30.2h-7.9v34.8h5.4v-30.2l31.1 30.2h7.9v-34.8h-5.4zm18.5-11.4h28v-4.2h-28v-10.2h29.2v-4.4h-34.7v34.8h35v-4.4h-29.5zm77.5-18.8l-18.7 16.1-19.5-16.1h-7.7l24.5 20.3v14.5h5.5v-14.5l23.5-20.3z"/><path class="st4" d="M299.5 129.7c-1.1-.2-2.8-.2-5.3-.2h-31.3v34.8h5.5V151h26.9c3.8 0 6.7-.7 8.5-2 1.4-1 2.3-2.4 2.8-4.2.3-1.1.4-2.7.4-4.8 0-3.9-.8-6.6-2.3-8.1-1.4-1.2-3.1-1.9-5.2-2.2zm-31.2 4.2h24.4c4 0 6.5.6 7.4 1.9.6.8 1 2.3 1 4.5 0 2.8-.7 4.6-2.2 5.4-1.1.6-3.5.9-7.1.9h-23.5v-12.7zm91.1-1.6c-1.9-1.8-5.2-2.8-10.2-3.2-.8 0-4.8-.1-10.8-.1-6.9 0-12.1 0-12.7.1-5.2.3-8.6 1.4-10.5 3.2-1.6 1.5-2.6 3.8-2.9 7-.1 1.1-.2 3.6-.2 7.5s.1 6.4.2 7.4c.4 3.2 1.4 5.6 2.9 7.1 1.9 1.8 5.3 2.8 10.3 3.1.8.1 7.3.1 12.6.1 6.9 0 10.3 0 10.9-.1 5.1-.4 8.4-1.4 10.3-3.1 1.6-1.5 2.5-3.8 2.9-7.1.1-1.1.2-3.5.2-7.5 0-3.9-.1-6.4-.2-7.5-.3-3.1-1.2-5.4-2.8-6.9zm-21.3 27.8h-10.6c-4.2-.2-7-.8-8.1-1.9-.9-.8-1.4-2.7-1.6-5.3-.1-.9-.1-2.8-.1-6s0-5.1.1-6c.2-2.7.8-4.5 1.6-5.3.7-.7 2.8-1.6 8.2-1.9h10.7c4.8 0 7.9 0 8.8.1 5.3.3 7.2 1.2 7.9 1.9.9.8 1.4 2.6 1.7 5.3.1.9.1 2.8.1 6 0 3.1 0 5-.1 6-.2 2.6-.8 4.5-1.6 5.3-1.1 1.1-3.8 1.7-8.1 1.9-.3-.1-4.7-.1-8.9-.1zm36.6-30.6h-5.4v34.8h37.4v-4.4h-32zm86.7 9.9c-.4-3.3-1.4-5.6-2.9-7-1.9-1.8-5.2-2.8-10.2-3.2-.8 0-5.9-.1-12.5-.1-6.7 0-11.2 0-11.9.1-5.2.4-8.6 1.4-10.5 3.2-1.6 1.5-2.6 3.8-2.9 7-.1 1.1-.2 3.6-.2 7.5 0 3.8.1 6.3.2 7.4.4 3.2 1.4 5.6 2.9 7.1 1.9 1.8 5.3 2.8 10.3 3.1.6.1 4.5.1 11.8.1 5.3 0 11.8 0 12.6-.1 5-.3 8.5-1.4 10.3-3.1 1.6-1.5 2.5-3.8 2.9-7.1.1-1.1.2-3.7.2-7.5 0-3.7 0-6.3-.1-7.4zm-25.9 20.7h-9.8c-4.2-.2-7-.8-8.1-1.9-.9-.8-1.4-2.6-1.6-5.3-.1-1-.1-3-.1-6s0-5 .1-6c.2-2.7.8-4.5 1.6-5.3.7-.7 2.7-1.6 8.2-1.9h9.9c5.3 0 9.6 0 10.4.1 5.3.3 7.2 1.2 7.9 1.9.9.8 1.4 2.6 1.7 5.3.1 1 .1 3.1.1 6 0 3 0 5-.1 6-.2 2.7-.8 4.5-1.7 5.3-1.1 1.1-3.8 1.7-8.1 1.9-.3-.1-7.9-.1-10.4-.1z"/><defs><path id="SVGID_1_" d="M234.1 84.3l-50.6-34.8v23.1l50.6 34.8 50.7-34.8V49.5z"/></defs><use xlink:href="#SVGID_1_" overflow="visible" fill="#3a9c4a"/><clipPath id="SVGID_2_"><use xlink:href="#SVGID_1_" overflow="visible"/></clipPath><path class="st6" d="M183.5 49.5h101.3v57.9H183.5z"/><defs><path id="SVGID_3_" d="M234.1 59.5l-50.6-34.8v23.2l50.6 34.8 50.7-34.8V24.7z"/></defs><use xlink:href="#SVGID_3_" overflow="visible" fill="#68bd4f"/><clipPath id="SVGID_4_"><use xlink:href="#SVGID_3_" overflow="visible"/></clipPath><path class="st5" d="M183.5 24.7h101.3v57.9H183.5z"/><defs><path id="SVGID_5_" d="M234.1 34.8L183.5 0v23.2l50.6 34.7 50.7-34.7V0z"/></defs><use xlink:href="#SVGID_5_" overflow="visible" fill="#a4d288"/><clipPath id="SVGID_6_"><use xlink:href="#SVGID_5_" overflow="visible"/></clipPath><path class="st0" d="M183.5 0h101.3v57.9H183.5z"/><path class="st3" d="M410.4 213.9c0-7-2.3-15.1-10.6-15.1H44.5c-8.3 0-10.6 8.1-10.6 15.1v8.7c0 7 2.3 15.1 10.6 15.1h355.3c8.3 0 10.6-8.1 10.6-15.1v-8.7z"/><path class="st2" d="M78.5 227.4H76v-12.9c1.6-.7 3.9-1.1 5.8-1.1 1.6 0 2.8.3 3.6.9 1.5-.5 3.4-.9 4.9-.9 3.9 0 5.3 1.4 5.3 6.4v7.7H93v-7.3c0-3.6-.7-4.4-3.3-4.4-.8 0-2.1.1-3.2.5.3.9.5 2.1.5 3.6v7.7h-2.6v-7.3c0-3.6-.7-4.4-3.2-4.4-.9 0-2 .1-2.8.4v11.1zm20-6.9c0-5.6 2.1-7.2 6.4-7.2 4.3 0 6.4 1.6 6.4 7.2s-2 7.3-6.4 7.3-6.4-1.7-6.4-7.3zm2.7.1c0 4.1.9 5.1 3.7 5.1 2.8 0 3.7-1 3.7-5.1 0-4.3-.9-5-3.7-5-2.8-.1-3.7.7-3.7 5zm15.9 6.8h-2.5v-12.9c1.6-.7 4.1-1.1 6-1.1 3.9 0 5.5 1.4 5.5 6.4v7.7h-2.5v-7.3c0-3.6-.7-4.4-3.5-4.4-1.1 0-2 .1-2.9.4v11.2zm24-6.9v.6h-9.3c0 3.7 1.3 4.5 4.1 4.5 1 0 2.8-.3 3.9-.6l.5 2.1c-1.4.4-3.4.8-4.6.8-4 0-6.5-1.7-6.5-7.3 0-5.4 2.2-7.2 6.3-7.2 3.8 0 5.6 1.4 5.6 7.1zm-9.3-1.5h6.7c-.1-2.9-.9-3.5-3.1-3.5-2.5 0-3.4.8-3.6 3.5zm10.8-5.2h2.7c1.3 3.2 2.8 7.5 3.8 11.3 1.5-3.7 2.9-7.6 3.9-11.3h2.6c-1.4 4.6-3.2 9.4-5.1 14-.7 1.6-1.6 3.5-2.3 4.9h-2.9c.7-1.3 1.5-3 2.2-4.5-1.3-5-3.1-10.5-4.9-14.4zm16.2.9h-2l1.5-5.1h2.9l-2.4 5.1zm9.3.8c-1.9 0-3 .3-3 2 0 1.2.8 1.6 3.1 1.8 3.4.3 4.9 1.4 4.9 4 0 3.4-2 4.4-5.6 4.4-1.4 0-3.6-.3-4.9-.7l.6-2.1c1 .4 2.8.7 4.2.7 2.1 0 3-.5 3-2.1 0-1.2-.6-1.8-3.1-2-3.2-.2-4.9-1.1-4.9-3.8 0-3.4 2.1-4.4 5.6-4.4 1.4 0 3.1.3 4.6.7-.2.7-.5 1.4-.7 2.1-1-.2-2.5-.6-3.8-.6zm27.7 5.1c0 5.6-2 7.2-6.4 7.2-1.8 0-4.3-.4-5.8-1V208h2.6v6.4c.7-.5 1.9-1 3.6-1 4 0 6 1.6 6 7.2zm-2.7 0c0-3.9-.9-4.9-3.7-4.9-2.5 0-3.2.9-3.2 1.8v7.6c.9.3 2.1.5 3.2.5 2.8 0 3.7-.8 3.7-5zm17.5-.1v.6h-9.3c0 3.7 1.3 4.5 4.1 4.5 1 0 2.8-.3 3.9-.6l.5 2.1c-1.4.4-3.4.8-4.6.8-4 0-6.5-1.7-6.5-7.3 0-5.4 2.2-7.2 6.3-7.2 3.7 0 5.6 1.4 5.6 7.1zm-9.3-1.5h6.7c-.1-2.9-.9-3.5-3.1-3.5-2.6 0-3.4.8-3.6 3.5zm17.3-3.5c-1.9 0-3 .3-3 2 0 1.2.8 1.6 3.1 1.8 3.4.3 4.9 1.4 4.9 4 0 3.4-2 4.4-5.6 4.4-1.4 0-3.6-.3-4.9-.7l.6-2.1c1 .4 2.8.7 4.2.7 2.1 0 3-.5 3-2.1 0-1.2-.6-1.8-3.1-2-3.2-.2-4.9-1.1-4.9-3.8 0-3.4 2.1-4.4 5.6-4.4 1.4 0 3.1.3 4.6.7-.2.7-.5 1.4-.7 2.1-1-.2-2.5-.6-3.8-.6zm11.3 7.2c0 2 .5 2.9 2.3 2.9.9 0 1.8-.2 2.5-.4l.5 2.1c-.9.3-2.2.6-3.4.6-3.1 0-4.5-.9-4.5-5V216H225v-2.3h2.3v-2.6l2.6-1.1v3.6h4.8v2.3h-4.8v6.8zm18.3 0c0 2 .5 2.9 2.3 2.9.9 0 1.8-.2 2.5-.4l.5 2.1c-.9.3-2.2.6-3.4.6-3.1 0-4.5-.9-4.5-5V216h-2.3v-2.3h2.3v-2.6l2.6-1.1v3.6h4.8v2.3h-4.8v6.8zm19.3-2.2v.6h-9.3c0 3.7 1.3 4.5 4.1 4.5 1 0 2.8-.3 3.9-.6l.5 2.1c-1.4.4-3.4.8-4.6.8-4 0-6.5-1.7-6.5-7.3 0-5.4 2.2-7.2 6.3-7.2 3.8 0 5.6 1.4 5.6 7.1zm-9.3-1.5h6.7c-.1-2.9-.9-3.5-3.1-3.5-2.5 0-3.4.8-3.6 3.5zm23.2 7.7c-1.6.7-4 1.1-5.9 1.1-4.1 0-5.7-1-5.7-4.6 0-3.9 2.3-4.5 5.4-4.5 1.3 0 2.3.1 3.6.4 0-2.9-.7-3.5-3.7-3.5-1.4 0-2.9.2-4 .6l-.5-2.2c1.2-.3 3.1-.7 5-.7 4 0 5.8 1.2 5.8 5.3v8.1zM279 221c-.9-.2-2-.3-3.2-.3-2.3 0-3.1.2-3.1 2.4 0 2.3.6 2.6 3.1 2.6 1.1 0 2.3-.2 3.2-.5V221zm8.6 6.4h-2.5v-12.9c1.6-.7 3.9-1.1 5.8-1.1 1.6 0 2.8.3 3.6.9 1.5-.5 3.4-.9 4.9-.9 3.9 0 5.3 1.4 5.3 6.4v7.7h-2.5v-7.3c0-3.6-.7-4.4-3.3-4.4-.8 0-2.1.1-3.2.5.3.9.5 2.1.5 3.6v7.7h-2.6v-7.3c0-3.6-.7-4.4-3.2-4.4-.9 0-2 .1-2.8.4v11.1zm23.1 0h-2.5v-12.9c1.6-.7 3.9-1.1 5.8-1.1 1.6 0 2.8.3 3.6.9 1.5-.5 3.4-.9 4.9-.9 3.9 0 5.3 1.4 5.3 6.4v7.7h-2.5v-7.3c0-3.6-.7-4.4-3.3-4.4-.8 0-2.1.1-3.2.5.3.9.5 2.1.5 3.6v7.7h-2.6v-7.3c0-3.6-.7-4.4-3.2-4.4-.9 0-2 .1-2.8.4v11.1zm31.6-.7c-1.6.7-4 1.1-5.9 1.1-4.1 0-5.7-1-5.7-4.6 0-3.9 2.3-4.5 5.4-4.5 1.3 0 2.3.1 3.6.4 0-2.9-.7-3.5-3.7-3.5-1.4 0-2.9.2-4 .6l-.5-2.2c1.2-.3 3.1-.7 5-.7 4 0 5.8 1.2 5.8 5.3v8.1zm-2.5-5.7c-.9-.2-2-.3-3.2-.3-2.3 0-3.1.2-3.1 2.4 0 2.3.6 2.6 3.1 2.6 1.1 0 2.3-.2 3.2-.5V221zm9.5 1.7c0 2 .5 2.9 2.3 2.9.9 0 1.8-.2 2.5-.4l.5 2.1c-.9.3-2.2.6-3.4.6-3.1 0-4.5-.9-4.5-5V216h-2.3v-2.3h2.3v-2.6l2.6-1.1v3.6h4.8v2.3h-4.8v6.8zm19.1-2.2v.6h-9.3c0 3.7 1.3 4.5 4.1 4.5 1 0 2.8-.3 3.9-.6l.5 2.1c-1.4.4-3.4.8-4.6.8-4 0-6.5-1.7-6.5-7.3 0-5.4 2.2-7.2 6.3-7.2 3.8 0 5.6 1.4 5.6 7.1zm-9.3-1.5h6.7c-.1-2.9-.9-3.5-3.1-3.5-2.5 0-3.4.8-3.6 3.5z"/></svg>