<?xml version="1.0" encoding="utf-8"?>
<!-- Generator: Adobe Illustrator 21.0.0, SVG Export Plug-In . SVG Version: 6.00 Build 0)  -->
<svg version="1.1" xmlns="http://www.w3.org/2000/svg" xmlns:xlink="http://www.w3.org/1999/xlink" x="0px" y="0px"
	 viewBox="0 0 232.4 51.4" style="enable-background:new 0 0 232.4 51.4;" xml:space="preserve">
<style type="text/css">
	.st0{fill:#FFFFFF;}
	.st1{fill:#F37D20;}
	.st2{fill:none;stroke:#F37D20;stroke-miterlimit:10;}
	.st3{fill:#F37C20;}
	.st4{fill-rule:evenodd;clip-rule:evenodd;fill:#F37D20;}
	.st5{fill-rule:evenodd;clip-rule:evenodd;fill:#ECA55D;}
	.st6{fill:#99999A;}
	.st7{clip-path:url(#SVGID_2_);fill:url(#SVGID_3_);}
	.st8{clip-path:url(#SVGID_2_);fill:url(#SVGID_4_);}
	.st9{clip-path:url(#SVGID_2_);fill:url(#SVGID_5_);}
	.st10{clip-path:url(#SVGID_2_);fill:url(#SVGID_6_);}
	.st11{fill:#808080;}
	.st12{fill:#7F7F7F;}
	.st13{fill-rule:evenodd;clip-rule:evenodd;fill:#7F7F7F;}
	.st14{fill:none;stroke:#7F7F7F;stroke-miterlimit:10;}
	.st15{fill:#989898;}
	.st16{clip-path:url(#SVGID_8_);fill:url(#SVGID_9_);}
	.st17{clip-path:url(#SVGID_8_);fill:url(#SVGID_10_);}
	.st18{clip-path:url(#SVGID_8_);fill:url(#SVGID_11_);}
	.st19{clip-path:url(#SVGID_8_);fill:url(#SVGID_12_);}
	.st20{fill:#ECA55D;}
	.st21{fill:none;stroke:#ECA55D;stroke-miterlimit:10;}
	.st22{fill:none;stroke:#E1854F;stroke-miterlimit:10;}
	.st23{fill:#E1854F;}
	.st24{fill:#F37C20;stroke:#F37C20;stroke-width:0.5;stroke-miterlimit:10;}
	.st25{fill:none;stroke:#4597CB;stroke-miterlimit:10;}
	.st26{fill:#4597CB;}
	.st27{fill:#F8A45F;}
	.st28{fill:#676767;}
	.st29{opacity:0.9;fill:#F37D20;}
	.st30{fill:#DF6541;}
	.st31{fill:#FF9F36;}
	.st32{fill:none;stroke:#989898;stroke-miterlimit:10;}
	.st33{fill-rule:evenodd;clip-rule:evenodd;fill:#989898;}
	.st34{fill:#4596CA;}
	.st35{fill:none;stroke:#FFFFFF;stroke-width:0.75;stroke-miterlimit:10;}
	.st36{fill:none;stroke:#F37D20;stroke-width:0.75;stroke-miterlimit:10;}
	.st37{fill:none;stroke:#3C97CC;stroke-miterlimit:10;}
	.st38{fill:none;stroke:#676767;stroke-miterlimit:10;}
	.st39{fill-rule:evenodd;clip-rule:evenodd;fill:#4A97D1;}
	.st40{fill:none;stroke:#4A97D1;stroke-width:1.6468;stroke-miterlimit:10;}
	.st41{fill:#928A84;}
	.st42{fill:#F89D3B;}
	.st43{fill:#F79838;}
	.st44{opacity:0.5;fill:#8B9DA7;}
	.st45{fill:#F4F5F5;}
	.st46{fill:#B4B4B4;}
	.st47{opacity:0.9;fill:#F79838;}
	.st48{fill:#A4A4A4;}
	.st49{fill:none;stroke:#464646;stroke-width:3;stroke-miterlimit:10;}
	.st50{fill:#8B9DA7;}
	.st51{fill:#231F20;}
	.st52{fill:#231F20;stroke:#231F20;stroke-width:0.1;stroke-miterlimit:10;}
	.st53{fill:#4596CA;stroke:#4596CA;stroke-width:0.17;stroke-miterlimit:10;}
	.st54{fill:#4596CA;stroke:#4596CA;stroke-width:0.1;stroke-miterlimit:10;}
	.st55{fill:#938B86;}
	.st56{fill:#4596CA;stroke:#4596CA;stroke-width:0.2;stroke-miterlimit:10;}
</style>
<g id="canvas">
</g>
<g id="EMV">
</g>
<g id="CAREERS">
</g>
<g id="PRODUCTS">
</g>
<g id="ABOUT">
</g>
<g id="white">
</g>
<g id="icons">
</g>
<g id="CONTACT">
</g>
<g id="MERCHANTS">
</g>
<g id="Regular_icons">
</g>
<g id="Isolation_Mode">
</g>
<g id="artwork">
</g>
<g id="content">
	<g>
		<g>
			<path class="st34" d="M66.1,1.2h9c1.3,0,2.6,0.1,3.8,0.4c1.2,0.2,2.3,0.7,3.2,1.3c1,0.6,1.7,1.4,2.2,2.5c0.5,1.1,0.8,2.5,0.8,4.1
				c0,1.7-0.3,3.2-0.9,4.2c-0.6,1.1-1.4,1.9-2.3,2.6c-1,0.6-2,1-3.3,1.3c-1.2,0.2-2.5,0.4-3.7,0.4h-3.5V27H66V1.2H66.1z M75.2,13.4
				c1.7,0,2.9-0.3,3.6-1c0.7-0.7,1.1-1.6,1.1-2.9c0-1.2-0.4-2.2-1-2.8c-0.7-0.7-1.9-1-3.6-1h-3.7v7.7L75.2,13.4L75.2,13.4z"/>
			<path class="st34" d="M93.8,27.2c-0.7,0-1.3-0.1-2-0.4c-0.6-0.2-1.1-0.5-1.6-1c-0.5-0.4-0.8-1-1.1-1.6c-0.2-0.6-0.4-1.3-0.4-2.2
				c0-2.2,0.9-3.8,2.8-5c1.8-1.2,4.7-2,8.6-2.3v-0.5c0-0.7-0.2-1.2-0.5-1.6c-0.4-0.4-1-0.6-1.9-0.6c-1.1,0-2.2,0.2-3.2,0.7
				c-1,0.4-1.9,1-2.7,1.7l-2.3-3.2c0.4-0.4,1-0.8,1.5-1.2c0.6-0.4,1.2-0.8,1.9-1.1c0.7-0.3,1.5-0.5,2.5-0.8c0.9-0.2,1.9-0.3,3.1-0.3
				c2.5,0,4.2,0.6,5.3,1.9c1.1,1.3,1.6,3.1,1.6,5.4v7.1c0,1.1,0.1,2,0.1,2.8c0.1,0.7,0.2,1.3,0.4,1.8h-5.4c-0.1-0.4-0.2-0.8-0.3-1.3
				c-0.1-0.4-0.1-1-0.1-1.4c-0.8,1-1.7,1.7-2.8,2.2C96.3,27,95.1,27.2,93.8,27.2z M95.9,23c1,0,1.7-0.2,2.4-0.5
				c0.7-0.3,1.2-0.7,1.7-1.1v-3.5c-2.2,0.2-3.7,0.6-4.6,1.2c-1,0.5-1.4,1.3-1.4,2.1c0,0.6,0.2,1.1,0.5,1.3
				C94.9,22.9,95.3,23,95.9,23z"/>
			<path class="st34" d="M114.5,34.1c-1.3,0-2.4-0.1-3.2-0.2s-1.4-0.3-1.9-0.4l1.1-4.3c0.2,0.1,0.7,0.2,1.3,0.3s1.3,0.2,2.1,0.2
				c0.6,0,1.1-0.1,1.4-0.4c0.4-0.2,0.7-0.7,0.9-1.3l0.4-0.9l-6.8-18.7h5.6l3.9,12.1h0.1l4-12.1h5.2L121,28.9c-0.3,0.8-0.6,1.6-1,2.2
				c-0.4,0.6-0.8,1.2-1.3,1.6c-0.5,0.4-1.1,0.8-1.7,1C116.2,34,115.4,34.1,114.5,34.1z"/>
			<path class="st34" d="M139,5.9h-7.4V1.2h20.2v4.7h-7.4V27H139V5.9z"/>
			<path class="st34" d="M155.5,8.4h5.4v3.1h0.1c0.2-0.4,0.5-0.8,0.9-1.2s0.8-0.8,1.3-1.1c0.5-0.4,1-0.6,1.7-0.8
				c0.7-0.2,1.4-0.4,2.2-0.4h0.2l-0.1,5c-0.1,0-0.3-0.1-0.7-0.1c-0.3,0-0.6-0.1-0.8-0.1c-1.1,0-2,0.2-2.8,0.8
				c-0.8,0.5-1.4,1.1-2,1.8v11.5h-5.4V8.4z"/>
			<path class="st34" d="M176,27.2c-0.7,0-1.3-0.1-2-0.4c-0.6-0.2-1.1-0.5-1.6-1c-0.5-0.4-0.8-1-1.1-1.6c-0.2-0.6-0.4-1.3-0.4-2.2
				c0-2.2,0.9-3.8,2.8-5c1.8-1.2,4.7-2,8.6-2.3v-0.5c0-0.7-0.2-1.2-0.5-1.6c-0.4-0.4-1-0.6-1.9-0.6c-1.1,0-2.2,0.2-3.2,0.7
				c-1,0.4-1.9,1-2.7,1.7l-2.3-3.2c0.4-0.4,1-0.8,1.5-1.2c0.5-0.4,1.2-0.8,1.9-1.1c0.7-0.3,1.5-0.5,2.5-0.8c0.9-0.2,1.9-0.3,3.1-0.3
				c2.5,0,4.2,0.6,5.3,1.9s1.6,3.1,1.6,5.4v7.1c0,1.1,0.1,2,0.1,2.8c0.1,0.7,0.2,1.3,0.4,1.8h-5.4c-0.1-0.4-0.2-0.8-0.3-1.3
				c-0.1-0.4-0.1-1-0.1-1.4c-0.8,1-1.7,1.7-2.8,2.2C178.6,27,177.4,27.2,176,27.2z M178.2,23c1,0,1.7-0.2,2.4-0.5
				c0.7-0.3,1.3-0.7,1.7-1.1v-3.5c-2.2,0.2-3.7,0.6-4.6,1.2c-1,0.5-1.4,1.3-1.4,2.1c0,0.6,0.2,1.1,0.5,1.3
				C177.1,22.9,177.6,23,178.2,23z"/>
			<path class="st34" d="M201.4,27.3c-1.1,0-2.1-0.2-3.1-0.5c-1-0.3-2-0.8-2.8-1.6c-0.8-0.8-1.5-1.7-2-3s-0.8-2.8-0.8-4.5
				c0-1.9,0.3-3.4,0.8-4.7c0.5-1.3,1.3-2.2,2.2-3c0.9-0.7,1.9-1.3,2.9-1.6c1.1-0.3,2.1-0.5,3.1-0.5c1.2,0,2.2,0.2,3.1,0.5
				c0.9,0.3,1.6,0.7,2.2,1.3c0.6,0.5,1.1,1.1,1.5,1.8c0.4,0.7,0.7,1.4,1,2.2l-4.5,1.6c-0.4-1.2-0.8-2-1.3-2.5
				c-0.5-0.5-1.2-0.7-2-0.7c-1.1,0-2,0.5-2.6,1.4c-0.7,1-1,2.3-1,4.2c0,0.8,0.1,1.6,0.2,2.3c0.1,0.7,0.4,1.3,0.6,1.8
				c0.3,0.5,0.7,0.9,1.1,1.2c0.4,0.3,1,0.4,1.6,0.4c0.7,0,1.4-0.2,2-0.7c0.6-0.5,1.1-1.3,1.5-2.6l4.4,1.6c-0.3,0.7-0.7,1.4-1.1,2.1
				c-0.4,0.7-1,1.3-1.6,1.8c-0.7,0.5-1.4,1-2.3,1.3C203.6,27.2,202.6,27.3,201.4,27.3z"/>
			<path class="st34" d="M222,27.3c-1.1,0-2.3-0.2-3.4-0.5c-1.1-0.4-2.1-0.9-2.9-1.6c-0.8-0.8-1.6-1.7-2-3c-0.5-1.3-0.8-2.8-0.8-4.5
				c0-1.8,0.3-3.3,0.9-4.5c0.6-1.3,1.3-2.2,2.2-3c0.9-0.8,1.9-1.3,2.9-1.6c1.1-0.4,2-0.5,2.9-0.5c0.9,0,1.9,0.1,2.8,0.4
				c1,0.3,1.9,0.8,2.6,1.6c0.8,0.8,1.4,1.8,2,3.2c0.5,1.3,0.8,3.1,0.8,5.2v0.8h-11.8c0.1,1.6,0.6,2.6,1.3,3.3s1.7,1,2.8,1
				c1.1,0,2.1-0.2,3-0.7c0.9-0.5,1.7-1,2.3-1.6l2.1,3.3C227.7,26.4,225.1,27.3,222,27.3z M225.3,15.9c-0.2-2.6-1.4-3.9-3.4-3.9
				c-0.8,0-1.6,0.3-2.2,0.9c-0.7,0.6-1.1,1.6-1.3,3H225.3z"/>
		</g>
		<g>
			<g>
				<path class="st41" d="M69.1,51.4c-0.7,0-1.3-0.1-1.7-0.1c-0.5-0.1-0.8-0.2-1.1-0.4c-0.3-0.2-0.5-0.4-0.7-0.6
					c-0.1-0.2-0.2-0.5-0.2-0.8c0-0.4,0.1-0.8,0.4-1c0.2-0.3,0.5-0.5,1-0.7c-0.4-0.2-0.6-0.5-0.6-1c0-0.3,0.1-0.6,0.3-0.8
					c0.2-0.2,0.5-0.5,0.7-0.7c-0.4-0.2-0.7-0.6-0.9-1c-0.2-0.4-0.3-0.8-0.3-1.3c0-0.4,0.1-0.8,0.2-1.1c0.2-0.4,0.4-0.7,0.7-0.9
					s0.6-0.5,1-0.6c0.4-0.1,0.8-0.2,1.4-0.2c0.5,0,1,0.1,1.4,0.2c0.4,0.2,0.7,0.4,1,0.6c0.2-0.2,0.5-0.4,0.9-0.5
					c0.4-0.1,0.7-0.2,1-0.2v1.5c-0.2,0-0.4,0-0.6,0.1s-0.5,0.1-0.7,0.2c0.2,0.3,0.3,0.7,0.3,1.1s-0.1,0.8-0.2,1.2
					c-0.1,0.4-0.4,0.7-0.7,0.9c-0.3,0.2-0.6,0.5-1,0.6c-0.4,0.1-0.8,0.2-1.4,0.2c-0.2,0-0.4,0-0.5-0.1c-0.2-0.1-0.3-0.1-0.5-0.1
					c-0.1,0.1-0.2,0.1-0.3,0.2c-0.1,0.1-0.1,0.2-0.1,0.3c0,0.2,0.1,0.3,0.2,0.4c0.1,0.1,0.4,0.1,0.7,0.1l1.4,0.1
					c1.1,0.1,2,0.3,2.5,0.6c0.5,0.4,0.7,0.9,0.7,1.6c0,0.4-0.1,0.8-0.3,1.1c-0.2,0.3-0.5,0.5-0.8,0.8c-0.4,0.2-0.8,0.4-1.3,0.5
					C70.3,51.4,69.7,51.4,69.1,51.4z M69.4,50.1c0.7,0,1.2-0.1,1.6-0.2c0.4-0.2,0.6-0.4,0.6-0.7c0-0.1,0-0.2-0.1-0.4
					s-0.2-0.2-0.3-0.2c-0.1-0.1-0.4-0.1-0.6-0.2c-0.2-0.1-0.6-0.1-1-0.1l-1.4-0.1c-0.1,0-0.3,0-0.5-0.1c-0.2,0.1-0.4,0.3-0.5,0.5
					c-0.1,0.2-0.2,0.4-0.2,0.6c0,0.4,0.2,0.6,0.6,0.7C68,50,68.6,50.1,69.4,50.1z M69.1,44.6c0.5,0,0.9-0.1,1.1-0.4
					c0.3-0.2,0.4-0.7,0.4-1.1c0-0.5-0.1-0.9-0.4-1.1c-0.2-0.2-0.7-0.4-1.2-0.4c-0.5,0-0.9,0.1-1.1,0.4c-0.3,0.3-0.4,0.7-0.4,1.1
					c0,0.5,0.1,0.9,0.4,1.1C68.3,44.4,68.7,44.6,69.1,44.6z"/>
				<path class="st41" d="M77.6,48.5c-0.3,0-0.6-0.1-0.9-0.1c-0.2-0.1-0.5-0.2-0.7-0.4c-0.2-0.2-0.4-0.4-0.5-0.7
					c-0.1-0.2-0.2-0.5-0.2-0.9c0-0.4,0.1-0.8,0.3-1.2c0.2-0.4,0.5-0.7,0.9-1c0.4-0.3,1-0.5,1.6-0.7c0.7-0.2,1.4-0.4,2.3-0.5v-0.2
					c0-0.4-0.1-0.7-0.3-0.9c-0.2-0.2-0.5-0.3-1-0.3c-0.5,0-1,0.1-1.5,0.4c-0.4,0.2-0.8,0.5-1.1,0.8l-0.9-1.2c0.4-0.4,1-0.7,1.6-1
					c0.7-0.3,1.4-0.4,2.2-0.4c0.5,0,1,0.1,1.3,0.2c0.4,0.1,0.7,0.3,0.8,0.5c0.2,0.2,0.4,0.5,0.5,0.9s0.1,0.8,0.1,1.3v3.3
					c0,0.5,0,0.9,0.1,1.2c0.1,0.3,0.1,0.6,0.2,0.8h-1.8c-0.1-0.2-0.1-0.4-0.1-0.5c-0.1-0.1-0.1-0.4-0.1-0.5
					c-0.4,0.4-0.8,0.7-1.3,0.9C78.7,48.3,78.2,48.5,77.6,48.5z M78.2,47c0.5,0,0.9-0.1,1.3-0.2s0.7-0.4,1-0.7v-1.8
					c-1.1,0.2-1.9,0.4-2.5,0.7c-0.5,0.3-0.8,0.7-0.8,1.1c0,0.3,0.1,0.6,0.3,0.7C77.6,46.9,77.9,47,78.2,47z"/>
				<path class="st41" d="M88.2,48.4c-0.5,0-0.9-0.1-1.2-0.1c-0.3-0.1-0.5-0.2-0.7-0.4c-0.2-0.2-0.3-0.4-0.4-0.7
					c-0.1-0.3-0.1-0.6-0.1-1v-4.5h-1.4v-1.5h1.4v-2.8h1.8v2.8h2v1.5h-2v4c0,0.4,0.1,0.7,0.2,1c0.2,0.2,0.5,0.3,0.9,0.3
					c0.1,0,0.3,0,0.4,0c0.1,0,0.2-0.1,0.4-0.1v1.5c-0.1,0-0.1,0-0.2,0.1c-0.1,0-0.2,0-0.4,0.1c-0.1,0-0.2,0-0.4,0
					C88.5,48.4,88.4,48.4,88.2,48.4z"/>
				<path class="st41" d="M95.5,48.5c-0.5,0-1-0.1-1.4-0.2c-0.5-0.2-0.8-0.4-1.2-0.7c-0.4-0.4-0.6-0.8-0.8-1.3s-0.3-1.2-0.3-1.9
					c0-0.8,0.1-1.4,0.4-2c0.2-0.5,0.5-1,0.9-1.3c0.4-0.4,0.8-0.6,1.2-0.7c0.4-0.1,0.8-0.2,1.3-0.2c0.4,0,0.8,0.1,1.3,0.2
					c0.4,0.1,0.8,0.4,1.1,0.7c0.3,0.3,0.6,0.8,0.8,1.4c0.2,0.5,0.3,1.3,0.3,2.1v0.4h-5.3c0.1,0.7,0.2,1.3,0.7,1.6s0.8,0.5,1.4,0.5
					c0.5,0,0.9-0.1,1.3-0.2c0.3-0.2,0.7-0.4,1-0.7l1,1c-0.4,0.5-0.9,0.8-1.4,1.1C96.8,48.3,96.2,48.5,95.5,48.5z M97.3,43.5
					c-0.1-1.3-0.7-1.9-1.8-1.9c-0.2,0-0.4,0.1-0.7,0.1c-0.2,0.1-0.4,0.2-0.5,0.3c-0.2,0.2-0.3,0.4-0.4,0.6s-0.2,0.5-0.2,0.9H97.3z"
					/>
				<path class="st41" d="M100.7,40.2h1.9l0.8,3.3c0.1,0.2,0.1,0.4,0.2,0.7c0.1,0.2,0.1,0.4,0.1,0.6c0.1,0.2,0.1,0.4,0.1,0.6
					c0.1,0.2,0.1,0.5,0.1,0.7l0,0c0.1-0.3,0.1-0.5,0.2-0.7c0.1-0.2,0.1-0.4,0.1-0.6c0.1-0.2,0.1-0.4,0.1-0.6
					c0.1-0.2,0.1-0.4,0.2-0.7l0.8-3.3h1.4l0.8,3.4c0.1,0.2,0.1,0.4,0.2,0.7s0.1,0.4,0.1,0.6c0.1,0.2,0.1,0.4,0.1,0.6
					c0.1,0.2,0.1,0.4,0.2,0.7l0,0c0.1-0.2,0.1-0.5,0.2-0.7c0.1-0.2,0.1-0.4,0.1-0.6c0.1-0.2,0.1-0.4,0.1-0.6
					c0.1-0.2,0.1-0.4,0.2-0.6l0.9-3.4h1.6l-2.3,8.1h-1.7l-1.4-5.6l0,0l-1.4,5.6h-1.7L100.7,40.2z"/>
				<path class="st41" d="M115.6,48.5c-0.3,0-0.6-0.1-0.9-0.1c-0.2-0.1-0.5-0.2-0.7-0.4c-0.2-0.2-0.4-0.4-0.5-0.7
					c-0.1-0.2-0.2-0.5-0.2-0.9c0-0.4,0.1-0.8,0.3-1.2c0.2-0.4,0.5-0.7,0.9-1c0.4-0.3,1-0.5,1.6-0.7c0.7-0.2,1.4-0.4,2.3-0.5v-0.2
					c0-0.4-0.1-0.7-0.3-0.9s-0.5-0.3-1-0.3c-0.5,0-1,0.1-1.5,0.4c-0.4,0.2-0.8,0.5-1.1,0.8l-0.9-1.2c0.4-0.4,1-0.7,1.6-1
					c0.7-0.3,1.4-0.4,2.2-0.4c0.5,0,1,0.1,1.3,0.2c0.4,0.1,0.7,0.3,0.8,0.5c0.2,0.2,0.4,0.5,0.5,0.9c0.1,0.4,0.1,0.8,0.1,1.3v3.3
					c0,0.5,0,0.9,0.1,1.2c0.1,0.3,0.1,0.6,0.2,0.8h-1.8c-0.1-0.2-0.1-0.4-0.1-0.5c-0.1-0.1-0.1-0.4-0.1-0.5
					c-0.4,0.4-0.8,0.7-1.3,0.9C116.6,48.3,116.2,48.5,115.6,48.5z M116.2,47c0.5,0,0.9-0.1,1.3-0.2c0.4-0.2,0.7-0.4,1-0.7v-1.8
					c-1.1,0.2-1.9,0.4-2.5,0.7c-0.5,0.3-0.8,0.7-0.8,1.1c0,0.3,0.1,0.6,0.3,0.7C115.6,46.9,115.9,47,116.2,47z"/>
				<path class="st41" d="M124.1,51.4c-0.5,0-0.8,0-1.1-0.1c-0.3-0.1-0.5-0.1-0.7-0.2l0.4-1.5c0.1,0.1,0.3,0.1,0.5,0.1
					c0.2,0.1,0.5,0.1,0.8,0.1c0.3,0,0.6-0.1,0.8-0.2c0.2-0.1,0.4-0.4,0.5-0.7l0.2-0.6l-3-8.1h1.9l2,5.9l0,0l2-5.9h1.8l-3.3,9
					c-0.1,0.4-0.2,0.7-0.4,1c-0.2,0.3-0.4,0.5-0.5,0.7c-0.2,0.2-0.5,0.4-0.7,0.4C124.8,51.4,124.4,51.4,124.1,51.4z"/>
				<path class="st41" d="M140.1,48.4c-0.5,0-0.9-0.1-1.2-0.1c-0.3-0.1-0.5-0.2-0.7-0.4c-0.2-0.2-0.3-0.4-0.4-0.7
					c-0.1-0.3-0.1-0.6-0.1-1v-4.5h-1.3v-1.5h1.4v-2.8h1.8v2.8h2v1.5h-2v4c0,0.4,0.1,0.7,0.2,1c0.2,0.2,0.5,0.3,0.9,0.3
					c0.1,0,0.3,0,0.4,0c0.1,0,0.2-0.1,0.4-0.1v1.5c-0.1,0-0.1,0-0.2,0.1c-0.1,0-0.2,0-0.4,0.1c-0.1,0-0.2,0-0.4,0
					C140.4,48.4,140.2,48.4,140.1,48.4z"/>
				<path class="st41" d="M147.5,48.5c-0.5,0-1-0.1-1.4-0.2c-0.5-0.2-0.8-0.4-1.2-0.8c-0.4-0.4-0.7-0.8-0.8-1.3
					c-0.2-0.5-0.3-1.1-0.3-1.9c0-0.8,0.1-1.4,0.3-1.9c0.2-0.5,0.5-1,0.8-1.3c0.4-0.4,0.8-0.6,1.2-0.7c0.5-0.2,0.9-0.2,1.4-0.2
					s1,0.1,1.4,0.2c0.5,0.2,0.8,0.4,1.2,0.7c0.4,0.3,0.7,0.8,0.8,1.3c0.2,0.5,0.4,1.2,0.4,1.9c0,0.7-0.1,1.4-0.4,1.9s-0.5,1-0.8,1.3
					c-0.4,0.4-0.8,0.6-1.2,0.8C148.4,48.4,147.9,48.5,147.5,48.5z M147.5,46.9c0.7,0,1.1-0.2,1.5-0.7c0.4-0.5,0.5-1.1,0.5-2
					c0-0.4-0.1-0.7-0.1-1c-0.1-0.3-0.2-0.6-0.4-0.8s-0.4-0.4-0.6-0.5c-0.2-0.1-0.5-0.2-0.9-0.2c-0.7,0-1.1,0.2-1.5,0.7
					c-0.4,0.5-0.5,1.1-0.5,1.9c0,0.8,0.2,1.4,0.5,1.9C146.3,46.7,146.8,46.9,147.5,46.9z"/>
				<path class="st41" d="M158.7,37h1.8v4.2c0.1-0.1,0.3-0.3,0.5-0.4c0.2-0.1,0.4-0.3,0.6-0.4c0.2-0.1,0.5-0.2,0.8-0.3
					c0.3-0.1,0.6-0.1,1-0.1c0.7,0,1.3,0.2,1.6,0.6c0.4,0.4,0.6,1,0.6,1.8v5.8h-1.8v-5.3c0-0.9-0.4-1.3-1.2-1.3
					c-0.4,0-0.8,0.1-1.1,0.3s-0.7,0.4-1,0.8v5.6h-1.8V37H158.7z"/>
				<path class="st41" d="M170.3,48.5c-0.3,0-0.6-0.1-0.9-0.1c-0.2-0.1-0.5-0.2-0.7-0.4c-0.2-0.2-0.4-0.4-0.5-0.7
					c-0.1-0.2-0.2-0.5-0.2-0.9c0-0.4,0.1-0.8,0.3-1.2c0.2-0.4,0.5-0.7,0.9-1c0.4-0.3,1-0.5,1.6-0.7c0.7-0.2,1.4-0.4,2.3-0.5v-0.2
					c0-0.4-0.1-0.7-0.3-0.9s-0.5-0.3-1-0.3c-0.5,0-1,0.1-1.5,0.4c-0.4,0.2-0.8,0.5-1.1,0.8l-0.9-1.2c0.4-0.4,1-0.7,1.6-1
					c0.7-0.3,1.4-0.4,2.2-0.4c0.5,0,1,0.1,1.3,0.2c0.4,0.1,0.7,0.3,0.8,0.5c0.2,0.2,0.4,0.5,0.5,0.9c0.1,0.4,0.1,0.8,0.1,1.3v3.3
					c0,0.5,0,0.9,0.1,1.2c0.1,0.3,0.1,0.6,0.2,0.8h-1.8c-0.1-0.2-0.1-0.4-0.1-0.5c-0.1-0.1-0.1-0.4-0.1-0.5
					c-0.4,0.4-0.8,0.7-1.3,0.9C171.4,48.3,170.9,48.5,170.3,48.5z M171,47c0.5,0,0.9-0.1,1.3-0.2c0.4-0.2,0.7-0.4,1-0.7v-1.8
					c-1.1,0.2-1.9,0.4-2.5,0.7c-0.5,0.3-0.8,0.7-0.8,1.1c0,0.3,0.1,0.6,0.3,0.7C170.4,46.9,170.7,47,171,47z"/>
				<path class="st41" d="M178,40.2h1.8v1.1c0.2-0.3,0.6-0.6,1-0.8s0.9-0.4,1.5-0.4c0.4,0,0.8,0.1,1.2,0.2c0.4,0.2,0.7,0.4,1,0.8
					c0.3,0.4,0.5,0.8,0.7,1.3c0.2,0.5,0.2,1.1,0.2,1.9c0,0.7-0.1,1.3-0.2,1.9c-0.2,0.5-0.4,1-0.7,1.3c-0.3,0.4-0.7,0.6-1,0.8
					c-0.4,0.2-0.8,0.2-1.4,0.2c-0.4,0-0.8-0.1-1.2-0.2c-0.4-0.2-0.7-0.4-1-0.8v3.9h-1.8L178,40.2L178,40.2z M181.6,47
					c0.7,0,1.2-0.2,1.5-0.7s0.4-1.1,0.4-2c0-0.8-0.2-1.5-0.5-2c-0.3-0.4-0.8-0.7-1.4-0.7c-0.4,0-0.7,0.1-1.1,0.3
					c-0.4,0.2-0.6,0.4-0.8,0.7v3.2c0.2,0.3,0.5,0.6,0.8,0.7C180.9,46.8,181.3,47,181.6,47z"/>
				<path class="st41" d="M188,40.2h1.8v1.1c0.2-0.3,0.6-0.6,1-0.8s0.9-0.4,1.5-0.4c0.4,0,0.8,0.1,1.2,0.2c0.4,0.2,0.7,0.4,1,0.8
					c0.3,0.4,0.5,0.8,0.7,1.3c0.2,0.5,0.2,1.1,0.2,1.9c0,0.7-0.1,1.3-0.2,1.9c-0.2,0.5-0.4,1-0.7,1.3c-0.3,0.4-0.7,0.6-1,0.8
					c-0.4,0.2-0.8,0.2-1.4,0.2c-0.4,0-0.8-0.1-1.2-0.2c-0.4-0.2-0.7-0.4-1-0.8v3.9h-1.8L188,40.2L188,40.2z M191.7,47
					c0.7,0,1.2-0.2,1.5-0.7s0.4-1.1,0.4-2c0-0.8-0.2-1.5-0.5-2c-0.3-0.4-0.8-0.7-1.4-0.7c-0.4,0-0.7,0.1-1.1,0.3
					c-0.4,0.2-0.6,0.4-0.8,0.7v3.2c0.2,0.3,0.5,0.6,0.8,0.7C191,46.8,191.4,47,191.7,47z"/>
				<path class="st41" d="M198.9,51.4c-0.5,0-0.8,0-1.1-0.1c-0.3-0.1-0.5-0.1-0.7-0.2l0.4-1.5c0.1,0.1,0.3,0.1,0.5,0.1
					c0.2,0.1,0.5,0.1,0.8,0.1c0.3,0,0.6-0.1,0.8-0.2c0.2-0.1,0.4-0.4,0.5-0.7l0.2-0.6l-3-8.1h1.9l2,5.9l0,0l2-5.9h1.8l-3.3,9
					c-0.1,0.4-0.2,0.7-0.4,1c-0.2,0.3-0.4,0.5-0.5,0.7c-0.2,0.2-0.5,0.4-0.7,0.4C199.6,51.4,199.3,51.4,198.9,51.4z"/>
			</g>
		</g>
		<g>
			<path class="st34" d="M43.7,5.4C46,5.4,48,7.3,48,9.7v13.6h-2.2l5,8l4.8-8h-2.3V9.7C53.4,4.4,49,0,43.7,0l0,0H12
				C6.6,0,2.3,4.4,2.3,9.7V17h5.4V9.7c0-2.4,1.9-4.3,4.3-4.3H43.7"/>
			<path class="st42" d="M12,45.6c-2.3,0-4.3-1.9-4.3-4.3V27.8h2.2l-5-8l-4.8,8h2.3v13.6c0,5.3,4.4,9.7,9.7,9.7l0,0h31.7
				c5.3,0,9.7-4.4,9.7-9.7V34H48v7.4c0,2.3-1.9,4.3-4.3,4.3L12,45.6"/>
			<path class="st42" d="M27.8,38.2c-7.8,0-14.2-5.7-14.2-12.8h5.3c0,4.1,4,7.5,9,7.5s9-3.3,9-7.5h5.3
				C42.1,32.5,35.7,38.2,27.8,38.2z"/>
		</g>
		<g>
			<path class="st53" d="M227.8,3.4h-0.9V3.1h2.2v0.3h-0.9v2.5h-0.4V3.4z"/>
			<path class="st53" d="M229.6,3.1h0.5l0.9,2.4h0l0.9-2.4h0.5v2.8H232V3.6h0c0,0.1,0,0.2-0.1,0.2c0,0.1-0.1,0.2-0.1,0.3l-0.7,1.8
				h-0.3l-0.7-1.8c0,0,0-0.1-0.1-0.1c0,0,0-0.1,0-0.1c0,0,0-0.1,0-0.1c0,0,0-0.1,0-0.1h0v2.3h-0.3V3.1z"/>
		</g>
	</g>
</g>
</svg>
