<?xml version="1.0" encoding="UTF-8"?>
<svg width="167px" height="27px" viewBox="0 0 167 27" version="1.1" xmlns="http://www.w3.org/2000/svg" xmlns:xlink="http://www.w3.org/1999/xlink">
    <!-- Generator: Sketch 48.1 (47250) - http://www.bohemiancoding.com/sketch -->
    <title>Western-Union-logo-color Copy</title>
    <desc>Created with Sketch.</desc>
    <defs>
        <polygon id="path-1" points="0 33.8917197 176.990479 33.8917197 176.990479 0.00487261146 0 0.00487261146"></polygon>
    </defs>
    <g id="header/logo/Western-Union-logo-color" stroke="none" stroke-width="1" fill="none" fill-rule="evenodd" transform="translate(-5.000000, -4.000000)">
        <g id="Western-Union-logo-color-Copy">
            <polygon id="Fill-1" fill="#FFDC00" points="5.86005238 4.36672611 9.85380422 4.36672611 10.8059906 11.4626561 10.8367168 11.4626561 11.8855175 4.36672611 16.5034216 4.36672611 17.5484356 11.4626561 17.57927 11.4626561 18.5341612 4.36672611 22.5273721 4.36672611 20.0955695 15.6444395 15.2552254 15.6444395 14.2112932 8.33855414 14.1804589 8.33855414 13.1343629 15.6444395 8.29520886 15.6444395"></polygon>
            <polygon id="Fill-2" fill="#FFDC00" points="25.1343787 4.36672611 33.7058958 4.36672611 33.7058958 7.30696815 29.4121311 7.30696815 29.4121311 8.50617197 33.3784025 8.50617197 33.3784025 11.4453312 29.4121311 11.4453312 29.4121311 12.710586 33.8465437 12.710586 33.8465437 15.6444395 25.1343787 15.6444395"></polygon>
            <g id="Group-28" transform="translate(0.000000, 0.103408)">
                <path d="M42.8526088,7.46726624 C42.8361638,6.76387771 42.4460281,6.52912611 41.8679652,6.52912611 C41.1515263,6.52912611 40.8367995,6.84173121 40.8367995,7.18703694 C40.8367995,7.59005605 41.1021913,7.76287134 41.5701161,7.90385223 C42.4290422,8.1567949 44.0052726,8.46561019 45.1436553,8.95157197 C46.5666877,9.54364841 47.1898661,10.5613745 47.1898661,11.9186675 C47.1898661,14.6840369 44.9436106,15.8410115 41.7558796,15.8410115 C39.0407256,15.8410115 36.5441167,14.9974 36.5441167,12.0601898 L40.8218692,12.0601898 C40.8218692,12.3747439 40.8855935,12.6855083 41.0565348,12.9213427 C41.227368,13.1367121 41.5086638,13.2778013 41.9296339,13.2778013 C42.5845122,13.2778013 43.0086198,12.8560497 43.0086198,12.3575274 C43.0086198,11.9369669 42.6805856,11.7186739 42.2570189,11.5924191 L39.0880049,10.6560115 C37.3572781,10.1402726 36.7496791,9.09049554 36.7496791,7.64008153 C36.7496791,5.29635541 38.6386889,3.96699873 41.9296339,3.96699873 C44.7382647,3.96699873 46.8490654,4.84547643 46.8490654,7.46726624 L42.8526088,7.46726624 Z" id="Fill-3" fill="#FFDC00"></path>
                <polygon id="Fill-5" fill="#FFDC00" points="52.3861793 7.29760191 49.6094648 7.29760191 49.6094648 4.26337261 59.6285736 4.26337261 59.6285736 7.29760191 56.8513181 7.29760191 56.8513181 15.5409777 52.3861793 15.5409777"></polygon>
                <polygon id="Fill-7" fill="#FFDC00" points="62.5306379 4.26331847 71.1005322 4.26331847 71.1005322 7.20356051 66.8107705 7.20356051 66.8107705 8.40276433 70.7741208 8.40276433 70.7741208 11.3419236 66.8107705 11.3419236 66.8107705 12.6071783 71.2438848 12.6071783 71.2438848 15.5410318 62.5306379 15.5410318"></polygon>
                <path d="M79.1709856,8.96516115 C80.0296953,8.96516115 80.6549294,8.66923121 80.6549294,7.82800191 C80.6549294,7.00063248 80.0757845,6.82749236 79.1999807,6.82749236 L78.796754,6.82749236 L78.796754,8.96516115 L79.1709856,8.96516115 Z M74.4267149,4.26330764 L81.0923444,4.26330764 C83.5119215,4.26330764 84.9322491,4.99972166 84.9322491,7.1255879 C84.9322491,8.42213567 84.3842631,9.40282994 82.6965963,9.8115879 L82.6965963,9.84244777 C83.7910535,9.93621847 84.3842631,10.4180656 84.602051,11.2800847 C84.8514306,12.2473522 84.8228683,13.8408045 85.3359086,15.541021 L80.9670596,15.541021 C80.7033988,14.6986006 80.5619936,13.2777471 80.403927,12.3114541 C80.3132631,11.7466643 80.0296953,11.5316197 79.3127155,11.5316197 L78.796754,11.5316197 L78.796754,15.541021 L74.4267149,15.541021 L74.4267149,4.26330764 Z" id="Fill-9" fill="#FFDC00"></path>
                <polygon id="Fill-11" fill="#FFDC00" points="88.3215502 4.26331847 93.6729873 4.26331847 96.0574023 11.0917962 96.0910496 11.0917962 96.0910496 4.26331847 99.7132746 4.26331847 99.7132746 15.5410318 94.3624867 15.5410318 91.9719048 8.66924204 91.9399885 8.66924204 91.9399885 15.5410318 88.3215502 15.5410318"></polygon>
                <path d="M47.0952858,25.2682586 C47.0952858,27.9879338 45.1436336,29.3490166 41.7427669,29.3490166 C38.3395199,29.3490166 36.3903561,27.9879338 36.3903561,25.2682586 L36.3903561,17.7726662 L40.8533311,17.7726662 L40.8533311,25.0813669 C40.8533311,25.9716471 41.2746257,26.3192268 41.7427669,26.3192268 C42.2109081,26.3192268 42.6328518,25.9716471 42.6328518,25.0813669 L42.6328518,17.7726662 L47.0952858,17.7726662 L47.0952858,25.2682586 Z" id="Fill-13" fill="#FFDC00"></path>
                <polygon id="Fill-15" fill="#FFDC00" points="50.6720274 17.7727096 56.02552 17.7727096 58.4116661 24.6001045 58.4440152 24.6001045 58.4440152 17.7727096 62.0641845 17.7727096 62.0641845 29.0530217 56.7106918 29.0530217 54.3256276 22.1771172 54.2903575 22.1771172 54.2903575 29.0530217 50.6720274 29.0530217"></polygon>
                <mask id="mask-2" fill="white">
                    <use xlink:href="#path-1"></use>
                </mask>
                <g id="Clip-18"></g>
                <polygon id="Fill-17" fill="#FFDC00" mask="url(#mask-2)" points="65.7200134 29.053 70.1796345 29.053 70.1796345 17.7726879 65.7200134 17.7726879"></polygon>
                <path d="M79.2473683,26.4118605 C79.9379496,26.4118605 80.4493671,26.0202108 80.4493671,23.4118478 C80.4493671,20.8649879 79.9681348,20.4119433 79.2473683,20.4119433 C78.5321195,20.4119433 78.0473169,20.8649879 78.0473169,23.4118478 C78.0473169,26.0202108 78.5660914,26.4118605 79.2473683,26.4118605 M79.2473683,17.4768987 C83.135526,17.4768987 85.070625,19.8965293 85.070625,23.4118478 C85.070625,26.9261917 83.135526,29.3489624 79.2473683,29.3489624 C75.3618072,29.3489624 73.4278982,26.9261917 73.4278982,23.4118478 C73.4278982,19.8965293 75.3618072,17.4768987 79.2473683,17.4768987" id="Fill-19" fill="#FFDC00" mask="url(#mask-2)"></path>
                <polygon id="Fill-20" fill="#FFDC00" mask="url(#mask-2)" points="88.3215502 17.7727096 93.6729873 17.7727096 96.0574023 24.6001045 96.0910496 24.6001045 96.0910496 17.7727096 99.7132746 17.7727096 99.7132746 29.0530217 94.3624867 29.0530217 91.9719048 22.1771172 91.9399885 22.1771172 91.9399885 29.0530217 88.3215502 29.0530217"></polygon>
                <path d="M141.732263,4.10348599 L139.830162,4.10348599 L137.700104,19.9349255 L137.631727,19.9349255 L135.298811,4.10348599 L124.99516,4.10348599 L122.657159,19.9349255 L122.589324,19.9349255 L120.465756,4.10348599 L111.555711,4.10348599 L116.987209,29.2617535 L127.785182,29.2617535 L130.114745,12.9636261 L130.185934,12.9636261 L132.514956,29.2617535 L143.312388,29.2617535 L143.854208,26.7461866 C142.473045,25.2777981 141.732263,23.3112121 141.732263,20.8267217 L141.732263,4.10348599 Z" id="Fill-21" fill="#FFDC00" mask="url(#mask-2)"></path>
                <path d="M141.732263,4.10348599 L141.732263,20.8267217 C141.732263,23.3112121 142.473045,25.2777981 143.854208,26.7461866 L148.73772,4.10348599 L141.732263,4.10348599 Z" id="Fill-22" fill="#FEFEFE" mask="url(#mask-2)"></path>
                <path d="M155.657165,4.10348599 L155.657165,20.4113586 C155.657165,22.3963522 154.715906,23.1696898 153.672947,23.1696898 C152.628149,23.1696898 151.687323,22.3963522 151.687323,20.4113586 L151.687323,4.10348599 L149.563323,4.10348599 L144.54533,27.3709637 C146.580722,29.0654414 149.663724,29.9296261 153.672947,29.9296261 C161.261011,29.9296261 165.61428,26.8935561 165.61428,20.8267217 L165.61428,4.10348599 L155.657165,4.10348599 Z" id="Fill-23" fill="#FFDC00" mask="url(#mask-2)"></path>
                <polygon id="Fill-24" fill="#FFDC00" mask="url(#mask-2)" points="105.022853 4.10348599 103.540424 4.10348599 108.877147 29.2617535 110.360658 29.2617535"></polygon>
                <polygon id="Fill-25" fill="#FFDC00" mask="url(#mask-2)" points="112.932502 29.2617318 114.41504 29.2617318 109.078425 4.10346433 107.596212 4.10346433"></polygon>
                <path d="M168.619548,5.30630637 C168.605699,5.13782229 168.515793,5.05477134 168.342796,5.05477134 C168.211344,5.05477134 168.077512,5.12396242 168.077512,5.2693828 C168.077512,5.44945287 168.238933,5.47024268 168.382069,5.50478408 C168.635668,5.56942739 169.009359,5.64100064 169.009359,5.9756949 C169.009359,6.38889236 168.649517,6.53193057 168.292054,6.53193057 C167.911548,6.53193057 167.64172,6.38423631 167.653188,5.96410892 L168.017683,5.96410892 C168.003834,6.14883503 168.109861,6.27346561 168.296707,6.27346561 C168.439627,6.27346561 168.628744,6.2296121 168.628744,6.05181592 C168.628744,5.85572038 168.391265,5.84186051 168.248237,5.80482866 C168.015303,5.74722357 167.697114,5.64100064 167.697114,5.3456121 C167.697114,4.96468217 168.047652,4.79619809 168.388885,4.79619809 C168.711834,4.79619809 168.963161,4.9716121 168.963161,5.30630637 L168.619548,5.30630637 Z" id="Fill-26" fill="#FFDC00" mask="url(#mask-2)"></path>
                <polygon id="Fill-27" fill="#FFDC00" mask="url(#mask-2)" points="170.325672 6.49733503 170.028256 6.49733503 169.587703 5.06630318 169.583159 5.07085096 169.583159 6.49733503 169.248742 6.49733503 169.248742 4.83079363 169.834486 4.83079363 170.182752 6.04266624 170.187404 6.04266624 170.565639 4.83079363 171.130503 4.83079363 171.130503 6.49733503 170.796193 6.49733503 170.796193 5.07085096 170.791649 5.06630318"></polygon>
            </g>
        </g>
    </g>
</svg>