<svg xmlns="http://www.w3.org/2000/svg" width="150" height="37" viewBox="0 0 150 37">
  <path fill="#C70C0F" d="M109.2 34.3c-2-1.3-2.2-2.1-2.4-2.8-.2-.6-.1-2.3-1-2.4h-.1c-.9 0-1.7 2-1.8 2.2v.1l-.1-.2-.5-1.6c-.2-.3-.4-.4-.5-.4-.7 0-1.4 2.1-2.4 3.7-.5.8-1 1-1.4 1-.5 0-.9-.4-1.1-.7.6-.5 1.5-2.4 1.5-3.8 0-.7-.2-1.2-.8-1.3h-.2c-1.2 0-1.7 2.5-1.8 3.8v.5s-.8.8-1.6.8l-.4-.1c-.8-.2-1-1.6-1-2.3v-.3l.2-.6c0-.2-.1-.5-.5-.8l-.6-.2c-.3 0-.3.3-.3.5v.1l-.2 1.3c-1.1 2.3-2.1 2.8-2.7 2.8l-.5-.1c-.3-.2-1-.7-1-2l.2-1.1c.4-1.2.9-1.6 1.4-1.6.4 0 .9.3 1.2.7l.2.1c.2 0 .4-.2.4-.5 0-.1 0-.3-.2-.4-.6-.7-1.2-1-1.8-1-1 0-1.7.9-2 1.7a4.1 4.1 0 0 0 .7 4.6c.6.6 1.2.9 1.7.9 1.1 0 2.1-1.1 3.1-2.3.8 1.4 1.7 1.9 2.5 1.9.7 0 1.4-.4 2-.6.8 1 1.6 1.3 2.2 1.3.8 0 1.4-.7 1.7-1.1.8-1.1 1.6-2.8 1.6-2.9l.1-.1.1.2.5 2.7c.1.8.3 1 .7 1 .2 0 .3-.3.3-.6v-1.3c0-.8.8-1.8.8-1.8l.1-.1.1.1c1 2.8 2.8 3.6 3.4 3.8h.2c.2 0 .3-.1.3-.3-.1-.3-.1-.4-.3-.5zm-10.8-4.7l-.3 1.2-.5.8-.1-.2.3-1.2c.1-.4.4-.8.5-.8l.1.2zm-4.7-3.3l.6.1c.3 0 .4-.1.4-.4v-.1c0-.3-.4-.6-.9-.9l-.8-.3c-.2 0-.3.1-.4.3v.2c.1.5.5.9 1.1 1.1zm-8.9-1h.3c.4 0 .5-.1.6-.4v-.1c0-.3-.4-.5-.9-.6l-.6-.1c-.2 0-.4.1-.5.3v.1c0 .4.4.7 1.1.8zm1.8 6.7c-.4 0-.7.6-1.6 1.1l-.8.3c-.5 0-.8-.4-.9-.8v-.3c0-.7.4-1.8.6-2.1l.1-.4c0-.4-.2-1-.8-1.1H83c-.6 0-.6 1.1-.7 1.9-.1.9-.7 1.7-1.1 2.3-.7.7-1.2 1-1.5 1-.6 0-.7-.9-.7-1.7v-.6a21 21 0 0 1 1.1-4l3.3-.2c.3 0 .3-.2.3-.4l-.1-.4c0-.2-.4-.3-.8-.3l-2.5.2.7-1.9v-.2c0-.3-.3-.4-.5-.6h-.1c-.2 0-.4.3-.5.6l-1.1 3.2-.4 1.3a6 6 0 0 1-2.4 2.4c-.2-.9-1-2.2-2.2-3.3l-.7-.4c-.7 0-1 1.2-1.2 1.9-.2.9-.8 3.9-1.5 3.9-1.1 0-1.2-2.2-1.2-3.5v-.3c0-1-.2-1.3-.6-1.3h-.2c-.3 0-.4.3-.4.5l.1.5c-.9 3.6-1.8 4.3-2.1 4.3h-.1c-.9-.2-.9-1.2-.9-2.5v-1.4c0-1.5-1.1-1.7-2.1-1.7H62c-.8-.5-1.4-.7-2-.7-1.1 0-1.6.7-1.6.8l.5.7c.7-.4 1.2-.5 1.6-.5 1 0 1.4 1 1.4 1.9l-.1 1c-.2.7-.9 2.2-2 2.2l-.4-.1c-1-.4-1.2-1.2-1.2-1.9 0-.6.2-1.1.3-1.4l.1-.4c0-.2-.2-.3-.4-.4l-.4-.1c-.2 0-.3.1-.3.2-1.2 3.5-2.9 3.9-3.2 3.9-.3 0-1.5-.2-1.5-2.2s1.4-2.7 1.8-2.8c.5 0 1.1.8 1.1.8l.3-.6c-.1-.3-.9-1.2-1.9-1.2h-.6a94 94 0 0 0-4.5 1.6l.3-4.8c0-2.3-.3-2.7-.5-3.2-.2-.6-.5-.9-.5-.9-.4-.3-.7-.5-1-.5-.5 0-.7.5-.9.9-1.6 3-2.1 5.2-2.4 6-.6 2-1.6 3.9-2.3 5.3-.7 1.4-.6 1.8-.7 2.3v.2c0 1.2.4 1.5.8 1.5.8-.1 1.6-4 1.6-4l4.1-1.2v.1c0 .6.1 2.7.9 4.6 0 0 .4 1 1 1.3l.2.1c.2 0 .5-.3.5-.6l-.1-.3a9.8 9.8 0 0 1-1.2-4.7l.1-.9 3.1-1v.2l-.1 1.3c0 1.2.3 2.5 1.6 3.4.4.3.8.4 1.2.4 1.3 0 2.3-1.3 2.4-1.4l.2-.1c.1 0 .2 0 .2.2.8 1.1 1.8 1.6 2.8 1.6.9 0 1.7-.4 2.3-1.3.6-.9.9-1.8.9-2.6 0-.7-.2-1.4-.4-1.8v-.1c1.1 0 1 .4 1 1.3l.1 2.2c.2 1.3 1.5 2 2.4 2l.5-.1c.4-.2 1.3-1.8 1.4-1.9l.1-.1c.6 1.3 1.4 2 2.1 2 .5 0 1-.3 1.4-1 1.2-2 .9-4.4 1.5-4.4.5 0 1.4 1.8 1.9 3l-1 .7-.2.5c0 .6.6 1.3 1.5 1.6h.3c.6 0 .7-.6.7-1.3l-.1-1.3 1.6-1.1v.5c.3 2.3 1.1 3.1 2 3.1 1.1 0 2.2-1 2.5-1.6l.1-.1.1.1c.7 1.1 1.2 1.4 1.8 1.4l.9-.2c.7-.2 1.8-1.2 1.8-1.8l-.1-.3h-.8zm-39.2-2.6l-4 1.1a33 33 0 0 1 4.1-7.9l.1-.1v2.1c.1 1.4 0 3.2-.2 4.8z"/>
  <path fill="#A49890" d="M9.7.5l-8.8 17h3.9l1.8-3.8h4.9v3.8h3.6V.5H9.7zm1.9 10.7H7.9l3.5-7.3h.2v7.3zm5.7 6.4V.5h3.5v14.2h5.3v2.9h-8.8M31.5.5l-4.7 17h3.5l1-3.8h4.9l.9 3.8h3.7L36.2.5h-4.7zm.5 10.7l1.6-7.3 1.7 7.3H32zM41.5.5h3.6v17h-3.6V.5zm5.6 17.1V.5h4.8l4.6 11.8V.5h3.3v17.1h-4.7L50.5 5.1v12.5h-3.4"/>
  <path fill="#605853" d="M65.2.6l-8.8 17h3.9l1.8-3.8H67v3.8h3.6V.6h-5.4zm1.9 10.6h-3.7l3.5-7.4h.2v7.4zm5.4 6.4V.6h8.8v2.6h-5.2v4.3h4.7v2.6h-4.7v7.5h-3.6m10.3 0V.6h8.8v2.6h-5.2v4.3H91v2.6h-4.6v7.5h-3.6m10.1 0V.6h3.6v14.1h5.3v2.9h-8.9m10.3 0V.6h9.3v2.6h-5.8v4.2h5V10h-5v5h5.9v2.6h-9.4m10.9 0V.6h3.5v14.1h5.3v2.9h-8.8m35-15.8v10.8c0 2.5-1.4 5.2-5.7 5.2-3.9 0-5.8-2-5.8-5.2V.6h3.5v11.8c0 2.1.9 2.9 2.2 2.9 1.5 0 2.3-1 2.3-2.9V.6h3.5v1.2zM129.5.2c-4.1 0-6.6 2.9-6.6 8.8s2.5 8.8 6.6 8.8 6.6-2.9 6.6-8.8-2.5-8.8-6.6-8.8zm0 15.1c-2 0-2.8-2.4-2.8-6.2 0-3.8.9-6.2 2.8-6.2 2 0 2.8 2.4 2.8 6.2 0 3.8-.8 6.2-2.8 6.2z"/>
</svg>
