<?xml version="1.0" encoding="UTF-8"?>
<svg width="126px" height="70px" viewBox="0 0 126 70" version="1.1" xmlns="http://www.w3.org/2000/svg" xmlns:xlink="http://www.w3.org/1999/xlink">
    <!-- Generator: Sketch 47.1 (45422) - http://www.bohemiancoding.com/sketch -->
    <title>atol</title>
    <desc>Created with Sketch.</desc>
    <defs>
        <linearGradient x1="50%" y1="0%" x2="50%" y2="93.4964586%" id="linearGradient-1">
            <stop stop-color="#123274" offset="0%"></stop>
            <stop stop-color="#0093D3" offset="100%"></stop>
        </linearGradient>
    </defs>
    <g id="Symbols" stroke="none" stroke-width="1" fill="none" fill-rule="evenodd">
        <g id="atol">
            <g id="Group">
                <rect id="Rectangle-2" fill="#FFFFFF" x="0" y="0" width="126" height="70"></rect>
                <path d="M76.1038316,40.6957249 C69.8381158,40.6957249 64.7397018,35.5951673 64.7397018,29.3288104 C64.7397018,23.0637546 69.8381158,17.96171 76.1038316,17.96171 C82.3747544,17.96171 87.4761439,23.0637546 87.4761439,29.3288104 C87.4761439,35.5951673 82.3747544,40.6957249 76.1038316,40.6957249 Z M28.3945333,30.1040892 C28.1680281,31.1579926 26.3219544,31.0630112 24.2123684,31.0592937 C22.105014,31.0630112 20.0313193,31.1594796 19.8003509,30.1040892 C19.5082,28.7315985 20.8564456,25.5421933 22.1671263,23.9804833 C22.8592877,23.154461 23.4982632,22.7377323 24.0998596,22.7377323 C24.7042456,22.7377323 25.338386,23.154461 26.0279439,23.9804833 C27.3393684,25.5421933 28.6883579,28.7315985 28.3945333,30.1040892 Z M115.751923,37.3561338 C115.076684,36.6657993 106.235912,36.6581784 103.844589,36.6581784 C103.844589,36.6581784 104.136182,23.9230483 102.617779,18.4524164 C102.17667,16.8635688 101.613568,15.969145 99.8954386,15.969145 C98.5090702,15.969145 97.5874281,17.0039033 96.9914105,19.1540892 C96.2652175,21.7687732 95.6652947,24.8881041 95.2351579,27.6886617 C94.3999895,17.8708178 86.1405439,10.1349442 76.1038316,10.1349442 C69.0944421,10.1349442 62.9520211,13.91171 59.6011193,19.5356877 C59.3108281,18.786803 59.0164456,18.027881 58.8855263,17.6914498 C58.8440561,17.5856877 58.8096526,17.5349442 58.6978877,17.5048327 C56.2316211,16.8312268 51.9040316,16.0046468 46.3353123,16.0046468 C39.5414561,16.0046468 34.6264035,17.0518587 32.3888737,17.7842007 C32.2912421,17.8167286 32.2466105,17.8589219 32.2153684,17.9358736 C32.000207,18.4639405 31.1866105,20.5563197 31.0642456,20.8280669 C29.3068772,18.2908922 26.9860351,16.0284387 24.1309158,16.0284387 C20.7930316,16.0284387 17.2563509,19.9509294 15.5711368,23.2518587 C12.1610982,29.9299257 9.83151579,38.7888476 10.052814,41.1228625 C10.2000982,42.6780669 11.1306667,43.0460967 12.1867614,43.0460967 C14.1070351,43.0460967 15.3340316,41.7511152 19.3094035,35.9334572 C19.3094035,35.9334572 21.2209368,35.6775093 23.9256105,35.6775093 C26.6308421,35.6775093 28.8908737,35.9334572 28.8908737,35.9334572 C32.9071579,41.7894052 34.1229965,43.0819703 36.0391789,43.0819703 C36.8890386,43.0819703 38.1156632,42.7379182 38.1474632,41.1228625 C38.1928386,38.7888476 36.2749825,29.9299257 32.5800456,23.2877323 C32.3390351,22.8535316 32.0805439,22.4085502 31.8055018,21.9630112 C32.7180316,22.1100372 41.216814,23.4301115 41.216814,23.4301115 C41.7116667,30.7791822 42.987014,38.0377323 43.8145579,40.6163569 C44.3255895,42.2109665 44.8985474,43.0667286 46.3353123,43.0667286 C47.7718912,43.0667286 48.3446632,42.2109665 48.8555088,40.6163569 C49.8805474,37.4143123 50.8825263,30.45 51.4554842,23.430855 C51.4554842,23.430855 55.5340667,22.7697026 58.2292561,22.3306691 C57.376793,24.5001859 56.9079754,26.8607807 56.9079754,29.3288104 C56.9079754,39.9100372 65.5187088,48.5202602 76.1038316,48.5202602 C84.7733298,48.5202602 92.1163404,42.7488848 94.4948316,34.85 C94.540207,41.8087361 97.4760351,43.0438662 103.589818,43.0438662 C106.913382,43.0438662 112.058288,42.3171004 113.117358,41.8776952 C114.085491,41.4743494 115.426112,39.51171 115.773309,38.0799257 C115.84193,37.7936803 115.867965,37.4743494 115.751923,37.3561338 L115.751923,37.3561338 Z" id="Fill-1" fill="url(#linearGradient-1)"></path>
                <polyline id="Fill-3" fill="#000000" points="10 53.8914498 11.1243439 53.8914498 12.9527509 56.7312268 14.7811579 53.8914498 15.9055018 53.8914498 15.9055018 59.8972119 14.8497789 59.8972119 14.8497789 55.5903346 12.9527509 58.4213755 12.9183474 58.4213755 11.038614 55.6074349 11.038614 59.8972119 10 59.8972119 10 53.8914498"></polyline>
                <path d="M26.0160421,56.9115242 L26.0160421,56.8942379 C26.0160421,55.7275093 25.1663684,54.7579926 23.9732175,54.7579926 C22.7800667,54.7579926 21.9475018,55.710223 21.9475018,56.8773234 L21.9475018,56.8942379 C21.9475018,58.0611524 22.7971754,59.0306691 23.9903263,59.0306691 C25.1834772,59.0306691 26.0160421,58.0784387 26.0160421,56.9115242 Z M20.8400807,56.9115242 L20.8400807,56.8942379 C20.8400807,55.2042751 22.1448105,53.7884758 23.9903263,53.7884758 C25.8358421,53.7884758 27.1234632,55.1869888 27.1234632,56.8773234 L27.1234632,56.8942379 C27.1234632,58.5843866 25.8185474,60 23.9732175,60 C22.1277018,60 20.8400807,58.6016729 20.8400807,56.9115242 L20.8400807,56.9115242 Z" id="Fill-4" fill="#000000"></path>
                <polyline id="Fill-5" fill="#000000" points="32.0580421 53.8914498 33.0364035 53.8914498 36.2554561 58.044052 36.2554561 53.8914498 37.2940702 53.8914498 37.2940702 59.8972119 36.409993 59.8972119 33.0966561 55.6245353 33.0966561 59.8972119 32.0580421 59.8972119 32.0580421 53.8914498"></polyline>
                <path d="M53.6357368,56.9115242 L53.6357368,56.8942379 C53.6357368,55.7275093 52.7858772,54.7579926 51.5927263,54.7579926 C50.3995754,54.7579926 49.5670105,55.710223 49.5670105,56.8773234 L49.5670105,56.8942379 C49.5670105,58.0611524 50.4166842,59.0306691 51.6098351,59.0306691 C52.802986,59.0306691 53.6357368,58.0784387 53.6357368,56.9115242 Z M48.4595895,56.9115242 L48.4595895,56.8942379 C48.4595895,55.2042751 49.7643193,53.7884758 51.6098351,53.7884758 C53.4553509,53.7884758 54.7429719,55.1869888 54.7429719,56.8773234 L54.7429719,56.8942379 C54.7429719,58.5843866 53.4382421,60 51.5927263,60 C49.7472105,60 48.4595895,58.6016729 48.4595895,56.9115242 L48.4595895,56.9115242 Z" id="Fill-6" fill="#000000"></path>
                <path d="M61.9608281,57.0144981 C62.7591754,57.0144981 63.2568175,56.5684015 63.2568175,55.9420074 L63.2568175,55.9249071 C63.2568175,55.2211896 62.7506211,54.8524164 61.9608281,54.8524164 L60.7332737,54.8524164 L60.7332737,57.0144981 L61.9608281,57.0144981 Z M59.6775509,53.8914498 L62.0467439,53.8914498 C63.4457579,53.8914498 64.3298351,54.6894052 64.3298351,55.8990706 L64.3298351,55.9163569 C64.3298351,57.263197 63.2482632,57.9667286 61.9264246,57.9667286 L60.7332737,57.9667286 L60.7332737,59.8972119 L59.6775509,59.8972119 L59.6775509,53.8914498 L59.6775509,53.8914498 Z" id="Fill-8" fill="#000000"></path>
                <polyline id="Fill-9" fill="#000000" points="70.5436667 54.8695167 68.6380842 54.8695167 68.6380842 53.8914498 73.5137123 53.8914498 73.5137123 54.8695167 71.6081298 54.8695167 71.6081298 59.8972119 70.5436667 59.8972119 70.5436667 54.8695167"></polyline>
                <polygon id="Fill-10" fill="#000000" points="78.3452667 59.8972119 79.4009895 59.8972119 79.4009895 53.8914498 78.3452667 53.8914498"></polygon>
                <path d="M84.396007,56.9115242 L84.396007,56.8942379 C84.396007,55.1869888 85.6748877,53.7884758 87.4947404,53.7884758 C88.6019754,53.7884758 89.2716351,54.1747212 89.8466386,54.7237918 L89.1684246,55.504461 C88.6877053,55.0583643 88.1729544,54.7579926 87.486,54.7579926 C86.335993,54.7579926 85.5032421,55.7016729 85.5032421,56.8773234 L85.5032421,56.8942379 C85.5032421,58.0697026 86.335993,59.0306691 87.486,59.0306691 C88.2242807,59.0306691 88.6964456,58.7302974 89.2115684,58.2498141 L89.8895965,58.9362454 C89.2628947,59.58829 88.5763123,60 87.4517825,60 C85.7007368,60 84.396007,58.6360595 84.396007,56.9115242" id="Fill-12" fill="#000000"></path>
                <polygon id="Fill-14" fill="#000000" points="94.7127825 59.8972119 95.7685053 59.8972119 95.7685053 53.8914498 94.7127825 53.8914498"></polygon>
                <polyline id="Fill-15" fill="#000000" points="101.029639 53.8914498 105.484614 53.8914498 105.484614 54.8351301 102.085361 54.8351301 102.085361 56.3968401 105.098179 56.3968401 105.098179 57.3405204 102.085361 57.3405204 102.085361 58.9535316 105.527386 58.9535316 105.527386 59.8972119 101.029639 59.8972119 101.029639 53.8914498"></polyline>
                <polyline id="Fill-16" fill="#000000" points="110.436488 53.8914498 111.414849 53.8914498 114.633902 58.044052 114.633902 53.8914498 115.672516 53.8914498 115.672516 59.8972119 114.788439 59.8972119 111.474916 55.6245353 111.474916 59.8972119 110.436488 59.8972119 110.436488 53.8914498"></polyline>
            </g>
        </g>
    </g>
</svg>