<svg id="Calque_1" xmlns="http://www.w3.org/2000/svg" xmlns:xlink="http://www.w3.org/1999/xlink" width="192" height="51" viewBox="0 0 192 51"><style>.st0{fill:#1d1d1b}.st1{clip-path:url(#SVGID_2_)}.st2{fill:#e30613}</style><title>logo-conforama-2016</title><path class="st0" d="M93.3 43.5h-3.5v-7.7H91v6.7h2.3v1zM98.9 42.2c-.2.3-.4.6-.6.8-.4.4-1.1.6-1.7.6-1.3 0-2.4-1-2.4-2.3V41c-.1-1.3.8-2.4 2.1-2.5h.3c1.3 0 2.3 1 2.3 2.2v.7h-3.5c0 .7.5 1.3 1.3 1.3.6 0 1-.4 1.3-1l.9.5zm-1.2-1.8c-.1-.5-.6-1-1.2-1s-1.1.4-1.2 1h2.4zM107.3 43.3c-.4.2-1 .3-1.4.3-1.4 0-2.6-1.1-2.6-2.4V41c0-1.5 1.2-2.6 2.6-2.6h.1c.5 0 1 .1 1.4.3v1.6c-.3-.5-.8-.8-1.4-.8-.8 0-1.5.6-1.5 1.5-.1.8.5 1.5 1.4 1.6h.1c.6 0 1.2-.3 1.4-.8l-.1 1.5zM111 43.7c-1.4 0-2.5-1.2-2.5-2.6 0-1.5 1.2-2.5 2.6-2.5 1.4 0 2.5 1.2 2.5 2.5s-1.2 2.5-2.6 2.6zm0-4.2c-.7 0-1.5.6-1.5 1.4v.2c-.1.8.5 1.5 1.4 1.6.8.1 1.5-.5 1.6-1.4v-.2c.1-.7-.5-1.5-1.3-1.6h-.2zM119.3 43.5h-1.2v-2.8c0-.7-.1-1.3-1-1.3s-1.1.8-1.1 1.7v2.3h-1.2v-4.9h1.2v.5c.3-.4.8-.6 1.4-.5.5 0 1.1.2 1.4.6.2.4.3.8.3 1.4l.2 3zM123.3 39.7H122v3.8h-1.2v-3.8h-.4v-1.1h.4v-1.9c0-.3 0-.6.1-1 .3-.5.8-.8 1.5-.8.2 0 .5.1.7.2v1.2c-.2-.1-.4-.2-.7-.2-.4 0-.5.4-.5.8v1.8h1.3l.1 1zM126.6 43.7c-1.4 0-2.5-1.2-2.5-2.6 0-1.5 1.2-2.5 2.6-2.5 1.4 0 2.5 1.2 2.5 2.5-.1 1.3-1.3 2.5-2.6 2.6zm0-4.2c-.7 0-1.5.6-1.5 1.4v.2c-.1.8.5 1.5 1.4 1.6.8.1 1.5-.5 1.6-1.4v-.2c.1-.7-.5-1.5-1.3-1.6h-.2zM133.2 39.8c-.2-.1-.4-.2-.6-.2-.8 0-1 .7-1 1.4v2.5h-1.2v-4.9h1.2v.4c.2-.3.6-.5 1.2-.5.3 0 .6.1 1 .3l-.6 1zM136.9 39.7h-.8v3.8h-1.2v-3.8h-.4v-1.1h.4v-1.8h1.2v1.8h.8v1.1zM143.7 43.7c-.6 0-1.2-.2-1.5-.7v3.2H141v-7.5h1.2v.5c.4-.4 1-.6 1.5-.6 1.5.1 2.4 1.5 2.3 2.9-.2 1-1.1 2-2.3 2.2zm-.2-4.2c-.8 0-1.6.7-1.6 1.6 0 .8.7 1.6 1.6 1.6.8 0 1.6-.7 1.6-1.6 0-.9-.8-1.6-1.6-1.6zM149.8 43.7c-1.4 0-2.5-1.2-2.5-2.6 0-1.5 1.2-2.5 2.6-2.5 1.4 0 2.5 1.2 2.5 2.5s-1.1 2.5-2.6 2.6zm0-4.2c-.7 0-1.5.6-1.5 1.4v.2c-.1.8.5 1.5 1.4 1.6s1.5-.5 1.6-1.4v-.2c.1-.7-.5-1.5-1.3-1.6h-.2zM158.1 41.5c.1.5-.1 1.2-.5 1.6s-1 .6-1.6.6c-.6 0-1.2-.2-1.6-.6-.4-.4-.6-1-.5-1.6v-2.9h1.2v2.8c0 .6.2 1.2 1 1.2.7 0 1-.5 1-1.2v-2.8h1.2v2.9zM162.4 39.8c-.2-.1-.4-.2-.6-.2-.8 0-1 .7-1 1.4v2.5h-1.2v-4.9h1.2v.4c.2-.3.6-.5 1.2-.5.3 0 .6.1 1 .3l-.6 1zM169 39.7h-1v3.8h-1v-3.8h-.4v-1.1h.4v-1.8h1.1v1.8h.8l.1 1.1zM172.4 43.7c-1.4 0-2.5-1.2-2.5-2.6 0-1.5 1.2-2.5 2.6-2.5 1.4 0 2.5 1.2 2.5 2.5-.1 1.3-1.2 2.5-2.6 2.6zm0-4.2c-.7 0-1.5.6-1.5 1.4v.2c-.1.8.5 1.5 1.4 1.6s1.5-.5 1.6-1.4v-.2c.1-.7-.5-1.5-1.3-1.6h-.2zM180.5 41.5c.1.5-.1 1.2-.5 1.6s-1 .6-1.6.6c-.6 0-1.2-.2-1.6-.6-.4-.4-.6-1-.5-1.6v-2.9h1.2v2.8c0 .6.2 1.2 1 1.2.7 0 1-.5 1-1.2v-2.8h1.2v2.9zM183.6 43.7c-.4 0-.8-.1-1.3-.4-.2-.2-.4-.4-.5-.7l1-.4c.2.3.4.6.8.6.3 0 .5-.2.5-.4v-.1c0-.1 0-.2-.1-.2-.3-.3-.6-.5-1.1-.6-.6-.3-1-.5-1-1.3s.6-1.5 1.5-1.5h.1c.6 0 1.2.4 1.4 1l-1 .5c-.1-.2-.3-.4-.5-.4s-.3.1-.3.3c0 .6 2.2.6 2.2 2.1.1.6-.6 1.4-1.7 1.5.1 0 0 0 0 0z"/><defs><path id="SVGID_1_" d="M-24 1.5h238.5v56.3H-24z"/></defs><clipPath id="SVGID_2_"><use xlink:href="#SVGID_1_" overflow="visible"/></clipPath><g class="st1"><path class="st2" d="M36.2 29.7c-2.8 0-4.6-2.2-4.6-5.6 0-3.6 1.8-5.8 4.6-5.8s4.4 2.2 4.4 5.6-1.7 5.8-4.4 5.8m0-14.6c-5.6 0-9.4 3.5-9.4 8.8 0 5.4 3.5 8.8 9.2 8.8s9.5-3.5 9.5-8.9-3.6-8.7-9.3-8.7M111.3 15.3c-5.1 0-7.1 2.1-7.1 7.2v.4c0 3.1-.1 6.5-.2 8.3l-.1 1.1h5.1l-.1-1c-.1-1.6-.1-3.1-.1-4.5v-4.3c.1-1.8.7-3.9 3.2-3.9.8 0 1.6.1 2.4.4l.3.1.5-3.3h-.2c-1.3-.3-2.5-.4-3.7-.5M79.8 18.6l.5-3.3H75v-1.1c.1-2.4 1.1-3.7 3-3.7 1.1 0 2.2.1 3.3.4l.2.1.5-3.3-.2-.1c-1.5-.4-3-.6-4.5-.6-4.3 0-6.8 2.5-7 7.1v9.1l-.1 7.4V36h4.9v-1l-.1-4.4v-12h4.8zM90.9 29.7c-2.8 0-4.6-2.2-4.6-5.6 0-3.6 1.8-5.8 4.6-5.8s4.4 2.2 4.4 5.6-1.8 5.8-4.4 5.8m0-14.6c-5.6 0-9.4 3.5-9.4 8.8 0 5.4 3.5 8.8 9.2 8.8s9.5-3.5 9.5-8.9-3.6-8.7-9.3-8.7M65.3 28.1v-5.6c0-4.5-2.5-7.2-6.8-7.2h-2.8c-4.3 0-6.8 2.7-6.8 7.2v1c0 4.4 0 5.4-.2 8.6v.2h5.1V31l-.1-3.6-.1-3.5v-.4c-.1-1.1.1-2.3.5-3.3 1.1-1.7 3.4-2.2 5.1-1 .4.3.7.6 1 1 .5 1 .6 2.2.5 3.3v.4l-.1 3.5-.1 3.6v1.3h5l-.1-1.2-.1-3M165.8 28.1V26l.1-3.5c0-3-.7-4.8-2.5-6-1.4-.9-3-1.3-4.6-1.2-2.2-.1-4.4.7-6.1 2.2-1.3-1.5-3.2-2.3-5.2-2.2h-2.8c-4.3 0-6.8 2.7-6.8 7.2v1c0 4.4 0 5.4-.2 8.6v.2h5.1V31l-.1-3.6-.1-3.5v-.4c-.1-1.1.1-2.3.5-3.3 1.1-1.7 3.4-2.2 5.1-1 .4.3.8.6 1 1 .5 1 .6 2.2.5 3.3v.4l-.1 3.5-.2 3.6v1.3h5l-.1-1.2v-8.9c0-.6.2-1.2.4-1.7s.5-.9.9-1.2c.6-.5 1.4-.8 2.2-.8 1.4-.1 2.6.8 3.1 2.1.2 1.2.3 2.4.2 3.6 0 2.7 0 4.5-.2 7l-.1.9v.2h5.1l-.1-1V28M181.2 25v.4c.1.9 0 1.9-.4 2.8-.2.4-.6.7-1 .9-.8.4-1.6.6-2.5.5-.9 0-1.7-.3-2.4-.9-.6-.7-.7-1.6-.1-2.4.6-1 2.2-1.4 5.3-1.4l1.1.1m4.5-3.5v-.4c0-2.7-.9-4.2-3-5.1-1.4-.6-3-.9-4.5-.8-2.2 0-4.4.3-6.5.9h-.2l.5 3.3.2-.1c1.6-.7 3.4-1.1 5.2-1.1 2.7 0 3.8 1 3.8 3.4v.4c-3.8-.2-6.6 0-8.2.7-2.2 1-3.3 2.5-3.3 4.5.1 2.2 1.4 4.1 3.4 4.9 2.3 1 5.6.7 6.9.6 1.1-.1 4.6-.8 5.4-3.5.4-1.2.3-6.1.3-7.7M128.7 25v.4c.1.9 0 1.9-.4 2.8-.2.4-.6.7-1 .9-.8.4-1.6.6-2.5.5-.9 0-1.8-.3-2.4-.9-.6-.7-.6-1.6-.2-2.4.6-1 2.2-1.4 5.3-1.4l1.2.1m4.5-3.8c0-2.7-.9-4.2-3-5.1-1.4-.6-3-.9-4.5-.8-2.2 0-4.4.3-6.5.9h-.2l.5 3.3.2-.1c1.7-.7 3.5-1.1 5.3-1.1 2.7 0 3.8 1 3.8 3.4v.4c-3.8-.2-6.6 0-8.2.7-2.2 1-3.3 2.5-3.3 4.5.1 2.2 1.4 4.1 3.4 4.9 2.3 1 5.6.7 6.9.6 1.1-.1 4.6-.7 5.4-3.5.4-1.2.3-6.1.3-7.7l-.1-.4zM20.3 10.7c2.3 0 4.6.5 6.7 1.5l.2.1V8.2h-.1c-2.5-.8-5.1-1.1-7.7-1-4.4.1-8 1.6-10.4 4.1-2.3 2.6-3.4 5.9-3.2 9.4 0 3.3 1.2 6.4 3.5 8.7 2.5 2.3 6.2 3.5 10.7 3.3 1.6 0 3.1-.2 4.7-.5h.2l-1.3-3.3h-.2c-.9.2-1.7.3-2.6.4-5.6.2-8.8-2.9-9-8.7s3.1-9.8 8.5-9.9"/></g></svg>