<svg width="207" height="35" viewBox="0 0 207 35" xmlns="http://www.w3.org/2000/svg" xmlns:xlink="http://www.w3.org/1999/xlink"><title>logo-sensee</title><defs><path id="a" d="M0 .794h21.973v22.29H0z"/><path id="c" d="M.525.708h143.282v33.459H.525z"/></defs><g fill="none" fill-rule="evenodd"><path d="M14.723 17.91c-1.008-.895-2.215-1.352-3.53-1.352-2.125 0-3.746 1.499-3.746 3.49 0 1.681.757 2.54 2.954 3.344.918.33 1.387.547 1.62.694.469.31.703.75.703 1.26 0 .988-.774 1.718-1.819 1.718-1.117 0-2.017-.566-2.558-1.626l-1.512 1.48c1.08 1.607 2.377 2.32 4.16 2.32 2.431 0 4.142-1.644 4.142-4.001 0-1.096-.36-1.973-1.063-2.576-.54-.475-1.062-.73-2.395-1.225-1.404-.53-1.818-.877-1.818-1.534 0-.768.738-1.352 1.747-1.352.702 0 1.279.293 1.89.987l1.225-1.627z" fill="#020203"/><g transform="translate(0 10.96)"><mask id="b" fill="#fff"><use xlink:href="#a"/></mask><path d="M10.986 2.492c-5.135 0-9.312 4.238-9.312 9.447 0 5.21 4.177 9.447 9.312 9.447s9.313-4.238 9.313-9.447c0-5.21-4.178-9.447-9.313-9.447m0 20.593c-6.058 0-10.987-5-10.987-11.146C0 5.794 4.928.794 10.986.794s10.987 5 10.987 11.145c0 6.146-4.929 11.146-10.987 11.146" fill="#1D1D1B" mask="url(#b)"/></g><path d="M37.495 13.45c-5.135 0-9.312 4.238-9.312 9.447 0 5.209 4.177 9.447 9.312 9.447s9.311-4.238 9.311-9.447c0-5.209-4.176-9.447-9.311-9.447m0 20.592c-6.058 0-10.987-5-10.987-11.145 0-6.146 4.929-11.146 10.987-11.146s10.986 5 10.986 11.146c0 6.145-4.928 11.145-10.986 11.145" fill="#1D1D1B"/><path d="M37.51 20.221a2.424 2.424 0 0 0-2.427 2.432c0 1.37 1.075 2.463 2.427 2.463 1.321 0 2.396-1.092 2.396-2.463 0-1.34-1.075-2.432-2.396-2.432" fill="#1D1D1B"/><g transform="translate(62.429 .126)"><mask id="d" fill="#fff"><use xlink:href="#c"/></mask><path d="M21.34 4.275C18.68 1.913 15.496.708 12.027.708 6.418.708 2.14 4.66 2.14 9.917c0 4.434 1.997 6.7 7.794 8.822 2.424.868 3.66 1.446 4.277 1.832 1.236.82 1.854 1.977 1.854 3.327 0 2.603-2.043 4.531-4.8 4.531-2.947 0-5.322-1.494-6.748-4.29L.525 28.044c2.85 4.243 6.272 6.123 10.977 6.123 6.417 0 10.931-4.34 10.931-10.558 0-2.893-.95-5.207-2.803-6.799-1.426-1.253-2.805-1.927-6.321-3.23-3.707-1.398-4.8-2.314-4.8-4.049 0-2.026 1.948-3.57 4.609-3.57 1.854 0 3.375.773 4.99 2.604l3.233-4.29zm24.475 19.623v-.869c0-6.894-4.04-11.185-10.55-11.185-6.559 0-10.788 4.388-10.788 11.138s4.371 11.088 11.12 11.088c4.8 0 8.316-2.266 10.027-6.508l-5.322-.868c-1.283 1.976-2.709 2.796-4.847 2.796-3.185 0-4.943-1.976-5.085-5.592h15.445zm-15.209-3.713c.524-2.651 2.235-4.146 4.85-4.146 2.518 0 4.228 1.446 4.846 4.146h-9.696zm18.155-7.666v20.876h5.75V22.596c0-3.953 1.426-5.786 4.372-5.786 1.52 0 2.804.627 3.375 1.64.428.723.57 1.639.57 3.375v11.57h5.75V20.137c0-2.844-.428-4.388-1.615-5.786-1.38-1.59-3.565-2.507-5.94-2.507-2.852 0-4.706.916-6.512 3.279v-2.604h-5.75zm38.018 1.446c-2.044-1.542-4.134-2.217-6.843-2.217-4.135 0-7.224 2.796-7.224 6.508 0 2.074.618 3.472 2.043 4.484.904.675 1.378.869 3.945 1.833 2.614.964 3.184 1.398 3.184 2.603 0 1.35-1.14 2.314-2.66 2.314-1.665 0-3.185-.77-4.85-2.459L71.382 30.6a10.43 10.43 0 0 0 7.794 3.471c5.085 0 8.65-3.086 8.65-7.473 0-1.977-.762-3.568-2.283-4.628-.95-.724-1.568-1.012-3.99-1.88-2.71-.965-3.28-1.35-3.28-2.363 0-.964.95-1.735 2.233-1.735 1.14 0 2.186.434 3.42 1.398l2.853-3.424zm23.952 9.933v-.869c0-6.894-4.04-11.185-10.55-11.185-6.559 0-10.788 4.388-10.788 11.138s4.372 11.088 11.12 11.088c4.8 0 8.317-2.266 10.028-6.508l-5.324-.868c-1.282 1.976-2.709 2.796-4.847 2.796-3.183 0-4.942-1.976-5.084-5.592h15.445zm-15.207-3.713c.521-2.651 2.233-4.146 4.846-4.146 2.519 0 4.23 1.446 4.847 4.146h-9.693zm38.398 3.713v-.869c0-6.894-4.039-11.185-10.55-11.185-6.558 0-10.789 4.388-10.789 11.138s4.373 11.088 11.12 11.088c4.801 0 8.318-2.266 10.029-6.508l-5.322-.868c-1.284 1.976-2.71 2.796-4.848 2.796-3.185 0-4.943-1.976-5.085-5.592h15.445zm-15.208-3.713c.524-2.651 2.234-4.146 4.848-4.146 2.519 0 4.23 1.446 4.848 4.146h-9.696zm21.385 6.268a3.749 3.749 0 0 0-3.754 3.76c0 2.122 1.664 3.809 3.754 3.809 2.043 0 3.708-1.687 3.708-3.81 0-2.072-1.665-3.76-3.708-3.76z" fill="#1D1D1B" mask="url(#d)"/></g></g></svg>