<?xml version="1.0" encoding="UTF-8"?>
<svg width="266px" height="65px" viewBox="0 0 266 65" version="1.1" xmlns="http://www.w3.org/2000/svg" xmlns:xlink="http://www.w3.org/1999/xlink">
    <!-- Generator: Sketch 46.2 (44496) - http://www.bohemiancoding.com/sketch -->
    <title>comet-logo-white</title>
    <desc>Created with Sketch.</desc>
    <defs>
        <polygon id="path-1" points="20.4605428 0.6545 0.282336044 0.6545 0.282336044 20.8318833 20.4605428 20.8318833 20.4605428 0.6545"></polygon>
    </defs>
    <g id="PAGES" stroke="none" stroke-width="1" fill="none" fill-rule="evenodd">
        <g id="Matching-Technology" transform="translate(-587.000000, -37.000000)">
            <g id="comet-logo-white" transform="translate(587.000000, 37.000000)">
                <path d="M240,55 C237.238788,55 235,57.2387884 235,60 C235,62.7612116 237.238788,65 240,65 C242.761212,65 245,62.7612116 245,60 C245,57.2387884 242.761212,55 240,55" id="Fill-11" fill="#FFFFFF"></path>
                <g id="LOGO">
                    <path d="M172.051216,43.148994 C172.051216,36.541608 177.44944,31.1661469 184.084806,31.1661469 C185.499015,31.1661469 186.879441,31.4097478 188.177159,31.8760697 L173.181185,48.215894 C172.456607,46.6765679 172.051216,44.9586011 172.051216,43.148994 L172.051216,43.148994 Z M67.8587311,55.1330012 C61.2233652,55.1330012 55.8251409,49.75638 55.8251409,43.148994 C55.8251409,36.541608 61.2233652,31.1661469 67.8587311,31.1661469 C74.4940969,31.1661469 79.8923212,36.541608 79.8923212,43.148994 C79.8923212,49.75638 74.4940969,55.1330012 67.8587311,55.1330012 L67.8587311,55.1330012 Z M217.967575,4 L208.057628,4 L208.057628,34.3410794 L192.643449,51.5729472 C190.364872,53.8697562 187.334924,55.1330012 184.084806,55.1330012 C182.91057,55.1330012 181.774776,54.9636405 180.700723,54.6504393 L202.726969,30.6511049 L199.207755,27.3172517 C195.111908,23.4358765 189.741642,21.2991481 184.084806,21.2991481 C177.461089,21.2991481 171.527003,24.2490397 167.501051,28.8832579 L167.434651,28.8240977 L163.857191,32.7356331 C161.257097,26.0563268 154.751037,21.2991481 147.135976,21.2991481 C142.254975,21.2991481 137.521918,23.315236 134.152979,26.8323698 L134.987059,27.6849732 L134.107547,26.8880501 L128.754755,32.7402731 C126.155825,26.0574868 119.6486,21.2991481 112.03121,21.2991481 C107.080313,21.2991481 102.469573,23.2641958 99.0482124,26.8323698 L99.8892823,27.6919332 L99.0016157,26.8880501 L89.0905039,37.7259727 C86.6581577,28.2974556 78.0762159,21.2991481 67.8587311,21.2991481 C61.1616246,21.2991481 55.1646331,24.3093599 51.136351,29.0352185 L51.1235369,29.0236185 L48.2298837,32.1869509 L48.2380381,32.1950709 L32.7760979,49.1021375 L32.7679435,49.0940174 L30.5289735,51.541627 L30.5313033,51.5427871 C28.2492314,53.8593162 25.2064688,55.1330012 21.943537,55.1330012 C15.3081711,55.1330012 9.90994687,49.75638 9.90994687,43.148994 C9.90994687,36.541608 15.3081711,31.1661469 21.943537,31.1661469 C26.5822355,31.1661469 30.85748,33.8689575 32.8366736,38.049614 C32.8786106,38.1377743 32.9356915,38.2653748 32.9927725,38.3952953 L39.9915923,30.7439052 C35.9353522,24.9183623 29.1858245,21.2991481 21.943537,21.2991481 C9.84354661,21.2991481 0,31.1000266 0,43.148994 C0,55.1979614 9.84354661,65 21.943537,65 C27.9987743,65 33.6381363,62.5964705 37.8201875,58.2313734 L37.1317217,57.5284106 L37.8562999,58.1849732 L46.6316179,48.5905754 C49.0697886,58.0098125 57.6482357,65 67.8587311,65 C74.2914014,65 80.0693885,62.212509 84.0860215,57.8056517 L84.1093198,57.8276918 L106.330107,33.5313962 L106.328942,33.5302362 C107.849158,32.0048302 109.867959,31.1661469 112.03121,31.1661469 C116.461388,31.1661469 120.065641,34.755201 120.065641,39.1666984 L120.065641,42.2418705 L99.8158925,64.3840376 L113.219425,64.3840376 L141.433709,33.5313962 L141.433709,33.5302362 C142.95276,32.0048302 144.971561,31.1661469 147.135976,31.1661469 C151.566155,31.1661469 155.169242,34.755201 155.169242,39.1666984 L155.169242,42.2360704 L134.914834,64.3840376 L148.323026,64.3840376 L154.210516,57.9494923 L154.205856,57.9460122 L162.836724,48.5082151 C165.245772,57.9692123 173.845188,65 184.084806,65 C190.140043,65 195.779405,62.5964705 199.961456,58.2313734 L198.769747,57.0238086 L200.034846,58.145533 L208.73095,48.4246948 C211.110875,57.9286122 219.730094,65 230,65 L230,55.1330012 C223.364634,55.1330012 217.967575,49.75638 217.967575,43.148994 L217.967575,30.7671053 L230,30.7671053 L230,20.8989465 L217.967575,20.8989465 L217.967575,4 Z" id="Fill-9" fill="#FFFFFF"></path>
                    <g id="Group-15" transform="translate(245.000000, 0.000000)">
                        <mask id="mask-2" fill="white">
                            <use xlink:href="#path-1"></use>
                        </mask>
                        <g id="Clip-14"></g>
                        <path d="M13.6571167,14.01505 C12.5907833,13.7677167 11.4917833,13.64055 10.3717833,13.64055 C9.25178333,13.64055 8.15161667,13.7677167 7.08645,14.01505 C7.58111667,11.8648833 7.58111667,9.62138333 7.08645,7.47238333 C8.15278333,7.71971667 9.25178333,7.84571667 10.3717833,7.84571667 C11.4917833,7.84571667 12.5907833,7.71971667 13.6571167,7.47238333 C13.16245,9.62138333 13.16245,11.8648833 13.6571167,14.01505 L13.6571167,14.01505 Z M19.3562833,17.02155 C16.5586167,13.3033833 16.5586167,8.18288333 19.3562833,4.46588333 L20.08895,3.49171667 C21.05495,2.20721667 19.9781167,0.654383333 18.68195,0.654383333 C18.3331167,0.654383333 17.96795,0.766383333 17.6226167,1.02655 L16.6496167,1.75921667 C14.7911167,3.15805 12.58145,3.85688333 10.3717833,3.85688333 C8.16211667,3.85688333 5.95245,3.15805 4.09395,1.75921667 L3.11978333,1.02655 C2.77445,0.766383333 2.41045,0.654383333 2.06161667,0.654383333 C0.764283333,0.654383333 -0.311383333,2.20721667 0.654616667,3.49171667 L1.38728333,4.46588333 C4.18495,8.18288333 4.18495,13.3033833 1.38728333,17.02155 L0.654616667,17.9957167 C-0.31255,19.27905 0.764283333,20.8318833 2.06161667,20.8318833 C2.41045,20.8318833 2.77445,20.7198833 3.11978333,20.4597167 L4.09395,19.72705 C5.95245,18.3293833 8.16211667,17.6293833 10.3717833,17.6293833 C12.58145,17.6293833 14.7911167,18.3293833 16.6496167,19.72705 L17.6226167,20.4597167 C17.96795,20.7198833 18.3331167,20.8318833 18.68195,20.8318833 C19.9781167,20.8318833 21.05495,19.27905 20.08895,17.9957167 L19.3562833,17.02155 Z" id="Fill-13" fill="#FFFFFF" mask="url(#mask-2)"></path>
                    </g>
                </g>
            </g>
        </g>
    </g>
</svg>