<svg id="Layer_1" data-name="Layer 1" xmlns="http://www.w3.org/2000/svg" viewBox="0 0 65 65"><defs><style>.cls-1{fill:#db001b;}.cls-2{fill:#fff;}</style></defs><title>Aerovista-Logo-Icon-SVG</title><rect class="cls-1" width="65" height="65"/><path class="cls-2" d="M17,39l-.58,3.39c6-1.15,13.63-3.73,23.16-8.92a73.81,73.81,0,0,1,7.73-3.66l1.18-6.89A63.12,63.12,0,0,0,28.28,33,43.92,43.92,0,0,1,17,39Z"/><path class="cls-2" d="M49,19.78,49.7,16H30a11.09,11.09,0,0,0-10.56,8.9L17.75,34.7a76.28,76.28,0,0,0,8.68-5.93C34.69,22.33,42.66,20.17,49,19.78Z"/><path class="cls-2" d="M16,45.21,15.3,49H35a11.09,11.09,0,0,0,10.56-8.91l.77-4.48c-2.08.89-4.22,1.88-6.41,3C30.38,43.52,22.31,45.12,16,45.21Z"/></svg>