<?xml version="1.0" encoding="utf-8"?>
<!-- Generator: Adobe Illustrator 19.2.0, SVG Export Plug-In . SVG Version: 6.00 Build 0)  -->
<svg version="1.1" id="Layer_1" xmlns="http://www.w3.org/2000/svg" xmlns:xlink="http://www.w3.org/1999/xlink" x="0px" y="0px"
	 viewBox="0 0 81 24" enable-background="new 0 0 81 24" xml:space="preserve" width="81" height="24">
<g>
	<g>
		<path fill="#CAB768" d="M1.937,20.7c0.167,1.711,1.419,2.073,2.059,2.073c1.071,0,2.059-0.821,2.059-1.961
			c0-1.447-1.238-1.766-2.434-2.156c-0.835-0.25-2.629-0.779-2.629-2.726c-0.028-1.822,1.488-2.837,3.06-2.837
			c1.28,0,2.754,0.709,2.921,2.657H5.832c-0.125-0.668-0.459-1.683-1.822-1.683c-1.029,0-1.878,0.695-1.878,1.766
			c-0.014,1.252,1.002,1.558,2.559,2.086c0.974,0.376,2.504,0.918,2.504,2.81c0,1.683-1.266,3.018-3.185,3.018
			c-1.725,0-3.158-1.085-3.227-3.046H1.937z"/>
		<path fill="#CAB768" d="M18.365,20.797c-0.668,1.586-2.462,2.949-4.729,2.949c-3.046,0-5.369-2.351-5.369-5.327
			c0-2.935,2.267-5.327,5.355-5.327c2.545,0,4.145,1.697,4.743,3.004h-1.238c-0.348-0.612-1.516-1.989-3.505-1.989
			c-2.406,0-4.214,1.905-4.214,4.298c0,2.434,1.822,4.326,4.214,4.326c2.156,0,3.255-1.544,3.505-1.934H18.365z"/>
		<path fill="#CAB768" d="M22.498,13.272c1.447,0,2.128,0.167,2.768,0.654c0.681,0.528,1.099,1.488,1.099,2.448
			c0,0.974-0.431,1.961-1.057,2.448c-0.682,0.528-1.377,0.695-2.712,0.695H20.94v4.048h-1.154V13.272H22.498z M20.94,18.502h1.641
			c0.862,0,1.391-0.097,1.906-0.431c0.445-0.292,0.765-0.946,0.765-1.669c0-0.737-0.32-1.391-0.779-1.683
			c-0.515-0.334-1.043-0.431-1.92-0.431H20.94V18.502z"/>
		<path fill="#CAB768" d="M27.562,13.272h1.141v10.293h-1.141V13.272z"/>
		<path fill="#27304D" d="M33.921,13.272h2.629l-1.671,10.293H32.25L33.921,13.272z"/>
		<path fill="#27304D" d="M43.613,19.545l0.963-6.273h2.517l-1.671,10.293h-2.281l-2.93-6.204l-0.951,6.204h-2.518l1.671-10.293
			h2.267L43.613,19.545z"/>
		<path fill="#27304D" d="M48.263,13.272h2.698l0.915,7.219l3.272-7.219h2.712l-5.121,10.293h-2.712L48.263,13.272z"/>
		<path fill="#27304D" d="M59.017,13.272h5.828l-0.375,2.309h-3.199l-0.26,1.599h3.102l-0.375,2.309h-3.102l-0.287,1.767h3.199
			l-0.375,2.309h-5.828L59.017,13.272z"/>
		<path fill="#27304D" d="M67.276,20.157c-0.194,1.196,0.509,1.405,0.843,1.405c0.626,0,1.085-0.515,1.162-0.987
			c0.088-0.542-0.316-0.71-1.793-1.377c-0.676-0.292-2.353-1.015-2.039-2.949c0.336-2.073,2.392-3.171,4.117-3.171
			c1.419,0,3.305,0.723,2.944,3.199h-2.601c0.001-0.348,0.023-1.001-0.783-1.001c-0.459,0-0.956,0.32-1.035,0.807
			c-0.077,0.473,0.181,0.598,1.896,1.433c1.779,0.862,2.122,1.753,1.927,2.949c-0.266,1.642-1.397,3.297-4.123,3.297
			c-2.698,0-3.526-1.586-3.129-3.603H67.276z"/>
		<path fill="#27304D" d="M75.197,15.581h-2.031l0.375-2.309h6.676l-0.375,2.309h-2.017l-1.296,7.984h-2.629L75.197,15.581z"/>
	</g>
	<g>
		<path fill="#27304D" d="M31.544,0.24h2.629l6.956,10.293H38.5L31.544,0.24z"/>
		<g>
			<polygon fill="#CAB768" points="29.371,0.24 26.75,0.24 28.06,2.179 			"/>
			<polygon fill="#CAB768" points="19.786,10.533 22.415,10.533 26.974,3.786 25.66,1.841 			"/>
			<polygon fill="#27304D" points="26.75,0.24 26.742,0.24 25.66,1.841 26.974,3.786 28.06,2.179 			"/>
		</g>
		<path fill="#27304D" d="M35.886,0.24h2.629l4.869,7.163h-2.629L35.886,0.24z"/>
		<path fill="#CAB768" d="M26.752,0.24h2.629l6.956,10.293h-2.629L26.752,0.24z"/>
	</g>
</g>
</svg>
