<svg width="84" height="48" viewBox="0 0 84 48" fill="none" xmlns="http://www.w3.org/2000/svg">
<path d="M23.0294 24.6526C21.2755 26.1518 18.1586 28.1114 13.84 28.1185C6.32741 28.131 0.196617 21.7484 0.134797 14.1873C0.0706221 6.31677 5.95472 0 13.8159 0C17.7683 0 20.7062 1.63075 22.4695 2.99188C23.5705 3.84162 23.637 5.48244 22.6032 6.41336L22.5973 6.4187C21.8083 7.12918 20.6397 7.16889 19.7936 6.52832C18.5819 5.61103 16.5589 4.51359 13.8159 4.51359C8.46992 4.51359 4.96324 8.79489 4.96324 14.0599C4.96324 19.3248 8.46992 23.6067 13.8159 23.6067C16.7815 23.6067 18.8969 22.3517 20.1628 21.2809C21.0494 20.5307 22.3512 20.5823 23.1625 21.4142C24.058 22.3315 24.0033 23.82 23.0294 24.6526Z" fill="#FF5F00"/>
<path d="M32.6298 0.695801C33.9634 0.695801 35.0444 1.78375 35.0444 3.12592V24.9952C35.0444 26.3374 33.9634 27.4253 32.6298 27.4253C31.2963 27.4253 30.2153 26.3374 30.2153 24.9952V3.12533C30.2153 1.78375 31.2963 0.695801 32.6298 0.695801Z" fill="#FF5F00"/>
<path d="M83.231 24.6526C81.4771 26.1518 78.3602 28.1114 74.0416 28.1185C66.529 28.131 60.3983 21.7484 60.3365 14.1873C60.2723 6.31677 66.1564 0 74.0175 0C77.9698 0 80.9078 1.63075 82.6711 2.99188C83.7721 3.84162 83.8386 5.48244 82.8048 6.41336L82.7989 6.4187C82.0099 7.12918 80.8412 7.16889 79.9952 6.52832C78.7835 5.61103 76.7605 4.51359 74.0175 4.51359C68.6715 4.51359 65.1649 8.79489 65.1649 14.0599C65.1649 19.3248 68.6715 23.6067 74.0175 23.6067C76.9831 23.6067 79.0985 22.3517 80.3643 21.2809C81.251 20.5307 82.5528 20.5823 83.3641 21.4142C84.259 22.3315 84.2048 23.82 83.231 24.6526Z" fill="#FF5F00"/>
<path d="M58.7835 3.51776C59.6542 2.0956 58.744 0.259232 57.0937 0.0802765C56.6233 0.0293156 56.1346 0.00146484 55.6277 0.00146484C47.8071 0.00146484 41.9507 6.24594 41.9507 14.0542V24.849C41.9507 26.155 42.9133 27.3331 44.208 27.4142C44.9422 27.4599 45.5975 27.1772 46.0656 26.7061C46.5007 26.2682 46.7744 25.6674 46.7744 24.9918V14.0542C46.7744 8.79873 50.2805 4.51861 55.6271 4.51861C55.958 4.51861 56.2759 4.53639 56.5832 4.56779C57.4629 4.65905 58.3195 4.27507 58.7835 3.51776Z" fill="#FF5F00"/>
<path d="M0.00058844 37.3751C0.00058844 35.5382 0.803663 34.6416 2.2638 34.6416C3.05215 34.6416 3.6362 34.9059 3.97239 35.1998L3.68036 35.7876C3.37362 35.5376 2.96501 35.3616 2.38096 35.3616C1.34415 35.3616 0.760094 36.0081 0.760094 37.5073V38.4477H3.27176V39.1676H0.759505V45.0607H0V37.3751H0.00058844Z" fill="white"/>
<path d="M7.47679 38.3164C9.52098 38.3164 10.9228 39.7711 10.9228 41.755C10.9228 43.7389 9.52098 45.1937 7.47679 45.1937C5.43261 45.1937 4.03076 43.7389 4.03076 41.755C4.03076 39.7711 5.43261 38.3164 7.47679 38.3164ZM7.47679 44.4737C9.02465 44.4737 10.1198 43.3567 10.1198 41.755C10.1198 40.1682 9.02465 39.0364 7.47679 39.0364C5.95837 39.0364 4.83384 40.1533 4.83384 41.755C4.83384 43.3419 5.94365 44.4737 7.47679 44.4737Z" fill="white"/>
<path d="M12.7769 38.4489H13.5364V39.3306C13.9014 38.7724 14.4419 38.3315 15.3032 38.3315C15.8437 38.3315 16.1063 38.4198 16.3253 38.5816L16.0627 39.3016C15.7413 39.1108 15.5664 39.0515 15.1431 39.0515C14.2817 39.0515 13.8437 39.5955 13.5369 40.1241V45.0619H12.7774V38.4489H12.7769Z" fill="white"/>
<path d="M27.1587 45.0619H26.3992V40.9323C26.3992 39.6393 25.8298 39.0515 24.7347 39.0515C23.8151 39.0515 23.0991 39.522 22.72 40.1537C22.7494 40.271 22.7494 40.4772 22.7494 40.6242V45.0625H21.9899V40.5952C21.9899 39.6838 21.4059 39.0521 20.3402 39.0521C19.4347 39.0521 18.7046 39.5665 18.3396 40.0956V45.0625H17.5801V38.4495H18.3396V39.3751C18.8359 38.7576 19.7267 38.3315 20.6175 38.3315C21.6396 38.3315 22.3991 38.7872 22.6323 39.551C23.1139 38.8163 24.0488 38.3315 25.0268 38.3315C26.2532 38.3315 27.1587 38.9194 27.1587 40.7267V45.0619V45.0619Z" fill="white"/>
<path d="M34.7812 44.2533C34.1824 44.885 33.2334 45.1937 32.3573 45.1937C30.2837 45.1937 28.8677 43.8415 28.8677 41.755C28.8677 39.8298 30.0358 38.3164 32.1965 38.3164C33.8904 38.3164 35.1751 39.492 35.1751 41.2994C35.1751 41.5494 35.1604 41.7402 35.1315 41.9168H29.7143C29.7726 43.5037 30.8241 44.4737 32.4008 44.4737C33.2916 44.4737 34.08 44.136 34.5328 43.6655L34.7812 44.2533ZM29.6707 41.2845H34.4015C34.372 39.8885 33.4959 39.0364 32.1235 39.0364C30.6634 39.0364 29.802 39.9916 29.6707 41.2845Z" fill="white"/>
<path d="M36.9844 38.4489H37.7439V39.3306C38.1089 38.7724 38.6494 38.3315 39.5108 38.3315C40.0512 38.3315 40.3138 38.4198 40.5329 38.5816L40.2703 39.3016C39.9488 39.1108 39.7739 39.0515 39.3506 39.0515C38.4893 39.0515 38.0512 39.5955 37.7445 40.1241V45.0619H36.985V38.4489H36.9844Z" fill="white"/>
<path d="M41.7886 34.7744H42.5481V42.9453C42.5481 43.9444 42.7965 44.4297 43.4971 44.4297C43.8474 44.4297 44.1977 44.2679 44.4168 44.1062L44.6063 44.7088C44.2996 44.9441 43.818 45.1497 43.2192 45.1497C42.2407 45.1497 41.7886 44.5618 41.7886 43.3566V34.7744V34.7744Z" fill="white"/>
<path d="M48.915 45.0613C47.9512 47.4274 47.3383 48.0004 46.4476 48.0004C46.0242 48.0004 45.6739 47.8683 45.323 47.6627L45.5715 47.0748C45.8199 47.1922 46.0825 47.2953 46.3451 47.2953C47.0169 47.2953 47.4985 46.7513 48.0537 45.4145L48.1997 45.0619L44.958 38.4488H45.8635L48.112 43.1218L48.5794 44.1505C48.6819 43.8128 48.8132 43.4596 48.9445 43.0922L50.7113 38.4482H51.5726L48.915 45.0613Z" fill="white"/>
<path d="M60.3472 35.8034C60.0257 35.5682 59.6024 35.3625 59.033 35.3625C57.9085 35.3625 57.3244 36.009 57.3244 37.5082V38.4486H59.0766V39.1686H57.3244V45.0617H56.5649V37.3761C56.5649 35.5391 57.368 34.6426 58.8282 34.6426C59.5582 34.6426 60.1128 34.8482 60.4779 35.1273H61.1055V42.9456C61.1055 43.9447 61.3539 44.43 62.0399 44.43C62.4049 44.43 62.7405 44.2682 62.9595 44.1065L63.1491 44.7091C62.8423 44.9444 62.3607 45.15 61.762 45.15C60.7834 45.15 60.3454 44.5622 60.3454 43.3569V35.8034H60.3472Z" fill="white"/>
<path d="M64.4495 38.9186C65.063 38.5364 65.7636 38.3159 66.5373 38.3159C68.3625 38.3159 68.9759 39.286 68.9759 40.9611V45.0611H68.2164V44.0472C67.8078 44.6054 67.1649 45.1494 65.9679 45.1494C64.7563 45.1494 63.9385 44.385 63.9385 43.1803C63.9385 41.8577 65.0189 41.1229 66.4354 41.1229C66.9612 41.1229 67.6913 41.2402 68.217 41.6224C68.217 40.0498 68.1293 39.0359 66.4943 39.0359C65.7207 39.0359 65.2385 39.2267 64.6544 39.5502L64.4495 38.9186ZM68.2164 43.3865V42.2843C67.7348 41.9318 67.1796 41.7552 66.5078 41.7552C65.6465 41.7552 64.741 42.1664 64.741 43.1365C64.741 43.9595 65.3833 44.4294 66.2011 44.4294C67.3115 44.4294 67.8514 43.8712 68.2164 43.3865Z" fill="white"/>
<path d="M70.9176 40.0651C70.9176 39.0067 71.779 38.3164 73.0348 38.3164C73.9545 38.3164 74.714 38.6542 75.0937 39.0512L74.7723 39.6242C74.3637 39.242 73.7207 38.9925 73.0495 38.9925C72.2318 38.9925 71.7207 39.4772 71.7207 40.0508C71.7207 41.7995 75.3563 40.9764 75.3563 43.2987C75.3563 44.6065 74.2465 45.1943 72.9907 45.1943C72.071 45.1943 71.0489 44.7096 70.7422 44.2391L71.1655 43.7395C71.5305 44.21 72.4213 44.5182 73.0784 44.5182C73.8379 44.5182 74.5532 44.136 74.5532 43.3277C74.5538 41.6668 70.9176 42.4898 70.9176 40.0651Z" fill="white"/>
<path d="M77.2549 34.7744H78.0144V39.3449C78.5254 38.7719 79.4745 38.331 80.38 38.331C82.1616 38.331 83.1248 39.2276 83.1248 41.2998V45.062H82.3653V41.4177C82.3653 39.8308 81.6647 39.0516 80.2046 39.0516C79.3138 39.0516 78.4377 39.5363 78.0144 40.0654V45.062H77.2549V34.7744V34.7744Z" fill="white"/>
</svg>
