<svg xmlns="http://www.w3.org/2000/svg" viewBox="0 0 70 15.1"><defs><style>.cls-1{fill:#141414;}.cls-2{fill:#f9be00;}.cls-3{fill:#fff;}</style></defs><title>Fichier 1</title><g id="Calque_2" data-name="Calque 2"><g id="Calque_1-2" data-name="Calque 1"><path class="cls-1" d="M20.44,15v-.61a2.25,2.25,0,0,1-.75.52,2.63,2.63,0,0,1-1,.16,2.43,2.43,0,0,1-1.79-.62,2.19,2.19,0,0,1-.58-1.58A1.91,1.91,0,0,1,17,11.43a2.52,2.52,0,0,1,1.78-.57h1.66v-.35a1.06,1.06,0,0,0-.3-.84,1.53,1.53,0,0,0-1-.26,2,2,0,0,0-.77.13,1.69,1.69,0,0,0-.57.45L16.63,8.89a2.72,2.72,0,0,1,1.06-.76,4.32,4.32,0,0,1,1.47-.21q3,0,3,2.48V15Zm0-3H19q-1,0-1,.79a.73.73,0,0,0,.26.59,1.15,1.15,0,0,0,.76.22,2.49,2.49,0,0,0,.65-.07,1.1,1.1,0,0,0,.46-.27,1.2,1.2,0,0,0,.26-.89Z"/><path class="cls-1" d="M27.48,14.52a3.64,3.64,0,0,1-2.14.59,6.16,6.16,0,0,1-1.68-.2,3,3,0,0,1-1.32-.81l1.15-1.15a2,2,0,0,0,.87.53,3.7,3.7,0,0,0,1,.13,1.93,1.93,0,0,0,.88-.18.62.62,0,0,0,.19-1,1,1,0,0,0-.57-.2l-.54-.05-.57-.05a2.59,2.59,0,0,1-1.52-.57,1.79,1.79,0,0,1-.52-1.4,1.94,1.94,0,0,1,.79-1.64,3.11,3.11,0,0,1,1.92-.59A5.68,5.68,0,0,1,27,8.11a2.71,2.71,0,0,1,1.14.63L27,9.84a1.63,1.63,0,0,0-.7-.36,3.75,3.75,0,0,0-.93-.11,1.21,1.21,0,0,0-.75.2.59.59,0,0,0-.25.48.57.57,0,0,0,.15.4.89.89,0,0,0,.57.21l.55.05.55.05a2.43,2.43,0,0,1,1.56.63,2,2,0,0,1,.53,1.43,2,2,0,0,1-.84,1.7"/><path class="cls-1" d="M33.14,14.52A3.65,3.65,0,0,1,31,15.1a6.16,6.16,0,0,1-1.68-.2A3,3,0,0,1,28,14.09l1.15-1.15a2,2,0,0,0,.87.53,3.68,3.68,0,0,0,1,.13,1.94,1.94,0,0,0,.88-.18.58.58,0,0,0,.36-.55.57.57,0,0,0-.18-.44,1,1,0,0,0-.57-.2L31,12.18l-.57-.05a2.59,2.59,0,0,1-1.52-.57,1.79,1.79,0,0,1-.52-1.4,1.94,1.94,0,0,1,.79-1.64,3.1,3.1,0,0,1,1.92-.59,5.67,5.67,0,0,1,1.54.19,2.71,2.71,0,0,1,1.14.63L32.68,9.84a1.64,1.64,0,0,0-.7-.36A3.75,3.75,0,0,0,31,9.36a1.2,1.2,0,0,0-.75.2.59.59,0,0,0-.25.48.57.57,0,0,0,.15.4.89.89,0,0,0,.57.21l.55.05.55.05a2.43,2.43,0,0,1,1.56.63A2,2,0,0,1,34,12.81a2,2,0,0,1-.84,1.7"/><path class="cls-1" d="M38.47,15v-.65a2.32,2.32,0,0,1-.8.54,2.49,2.49,0,0,1-1,.19,2.24,2.24,0,0,1-1.66-.62,2.2,2.2,0,0,1-.56-.89,3.62,3.62,0,0,1-.15-1.1V8H36.1v4.24a1.24,1.24,0,0,0,.34,1,1.18,1.18,0,0,0,.81.31,1.2,1.2,0,0,0,.83-.31,1.24,1.24,0,0,0,.34-1V8h1.75v7Z"/><path class="cls-1" d="M45,9.92a1.37,1.37,0,0,0-.42-.32A1.22,1.22,0,0,0,44,9.5a1.09,1.09,0,0,0-.79.34,1.28,1.28,0,0,0-.34,1V15H41.14V8h1.71v.67a2.05,2.05,0,0,1,.75-.54,2.47,2.47,0,0,1,1-.22,2.58,2.58,0,0,1,.92.15,2.05,2.05,0,0,1,.74.51Z"/><path class="cls-1" d="M49.72,15v-.61a2.25,2.25,0,0,1-.75.52,2.63,2.63,0,0,1-1,.16,2.43,2.43,0,0,1-1.79-.62,2.19,2.19,0,0,1-.58-1.58,1.91,1.91,0,0,1,.61-1.46A2.52,2.52,0,0,1,48,10.86h1.66v-.35a1.06,1.06,0,0,0-.3-.84,1.53,1.53,0,0,0-1-.26,1.94,1.94,0,0,0-.77.13A1.67,1.67,0,0,0,47,10L45.91,8.89A2.72,2.72,0,0,1,47,8.13a4.31,4.31,0,0,1,1.47-.21q3,0,3,2.48V15Zm0-3H48.3q-1,0-1,.79a.73.73,0,0,0,.26.59,1.14,1.14,0,0,0,.75.22,2.5,2.5,0,0,0,.65-.07,1.1,1.1,0,0,0,.46-.27,1.21,1.21,0,0,0,.26-.89Z"/><path class="cls-1" d="M56.39,15V10.78a1.24,1.24,0,0,0-.34-1,1.17,1.17,0,0,0-.81-.31,1.19,1.19,0,0,0-.83.31,1.24,1.24,0,0,0-.34,1V15H52.31V8H54v.65a2.33,2.33,0,0,1,.79-.54,2.49,2.49,0,0,1,1-.19,2.24,2.24,0,0,1,1.66.62,2.19,2.19,0,0,1,.56.89,3.64,3.64,0,0,1,.16,1.1V15Z"/><path class="cls-1" d="M61.81,15.1a3.67,3.67,0,0,1-1.13-.17,2.76,2.76,0,0,1-1-.59,2.87,2.87,0,0,1-.74-1.12,4.75,4.75,0,0,1-.28-1.72,4.74,4.74,0,0,1,.28-1.72A2.72,2.72,0,0,1,60.68,8.1a3.65,3.65,0,0,1,1.13-.17,3.43,3.43,0,0,1,1.29.23,2.89,2.89,0,0,1,1,.71l-1.18,1.19a2,2,0,0,0-.54-.42,1.31,1.31,0,0,0-.59-.13,1.23,1.23,0,0,0-1,.46,2.47,2.47,0,0,0-.39,1.55,2.49,2.49,0,0,0,.39,1.56,1.23,1.23,0,0,0,1,.46,1.3,1.3,0,0,0,.59-.13,2,2,0,0,0,.54-.42l1.18,1.17a3.07,3.07,0,0,1-2.32,1"/><path class="cls-1" d="M65.61,12.06A1.57,1.57,0,0,0,66,13.19a1.48,1.48,0,0,0,1.12.43,2.19,2.19,0,0,0,.9-.16,2.4,2.4,0,0,0,.69-.51l1.06,1a4,4,0,0,1-1.17.84,3.72,3.72,0,0,1-1.5.26,4.24,4.24,0,0,1-1.25-.17,2.6,2.6,0,0,1-1.74-1.69,5,5,0,0,1-.26-1.73,3.85,3.85,0,0,1,.83-2.64,3.12,3.12,0,0,1,4.47,0A3.55,3.55,0,0,1,70,11.28v.78Zm2.62-1.6a1.84,1.84,0,0,0-.11-.36,1.2,1.2,0,0,0-.45-.53,1.44,1.44,0,0,0-1.45,0,1.19,1.19,0,0,0-.45.53,1.78,1.78,0,0,0-.12.36,2.94,2.94,0,0,0,0,.4h2.67a2.78,2.78,0,0,0,0-.4"/><rect class="cls-1" width="15.09" height="15.09" rx="2.11" ry="2.11"/><path class="cls-2" d="M18.2,4.14a1.58,1.58,0,0,0,.41,1.13,1.48,1.48,0,0,0,1.13.43,2.18,2.18,0,0,0,.89-.16,2.41,2.41,0,0,0,.7-.51l1.06,1a3.94,3.94,0,0,1-1.17.84,3.71,3.71,0,0,1-1.5.26A4.21,4.21,0,0,1,18.48,7a2.7,2.7,0,0,1-1-.58,2.74,2.74,0,0,1-.71-1.11,5,5,0,0,1-.26-1.73A3.84,3.84,0,0,1,17.32.94,2.82,2.82,0,0,1,19.54,0a2.82,2.82,0,0,1,2.24.94,3.55,3.55,0,0,1,.82,2.42v.78Zm2.62-1.6a1.81,1.81,0,0,0-.11-.36,1.2,1.2,0,0,0-.44-.53,1.44,1.44,0,0,0-1.45,0,1.19,1.19,0,0,0-.45.53,1.8,1.8,0,0,0-.11.36,2.69,2.69,0,0,0,0,.4h2.67a2.9,2.9,0,0,0,0-.4"/><path class="cls-2" d="M27.25,7.1V6.45a2.32,2.32,0,0,1-.8.54,2.48,2.48,0,0,1-1,.19,2.24,2.24,0,0,1-1.66-.62,2.2,2.2,0,0,1-.56-.89,3.6,3.6,0,0,1-.15-1.1V.08h1.75V4.33a1.25,1.25,0,0,0,.34,1,1.18,1.18,0,0,0,.82.31,1.2,1.2,0,0,0,.83-.31,1.25,1.25,0,0,0,.34-1V.08H29v7Z"/><path class="cls-2" d="M33.72,2a1.38,1.38,0,0,0-.42-.32,1.23,1.23,0,0,0-.51-.09,1.09,1.09,0,0,0-.79.34,1.28,1.28,0,0,0-.34,1V7.1H29.91v-7h1.71V.75a2.06,2.06,0,0,1,.75-.54,2.45,2.45,0,0,1,1-.22,2.58,2.58,0,0,1,.92.15A2,2,0,0,1,35,.66Z"/><path class="cls-2" d="M40.09,5.22a2.47,2.47,0,0,1-.63,1.1,2.83,2.83,0,0,1-.91.62,3.12,3.12,0,0,1-1.27.24A3.07,3.07,0,0,1,36,6.94a2.87,2.87,0,0,1-.9-.62,2.48,2.48,0,0,1-.63-1.1,6.47,6.47,0,0,1-.17-1.64A6.41,6.41,0,0,1,34.49,2a2.48,2.48,0,0,1,.63-1.1A2.7,2.7,0,0,1,36,.24a3.49,3.49,0,0,1,2.54,0,2.85,2.85,0,0,1,.91.62A2.47,2.47,0,0,1,40.09,2a6.44,6.44,0,0,1,.17,1.62,6.5,6.5,0,0,1-.17,1.64M38.43,2.53a1.16,1.16,0,0,0-.33-.65,1.11,1.11,0,0,0-.82-.31,1.1,1.1,0,0,0-.81.31,1.24,1.24,0,0,0-.32.65,5.64,5.64,0,0,0-.08,1.05,5.63,5.63,0,0,0,.08,1.05,1.32,1.32,0,0,0,.32.66,1.1,1.1,0,0,0,.81.31,1.11,1.11,0,0,0,.82-.31,1.23,1.23,0,0,0,.33-.66,6.12,6.12,0,0,0,.07-1.05,6.13,6.13,0,0,0-.07-1.05"/><rect class="cls-2" x="5.7" y="12.62" width="0.55" height="0.55"/><path class="cls-2" d="M7.93,13.12a1,1,0,0,1-.41.08,1.11,1.11,0,0,1-.38-.07.89.89,0,0,1-.32-.2,1,1,0,0,1-.23-.36,1.76,1.76,0,0,1,0-1.06,1,1,0,0,1,.23-.36.87.87,0,0,1,.32-.2,1.16,1.16,0,0,1,.38-.06,1.07,1.07,0,0,1,.41.07,1,1,0,0,1,.33.24l-.31.3a.7.7,0,0,0-.2-.17.52.52,0,0,0-.23,0,.5.5,0,0,0-.42.2.55.55,0,0,0-.1.22A1.45,1.45,0,0,0,7,12a1.48,1.48,0,0,0,0,.33.56.56,0,0,0,.1.22.5.5,0,0,0,.42.2.52.52,0,0,0,.23,0,.71.71,0,0,0,.2-.17l.31.3a1,1,0,0,1-.33.25"/><path class="cls-2" d="M10.11,12.55a.87.87,0,0,1-.21.37.93.93,0,0,1-.29.2,1,1,0,0,1-.39.07,1,1,0,0,1-.39-.07.84.84,0,0,1-.29-.2.85.85,0,0,1-.21-.37,2.36,2.36,0,0,1,0-1,.83.83,0,0,1,.21-.37.84.84,0,0,1,.29-.2,1.08,1.08,0,0,1,.78,0,.86.86,0,0,1,.29.2.85.85,0,0,1,.21.37,2.31,2.31,0,0,1,0,1m-.43-.9a.46.46,0,0,0-.12-.25.46.46,0,0,0-.34-.13.44.44,0,0,0-.33.13.46.46,0,0,0-.13.25,2.24,2.24,0,0,0,0,.75.46.46,0,0,0,.13.25.45.45,0,0,0,.33.13.45.45,0,0,0,.34-.13.47.47,0,0,0,.12-.25,2.27,2.27,0,0,0,0-.75"/><path class="cls-2" d="M13.21,13.17V11.78a.52.52,0,0,0-.12-.38.45.45,0,0,0-.33-.13.48.48,0,0,0-.33.13.46.46,0,0,0-.14.36v1.41h-.46V11.78a.52.52,0,0,0-.12-.38.45.45,0,0,0-.33-.13.47.47,0,0,0-.34.13.5.5,0,0,0-.13.38v1.38h-.46V10.9h.45v.23a.73.73,0,0,1,.27-.19.89.89,0,0,1,.33-.06.72.72,0,0,1,.65.33.88.88,0,0,1,.71-.33,1,1,0,0,1,.32.05.72.72,0,0,1,.25.15.86.86,0,0,1,.24.64v1.45Z"/><path class="cls-2" d="M3.8,9.89a1.76,1.76,0,1,0,1.76,1.76A1.76,1.76,0,0,0,3.8,9.89"/><path class="cls-3" d="M4.33,1.78H3.84l-.58,0H3.19a9.84,9.84,0,0,0-3,.69h0L0,2.51V4.74a7.85,7.85,0,0,1,3.28-1l.52,0a7.9,7.9,0,0,1,7.6,5.73,5.47,5.47,0,0,0,2.06,0A9.89,9.89,0,0,0,4.33,1.78"/><path class="cls-3" d="M9.42,9.2A6.13,6.13,0,0,0,4.33,5.54H4.24l-.4,0H3.71l-.44,0H3.19A6.09,6.09,0,0,0,0,6.86H0v3.28a4.09,4.09,0,0,1,7.32-.66,5.23,5.23,0,0,0,2.22,0L9.42,9.2"/></g></g></svg>