<?xml version="1.0" encoding="utf-8"?>
<!-- Generator: Adobe Illustrator 18.0.0, SVG Export Plug-In . SVG Version: 6.00 Build 0)  -->
<!DOCTYPE svg PUBLIC "-//W3C//DTD SVG 1.1//EN" "http://www.w3.org/Graphics/SVG/1.1/DTD/svg11.dtd">
<svg version="1.1" id="Calque_1" xmlns="http://www.w3.org/2000/svg" xmlns:xlink="http://www.w3.org/1999/xlink" x="0px" y="0px"
	 viewBox="0 0 1053.2 277.2" enable-background="new 0 0 1053.2 277.2" xml:space="preserve">
<path fill="#9FD337" d="M279,1.5c3.7-1.4,7.7-1.5,11.6-1.5c27.3,0.1,54.7-0.1,82,0.1c11.9,0.1,22.7,10,23.9,21.8
	c0.5,7.8,0.1,15.6,0.2,23.4c5.2,3.1,10.6,6.6,13.5,12.2c2,3.9,1.8,8.8-0.6,12.5c-3.5,5.6-9.3,9.2-15,12c-12,5.7-25.1,8.6-38.2,10.4
	c-19.5,2.5-39.3,2.3-58.7-0.8c-12.1-1.9-24.1-5-35-10.6c-5.2-2.8-10.5-6.4-13.4-11.7c-2.2-3.8-2.1-8.7,0.1-12.5
	c3-5.2,8.1-8.5,13.1-11.5c0.1-7.4-0.2-14.9,0.1-22.3C263.1,13.4,270,4.6,279,1.5 M275,23.4c-0.3,5.5,0,11.1-0.1,16.7
	c17.6-5.7,36.2-7.8,54.7-7.8c18.5,0,37.1,2.1,54.7,7.8c-0.1-5.6,0.1-11.1-0.1-16.7c-0.5-6.2-6.4-11.2-12.6-10.9c-28,0-56,0-84,0
	C281.4,12.1,275.5,17.2,275,23.4 M280.9,50.5c-6.3,2.4-10,9.9-8,16.4c1.8,6.8,9.4,11.2,16.2,9.5c7.1-1.4,12.1-9.3,10.2-16.3
	C297.8,52.1,288.3,47.2,280.9,50.5 M368,50.5c-6.3,2.4-10.1,9.9-8.1,16.4c1.9,7.1,10,11.5,17,9.3c7.2-1.9,11.7-10.3,9.1-17.3
	C383.8,51.6,375,47.5,368,50.5 M968.2,140.6c16-6.1,34-6.3,50.3-1.6c14,3.9,25.2,15.2,30.3,28.7c5.7,14,4.6,29.4,3.7,44.1
	c-29.7,0.6-59.4,0.9-89.2,1.6c1.6,12.2,8.6,23.6,19.2,29.9c7.2,4.4,15.7,6.2,24.1,6c15,0.2,30-2.4,44.5-6.2
	c-0.9,9.1-1.9,18.1-2.8,27.2c-15.9,5.6-32.8,7-49.5,6.9c-15.5-0.2-31.6-3.6-44.4-12.8c-14.5-10.6-24.4-27.4-26.6-45.2
	c-1.9-16,0.3-32.8,7.8-47.1C942.4,158.3,953.6,146.1,968.2,140.6 M974.1,167.6c-6.9,6.7-9.6,16.3-11.1,25.5
	c19.2-0.7,38.4-0.6,57.6-1.3c-0.1-8.1-1.3-16.8-6.6-23.3c-3.9-4.9-10.1-7.4-16.2-8C989.4,159.5,980.2,161.4,974.1,167.6
	 M755.1,139.4c12-3.5,25.1-3.2,37.1,0.2c8.1,2.3,15.1,7.5,20.3,14.1c3.8-2,7-4.9,10.7-7.1c9.4-5.8,20.2-9.8,31.4-9.6
	c10.9-0.1,22.2,1.5,31.6,7.3c5.2,3.1,9.2,8,11.5,13.6c3.6,8.6,4.3,18,4.4,27.2c-0.9,18-0.3,35.9-0.5,53.9c0.5,11.3,0,22.7,0.5,34
	c-12.3,0-24.7,0-37,0c2-23.7,3-47.4,2.9-71.2c-0.5-9.6-0.5-20.1-5.9-28.4c-5.1-6.9-14.4-8.7-22.4-8.2c-7.9,0.4-15.2,4-21.9,8.1
	c-1.1,33.3-0.1,66.5,0.3,99.8c-12.4,0-24.8,0-37.3,0c2.1-26.7,3.3-53.4,2.9-80.1c-0.6-7.5-1.4-15.7-6.4-21.7
	c-5.4-5.3-13.5-6-20.7-6.1c-8.9,0-17.8,3.6-24.1,9.9c0.1,32.7,0.7,65.3,0.5,98c-12.5,0-24.9,0-37.3,0c1.1-22.3,2.5-44.6,2.3-66.9
	c0.3-21.4-2-42.8-6.7-63.6c11.9-1.3,23.8-2.6,35.7-3.9c0.9,4.6,1.2,9.4,2.4,14c0.2,0.3,0.7,0.9,0.9,1.2
	C737.9,147.8,745.7,142,755.1,139.4L755.1,139.4z"/>
<path fill="#33363B" d="M92.5,78.5c13.1-0.5,26.3-0.7,39.4-1.2c-1.1,17.6-1.7,35.2-1.9,52.9c-0.5,13.3,0.1,26.6-0.5,39.9
	c0.5,11.7,0,23.5,0.4,35.2c0.3,22.6,1.1,45.2,2.8,67.7c-11.1,0.4-22.1,0.9-33.2,1.1c-0.5-3.5-0.8-7.1-0.9-10.6
	c-6,3.6-11.5,8.1-18.3,10.2c-13.9,4.6-29.5,5-43.3,0c-14-5.1-24.4-17.1-30.5-30.3c-6.9-14.8-7.7-31.8-5.1-47.8
	c3-17.2,11.2-33.8,24.3-45.5c14-12.3,33.8-15.1,51.7-12.3c6.5,0.8,12.5,3.7,18.2,6.8C95.9,122.5,94.5,100.4,92.5,78.5 M48.6,172
	c-7.4,8.9-10.7,20.6-11.3,32c-0.9,13.4,2.2,27.7,11.2,38.1c5,5.8,12.5,9,20.1,9.1c10.4,0.1,21.9-1.7,29.2-9.7
	c-0.1-24.3-0.5-48.7-2.1-73c-6.8-4.5-15-6.8-23.2-6.5C63.7,161.8,54.4,165.1,48.6,172 M273.4,92.5c14.1,4.1,28.7,6.3,43.3,7.2
	c0,6.2-2.2,12.4-6.6,16.9c-5.6,6.1-14.6,7.8-22.5,6.6c-5.5-0.8-10.5-4.2-13.2-9C270.5,107.7,270.9,99.4,273.4,92.5 M342.5,99.7
	c15-0.9,29.9-3,44.3-7.2c1.6,7.2,1.1,15.2-3.4,21.3c-4.3,6.5-12.1,9.8-19.8,9.7c-6.7,0.3-13.7-2.5-17.4-8.3
	C342.9,110.8,342.3,105.1,342.5,99.7 M572.6,149c13.3-10.8,31.2-14.2,48-13c11.9,0.7,24.1,3.9,33.3,11.7c9.3,8,15.1,19.6,17.2,31.6
	c2,10.7,1,21.6,0.4,32.4c-29.7,0.6-59.5,0.9-89.2,1.6c1.6,12.1,8.6,23.6,19.1,29.9c6.9,4.2,15.1,6.1,23.1,6.1
	c15.4,0.3,30.7-2.3,45.5-6.2c-0.9,9.1-1.9,18.1-2.8,27.2c-13.1,4.6-26.9,6.4-40.7,6.7c-14.1,0.6-28.7-0.6-41.8-6.2
	c-17.6-7.4-30.8-23.6-36.1-41.8C540.9,200.8,549.7,167.9,572.6,149 M593.1,167.6c-6.9,6.7-9.5,16.3-11.1,25.4
	c19.2-0.6,38.5-0.6,57.7-1.3c-0.2-7.2-1.1-14.7-5-21c-3-5.1-8.4-8.5-14.1-9.7C611.2,159,600.2,160.5,593.1,167.6 M205.1,146.6
	c6.6-6.1,15.4-9.6,24.4-9.6c8.2-0.3,16.2,1.8,23.9,4.5c-2.7,10.9-5.4,21.8-8.1,32.6c-9.4-3.6-19.9-5.5-29.9-3.1
	c-8.5,2.1-15.9,9.3-17.6,17.9c-0.1,28-0.1,56,0.8,84c-12.4,0-24.7,0-37.1,0c0.9-17,1.8-34.1,2.1-51.1c0.9-26.6-0.6-53.4-6.7-79.4
	c11.8-1.3,23.7-2.6,35.5-3.9c1.1,6.3,1.6,12.6,2.8,18.9C198.9,154,201.4,149.8,205.1,146.6 M270.1,142.8c13.4-1.3,26.7-2.7,40.1-4
	c-2.4,44.7-2.6,89.6,0.2,134.3c-12.5,0-25,0-37.5,0c1.8-28.3,2.5-56.7,1.6-85.1C273.9,172.8,272.6,157.7,270.1,142.8 M341.1,142.8
	c13.4-1.3,26.7-2.7,40.1-4c-2.4,44.7-2.6,89.6,0.2,134.3c-12.5,0-25,0-37.5,0c1.6-23.3,2-46.7,2-70
	C345.6,182.9,344.4,162.7,341.1,142.8 M401,141.5c13.6,0,27.1,0,40.6,0c7,33.4,21.3,64.8,28.1,98.3c1.3-3.8,2-7.8,3-11.7
	c5.7-21.4,13.5-42.1,19.3-63.5c2.1-7.6,4-15.2,4.7-23.1c12,0.1,24.1,0,36.1,0.1c-1.2,7.1-3.9,13.8-6.3,20.5
	c-9.1,24.1-19.8,47.6-29.6,71.4c-5.1,13-11,25.9-14,39.6c-12.6,0-25.2,0-37.7,0c-1-6.9-3.2-13.5-5.3-20.2
	c-7.9-24.1-17.2-47.6-25.9-71.4C409.5,168.2,404.1,155.2,401,141.5L401,141.5z"/>
</svg>
