<!DOCTYPE svg PUBLIC "-//W3C//DTD SVG 1.1//EN" "http://www.w3.org/Graphics/SVG/1.1/DTD/svg11.dtd" [
	<!ENTITY ns_flows "http://ns.adobe.com/Flows/1.0/">
]><svg xmlns="http://www.w3.org/2000/svg" width="250" height="83" viewBox="-0.09 -0.14 250 83" overflow="visible"><path fill-rule="evenodd" clip-rule="evenodd" fill="#FC9C2B" stroke="#FFF" stroke-miterlimit="10" d="M180.377 16.268S183.292.71 199.827.503c16.538-.21 18.66 10.77 18.716 15.28 0 0 6.16-1.152 9.274 2.997 3.114 4.145 1.322 11.205 1.322 11.205s-.1.592-4.714.65l-49.66.626s-3.97.16-4.515-.585c0 0-2.544-6.14 1.21-10.483 3.757-4.345 8.917-3.924 8.917-3.924z"/><path fill-rule="evenodd" clip-rule="evenodd" fill="#F5AF3F" stroke="#FFF" stroke-miterlimit="10" d="M188.962 28.238c.045 3.855-3.038 7.018-6.895 7.065-3.855.05-7.02-3.035-7.068-6.89-.05-3.853 3.034-7.016 6.89-7.065 3.854-.048 7.018 3.036 7.072 6.89zM223.047 27.806c.05 3.855-3.037 7.02-6.893 7.067-3.85.05-7.02-3.034-7.065-6.89-.046-3.854 3.036-7.017 6.89-7.067 3.854-.05 7.016 3.038 7.067 6.89z"/><path fill="#FFF" d="M144.34 18.72c1.405-.24 2.81-.398 4.216-.6 1.406-.175 2.812-.325 4.217-.45 1.406-.127 2.812-.52 4.218-.3.704.09 1.407.227 2.11.445.702.208 1.405.475 2.108.905v.3c-.703.43-1.406.697-2.11.905-.702.218-1.405.355-2.107.445-1.405.222-2.81-.173-4.217-.3-1.406-.125-2.812-.275-4.217-.45-1.406-.202-2.812-.36-4.217-.6v-.3zM134.544 24.194c2.312-.24 4.625-.398 6.938-.6 2.312-.175 4.625-.325 6.938-.45 2.312-.13 4.625-.52 6.938-.3 2.312.202 4.625.522 6.938 1.35v.3c-2.312.828-4.625 1.148-6.938 1.35-2.312.22-4.625-.17-6.938-.3-2.312-.125-4.625-.275-6.938-.45-2.312-.202-4.625-.36-6.938-.6v-.3zM144.34 29.686c1.405-.24 2.81-.398 4.216-.6 1.406-.175 2.812-.325 4.217-.45 1.406-.127 2.812-.52 4.218-.3.704.09 1.407.227 2.11.445.702.21 1.405.476 2.108.906v.3c-.703.43-1.406.697-2.11.905-.702.22-1.405.356-2.107.446-1.405.222-2.81-.173-4.217-.3-1.406-.125-2.812-.275-4.217-.45-1.406-.202-2.812-.36-4.217-.6v-.3z"/><path fill="#48A2DF" d="M144.34 18.82c2.81-.145 5.622-.26 8.434-.35 1.406-.054 2.812-.166 4.218-.1 1.406.07 2.812.177 4.217.45v.1c-1.407.273-2.813.38-4.218.45-1.406.065-2.812-.046-4.218-.1-2.812-.09-5.623-.206-8.435-.35v-.1zM134.544 24.294c4.625-.145 9.25-.26 13.876-.35 2.312-.054 4.625-.166 6.938-.1 2.312.09 4.625.164 6.938.45v.1c-2.312.287-4.625.36-6.938.45-2.312.065-4.625-.046-6.938-.1-4.625-.09-9.25-.206-13.876-.35v-.1zM144.34 29.786c2.81-.145 5.622-.26 8.434-.35 1.406-.054 2.812-.166 4.218-.1 1.406.07 2.812.177 4.217.45v.1c-1.407.273-2.813.38-4.218.45-1.406.065-2.812-.046-4.218-.1-2.812-.09-5.623-.206-8.435-.35v-.1z"/><path fill="#FC9C2B" d="M222.637 56.137c-.083-.006-.133-.007-.185-.007-.362 0-.645.077-.847.23-.206.157-.29.4-.262.743-.03.387.053.62.26.783.223.177.548.26.958.23.1.004.155.007.213.007.33 0 .577-.074.762-.23.198-.17.282-.428.254-.785.02-.357-.064-.583-.265-.747-.215-.172-.51-.256-.888-.223zM229.97 56.87c-.153.02-.3.045-.446.06-.16.022-.284.03-.373.03-.71-.01-1.27-.265-1.668-.754-.384-.475-.582-1.177-.592-2.085 0-.426.01-.797.035-1.113.022-.34.077-.62.165-.86.093-.268.24-.47.432-.608.324-.233.76-.26 1.462-.132.275.05.54.107.79.165l.56.136-.022-.82c-.437-.1-.838-.173-1.19-.217-.353-.043-.668-.065-.93-.065-.517 0-.994.1-1.42.3-.43.197-.8.48-1.106.83-.31.354-.552.786-.725 1.28-.173.503-.262 1.055-.262 1.645 0 .515.073.993.218 1.42.14.42.344.787.602 1.09.256.302.57.537.933.7.628.28 1.344.316 2.336.122.41-.08.936-.214 1.598-.405l-.127-.763-.268.042zM237.264 51.504c-.28-.31-.627-.55-1.033-.714-.41-.167-.887-.25-1.415-.25s-1.005.093-1.417.28c-.412.184-.77.45-1.062.788-.296.343-.527.76-.69 1.24-.165.488-.25 1.036-.25 1.636 0 .562.08 1.074.236 1.527.153.444.376.824.664 1.132.285.308.636.548 1.04.718.815.343 1.988.35 2.816-.03.416-.19.776-.455 1.07-.79.293-.334.523-.75.69-1.23.164-.488.248-1.035.248-1.624 0-.57-.08-1.088-.235-1.538-.154-.448-.376-.83-.66-1.144zm-1.304 4.38c-.042.354-.1.626-.182.825-.1.24-.236.407-.413.5-.158.086-.347.13-.55.13-.218 0-.413-.052-.584-.156-.18-.107-.32-.3-.427-.573-.092-.235-.155-.54-.2-.937-.042-.375-.063-.848-.063-1.446 0-.558.02-.997.048-1.34.034-.366.096-.646.187-.854.1-.24.234-.408.403-.504.324-.18.816-.177 1.147.025.18.108.32.296.432.57.098.234.163.55.203.957.037.384.053.868.053 1.484 0 .552-.016.983-.053 1.317zM249.386 51.1c-.177-.16-.384-.285-.607-.367-.757-.272-1.714-.095-3.03.563l-.19.095-.143-.155c-.21-.226-.42-.394-.623-.494-.18-.088-.384-.134-.61-.134-.313.002-.574.048-.84.137-.29.096-.66.256-1.104.473l-.407.202v-.872l-2.062.31v7.14h2.063V51.91l.413-.06c.073-.01.168-.014.29 0 .235.017.433.045.58.076.206.046.37.145.483.287.112.137.18.317.216.553.03.19.045.443.045.77v4.46h2.063v-5.3c0-.18-.01-.344-.037-.494l-.04-.25.244-.067c.082-.022.158-.037.23-.042l.077-.003c.05 0 .107.003.168.01.223.017.426.046.595.086.207.05.373.15.493.288.114.133.192.31.23.54.036.19.055.436.055.747v4.486H250v-4.894c0-.51-.048-.93-.143-1.244-.09-.3-.246-.546-.47-.758z"/><path fill="#48A2DF" d="M52.004 64.68c-.946-.074-1.728-.158-2.314-.252-.747-.123-1.32-.42-1.71-.885-.372-.447-.597-1.08-.687-1.93-.077-.726-.114-1.746-.114-3.115V39.065L37.9 40.55v19.493c0 2.206.187 3.98.554 5.27.348 1.23 1.014 2.31 1.98 3.208l.228.26c1.734 1.51 3.816 2.067 6.218 1.71.47-.07 1-.183 1.572-.34.59-.164 1.272-.397 2.024-.693.785-.312 1.727-.704 2.824-1.18l1.004-.436v2.53h9.224V39.06l-9.224 1.387v24.097l-.627.08c-.306.038-.563.065-.772.085-.247.02-.544.014-.9-.03zM86.78 64.326c-.597.094-1.194.177-1.788.248-.626.08-1.117.117-1.472.117-2.764-.037-4.937-1.02-6.47-2.917-1.497-1.85-2.275-4.62-2.312-8.232 0-1.705.047-3.22.14-4.504.096-1.332.314-2.476.648-3.397.36-.998.902-1.763 1.61-2.273 1.205-.866 2.856-.964 5.63-.455 1.118.205 2.188.43 3.213.672.797.187 1.735.416 2.816.683l-.123-4.24-.176-.04c-1.872-.435-3.566-.747-5.036-.928-1.466-.183-2.766-.272-3.862-.272-2.164 0-4.17.424-5.966 1.258-1.798.84-3.362 2.014-4.648 3.494-1.298 1.488-2.32 3.296-3.04 5.37-.725 2.09-1.092 4.387-1.092 6.836 0 2.16.303 4.155.9 5.927.594 1.766 1.45 3.314 2.546 4.6 1.084 1.274 2.413 2.27 3.944 2.96 1.54.69 3.27 1.04 5.148 1.04 1.343 0 2.904-.172 4.64-.51 1.772-.35 4.045-.93 6.76-1.728l.158-.044-.66-3.905c-.578.094-1.08.175-1.508.24zM108.44 50.877l8.768-10.937h-6.537l-10.8 14.512v-28.59l-9.28 1.386V70.43h9.28V56.696l1.35-.34 7.532 13.968 11.49.095"/><path fill="#48A2DF" d="M131.947 52.626c-.46-1.32-.96-2.76-1.492-4.307-.533-1.55-1.032-2.973-1.49-4.28l-1.46-4.133h-9.302L129.505 72c0 .116-.014.207-.167.73-.096.323-.228.725-.4 1.198-.18.51-.404.963-.657 1.344-.473.71-.96 1.288-1.45 1.716-.518.454-1.228.833-2.17 1.16-.713.22-1.45.282-2.245.2-.735-.075-1.436-.192-2.08-.348-.404-.093-.857-.226-1.35-.395l-.123 4.637c.617.12 1.154.22 1.612.29l1.87.273c.61.09 1.086.13 1.417.13l.417.007c2.38 0 4.286-.595 5.665-1.77 1.497-1.27 2.773-3.36 3.794-6.21l12.417-34.942h-5.584l-6.182 19.26-.71-2.008c-.627-1.767-1.17-3.32-1.63-4.646zM179.644 66.16c1.213 1.302 2.69 2.32 4.393 3.034 1.71.714 3.68 1.076 5.853 1.076 2.204 0 4.214-.405 5.974-1.206 1.752-.8 3.27-1.92 4.506-3.328 1.24-1.416 2.215-3.156 2.897-5.17.69-2.03 1.04-4.305 1.04-6.757 0-2.375-.33-4.535-.983-6.424-.65-1.87-1.585-3.487-2.78-4.803-1.19-1.312-2.662-2.33-4.376-3.02-1.73-.7-3.73-1.054-5.947-1.054-2.207 0-4.21.397-5.944 1.18-1.736.78-3.244 1.896-4.475 3.322-1.238 1.43-2.214 3.18-2.9 5.2-.69 2.036-1.038 4.328-1.038 6.812 0 2.34.33 4.48.98 6.368.643 1.868 1.587 3.47 2.802 4.768zm6.02-17.61c.14-1.453.374-2.554.72-3.362.382-.897.86-1.497 1.47-1.837 1.158-.65 3.005-.646 4.23.095.65.397 1.188 1.107 1.592 2.114.377.93.644 2.204.796 3.79.148 1.544.224 3.566.224 6.006 0 2.19-.075 3.98-.227 5.328-.15 1.383-.39 2.48-.71 3.26-.358.87-.858 1.484-1.484 1.822-.584.313-1.273.472-2.056.472-.793 0-1.516-.192-2.14-.573-.65-.394-1.18-1.107-1.57-2.12-.353-.932-.612-2.147-.786-3.718-.17-1.5-.253-3.467-.253-5.852 0-2.22.064-4.046.193-5.424zM226.903 64.326c-.596.094-1.19.177-1.787.248-.628.08-1.118.117-1.47.117-2.767-.037-4.94-1.02-6.47-2.917-1.5-1.85-2.276-4.62-2.313-8.232 0-1.713.047-3.228.14-4.504.097-1.332.315-2.476.648-3.397.36-.998.9-1.763 1.607-2.273 1.208-.87 2.857-.964 5.632-.455 1.118.205 2.188.43 3.213.672.797.187 1.738.416 2.82.683l-.125-4.24-.177-.04c-1.87-.435-3.564-.747-5.036-.928-1.466-.183-2.764-.272-3.86-.272-2.166 0-4.174.424-5.966 1.258-1.8.84-3.362 2.014-4.648 3.494-1.3 1.488-2.32 3.296-3.04 5.37-.726 2.09-1.094 4.39-1.094 6.836 0 2.162.303 4.155.9 5.927.595 1.766 1.45 3.314 2.546 4.6 1.088 1.274 2.413 2.27 3.944 2.96 1.54.69 3.27 1.04 5.15 1.04 1.342 0 2.9-.172 4.637-.51 1.772-.35 4.047-.93 6.76-1.728l.16-.044-.66-3.905c-.58.094-1.083.175-1.51.24z"/><path fill="#FC9C2B" stroke="#FFF" stroke-miterlimit="10" d="M12.678 23.237L.612 26.47l12.825 47.86 29.894-8.01-3.28-12.245L24.19 66.2zM151.5 23.176l-12.066 3.233 12.822 47.86 29.894-8.01-3.28-12.245-15.857 12.127z"/><path fill-rule="evenodd" clip-rule="evenodd" fill="#FFF" d="M186.06 28.274c.025 2.255-1.775 4.104-4.03 4.13-2.252.03-4.102-1.774-4.133-4.03-.025-2.25 1.777-4.1 4.03-4.127 2.255-.03 4.105 1.774 4.133 4.027zM220.198 27.84c.03 2.257-1.77 4.104-4.026 4.134-2.25.027-4.102-1.773-4.13-4.03-.03-2.25 1.774-4.1 4.028-4.128 2.253-.03 4.105 1.772 4.128 4.024z"/></svg>