<?xml version="1.0" encoding="UTF-8" standalone="no"?>
<!-- Generator: Adobe Illustrator 20.0.0, SVG Export Plug-In . SVG Version: 6.00 Build 0)  -->
<svg id="Calque_1" style="enable-background:new 0 0 380 170" xmlns="http://www.w3.org/2000/svg" xml:space="preserve" viewBox="0 0 380 170" version="1.1" y="0px" x="0px" xmlns:xlink="http://www.w3.org/1999/xlink">
<style type="text/css">
	.st0{fill:#E20D18;}
	.st1{fill:#55267D;}
</style>
<path class="st0" d="m170.6 72.1c-2.6 0-4.4 2.1-4.4 4.4 0 0.7 0.1 1.1 0.3 1.6 1.1 2.6 1.7 5.6 1.7 8.5 0 12.7-9.5 21.4-21.8 21.4s-21.8-8.8-21.8-21.4c0-12.7 9.5-21.7 21.8-21.7 2.2 0 3.6 0.5 4.7 0.8 0.8 0.2 1.2 0.4 2 0.4 2.6 0 4.1-2.3 4.1-4.6 0-4.1-5.1-5.5-10.8-5.5-17.4 0-30.8 13-30.8 30.6s13.4 30.2 30.8 30.2c17.3 0 30.8-12.7 30.8-30.2 0-5.1-1.1-14.5-6.6-14.5"/>
<path class="st1" d="m89.3 69.5c-13.4 0-23 9.3-23 23.2s10.5 24.1 24.6 24.1c9.9 0 15.3-4.8 17.5-6.7 0.9-0.7 1.2-1.6 1.2-2.6 0-2.1-2-3.8-3.6-3.8-1.2 0-2 0.8-3.2 1.8-2.1 1.8-4.9 4.2-11.7 4.2-9.9 0-16.9-7.3-16.9-17s5.9-16.1 15.2-16.1c8.7 0 13.1 4.6 13.3 11.5h-22c-2.4 0-3.5 1.8-3.5 3.6 0 1.9 1.1 3.7 3.5 3.7h25.5c2.5 0 4.2-0.9 4.2-3.5v-3.1c0-11.3-8.8-19.3-21.1-19.3"/>
<path class="st1" d="m41.6 69.5c-2.4 0-4.7 0.3-7.3 1.1-2.1 0.7-2.6 2.8-2 4.5 0.5 1.5 1.7 2.7 3.7 2.3 1.4-0.4 3.1-0.8 5.4-0.8 6.6 0 11.7 6.9 11.7 16.6 0 10.8-6.4 16.5-13.3 16.5-3.6 0-7.7-2-10.8-5.1v-46c0-1.8-1.1-3.6-3.5-3.6h-6.8c-2.4 0-3.5 1.8-3.5 3.6 0 1.9 1.1 3.7 3.5 3.7h2.6v50.6c0 2.3 2 3.4 3.8 3.4 1.7 0 3.5-1 3.9-2.8 3.5 2.2 7.6 3.4 11.3 3.4 10.9 0 20.6-9.4 20.6-23.6 0.1-17.1-9.5-23.8-19.3-23.8"/>
<path class="st1" d="m269.8 108.7h-2.6v-21.1c0-12.6-5.7-18-17.6-18-9.6 0-17.4 3.9-17.4 12.2 0 2.3 2 3.4 3.7 3.4 1.9 0 3.9-1.1 3.9-3.4 0-4.2 4.5-5.1 9.8-5.1 6 0 10 2.2 10 11v16.3c-2.4 2.1-8.4 5.8-14.4 5.8-4.1 0-7.8-1.3-7.8-5.5 0-6.9 7.9-7.3 16.4-8.3 2.3-0.3 3.1-1.3 2.9-3.9-0.2-2-1.4-2.9-3.7-2.7-14.7 0.9-23.7 5.6-23.7 15.1 0 8.5 7.1 12.4 15.3 12.4 5.7 0 11.7-2.8 15-5.1v0.6c0 1.9 1.1 3.7 3.5 3.7h6.7c2.4 0 3.5-1.8 3.5-3.7s-1.1-3.7-3.5-3.7"/>
<path class="st1" d="m361.8 108.7h-2.8l-10.2-17.7 13-17.1c0.5-0.7 0.8-1.5 0.8-2.2 0-2-1.6-3.7-3.7-3.7-1.2 0-2.4 0.7-3 1.5l-11.1 15c-0.8 0.9-1.4 1.1-3.2 1.1h-6.9v-27c0-1.8-1.1-3.6-3.4-3.6h-6.9c-2.4 0-3.4 1.8-3.4 3.6 0 1.9 1 3.7 3.4 3.7h2.7v50.6c0 2.3 2 3.4 3.8 3.4 1.9 0 3.8-1.1 3.8-3.4v-19.9h7l11.1 19.5c1.2 2.1 2.2 3.6 4.6 3.6h4.5c2.4 0 3.5-1.8 3.5-3.7-0.1-1.9-1.2-3.7-3.6-3.7"/>
<path class="st1" d="m318.1 108.7h-2.7v-24c0-10.5-7.6-15.2-15.5-15.2-4.7 0-9.9 2-13.1 5.1v-0.3c0-1.8-1.1-3.7-3.5-3.7h-6.1c-2.4 0-3.5 1.9-3.5 3.7 0 1.9 1.1 3.7 3.5 3.7h2.6v34.8c0 2.3 2 3.4 3.8 3.4 1.9 0 3.8-1.1 3.8-3.4v-30.3c2.2-3.4 7.2-5.8 11.5-5.8 4.6 0 9 2.5 9 8.6v27c0 1.9 1.1 3.7 3.5 3.7h6.8c2.4 0 3.5-1.8 3.5-3.7-0.1-1.8-1.3-3.6-3.6-3.6"/>
<path class="st1" d="m204.6 69.5c-2.4 0-4.7 0.3-7.3 1.1-2.1 0.7-2.5 2.8-2 4.5 0.5 1.5 1.7 2.7 3.7 2.3 1.4-0.4 3.1-0.8 5.4-0.8 6.6 0 11.7 6.9 11.7 16.6 0 10.8-6.4 16.5-13.3 16.5-3.6 0-7.7-2-10.8-5.1v-46c0-1.8-1.1-3.6-3.5-3.6h-6.8c-2.4 0-3.5 1.8-3.5 3.6 0 1.9 1.1 3.7 3.5 3.7h2.6v50.6c0 2.3 2 3.4 3.8 3.4 1.7 0 3.5-1 3.9-2.8 3.5 2.2 7.6 3.4 11.3 3.4 10.9 0 20.6-9.4 20.6-23.6 0-17.1-9.6-23.8-19.3-23.8"/>
</svg>
