<?xml version="1.0" encoding="utf-8"?>
<!-- Generator: Adobe Illustrator 19.1.0, SVG Export Plug-In . SVG Version: 6.00 Build 0)  -->
<svg version="1.1" xmlns="http://www.w3.org/2000/svg" xmlns:xlink="http://www.w3.org/1999/xlink" x="0px" y="0px"
	 viewBox="0 0 3591 707.8" style="enable-background:new 0 0 3591 707.8;" xml:space="preserve">
<style type="text/css">
	.st0{fill:#004B7F;}
	.st1{fill:#78CAFE;}
	.st2{fill:#2C7EB2;}
	.st3{fill:#5FB1E5;}
	.st4{fill:#1F71A5;}
	.st5{fill:#414042;}
</style>
<g id="Layer_2">
</g>
<g id="Layer_3">
</g>
<g id="Layer_4">
</g>
<g id="Layer_5">
</g>
<g id="Layer_6">
</g>
<g id="Layer_7">
	<g id="Layer_1">
		<g>
			<path class="st0" d="M229.2,31H6.4V515h70.5V353.9h152.3c104.4,0,157-80.2,157-161.1S333.6,31,229.2,31z M229.2,284.7H76.9V101.5
				h152.3c58.8,0,87.8,45.6,87.8,92C317,239.1,288,284.7,229.2,284.7z"/>
			<path class="st0" d="M562.4,31L364.3,515h77.8l37.8-95.4l111.2,0l111.2,0L740,515h77.8L619.8,31H562.4z M505.9,353.9l85.2-215.2
				l85.2,215.2H505.9z"/>
			<polygon class="st0" points="951.3,282 801.3,31 723.4,31 916,353.9 916,353.9 916,515 986.5,515 986.5,353.9 1179.1,31 
				1101.3,31 			"/>
			<polygon class="st0" points="1593.2,31 1179.1,31 1179.1,101.5 1350.9,101.5 1350.9,515 1421.4,515 1421.4,101.5 1593.2,101.5 
							"/>
			<path class="st0" d="M1821.1,22c-138.6,0-251,112.4-251,251c0,138.6,112.4,251,251,251s251-112.4,251-251
				C2072.1,134.4,1959.7,22,1821.1,22z M1821.1,452.8c-99.3,0-179.8-80.5-179.8-179.8c0-99.3,80.5-179.8,179.8-179.8
				s179.8,80.5,179.8,179.8C2000.9,372.3,1920.4,452.8,1821.1,452.8z"/>
			<path class="st0" d="M2339.1,22c-138.6,0-251,112.4-251,251c0,138.6,112.4,251,251,251c138.6,0,251-112.4,251-251
				C2590.1,134.4,2477.7,22,2339.1,22z M2339.1,452.8c-99.3,0-179.8-80.5-179.8-179.8c0-99.3,80.5-179.8,179.8-179.8
				s179.8,80.5,179.8,179.8C2518.9,372.3,2438.4,452.8,2339.1,452.8z"/>
		</g>
		<path class="st1" d="M3000.5,81.1L2867.2,1.5c-6.9-4.1-15.7,0.9-15.7,8.9v687c0,8.1,8.8,13,15.7,8.9l133.3-79.6V81.1z"/>
		<path class="st0" d="M3000.5,537.7l292.6-174.9c6.7-4,6.7-13.8,0-17.8l-292.6-174.9V537.7z"/>
		<polygon class="st2" points="3000.5,170.1 2851.5,81.1 2851.5,626.7 3000.5,537.7 		"/>
		<path class="st3" d="M2851.5,81.1L2718.4,1.5c-6.9-4.1-15.7,0.9-15.7,8.9v687c0,8.1,8.8,13,15.7,8.9l133.2-79.6V81.1z"/>
		<path class="st4" d="M3591,345L3016.2,1.5c-6.9-4.1-15.7,0.9-15.7,8.9v687c0,8.1,8.8,13,15.7,8.9L3591,362.8
			C3597.7,358.8,3597.7,349,3591,345z M3293.1,362.8l-292.6,174.9V170.1L3293.1,345C3299.9,349,3299.9,358.8,3293.1,362.8z"/>
		<g>
			<path d="M3235.2,645.6v4.2h-11.9v31.1h-4.8v-31.1h-11.9v-4.2H3235.2z"/>
			<path d="M3239.5,645.6h6.8l10.1,29.8l10.1-29.8h6.8v35.3h-4.6v-20.8c0-0.7,0-1.9,0-3.6c0-1.7,0-3.4,0-5.4l-10.1,29.7h-4.7
				l-10.2-29.7v1.1c0,0.9,0,2.2,0.1,3.9c0,1.8,0.1,3.1,0.1,3.9v20.8h-4.6V645.6z"/>
		</g>
	</g>
	<g>
		<path class="st5" d="M81.7,680.9L60,600.8h-0.3l-22,80.1H24.4L0,585.5h13l18.7,79.3h0.3l21.4-79.3H67l21.1,79.3h0.3l19.4-79.3
			h12.7l-25.5,95.3H81.7z"/>
		<path class="st5" d="M219,585.5v10.7h-53.1v30.3h49.5v10.7h-49.5v33h53.5v10.7h-66.2v-95.3H219z"/>
		<path class="st5" d="M330.9,585.5l30,80.1l30.2-80.1h17.4v95.3h-12v-79.3h-0.3l-29.8,79.3h-10.8l-29.8-79.3h-0.3v79.3h-12v-95.3
			H330.9z"/>
		<path class="st5" d="M490.2,585.5l37.3,95.3h-14L503,652.2h-40.3L452,680.9h-13l37.1-95.3H490.2z M499,641.5L483.1,597h-0.3
			l-16.2,44.5H499z"/>
		<path class="st5" d="M570.2,585.5v47.5l48.3-47.5h16.4L594.7,624l41.8,56.9h-16L586,632.7l-15.9,14.8v33.4h-12.7v-95.3H570.2z"/>
		<path class="st5" d="M733.1,585.5v10.7h-53.1v30.3h49.5v10.7h-49.5v33h53.5v10.7h-66.2v-95.3H733.1z"/>
		<path class="st5" d="M866.7,680.9H854v-39l-36.9-56.4h15.1l28.6,45.4l27.9-45.4h14.4l-36.4,56.4V680.9z"/>
		<path class="st5" d="M932.1,614.4c1.9-6,4.8-11.3,8.6-16c3.8-4.6,8.6-8.3,14.3-11.1c5.7-2.8,12.3-4.1,19.9-4.1
			c7.6,0,14.2,1.4,19.9,4.1c5.7,2.8,10.5,6.5,14.3,11.1c3.8,4.6,6.7,9.9,8.6,16c1.9,6,2.9,12.3,2.9,18.8c0,6.5-1,12.8-2.9,18.8
			c-1.9,6-4.8,11.3-8.6,16c-3.8,4.6-8.6,8.3-14.3,11c-5.7,2.7-12.3,4.1-19.9,4.1c-7.6,0-14.2-1.4-19.9-4.1
			c-5.7-2.7-10.5-6.4-14.3-11c-3.8-4.6-6.7-9.9-8.6-16c-1.9-6-2.9-12.3-2.9-18.8C929.2,626.7,930.2,620.5,932.1,614.4z M943.8,647.4
			c1.2,4.7,3.2,8.9,5.9,12.6c2.7,3.7,6.1,6.7,10.3,9c4.2,2.3,9.2,3.4,15,3.4c5.8,0,10.8-1.1,15-3.4c4.2-2.3,7.6-5.3,10.3-9
			c2.7-3.7,4.6-7.9,5.9-12.6c1.2-4.7,1.9-9.4,1.9-14.2s-0.6-9.5-1.9-14.2c-1.2-4.7-3.2-8.9-5.9-12.6c-2.7-3.7-6.1-6.7-10.3-9
			c-4.2-2.3-9.2-3.4-15-3.4c-5.8,0-10.8,1.1-15,3.4c-4.2,2.3-7.6,5.3-10.3,9c-2.7,3.7-4.6,7.9-5.9,12.6c-1.2,4.7-1.9,9.4-1.9,14.2
			S942.5,642.8,943.8,647.4z"/>
		<path class="st5" d="M1123.1,673.9c-6.5,6.1-15.8,9.1-27.8,9.1c-12.3,0-21.9-2.9-28.8-8.7c-6.9-5.8-10.3-15.1-10.3-27.8v-60.9
			h12.7v60.9c0,8.5,2.3,15,6.8,19.4c4.5,4.4,11.1,6.6,19.6,6.6c8.1,0,14.3-2.2,18.5-6.6c4.2-4.4,6.3-10.9,6.3-19.4v-60.9h12.7v60.9
			C1132.8,658.6,1129.6,667.8,1123.1,673.9z"/>
		<path class="st5" d="M1218.7,585.5c9.1,0,16.2,2.2,21.3,6.7c5.1,4.5,7.7,10.5,7.7,18.3c0,5.8-1.3,10.9-3.9,15.2
			c-2.6,4.4-6.8,7.3-12.6,8.9v0.3c2.8,0.5,5,1.4,6.7,2.7c1.7,1.2,3.1,2.7,4.1,4.5c1,1.7,1.8,3.7,2.3,5.8c0.5,2.1,0.9,4.4,1.1,6.7
			c0.2,2.3,0.3,4.7,0.4,7.1c0.1,2.4,0.3,4.8,0.7,7.1c0.4,2.3,0.9,4.5,1.5,6.6c0.7,2.1,1.7,3.9,3,5.5h-14.2c-0.9-1-1.5-2.3-1.8-4
			c-0.3-1.7-0.5-3.6-0.6-5.7c-0.1-2.1-0.2-4.3-0.3-6.7c-0.1-2.4-0.4-4.8-0.8-7.1c-0.4-2.3-0.8-4.5-1.3-6.6c-0.5-2.1-1.4-3.9-2.5-5.5
			c-1.2-1.6-2.7-2.8-4.5-3.7s-4.4-1.4-7.5-1.4h-31v40.7h-12.7v-95.3H1218.7z M1221.4,628.8c2.7-0.4,5-1.3,7-2.6c2-1.3,3.6-3,4.8-5.2
			c1.2-2.2,1.8-5,1.8-8.5c0-4.8-1.3-8.7-4-11.8c-2.7-3-7-4.5-13-4.5h-31.5v33.2h26.4C1215.9,629.5,1218.7,629.3,1221.4,628.8z"/>
		<path class="st5" d="M1361.4,585.5l30,80.1l30.2-80.1h17.4v95.3h-12v-79.3h-0.3l-29.8,79.3h-10.8l-29.8-79.3h-0.3v79.3h-12v-95.3
			H1361.4z"/>
		<path class="st5" d="M1478.3,614.4c1.9-6,4.8-11.3,8.6-16c3.8-4.6,8.6-8.3,14.3-11.1c5.7-2.8,12.3-4.1,19.9-4.1s14.2,1.4,19.9,4.1
			c5.7,2.8,10.5,6.5,14.3,11.1c3.8,4.6,6.7,9.9,8.6,16c1.9,6,2.9,12.3,2.9,18.8c0,6.5-1,12.8-2.9,18.8c-1.9,6-4.8,11.3-8.6,16
			c-3.8,4.6-8.6,8.3-14.3,11c-5.7,2.7-12.3,4.1-19.9,4.1s-14.2-1.4-19.9-4.1c-5.7-2.7-10.5-6.4-14.3-11c-3.8-4.6-6.7-9.9-8.6-16
			c-1.9-6-2.9-12.3-2.9-18.8C1475.5,626.7,1476.4,620.5,1478.3,614.4z M1490,647.4c1.2,4.7,3.2,8.9,5.9,12.6c2.7,3.7,6.1,6.7,10.3,9
			c4.2,2.3,9.2,3.4,15,3.4c5.8,0,10.8-1.1,15-3.4c4.2-2.3,7.6-5.3,10.3-9c2.7-3.7,4.6-7.9,5.9-12.6c1.2-4.7,1.9-9.4,1.9-14.2
			s-0.6-9.5-1.9-14.2c-1.2-4.7-3.2-8.9-5.9-12.6s-6.1-6.7-10.3-9c-4.2-2.3-9.2-3.4-15-3.4c-5.8,0-10.8,1.1-15,3.4
			c-4.2,2.3-7.6,5.3-10.3,9s-4.6,7.9-5.9,12.6c-1.2,4.7-1.9,9.4-1.9,14.2S1488.8,642.8,1490,647.4z"/>
		<path class="st5" d="M1616.3,585.5l50.2,77.3h0.3v-77.3h12v95.3H1665l-49.8-76.5h-0.3v76.5h-12v-95.3H1616.3z"/>
		<path class="st5" d="M1785.9,585.5v10.7h-53.1v30.3h49.5v10.7h-49.5v33h53.5v10.7h-66.2v-95.3H1785.9z"/>
		<path class="st5" d="M1861.8,680.9h-12.7v-39l-36.9-56.4h15.1l28.6,45.4l27.9-45.4h14.4l-36.4,56.4V680.9z"/>
		<path class="st5" d="M2005,585.5l30,80.1l30.2-80.1h17.4v95.3h-12v-79.3h-0.3l-29.8,79.3h-10.8l-29.8-79.3h-0.3v79.3h-12v-95.3
			H2005z"/>
		<path class="st5" d="M2121.9,614.4c1.9-6,4.8-11.3,8.6-16c3.8-4.6,8.6-8.3,14.3-11.1c5.7-2.8,12.3-4.1,19.9-4.1
			c7.6,0,14.2,1.4,19.9,4.1c5.7,2.8,10.5,6.5,14.3,11.1c3.8,4.6,6.7,9.9,8.6,16c1.9,6,2.9,12.3,2.9,18.8c0,6.5-1,12.8-2.9,18.8
			c-1.9,6-4.8,11.3-8.6,16c-3.8,4.6-8.6,8.3-14.3,11c-5.7,2.7-12.3,4.1-19.9,4.1c-7.6,0-14.2-1.4-19.9-4.1
			c-5.7-2.7-10.5-6.4-14.3-11c-3.8-4.6-6.7-9.9-8.6-16c-1.9-6-2.9-12.3-2.9-18.8C2119.1,626.7,2120,620.5,2121.9,614.4z
			 M2133.6,647.4c1.2,4.7,3.2,8.9,5.9,12.6c2.7,3.7,6.1,6.7,10.3,9c4.2,2.3,9.2,3.4,15,3.4c5.8,0,10.8-1.1,15-3.4
			c4.2-2.3,7.6-5.3,10.3-9c2.7-3.7,4.6-7.9,5.9-12.6c1.2-4.7,1.9-9.4,1.9-14.2s-0.6-9.5-1.9-14.2c-1.2-4.7-3.2-8.9-5.9-12.6
			c-2.7-3.7-6.1-6.7-10.3-9c-4.2-2.3-9.2-3.4-15-3.4c-5.8,0-10.8,1.1-15,3.4c-4.2,2.3-7.6,5.3-10.3,9c-2.7,3.7-4.6,7.9-5.9,12.6
			c-1.2,4.7-1.9,9.4-1.9,14.2S2132.4,642.8,2133.6,647.4z"/>
		<path class="st5" d="M2281.2,585.5c2,0,4.3,0,6.6,0.1c2.4,0,4.7,0.2,7,0.4c2.3,0.2,4.5,0.6,6.5,1c2,0.4,3.7,1.1,5.1,2
			c3.1,1.9,5.8,4.5,7.9,7.7s3.3,7.3,3.3,12.2c0,5.1-1.2,9.5-3.7,13.2c-2.5,3.7-5.9,6.4-10.5,8.2v0.3c5.9,1.2,10.4,3.9,13.5,8
			c3.1,4.1,4.7,9.1,4.7,15c0,3.5-0.6,6.9-1.9,10.1c-1.2,3.3-3.1,6.2-5.5,8.7c-2.5,2.5-5.5,4.6-9.1,6.1s-7.8,2.3-12.5,2.3h-46.1
			v-95.3H2281.2z M2284.7,626.5c7.2,0,12.4-1.3,15.6-3.8c3.2-2.5,4.7-6.3,4.7-11.4c0-3.4-0.5-6.1-1.6-8c-1.1-2-2.5-3.5-4.4-4.5
			c-1.9-1.1-4-1.8-6.5-2.1c-2.4-0.3-5-0.5-7.8-0.5h-25.4v30.3H2284.7z M2291.1,670.2c5.6,0,10-1.5,13.2-4.5c3.2-3,4.7-7.2,4.7-12.5
			c0-3.1-0.6-5.7-1.7-7.7c-1.2-2-2.7-3.7-4.6-4.9c-1.9-1.2-4.1-2-6.6-2.5c-2.5-0.5-5.1-0.7-7.7-0.7h-29v33H2291.1z"/>
		<path class="st5" d="M2372,585.5v95.3h-12.7v-95.3H2372z"/>
		<path class="st5" d="M2426.7,585.5v84.7h50.5v10.7H2414v-95.3H2426.7z"/>
		<path class="st5" d="M2574.8,585.5v10.7h-53.1v30.3h49.5v10.7h-49.5v33h53.5v10.7H2509v-95.3H2574.8z"/>
	</g>
</g>
</svg>
