<?xml version="1.0" encoding="utf-8"?>
<!-- Generator: Adobe Illustrator 18.1.1, SVG Export Plug-In . SVG Version: 6.00 Build 0)  -->
<svg version="1.1" id="Layer_1" xmlns="http://www.w3.org/2000/svg" xmlns:xlink="http://www.w3.org/1999/xlink" x="0px" y="0px"
	 viewBox="7 885 612 177.6" enable-background="new 7 885 612 177.6" xml:space="preserve">
<g>
	<path fill="#6ABFE9" d="M465.7,920.5c-4.5,0-7.9,1.3-9.8,4c-4.5,7,4.3,20.6,19.5,30.7c9.4,6.1,19.1,9.3,26.3,9.3
		c3.5,0,6.5-0.7,8.3-2.4c-1.5,1.1-3.1,1.7-4.8,1.7h-0.1c-8.3,0-15.2-14.7-15.3-33c0-0.7,0-1.5,0-2.2
		C481.2,923.2,472.3,920.5,465.7,920.5"/>
	<path fill="#6ABFE9" d="M502.7,897.8c-7.1,2.1-12.5,14.9-12.7,30.8c0.6,0.4,1.2,0.7,2,1.2c15.4,9.9,24.1,23.6,19.5,30.7
		c-0.4,0.6-0.9,1.1-1.3,1.6c5.4-4,9.3-14.4,9.9-27c-2.7-2-5.4-4.3-7.9-7c-10.9-11.4-15.4-24.6-10.3-29.4
		C502.1,898.2,502.4,898,502.7,897.8"/>
	<path fill="#40ACE2" d="M490,928.7c0,0.7,0,1.5,0,2.2c0.2,18.2,7.1,33,15.3,33h0.1c1.7,0,3.3-0.6,4.8-1.7c0.5-0.5,1-1,1.3-1.6
		c4.5-7-4.3-20.6-19.5-30.7C491.2,929.3,490.6,929,490,928.7"/>
	<path fill="#AECE6C" d="M507.1,896.7c-1.7,0-3.2,0.4-4.4,1.1c0.6-0.2,1.3-0.2,2-0.2c0,0,0,0,0.1,0c8.3,0,15.2,14.7,15.3,33
		c0,1.5,0,3.1-0.1,4.5c5.7,4.2,11.4,6.5,15.8,6.5c0.2,0,0.5,0,0.7,0c-0.1,0-0.2,0-0.2,0c-7.1-1-11.1-14.3-9-29.8
		c0.2-1.5,0.5-2.9,0.7-4.4C520.5,900.5,512.7,896.7,507.1,896.7"/>
	<path fill="#85C069" d="M504.8,897.5C504.8,897.5,504.6,897.5,504.8,897.5c-0.7,0-1.3,0.1-2.1,0.2c-0.4,0.2-0.6,0.5-1,0.7
		c-5.1,4.9-0.6,18.1,10.3,29.4c2.6,2.7,5.3,5,7.9,7c0.1-1.5,0.1-2.9,0.1-4.5C519.9,912.2,513.1,897.5,504.8,897.5"/>
	<path fill="#AECE6C" d="M542.8,885c-6.1,0-12.3,9.4-15,22.1c1,1,2.1,2,3.1,2.9c10.9,11.4,15.4,24.6,10.3,29.4
		c-1.2,1.1-2.8,1.7-4.6,1.8c0.1,0,0.4,0,0.5,0c6.8,0,13.8-11.5,15.8-26.5c2.1-15.5-2-29-9-29.8C543.2,885,543,885,542.8,885"/>
	<path fill="#97C33E" d="M527.7,907.2c-0.2,1.5-0.5,2.8-0.7,4.4c-2.1,15.5,2,29,9,29.8c0.1,0,0.2,0,0.2,0c1.8-0.1,3.4-0.7,4.6-1.8
		c5.1-4.9,0.6-18.1-10.3-29.4C529.8,909,528.7,908.2,527.7,907.2"/>
	<polygon fill="#95C11F" points="7,989 25.3,989 35.5,1027.6 47.6,988.8 63.1,988.8 75.2,1027.8 85.6,989 103.5,989 83.7,1053.2 
		67.5,1053.2 55.3,1014 42.8,1053.2 26.5,1053.2 	"/>
	<path fill="#95C11F" d="M151.7,1021.2v-0.2c0-9.4-6.7-17.6-16.7-17.6c-10.4,0-16.5,7.9-16.5,17.3v0.2c0,9.4,6.7,17.6,16.7,17.6
		C145.4,1038.4,151.7,1030.6,151.7,1021.2 M100.6,1021.2v-0.2c0-18.3,14.8-33.1,34.6-33.1c19.7,0,34.3,14.7,34.3,32.9v0.2
		c0,18.3-14.8,33.1-34.6,33.1S100.6,1039.4,100.6,1021.2"/>
	<path fill="#95C11F" d="M175.6,989h18.1v12.8c3.7-8.8,9.7-14.5,20.3-14.1v18.9h-1c-12,0-19.3,7.2-19.3,22.5v23.6h-18.1V989
		L175.6,989z"/>
	<rect x="220.1" y="965.8" fill="#95C11F" width="18.1" height="86.7"/>
	<path fill="#95C11F" d="M293.3,1021v-0.2c0-10.6-7-17.6-15.4-17.6s-15.5,6.8-15.5,17.6v0.2c0,10.6,7.1,17.6,15.5,17.6
		C286.3,1038.4,293.3,1031.6,293.3,1021 M244.3,1021v-0.2c0-21.3,13.9-32.9,29-32.9c9.7,0,15.5,4.4,19.8,9.5v-31.4h18.1v86.7H293
		v-9.2c-4.4,6-10.5,10.4-19.8,10.4C258.3,1053.8,244.3,1042.2,244.3,1021"/>
	<path fill="#36A9E1" d="M319,989h18.1v12.8c3.7-8.8,9.7-14.5,20.3-14.1v18.9h-1c-12,0-19.3,7.2-19.3,22.5v23.6H319V989L319,989z"/>
	<path fill="#36A9E1" d="M403.2,1014.7c-1.1-8.1-5.9-13.6-13.4-13.6s-12.3,5.4-13.8,13.6H403.2z M358.3,1020v-0.2
		c0-18.2,13-33.1,31.5-33.1c21.3,0,31,16.5,31,34.6c0,1.5-0.1,3.1-0.2,4.8h-44.4c1.8,8.2,7.5,12.5,15.5,12.5c6.1,0,10.5-2,15.4-6.5
		l10.4,9.2c-6,7.3-14.5,11.9-26,11.9C372.4,1052.8,358.3,1039.4,358.3,1020"/>
	<path fill="#36A9E1" d="M426.8,989h18.1v9c4.2-5.4,9.7-10.3,18.8-10.3c8.3,0,14.7,3.7,18,10.1c5.6-6.5,12.2-10.1,20.9-10.1
		c13.4,0,21.5,8.1,21.5,23.5v41.4H506V1017c0-8.6-3.8-13-10.6-13c-6.7,0-10.9,4.4-10.9,13v35.6h-18.1V1017c0-8.6-3.8-13-10.6-13
		c-6.7,0-10.9,4.4-10.9,13v35.6h-18.1V989z"/>
	<rect x="530.7" y="989" fill="#36A9E1" width="18.1" height="63.7"/>
	<path fill="#36A9E1" d="M561.8,1034.6v-30.2h-7.6v-15.4h7.6v-16.2h18.1v16.2h14.9v15.4h-14.9v27.2c0,4.2,1.8,6.2,5.9,6.2
		c3.3,0,6.4-0.9,8.9-2.2v14.5c-3.8,2.2-8.2,3.7-14.3,3.7C569.4,1053.8,561.8,1049.3,561.8,1034.6"/>
	<path fill="#36A9E1" d="M551.2,971.2c0-6.4-5.1-11.5-11.5-11.5s-11.5,5.1-11.5,11.5s5.1,11.5,11.5,11.5
		C546.1,982.8,551.2,977.7,551.2,971.2"/>
	<path fill="#34A3DC" d="M616.3,1037.7c-1.8-1.8-4-2.7-6.6-2.7s-4.8,0.9-6.6,2.7s-2.7,4-2.7,6.6s0.9,4.8,2.7,6.6s4,2.7,6.6,2.7
		s4.8-0.9,6.6-2.7s2.7-4,2.7-6.6S618.1,1039.4,616.3,1037.7 M615.5,1049.9c-1.6,1.6-3.4,2.3-5.6,2.3c-2.2,0-4.2-0.7-5.6-2.3
		c-1.6-1.6-2.3-3.4-2.3-5.7c0-2.2,0.7-4.2,2.3-5.6c1.6-1.6,3.4-2.3,5.6-2.3s4.2,0.7,5.6,2.3c1.6,1.6,2.3,3.4,2.3,5.6
		S616.9,1048.3,615.5,1049.9"/>
	<path fill="#34A3DC" d="M613.9,1049.2c0-0.1-0.1-0.2-0.1-0.5c0-0.2,0-0.5,0-0.7v-0.7c0-0.5-0.1-1.1-0.5-1.6s-1-0.9-1.7-1
		c0.6-0.1,1.1-0.2,1.5-0.5c0.6-0.5,1-1.1,1-2c0-1.3-0.5-2.2-1.6-2.6c-0.6-0.2-1.5-0.4-2.8-0.4H606v10.3h1.8v-4h1.5
		c1,0,1.6,0.1,2,0.4c0.6,0.4,1,1.1,1,2.3v0.9v0.4v0.1v0.1h1.7L613.9,1049.2z M611.2,1043.8c-0.4,0.1-1,0.2-1.7,0.2h-1.6v-3.7h1.6
		c1,0,1.7,0.1,2.2,0.4c0.5,0.2,0.7,0.7,0.7,1.5C612.2,1042.9,611.8,1043.4,611.2,1043.8"/>
	<rect x="7" y="885" fill="none" width="612" height="177.5"/>
</g>
</svg>
