<?xml version="1.0" encoding="utf-8"?>
<!-- Generator: Adobe Illustrator 19.1.0, SVG Export Plug-In . SVG Version: 6.00 Build 0)  -->
<svg version="1.1" id="Calque_1" xmlns="http://www.w3.org/2000/svg" xmlns:xlink="http://www.w3.org/1999/xlink" x="0px" y="0px"
	 viewBox="0 0 770 122" style="enable-background:new 0 0 770 122;" xml:space="preserve">
<style type="text/css">
	.st0{fill:#E5226E;}
	.st1{fill:#405A6B;}
</style>
<g>
	<g>
		<path class="st0" d="M707.3,0.9L707.3,0.9C675.4,1,648.5,28.2,648.5,61c0,33.2,26.9,60.1,60.1,60.1c32.8,0,60.1-27.3,60.1-58.8h0
			V0.9H707.3z M708.5,99.4c-21.8,0-39.5-17.7-39.5-39.5c0-21.8,17.7-39.5,39.5-39.5c21.8,0,39.5,17.7,39.5,39.5
			C747.9,81.7,730.3,99.4,708.5,99.4z"/>
	</g>
	<g>
		<path class="st1" d="M79.4,26.9c0-3.2,2.6-5.9,5.8-5.9c3.3,0,5.9,2.6,5.9,5.9v8c5.1-7.7,12.1-14.8,25.3-14.8
			c12.7,0,20.9,6.8,25.1,15.6c5.6-8.6,13.9-15.6,27.5-15.6c18,0,29.1,12.1,29.1,31.5v43.3c0,3.3-2.6,5.9-5.8,5.9
			c-3.3,0-5.9-2.6-5.9-5.9V54.3c0-15.1-7.6-23.6-20.3-23.6c-11.8,0-21.5,8.8-21.5,24.2v40c0,3.3-2.6,5.9-5.9,5.9
			c-3.2,0-5.8-2.6-5.8-5.9V54c0-14.7-7.7-23.3-20.1-23.3c-12.4,0-21.8,10.3-21.8,24.7v39.5c0,3.3-2.4,5.9-5.8,5.9
			c-3.3,0-5.9-2.6-5.9-5.9V26.9z"/>
		<path class="st1" d="M282.6,95.3v-0.3c0-2,0.8-3.5,2.4-5.3l49.5-58.1h-45.7c-2.7,0-5-2.1-5-4.8c0-2.7,2.3-5,5-5h55.9
			c3.2,0,5.6,2.1,5.6,4.7v0.3c0,2-0.7,3.5-2.4,5.3l-49.5,58.1H346c2.7,0,5,2.3,5,4.9c0,2.7-2.3,5-5,5h-57.8
			C285.2,100,282.6,97.9,282.6,95.3z"/>
		<path class="st1" d="M350.9,61.3V61c0-22.1,17.3-40.9,40.9-40.9c23.5,0,40.7,18.5,40.7,40.6V61c0,22.1-17.4,40.9-41,40.9
			C368,101.8,350.9,83.4,350.9,61.3z M420.6,61.3V61c0-16.8-12.6-30.6-29.1-30.6c-16.9,0-28.6,13.8-28.6,30.3V61
			c0,16.8,12.4,30.4,28.9,30.4C408.8,91.4,420.6,77.8,420.6,61.3z"/>
		<path class="st1" d="M440.6,26.9c0-3.2,2.6-5.9,5.7-5.9c3.4,0,5.9,2.6,5.9,5.9v8.5c5.2-8.5,13.3-15.3,26.8-15.3
			c18.9,0,30,12.7,30,31.3v43.4c0,3.3-2.6,5.9-5.8,5.9c-3.3,0-5.9-2.6-5.9-5.9V54.3c0-14.5-7.9-23.6-21.7-23.6
			c-13.5,0-23.5,9.8-23.5,24.5v39.6c0,3.3-2.4,5.9-5.8,5.9c-3.3,0-5.9-2.6-5.9-5.9V26.9z"/>
		<path class="st1" d="M519.2,26.9c0-3.2,2.6-5.9,5.8-5.9c3.3,0,5.9,2.6,5.9,5.9v68c0,3.3-2.4,5.9-5.8,5.9c-3.3,0-5.9-2.6-5.9-5.9
			V26.9z"/>
		<path class="st1" d="M45.4,61c-3.3-0.3-5-0.6-9.5-0.6c-14.7,0-22.9,6.4-22.9,16.2v0.3c0,9.8,9.1,15.6,19.7,15.6
			c14.4,0,26.2-8.8,26.2-21.2l-0.3-21C57.7,37.6,49.4,31,35.5,31c-7.9,0-14.5,1.8-20.3,4.4c-0.8,0.3-1.5,0.5-2.1,0.5
			c-2.7,0-5.2-2.3-5.2-5c0-2.4,1.7-4.2,3.2-4.8c7.7-3.3,15.6-5.3,25.6-5.3c11.1,0,19.5,2.9,25.3,8.6c5.3,5.3,8,12.9,8,22.9v42.8
			c0,3.3-2.4,5.7-5.6,5.7c-3.3,0-5.6-2.4-5.6-5.5v-7.1c-5.5,7.1-14.5,13.5-28.3,13.5c-14.5,0-29.2-8.3-29.2-24.4V77
			c0-16.5,13.6-25.4,33.4-25.3c4.3,0,6.8,0.3,11.7,1.2c3.2,0.6,4,1.9,3.6,3.1C49,58.5,48.8,61.2,45.4,61z"/>
		<path class="st1" d="M248.6,61c-3.3-0.3-5-0.6-9.5-0.6c-14.7,0-22.9,6.4-22.9,16.2v0.3c0,9.8,9.1,15.6,19.7,15.6
			c14.4,0,26.2-8.8,26.2-21.2l-0.3-21c-0.9-12.7-9.2-19.2-23.1-19.2c-7.9,0-14.5,1.8-20.3,4.4c-0.8,0.3-1.5,0.5-2.1,0.5
			c-2.7,0-5.2-2.3-5.2-5c0-2.4,1.7-4.2,3.2-4.8c7.7-3.3,15.6-5.3,25.6-5.3c11.1,0,19.5,2.9,25.3,8.6c5.3,5.3,8,12.9,8,22.9v42.8
			c0,3.3-2.4,5.7-5.6,5.7c-3.3,0-5.6-2.4-5.6-5.5v-7.1c-5.5,7.1-14.5,13.5-28.3,13.5c-14.5,0-29.2-8.3-29.2-24.4V77
			c0-16.5,13.6-25.4,33.4-25.3c4.3,0,6.8,0.3,11.7,1.2c3.1,0.6,4,1.9,3.6,3.1C252.1,58.5,252,61.2,248.6,61z"/>
		<path class="st1" d="M584.9,61c-3.3-0.3-5-0.6-9.5-0.6c-14.7,0-22.9,6.4-22.9,16.2v0.3c0,9.8,9.1,15.6,19.7,15.6
			c14.4,0,26.2-8.8,26.2-21.2l-0.3-21c-0.9-12.7-9.2-19.2-23.1-19.2c-7.9,0-14.5,1.8-20.3,4.4c-0.8,0.3-1.5,0.5-2.1,0.5
			c-2.7,0-5.1-2.3-5.1-5c0-2.4,1.7-4.2,3.2-4.8c7.7-3.3,15.6-5.3,25.6-5.3c11.1,0,19.5,2.9,25.3,8.6c5.3,5.3,8,12.9,8,22.9v42.8
			c0,3.3-2.4,5.7-5.6,5.7c-3.3,0-5.6-2.4-5.6-5.5v-7.1c-5.5,7.1-14.5,13.5-28.3,13.5c-14.5,0-29.2-8.3-29.2-24.4V77
			c0-16.5,13.6-25.4,33.4-25.3c4.3,0,6.8,0.3,11.7,1.2c3.1,0.6,4,1.9,3.6,3.1C588.5,58.5,588.3,61.2,584.9,61z"/>
	</g>
</g>
</svg>
