<?xml version="1.0" encoding="utf-8"?>
<!-- Generator: Adobe Illustrator 20.0.0, SVG Export Plug-In . SVG Version: 6.00 Build 0)  -->
<svg version="1.1" id="Calque_1" xmlns="http://www.w3.org/2000/svg" xmlns:xlink="http://www.w3.org/1999/xlink" x="0px" y="0px"
	 width="234px" height="43.7px" viewBox="0 0 234 43.7" style="enable-background:new 0 0 234 43.7;" xml:space="preserve">
<style type="text/css">
	.st0{fill:#E00069;}
	.st1{fill:#BBCE0F;}
	.st2{fill:none;}
</style>
<path class="st0" d="M213.6,15c-0.5,0.1-1,0-1.5-0.2c-1.4-0.6-2-2.2-1.4-3.6l3.2-7.1c0.6-1.4,2.2-2,3.5-1.4c1.4,0.6,2,2.2,1.4,3.5
	l-3.2,7.1C215.2,14.4,214.4,14.9,213.6,15"/>
<path class="st0" d="M221.3,18.5c-0.5,0.1-1,0-1.5-0.2c-1.4-0.6-2-2.2-1.4-3.5l3.2-7.1c0.6-1.4,2.2-2,3.5-1.4c1.4,0.6,2,2.2,1.4,3.5
	l-3.2,7.1C223,17.8,222.2,18.3,221.3,18.5"/>
<path class="st0" d="M214.2,25c-7.7-2.8-11.9-10.9-10.1-18.6c0.1-0.6,0.2-0.9,0.1-1.3c-0.1-1.3-1.2-2.2-2.5-2.1
	c-0.9,0.1-1.6,0.6-2,1.3l0,0c0,0,0,0,0,0.1c-0.1,0.2-0.2,0.4-0.2,0.7c-2.7,9.2,2.1,19,11.3,22.4c9.3,3.4,19.5-1.2,23.2-10.3
	C230.4,24.3,221.9,27.8,214.2,25"/>
<path class="st0" d="M210.3,33c-0.8-2.1-8.3-21.6-24.8-14c0,0,10.2-4,19.5,16.6l0,0c0.4,1.2,1.6,2,3,2c1.6-0.1,2.7-1.5,2.6-3.1
	C210.6,33.9,210.5,33.6,210.3,33"/>
<polygon class="st1" points="14.2,2.8 10.9,15.2 23.7,2.8 32.3,2.8 17.9,15.6 26.1,29.9 17.4,29.9 10.7,15.7 7,29.9 0,29.9 7.2,2.8 
	"/>
<path class="st1" d="M36.4,18.2c2.8,0,6.1-0.8,6.1-2.8c0-1.2-0.7-2.1-2.6-2.1c-2.5,0-4.3,1.2-5.3,4.6C34.6,18,35.6,18.2,36.4,18.2
	 M46.1,27.7c-3.4,1.9-6.6,2.7-10.2,2.7c-6,0-9.5-2.5-9.5-7.3c0-4.1,2.3-8.4,5.6-11c2.5-1.9,5.3-2.7,8.6-2.7c4.9,0,8.5,1.6,8.5,5.5
	c0,3.8-4.3,6.9-12.6,6.9c-1.7,0-3-0.3-3-0.3s-0.2,1.3-0.2,1.8c0,2.3,1.5,3.2,4.2,3.2c2.2,0,4.6-0.8,6.9-2.1L46.1,27.7z"/>
<path class="st1" d="M59.4,18.2c2.8,0,6.1-0.8,6.1-2.8c0-1.2-0.7-2.1-2.6-2.1c-2.5,0-4.3,1.2-5.3,4.6C57.5,18,58.5,18.2,59.4,18.2
	 M69,27.7c-3.4,1.9-6.6,2.7-10.1,2.7c-6,0-9.5-2.5-9.5-7.3c0-4.1,2.3-8.4,5.6-11c2.5-1.9,5.3-2.7,8.6-2.7c4.9,0,8.5,1.6,8.5,5.5
	c0,3.8-4.3,6.9-12.6,6.9c-1.7,0-3-0.3-3-0.3s-0.2,1.3-0.2,1.8c0,2.3,1.5,3.2,4.2,3.2c2.2,0,4.6-0.8,6.9-2.1L69,27.7z"/>
<path class="st1" d="M123.8,7.7c-1.4-1-3.2-1.4-5.1-1.4c-2.3,0-4.8,1-6.3,2.4c-3,2.7-4.7,8.9-4.7,12.1c0,3.6,2.2,5.2,6,5.2
	c2,0,3.9-0.6,6.2-1.9l2.3,3.6c-3.1,1.8-6.3,2.5-10.2,2.5c-7.6,0-12-3.4-12-9.5c0-4.2,2-9.3,5.1-12.7c3.7-3.9,9.1-6,14.6-6
	c3.4,0,6.5,0.9,8,2.1L123.8,7.7z"/>
<path class="st1" d="M138.1,22.5c-1.1,2-2.7,3.6-4.8,3.6c-0.3,0-0.5,0-0.7-0.1c-1.4-0.2-2.3-1.1-2.3-2.7c0-3,2.1-10.4,6.5-10.4
	c2,0,3,0.7,3,3C139.8,17.9,139.2,20.4,138.1,22.5 M137.7,9.1c-8.6,0-14.4,6.2-14.4,13.7c0,4.6,3.2,7.1,8.9,7.1
	c9.9,0,14.6-6.9,14.6-14C146.8,11.5,143.3,9.1,137.7,9.1"/>
<path class="st1" d="M162.7,22.2c-1.1,2.2-2.7,3.9-4.9,3.9c-0.1,0-0.3,0-0.4,0c-1.6-0.1-2.7-1-2.7-2.8c0-3,2.1-10.4,6.5-10.4
	c2,0,3,0.7,3,3C164.2,17.8,163.7,20.1,162.7,22.2 M162.1,9.1c-8.6,0-14.4,6.2-14.4,13.7c0,4.6,3.2,7.1,8.9,7.1
	c9.9,0,14.6-6.9,14.6-14C171.2,11.5,167.8,9.1,162.1,9.1"/>
<path class="st1" d="M178.8,24c0.1-0.2,5.7-21.2,5.7-21.2h-6.7L172.5,23c-0.4,1.4-0.7,2.9-0.7,3.6c0,2.1,1.7,3.6,5.2,3.6
	c2.8,0,5.3-1.2,5.7-1.8c-0.2,0-0.3,0.1-0.5,0.1l0.5-0.1C178.8,29,178.4,26.2,178.8,24"/>
<path class="st1" d="M85.7,24.7c-0.8,0.9-1.9,1.7-4,1.7c-1.2,0-2.6-0.3-3.1-0.7l2.5-9.8c0.4-1.5,3.9-2.1,5.4-2.1
	c1.7,0,2.1,0.9,2.1,2.5C88.6,18.5,87.5,22.5,85.7,24.7 M88.9,9.5c-2.5,0-4.8,0.2-6.5,1.1l0.3-1.2h-6.4l-8.1,30.3h0l0,0.1h6.1l0-0.1
	h0.5l2.6-9.9c1.1,0.4,2.9,0.6,4.6,0.6c3.2,0,6.2-1.2,8.5-3c3-2.4,5-7.7,5-11.3C95.6,12,93.2,9.5,88.9,9.5"/>
<rect y="2" class="st2" width="234" height="43.7"/>
</svg>
